<?xml version="1.0" encoding="UTF-8" standalone="no"?>
<!DOCTYPE svg PUBLIC "-//W3C//DTD SVG 1.1//EN" "http://www.w3.org/Graphics/SVG/1.1/DTD/svg11.dtd">
<svg width="100%" height="100%" viewBox="0 0 285 82" version="1.1" xmlns="http://www.w3.org/2000/svg" xmlns:xlink="http://www.w3.org/1999/xlink" xml:space="preserve" xmlns:serif="http://www.serif.com/" style="fill-rule:evenodd;clip-rule:evenodd;stroke-linejoin:round;stroke-miterlimit:2;">
    <g transform="matrix(0.450827,0,0,0.450827,-213.002,-139.195)">
        <path d="M539.052,467.05C539.052,466.914 538.984,466.711 538.849,466.439L537.872,466.643C537.275,465.775 536.272,465.246 534.861,465.056C534.861,464.785 534.725,464.649 534.454,464.649L533.071,464.853C532.555,463.523 531.687,462.859 530.466,462.859C529.924,462.859 529.463,462.465 529.083,461.679L525.665,460.255C525.231,460.255 524.105,459.59 522.288,458.261C521.637,458.261 521.311,458.193 521.311,458.057C521.555,457.623 521.677,457.23 521.677,456.877C521.298,455.874 520.443,451.886 519.114,444.914L519.277,444.101L518.504,434.335C518.639,433.63 518.707,432.965 518.707,432.341C518.273,425.804 517.934,422.535 517.69,422.535L517.893,421.151L517.893,419.971C517.893,418.832 517.758,417.435 517.486,415.78C517.486,415.482 517.554,415.211 517.69,414.966C517.554,413.827 517.486,412.457 517.486,410.857C517.486,408.687 517.364,407.602 517.12,407.602L517.283,406.584L517.283,405.771C517.283,405.228 517.025,404.441 516.51,403.41L516.51,403.207L516.713,403.207L516.713,403.614L517.12,403.614C517.12,403.451 517.174,403.248 517.283,403.004C516.984,399.287 516.727,397.429 516.51,397.429C516.645,396.697 516.713,396.154 516.713,395.801C516.713,393.821 516.578,391.963 516.306,390.227C516.306,390.091 516.374,390.023 516.51,390.023C516.021,385.086 515.492,375.443 514.923,361.093C515.031,360.415 515.086,359.614 515.086,358.692L514.923,355.518C514.652,355.545 514.516,355.667 514.516,355.884L514.516,357.512L514.312,358.489L514.109,358.489L513.906,356.698L514.109,355.884L513.702,354.704C513.702,354.569 513.77,354.501 513.906,354.501L513.499,347.706C513.716,347.407 513.919,346.621 514.109,345.346C514.38,345.346 514.516,344.939 514.516,344.125L514.719,344.125L514.719,349.333L515.086,349.333C515.086,348.872 515.153,348.533 515.289,348.316L515.086,347.34L515.289,345.142L515.086,344.328C515.492,343.108 515.696,341.67 515.696,340.015C515.886,339.663 516.157,338.767 516.51,337.33L517.893,335.132L517.893,334.766C517.351,335.146 516.483,336.611 515.289,339.161L515.086,339.161L515.086,338.55C515.547,336.516 516.944,334.454 519.277,332.366L519.887,332.772C519.887,331.308 524.417,329.639 533.477,327.768C533.613,327.768 533.803,327.835 534.047,327.971C537.465,327.564 540.992,327.361 544.627,327.361C547.583,327.361 552.371,328.432 558.99,330.575C563.846,332.962 566.776,334.156 567.779,334.156C570.79,335.594 573.652,337.723 576.365,340.544C579.43,344.451 580.963,347.841 580.963,350.717C581.098,350.717 581.166,350.852 581.166,351.124L580.963,351.531L581.37,353.524C580.122,359.438 578.915,362.965 577.748,364.104C576.69,367.088 575.497,369.014 574.168,369.882C572.947,371.645 571.957,372.974 571.197,373.869L571.197,374.276C572.635,375.66 573.354,377.518 573.354,379.851C573.489,379.851 573.557,379.919 573.557,380.054L573.354,380.461C574.032,382.089 574.71,384.951 575.388,389.047C576.446,392.166 577.504,396.154 578.562,401.01C580.949,409.338 583.214,418.249 585.357,427.743L585.154,428.15L585.154,429.94L583.364,432.138C583.364,432.409 581.899,432.545 578.969,432.545C578.969,432.273 578.833,432.138 578.562,432.138L578.155,432.138L576.568,432.545C575.863,431.649 574.927,431.107 573.761,430.917L572.581,431.12C572.581,430.876 571.78,430.686 570.18,430.551C570.18,430.144 569.719,429.94 568.796,429.94L567.576,430.144C567.359,429.628 566.165,428.964 563.995,428.15C563.995,426.305 563.059,424.841 561.187,423.756C560.401,422.67 558.678,415.821 556.02,403.207C554.284,397.104 552.683,390.376 551.218,383.025C551.218,381.56 550.486,380.827 549.021,380.827C547.448,380.583 545.725,379.864 543.853,378.671C543.745,378.21 543.311,377.803 542.551,377.45C542.226,377.45 542.063,377.654 542.063,378.061L542.226,380.054L542.063,381.234C542.307,381.723 542.429,382.319 542.429,383.025L542.226,383.839C542.497,384.327 542.633,384.856 542.633,385.425L542.633,388.437C542.904,390.146 543.107,392.6 543.243,395.801L543.04,397.022C543.311,397.565 543.447,397.958 543.447,398.202L543.243,399.219C543.514,402.258 543.718,405.838 543.853,409.962C543.853,410.097 543.786,410.165 543.65,410.165L543.853,411.589L543.853,414.153C543.881,419.741 544.003,422.535 544.22,422.535L544.057,424.529L544.057,431.731C544.274,438.648 544.532,442.107 544.83,442.107L544.627,443.287L546.254,452.686L546.051,453.5C547.109,457.352 547.638,460.336 547.638,462.452C546.58,464.188 545.915,465.056 545.644,465.056C545.644,465.409 545.047,465.68 543.853,465.87C543.853,466.005 543.379,466.331 542.429,466.846L541.453,466.846L539.052,467.05ZM541.453,364.267C544.708,362.775 547.095,361.323 548.614,359.913C548.641,359.641 549.971,358.244 552.602,355.722C554.609,352.304 555.613,348.438 555.613,344.125C555.613,342.28 554.948,341.019 553.619,340.341C552.968,339.419 551.503,338.957 549.225,338.957C545.481,338.957 543.284,339.486 542.633,340.544C542.633,340.951 542.104,341.616 541.046,342.538C540.639,343.732 540.435,345.861 540.435,348.926C540.435,351.314 540.368,353.375 540.232,355.111C540.232,355.247 540.3,355.315 540.435,355.315L540.232,356.291C540.232,357.376 540.368,359.302 540.639,362.069L540.435,362.069C540.869,363.534 541.209,364.267 541.453,364.267ZM625.966,464.039C620.242,463.686 616.39,463.021 614.41,462.045C612.403,461.285 609.147,458.763 604.644,454.477C602.963,453.961 600.562,452.103 597.442,448.902C592.559,442.663 589.698,436.939 588.857,431.731C587.121,423.918 586.253,417.394 586.253,412.159C586.388,410.368 586.524,406.91 586.659,401.783L586.863,401.417C586.727,401.145 586.659,400.942 586.659,400.806C587.338,388.03 587.812,381.641 588.084,381.641L587.88,380.827C589.589,361.595 591.312,349.957 593.048,345.915C594.106,343.691 595.367,341.439 596.832,339.161C598.161,337.533 598.826,336.19 598.826,335.132C598.826,334.888 598.772,334.766 598.663,334.766C599.829,331.511 601.62,328.378 604.034,325.367C606.367,323.251 608.293,322.057 609.812,321.786L609.609,320.769L609.812,320.769C611.548,320.959 612.416,321.162 612.416,321.379L613.8,321.176L614.207,321.176L617.218,321.583C617.435,321.583 617.828,321.447 618.398,321.176C619.13,321.311 619.795,321.379 620.392,321.379C621.178,321.379 621.572,321.244 621.572,320.972L621.978,321.176L622.385,321.176C622.955,321.176 623.484,321.04 623.972,320.769L623.972,320.972C624.244,320.837 624.447,320.769 624.583,320.769L626.373,320.972C626.807,320.701 627.146,320.565 627.39,320.565C630.184,321.244 632.246,321.976 633.575,322.763C636.017,323.766 639.34,326.235 643.544,330.168C648.074,334.807 650.339,338.469 650.339,341.155C650.638,342.619 651.099,343.61 651.723,344.125C653.459,354.27 654.327,362.856 654.327,369.882C654.49,370.262 654.625,370.451 654.734,370.451L654.531,370.858L654.531,371.265C654.531,371.835 654.653,372.364 654.897,372.852L654.734,375.253L654.897,378.061L654.734,378.061L654.897,378.467L654.897,379.444L654.734,380.827L654.897,380.827L654.734,381.234L654.897,383.025C654.897,383.296 654.842,383.432 654.734,383.432L654.897,384.652L654.734,395.232L654.897,396.208C654.788,396.724 654.734,397.551 654.734,398.69C654.734,399.993 654.788,400.901 654.897,401.417C654.788,402.095 654.734,402.759 654.734,403.41L654.734,405.201C654.327,406.367 654.124,407.032 654.124,407.195L654.124,409.962C654.124,410.531 654.056,411.074 653.92,411.589L654.327,414.356C654.056,414.79 653.92,415.197 653.92,415.577L653.92,417.978C653.92,420.121 653.527,423.172 652.74,427.133C652.74,427.268 652.794,427.336 652.903,427.336C652.659,429.317 652.333,430.917 651.926,432.138C651.926,432.789 651.655,433.521 651.113,434.335L651.316,434.742C650.801,435.61 650.475,437.061 650.339,439.096C649.797,442.351 648.264,446.949 645.741,452.89C642.812,457.257 640.289,459.78 638.173,460.458C634.402,462.845 630.333,464.039 625.966,464.039ZM620.188,449.675C621.761,448.237 623.226,445.118 624.583,440.316L628.163,428.15C629.357,418.954 629.954,409.433 629.954,399.586L629.954,386.036C629.954,385.548 629.899,384.951 629.791,384.245C629.899,383.974 629.954,383.771 629.954,383.635L629.791,381.031L629.954,380.054C629.791,378.264 629.669,377.192 629.587,376.84L629.791,375.66C629.655,371.455 629.452,368.661 629.181,367.278C629.181,367.006 629.248,366.871 629.384,366.871C629.248,366.138 629.181,365.609 629.181,365.284C629.181,360.645 628.652,353.999 627.594,345.346C627.187,344.369 626.644,341.833 625.966,337.737C625.261,336.543 624.8,335.946 624.583,335.946C622.223,338.74 620.961,340.734 620.798,341.928C619.062,344.206 617.597,347.868 616.404,352.914L615.224,358.692C614.573,359.831 614.098,361.567 613.8,363.9C613.935,364.768 614.003,365.691 614.003,366.667C613.705,370.357 613.379,372.825 613.027,374.073C613.027,374.209 613.094,374.276 613.23,374.276L613.027,375.253L613.027,375.66C613.027,376.419 613.094,376.881 613.23,377.043C612.796,382.659 612.389,386.321 612.009,388.03L612.213,388.437L612.213,391.61C612.213,393.536 612.145,395.734 612.009,398.202C612.145,398.718 612.213,399.247 612.213,399.789L611.806,400.603C611.942,402.42 612.009,403.682 612.009,404.387C612.009,404.685 611.942,405.418 611.806,406.584C611.942,406.828 612.009,407.1 612.009,407.398C611.602,408.456 611.399,409.121 611.399,409.392C611.535,410.26 611.602,411.128 611.602,411.996C611.602,412.105 611.535,412.159 611.399,412.159L611.602,412.566C611.602,412.864 611.535,413.597 611.399,414.763L611.602,416.187C611.467,417.109 611.399,417.896 611.399,418.547C611.67,419.931 612.145,424.122 612.823,431.12C613.013,431.419 613.339,433.358 613.8,436.939C614.044,438.865 614.831,441.239 616.16,444.06C617.489,446.881 618.764,448.753 619.985,449.675L620.188,449.675ZM708.608,461.272C706.248,461.272 702.26,460.607 696.645,459.278C696.645,459.007 695.641,458.532 693.634,457.854C689.212,455.657 686.35,453.595 685.048,451.669C681.847,448.251 678.985,445.728 676.462,444.101C676.462,443.829 675.934,443.165 674.876,442.107C672,438.58 670.21,435.583 669.504,433.114C667.226,427.797 665.422,421.084 664.093,412.973C662.763,404.862 662.099,398.609 662.099,394.215C662.099,393.536 662.031,392.94 661.895,392.424C662.302,385.398 662.913,378.617 663.726,372.079C664.378,369.366 665.435,364.036 666.9,356.088C667.823,353.592 668.826,350.269 669.911,346.119L672.109,342.131C672.109,341.86 672.773,340.531 674.102,338.144C674.808,335.919 676.869,333.125 680.287,329.761C681.779,328.432 683.434,327.564 685.252,327.157C685.469,326.642 685.672,326.384 685.862,326.384L692.861,328.174L693.227,327.971L693.43,327.971C693.973,327.971 695.112,328.297 696.848,328.948L697.255,328.785L697.621,328.948L698.639,328.785C698.964,328.785 700.022,329.11 701.812,329.761L702.423,329.354L702.83,329.354C703.237,329.68 705.027,330.345 708.201,331.348C712.867,334.007 715.267,335.336 715.403,335.336L718.17,337.533C718.17,337.642 719.77,339.581 722.971,343.352C724.572,345.902 725.372,347.624 725.372,348.52C725.101,348.954 724.965,349.347 724.965,349.7C725.236,350.893 725.372,351.693 725.372,352.1C725.372,353.809 724.843,355.545 723.785,357.309C723.541,358.475 722.809,359.533 721.588,360.482C721.588,361.866 719.73,363.602 716.013,365.691C715.172,366.071 713.436,366.464 710.805,366.871C708.499,366.871 706.044,365.677 703.44,363.29C700.89,360.577 699.615,358.109 699.615,355.884C699.615,354.799 700.348,351.544 701.812,346.119C701.812,345.848 701.745,345.712 701.609,345.712C698.327,347.963 695.736,352.155 693.837,358.285C693.62,358.285 693.417,358.828 693.227,359.913L693.634,361.5C693.254,364.375 692.861,366.301 692.454,367.278C692.454,367.413 692.522,367.481 692.657,367.481C691.572,372.527 690.772,377.911 690.256,383.635C690.256,384.015 689.985,385.751 689.443,388.843L689.443,390.634C689.443,392.533 689.185,394.391 688.67,396.208L688.873,397.592C688.602,400.115 688.466,402.868 688.466,405.852C688.466,406.177 688.656,406.828 689.036,407.805L688.873,408.782C689.226,409.894 689.687,413.217 690.256,418.751L692.861,430.917C693.566,432.273 694.095,434.077 694.448,436.329C696.102,440.533 697.364,443.327 698.232,444.711L698.639,444.711C698.856,444.711 699.452,444.182 700.429,443.124C701.324,443.124 702.192,441.985 703.033,439.706C703.521,439.625 704.118,437.97 704.823,434.742C705.61,433.575 706.004,432.707 706.004,432.138L706.004,431.324C706.682,431.324 707.021,431.134 707.021,430.754L707.021,430.347C706.478,430.537 706.207,430.727 706.207,430.917L705.8,430.754C705.583,430.863 705.325,430.917 705.027,430.917L705.027,430.754C705.705,428.937 706.967,427.201 708.811,425.546C709.733,425.736 710.195,426.007 710.195,426.36L711.212,426.156L711.415,426.156C712.202,426.672 713.192,426.997 714.386,427.133L715.199,427.133C715.199,427.54 715.335,427.743 715.606,427.743C715.823,427.608 716.081,427.54 716.379,427.54L716.379,428.15L717.397,427.947L717.6,427.947C717.6,428.435 718.061,428.76 718.984,428.923C718.984,429.33 719.648,429.534 720.977,429.534L720.977,429.33C721.249,429.466 721.452,429.534 721.588,429.534L721.588,430.551C721.588,430.686 722.049,431.012 722.971,431.527C723.243,431.392 723.446,431.324 723.582,431.324C723.582,431.541 723.975,432.07 724.762,432.911L724.762,433.114L724.558,433.521C724.558,433.82 725.033,434.281 725.982,434.905C725.982,435.393 726.511,436.125 727.569,437.102C727.569,437.644 727.705,437.916 727.976,437.916L728.18,437.916L728.18,438.729L728.749,440.723L728.546,442.514C728.953,443.165 729.156,444.033 729.156,445.118C728.532,448.183 727.732,450.177 726.755,451.099C725.725,451.94 724.531,453.269 723.175,455.087C721.167,456.416 719.377,457.338 717.804,457.854C717.804,458.478 716.936,459.088 715.199,459.685C715.199,460.336 714.399,460.661 712.799,460.661C712.093,460.661 711.497,460.797 711.008,461.068L710.601,460.865C709.733,461.136 709.069,461.272 708.608,461.272ZM750.478,478.443L750.071,478.443C749.203,477.9 748.538,477.629 748.077,477.629L748.077,478.036L747.874,478.036L747.06,477.426L745.88,477.629C745.88,476.68 744.808,476.015 742.665,475.635C742.177,474.713 740.59,473.913 737.905,473.235C735.626,471.526 734.487,470.468 734.487,470.061C733.808,470.061 733.212,462.411 732.696,447.112C732.561,447.112 732.493,446.84 732.493,446.298C732.628,446.054 732.696,445.782 732.696,445.484C732.696,445.376 732.628,445.321 732.493,445.321C732.493,445.05 732.561,444.914 732.696,444.914C732.561,439.896 732.493,436.098 732.493,433.521L732.493,426.156L732.696,424.162L732.493,424.162C732.493,424.027 732.561,423.959 732.696,423.959C732.832,410.992 733.035,399.816 733.307,390.43C733.171,387.989 733.103,386.456 733.103,385.832L733.307,385.425C733.307,385.29 733.239,385.222 733.103,385.222L733.713,367.888C733.713,367.752 733.646,367.685 733.51,367.685C733.51,367.549 733.578,367.345 733.713,367.074C733.849,360.347 733.917,354.094 733.917,348.316C733.917,345.603 733.971,343.677 734.08,342.538C734.08,342.402 734.025,342.335 733.917,342.335L734.893,330.779L734.893,328.785C734.351,327.971 734.08,327.171 734.08,326.384L734.08,325.57L735.097,325.367C735.992,325.502 736.453,325.706 736.48,325.977C737.647,325.842 738.379,325.638 738.678,325.367L740.305,326.181C740.522,326.045 740.78,325.977 741.078,325.977C741.295,326.493 741.757,326.75 742.462,326.75L742.665,326.75L742.096,325.977L742.462,325.774C743.249,326.181 743.927,326.384 744.496,326.384L744.863,326.181C745.107,326.316 745.378,326.384 745.676,326.384C745.975,326.384 746.246,326.316 746.49,326.181C746.924,326.181 747.25,326.642 747.467,327.564L747.67,327.564L748.281,327.157L749.257,327.157C749.881,327.944 751.075,328.486 752.838,328.785C752.838,329.354 753.842,330.019 755.849,330.779C758.1,332.433 759.43,333.681 759.837,334.522C760.243,335.363 760.447,336.706 760.447,338.55C760.447,339.147 760.176,341.738 759.633,346.322L759.837,347.136C759.837,347.57 759.769,347.896 759.633,348.113C759.769,350.473 759.837,352.399 759.837,353.891L759.837,358.285L760.04,358.285C760.257,358.122 761.518,355.993 763.824,351.897C764.367,351.544 765.303,350.283 766.632,348.113L770.009,342.742C770.877,341.467 771.949,340.137 773.224,338.754C773.224,338.076 774.146,337.479 775.99,336.964C776.126,336.964 776.926,337.153 778.391,337.533L779.815,337.533C779.815,337.669 779.87,337.872 779.978,338.144C781.551,338.008 782.691,337.94 783.396,337.94C783.966,337.94 784.563,338.076 785.186,338.347L786.366,338.144L786.57,338.144C787.112,338.144 788.442,338.673 790.558,339.73C790.829,339.73 791.236,340.137 791.778,340.951C791.995,340.816 792.253,340.748 792.551,340.748C792.931,341.48 793.799,342.213 795.156,342.945L794.749,345.346C794.939,345.346 795.278,345.671 795.766,346.322L795.766,347.136C795.766,348.058 794.572,350.188 792.185,353.524C792.185,353.85 791.71,354.379 790.761,355.111C789.269,357.498 787.872,358.896 786.57,359.302C786.027,359.302 784.563,361.5 782.175,365.894C782.175,366.382 781.782,366.979 780.995,367.685C780.344,367.685 779.612,368.485 778.798,370.085L778.798,370.451C780.86,370.587 782.053,371.387 782.379,372.852C783.979,372.852 784.78,373.327 784.78,374.276C784.78,374.819 785.119,375.348 785.797,375.863C786.882,378.169 787.736,382.428 788.36,388.64C790.639,397.321 791.778,402.909 791.778,405.404C792.131,405.703 792.66,407.954 793.365,412.159C793.582,412.159 794.043,414.031 794.749,417.774C794.776,418.425 795.25,421.68 796.173,427.54C795.902,427.974 795.766,428.367 795.766,428.72L795.766,430.347C796.688,437.482 797.149,441.334 797.149,441.903C797.149,442.12 796.892,443.016 796.376,444.589C796.376,445.213 796.43,445.986 796.539,446.908C795.481,449.946 794.816,451.533 794.545,451.669L792.958,452.89C792.524,452.89 791.724,453.283 790.558,454.07L789.378,453.866C788.943,454.137 788.55,454.273 788.198,454.273L787.587,454.273C787.587,453.866 787.452,453.663 787.18,453.663L786.366,453.663C786.014,453.663 785.62,453.798 785.186,454.07C784.454,453.798 783.789,453.405 783.193,452.89L782.989,452.89L781.972,453.093C780.643,452.089 779.978,451.493 779.978,451.303C778.269,449.838 777.008,449.105 776.194,449.105L775.624,449.105L775.624,448.699C775.868,448.373 775.99,448.102 775.99,447.885C775.204,447.098 774.621,445.301 774.241,442.493C773.861,439.686 773.522,434.701 773.224,427.54C772.41,421.572 771.542,417.313 770.619,414.763C770.755,414.519 770.823,414.315 770.823,414.153C770.145,413.04 769.073,409.053 767.608,402.19C767.473,402.19 767.283,401.661 767.039,400.603C767.174,400.332 767.242,400.128 767.242,399.993C766.835,399.206 766.293,396.886 765.615,393.034C764.746,389.834 764.217,388.233 764.028,388.233L763.417,387.826C762.007,389.562 760.949,390.566 760.243,390.837C759.457,390.837 759.063,391.434 759.063,392.628L759.063,399.219C759.063,399.681 758.996,400.277 758.86,401.01C758.996,401.254 759.063,401.457 759.063,401.62L758.86,402.8C758.996,403.939 759.063,404.808 759.063,405.404L758.25,410.165C758.25,410.328 758.317,410.531 758.453,410.775L758.046,415.78C758.182,416.024 758.25,416.214 758.25,416.35C758.25,416.513 758.182,416.716 758.046,416.96C758.182,417.693 758.25,418.317 758.25,418.832C758.25,419.456 758.182,420.026 758.046,420.541L758.25,421.762C758.25,422.196 758.182,422.521 758.046,422.738C758.182,423.661 758.25,424.596 758.25,425.546C758.25,426.875 758.114,427.54 757.843,427.54L758.046,428.557C757.911,432.3 757.707,435.42 757.436,437.916C757.571,438.133 757.639,438.472 757.639,438.933C757.639,439.041 757.571,439.096 757.436,439.096L757.639,440.113L757.639,441.496C757.639,441.958 757.571,442.297 757.436,442.514C757.897,451.845 758.304,457.691 758.656,460.051C758.656,460.214 758.589,460.417 758.453,460.661C758.724,463.537 758.928,467.199 759.063,471.648C758.602,473.411 758.263,474.401 758.046,474.618C757.856,474.645 757.124,475.446 755.849,477.019C754.493,477.426 753.624,477.765 753.245,478.036L752.838,478.036L752.268,477.629L752.065,477.629L750.478,478.443ZM833.811,469.451C832.726,469.098 830.664,468.569 827.626,467.864C825.185,467.267 823.055,465.938 821.238,463.876C820.37,463.876 819.434,463.144 818.43,461.679C817.562,461.082 816.762,460.485 816.03,459.888C815.731,459.346 815.134,458.871 814.239,458.464C813.941,458.003 812.612,457.203 810.252,456.063C810.252,455.575 809.194,454.843 807.078,453.866C805.07,451.588 804.067,449.458 804.067,447.478L803.66,440.723L803.863,440.316C803.456,437.739 803.253,432.111 803.253,423.43C803.253,421.857 803.321,420.961 803.456,420.744L803.253,419.564L803.253,408.375C803.253,405.553 803.321,403.234 803.456,401.417C803.321,400.25 803.253,397.456 803.253,393.034C803.253,391.217 803.321,389.942 803.456,389.21C803.456,389.101 803.388,389.047 803.253,389.047L803.456,388.03L803.456,386.443C803.456,385.737 803.388,385.141 803.253,384.652C803.66,380.204 803.863,376.541 803.863,373.666L803.66,372.649C803.795,359.085 808.651,347.651 818.227,338.347C821.591,335.553 824.656,334.156 827.423,334.156C827.423,334.02 827.491,333.952 827.626,333.952C829.362,334.088 830.759,334.156 831.817,334.156L836.375,334.156C842.777,335.187 845.977,335.987 845.977,336.557C846.384,336.909 847.917,337.642 850.575,338.754C850.575,338.89 851.905,339.69 854.563,341.155C860.124,345.414 863.651,349.998 865.142,354.908C865.414,355.125 865.875,356.318 866.526,358.489C867.068,359.004 867.34,359.479 867.34,359.913L867.136,360.279C867.652,361.228 868.181,363.765 868.723,367.888C868.723,373.286 867.923,377.206 866.323,379.647C865.482,383.011 864.424,386.076 863.149,388.843C860.653,392.017 859.324,393.604 859.161,393.604C859.161,394.011 857.818,395.476 855.133,397.999C852.583,399.653 851.186,400.793 850.942,401.417L849.558,402.597L849.558,402.8C849.558,403.424 850.087,404.156 851.145,404.997C851.145,405.16 852.949,407.547 856.557,412.159C856.557,412.891 857.221,414.031 858.551,415.577C859.337,418.045 860.138,420.175 860.951,421.965C861.874,428.34 862.335,431.731 862.335,432.138L862.131,432.545L862.131,433.521C862.131,434.579 862.199,435.976 862.335,437.712C862.118,437.983 861.914,439.055 861.725,440.927C861.372,440.927 861.046,442.785 860.748,446.501C860.043,448.536 859.378,449.662 858.754,449.879C855.282,454.083 853.546,456.484 853.546,457.081C851.104,461.204 849.178,463.266 847.768,463.266C845.435,465.327 843.699,466.453 842.559,466.643C842.125,467.077 840.742,467.606 838.409,468.23C837.134,469.044 835.601,469.451 833.811,469.451ZM832.021,384.856C835.818,381.112 838.457,378.006 839.935,375.538C841.413,373.069 842.614,369.963 843.536,366.22C844.241,363.344 844.594,361.296 844.594,360.076L844.594,357.105C844.594,355.912 844.119,355.315 843.17,355.315C843.17,352.792 842.844,351.531 842.193,351.531C841.624,351.531 840.688,352.656 839.386,354.908C837.894,356.4 836.524,358.461 835.276,361.093C834.028,363.724 833.404,365.786 833.404,367.278L833.404,368.091C832.59,369.475 832.061,371.862 831.817,375.253L831.817,377.857C831.817,378.155 831.885,378.427 832.021,378.671C832.021,378.779 831.953,378.834 831.817,378.834C831.817,378.996 831.885,379.2 832.021,379.444C831.885,380.366 831.817,381.234 831.817,382.048C831.817,382.455 831.885,382.659 832.021,382.659C831.885,382.903 831.749,383.567 831.614,384.652L832.021,384.856ZM831.817,440.113C833.282,437.4 834.015,435.664 834.015,434.905L833.811,434.538L833.811,434.132C833.811,432.938 834.001,431.812 834.381,430.754C834.272,429.832 834.218,428.923 834.218,428.028C834.218,426.997 834.272,426.238 834.381,425.749L834.015,420.744L834.218,420.338C834.082,418.357 833.472,415.17 832.387,410.775L831.817,410.775C831.546,412.077 831.41,414.275 831.41,417.367C831.41,418.751 831.478,420.351 831.614,422.169L831.41,422.169L831.614,422.535C831.478,426.007 831.41,428.34 831.41,429.534C831.139,430.239 831.004,430.646 831.004,430.754C831.275,431.595 831.41,432.45 831.41,433.318C831.41,433.969 831.343,434.633 831.207,435.312C831.343,436.017 831.41,436.885 831.41,437.916C831.41,438.187 831.343,438.323 831.207,438.323C831.343,438.567 831.41,438.77 831.41,438.933L831.207,439.909L831.614,440.113L831.817,440.113ZM902.415,473.845C902.198,473.709 901.872,473.642 901.438,473.642L901.438,473.845L901.031,473.642L900.217,473.642C894.629,472.611 891.835,471.743 891.835,471.037C891.347,471.037 889.692,469.708 886.871,467.05C886.627,467.05 884.823,465.259 881.459,461.679C881.459,460.811 879.994,459.346 877.065,457.284C877.065,456.85 876.075,455.846 874.094,454.273C874.094,454.192 873.362,453.269 871.897,451.506C870.297,448.576 869.496,446.447 869.496,445.118L869.7,444.101C869.564,443.395 869.496,442.798 869.496,442.31C869.768,442.31 870.025,439.652 870.269,434.335C871.734,425.654 873.538,418.737 875.681,413.583C876.115,411.494 878.177,407.968 881.866,403.004C885.935,398.202 893.381,395.801 904.205,395.801L909.21,395.801C909.481,395.801 911.014,396.073 913.808,396.615L916.005,396.615L916.168,395.598L916.168,393.808C916.168,393.672 916.114,393.604 916.005,393.604L916.168,393.238C915.924,392.75 915.802,392.207 915.802,391.61L915.802,388.843C916.317,387.596 916.575,385.859 916.575,383.635L916.371,383.635L916.575,383.228L916.575,383.025C916.195,382.536 916.005,382.075 916.005,381.641C916.005,381.044 916.263,380.109 916.778,378.834L916.575,378.467C916.71,377.735 916.778,377.192 916.778,376.84C916.371,376.189 916.168,375.66 916.168,375.253L916.168,374.073L916.371,373.666C915.856,373.476 915.598,373.273 915.598,373.056L915.598,368.295C915.598,367.698 915.734,367.156 916.005,366.667L915.598,364.267C915.734,362.503 915.802,361.052 915.802,359.913L915.598,357.105C915.734,356.563 915.802,356.101 915.802,355.722C915.476,353.986 915.137,353.118 914.784,353.118L914.378,353.118C911.122,354.04 908.396,355.695 906.199,358.082C905.548,358.434 904.49,359.438 903.025,361.093C901.723,362.205 900.055,364.47 898.02,367.888C895.877,370.546 894.277,371.876 893.219,371.876C893.219,372.228 892.432,372.622 890.859,373.056L889.231,373.056C889.041,373.056 888.187,372.798 886.668,372.283C886.396,372.418 886.193,372.486 886.057,372.486C885.406,371.672 884.145,370.669 882.273,369.475C882.273,368.715 881.473,367.915 879.872,367.074C879.465,366.26 879.262,365.731 879.262,365.487L879.669,364.673C878.475,364.158 877.879,363.561 877.879,362.883C877.01,362.883 876.481,362.286 876.292,361.093C875.966,361.093 875.356,360.428 874.461,359.099C873.809,359.099 873.484,358.76 873.484,358.082C873.484,357.024 872.955,356.495 871.897,356.495C871.897,356.088 872.358,355.22 873.281,353.891C873.281,352.833 874.013,351.978 875.478,351.327C875.586,350.92 876.59,349.713 878.489,347.706C880.578,345.563 881.975,344.044 882.68,343.148C883.005,343.148 884.063,342.348 885.854,340.748C886.179,340.748 887.373,340.083 889.434,338.754C890.004,338.754 890.94,338.415 892.242,337.737L892.242,337.94C894.792,337.289 896.759,336.964 898.142,336.964C900.204,336.964 902.089,337.153 903.798,337.533L905.222,337.533C909.074,337.533 911.99,338.13 913.971,339.324C920.481,340.816 926.802,344.885 932.932,351.531C938.52,358.367 941.314,363.48 941.314,366.871C941.938,366.871 942.413,369.461 942.739,374.643L942.535,376.067L942.739,377.043L942.535,378.061C942.535,378.196 942.603,378.4 942.739,378.671C942.467,380.705 942.264,383.893 942.128,388.233L942.332,388.64C942.087,388.64 941.884,392.424 941.721,399.993L941.518,400.399C941.653,400.671 941.721,400.874 941.721,401.01L941.314,409.188L941.518,410.165C940.867,419.632 940.27,425.153 939.727,426.726C939.375,426.726 939.049,428.394 938.751,431.731C937.422,438.241 935.55,444.833 933.136,451.506C930.26,456.715 928.199,460.105 926.951,461.679C926.327,463.659 923.736,466.114 919.179,469.044C918.582,470.02 915.856,471.282 911,472.828C905.846,473.506 902.984,473.845 902.415,473.845ZM894.846,454.07C899.159,452.849 903.608,447.858 908.193,439.096C910.96,433.779 913.157,424.542 914.784,411.386L914.174,410.979C910.051,411.603 907.989,412.2 907.989,412.769C907.637,412.769 906.579,413.637 904.815,415.373C904.463,415.509 904.002,416.309 903.432,417.774C901.56,419.619 899.96,423.077 898.63,428.15L895.619,439.706C894.724,439.706 894.127,443.3 893.829,450.489C893.829,452.876 894.168,454.07 894.846,454.07ZM975.698,467.05C975.698,466.914 975.63,466.711 975.494,466.439L974.517,466.643C973.921,465.775 972.917,465.246 971.506,465.056C971.506,464.785 971.371,464.649 971.1,464.649L969.716,464.853C969.201,463.523 968.333,462.859 967.112,462.859C966.569,462.859 966.108,462.465 965.728,461.679L962.31,460.255C961.876,460.255 960.751,459.59 958.933,458.261C958.282,458.261 957.957,458.193 957.957,458.057C958.201,457.623 958.323,457.23 958.323,456.877C957.943,455.874 957.089,451.886 955.759,444.914L955.922,444.101L955.149,434.335C955.285,433.63 955.352,432.965 955.352,432.341C954.918,425.804 954.579,422.535 954.335,422.535L954.539,421.151L954.539,419.971C954.539,418.832 954.403,417.435 954.132,415.78C954.132,415.482 954.2,415.211 954.335,414.966C954.2,413.827 954.132,412.457 954.132,410.857C954.132,408.687 954.01,407.602 953.766,407.602L953.928,406.584L953.928,405.771C953.928,405.228 953.671,404.441 953.155,403.41L953.155,403.207L953.359,403.207L953.359,403.614L953.766,403.614C953.766,403.451 953.82,403.248 953.928,403.004C953.63,399.287 953.372,397.429 953.155,397.429C953.291,396.697 953.359,396.154 953.359,395.801C953.359,393.821 953.223,391.963 952.952,390.227C952.952,390.091 953.02,390.023 953.155,390.023C952.667,385.086 952.138,375.443 951.568,361.093C951.677,360.415 951.731,359.614 951.731,358.692L951.568,355.518C951.297,355.545 951.161,355.667 951.161,355.884L951.161,357.512L950.958,358.489L950.754,358.489L950.551,356.698L950.754,355.884L950.348,354.704C950.348,354.569 950.415,354.501 950.551,354.501L950.144,347.706C950.361,347.407 950.565,346.621 950.754,345.346C951.026,345.346 951.161,344.939 951.161,344.125L951.365,344.125L951.365,349.333L951.731,349.333C951.731,348.872 951.799,348.533 951.934,348.316L951.731,347.34L951.934,345.142L951.731,344.328C952.138,343.108 952.341,341.67 952.341,340.015C952.531,339.663 952.803,338.767 953.155,337.33L954.539,335.132L954.539,334.766C953.996,335.146 953.128,336.611 951.934,339.161L951.731,339.161L951.731,338.55C952.192,336.516 953.589,334.454 955.922,332.366L956.532,332.772C956.532,331.308 961.063,329.639 970.123,327.768C970.259,327.768 970.448,327.835 970.693,327.971C974.111,327.564 977.637,327.361 981.272,327.361C984.229,327.361 989.017,328.432 995.636,330.575C1000.49,332.962 1003.42,334.156 1004.43,334.156C1007.44,335.594 1010.3,337.723 1013.01,340.544C1016.08,344.451 1017.61,347.841 1017.61,350.717C1017.74,350.717 1017.81,350.852 1017.81,351.124L1017.61,351.531L1018.01,353.524C1016.77,359.438 1015.56,362.965 1014.39,364.104C1013.34,367.088 1012.14,369.014 1010.81,369.882C1009.59,371.645 1008.6,372.974 1007.84,373.869L1007.84,374.276C1009.28,375.66 1010,377.518 1010,379.851C1010.13,379.851 1010.2,379.919 1010.2,380.054L1010,380.461C1010.68,382.089 1011.36,384.951 1012.03,389.047C1013.09,392.166 1014.15,396.154 1015.21,401.01C1017.6,409.338 1019.86,418.249 1022,427.743L1021.8,428.15L1021.8,429.94L1020.01,432.138C1020.01,432.409 1018.54,432.545 1015.62,432.545C1015.62,432.273 1015.48,432.138 1015.21,432.138L1014.8,432.138L1013.21,432.545C1012.51,431.649 1011.57,431.107 1010.41,430.917L1009.23,431.12C1009.23,430.876 1008.43,430.686 1006.83,430.551C1006.83,430.144 1006.36,429.94 1005.44,429.94L1004.22,430.144C1004,429.628 1002.81,428.964 1000.64,428.15C1000.64,426.305 999.705,424.841 997.833,423.756C997.046,422.67 995.324,415.821 992.665,403.207C990.929,397.104 989.329,390.376 987.864,383.025C987.864,381.56 987.131,380.827 985.667,380.827C984.093,380.583 982.371,379.864 980.499,378.671C980.39,378.21 979.956,377.803 979.197,377.45C978.871,377.45 978.709,377.654 978.709,378.061L978.871,380.054L978.709,381.234C978.953,381.723 979.075,382.319 979.075,383.025L978.871,383.839C979.143,384.327 979.278,384.856 979.278,385.425L979.278,388.437C979.55,390.146 979.753,392.6 979.889,395.801L979.685,397.022C979.956,397.565 980.092,397.958 980.092,398.202L979.889,399.219C980.16,402.258 980.363,405.838 980.499,409.962C980.499,410.097 980.431,410.165 980.295,410.165L980.499,411.589L980.499,414.153C980.526,419.741 980.648,422.535 980.865,422.535L980.702,424.529L980.702,431.731C980.919,438.648 981.177,442.107 981.476,442.107L981.272,443.287L982.9,452.686L982.696,453.5C983.754,457.352 984.283,460.336 984.283,462.452C983.225,464.188 982.561,465.056 982.289,465.056C982.289,465.409 981.693,465.68 980.499,465.87C980.499,466.005 980.024,466.331 979.075,466.846L978.098,466.846L975.698,467.05ZM978.098,364.267C981.353,362.775 983.741,361.323 985.26,359.913C985.287,359.641 986.616,358.244 989.247,355.722C991.255,352.304 992.258,348.438 992.258,344.125C992.258,342.28 991.594,341.019 990.265,340.341C989.614,339.419 988.149,338.957 985.87,338.957C982.127,338.957 979.929,339.486 979.278,340.544C979.278,340.951 978.749,341.616 977.691,342.538C977.284,343.732 977.081,345.861 977.081,348.926C977.081,351.314 977.013,353.375 976.878,355.111C976.878,355.247 976.945,355.315 977.081,355.315L976.878,356.291C976.878,357.376 977.013,359.302 977.284,362.069L977.081,362.069C977.515,363.534 977.854,364.267 978.098,364.267ZM1048.61,399.626C1047.5,398.948 1046.77,398.609 1046.42,398.609C1046.28,398.609 1046.08,398.677 1045.81,398.812C1045.37,398.568 1044.98,398.446 1044.63,398.446C1044.33,398.446 1044.06,398.501 1043.81,398.609C1043.32,398.175 1041.93,397.782 1039.62,397.429C1037.97,396.534 1036.11,395.869 1034.05,395.435C1032.37,394.757 1031.23,393.563 1030.63,391.854C1029.44,389.82 1028.38,381.696 1027.45,367.481C1027.45,365.148 1026.59,357.363 1024.85,344.125C1024.34,338.32 1024.08,334.671 1024.08,333.179L1024.85,332.569L1025.87,332.569C1026.14,332.026 1026.46,331.755 1026.85,331.755L1027.86,331.959C1030.19,331.443 1031.52,331.186 1031.85,331.186L1032.26,331.389C1034.16,330.44 1036.47,329.965 1039.21,329.965C1039.21,329.829 1039.76,329.694 1040.84,329.558C1040.98,329.694 1042.04,329.829 1044.02,329.965L1044.42,329.761C1046.27,330.168 1047.6,330.711 1048.41,331.389L1049.43,331.186C1052.09,333.763 1053.42,335.756 1053.42,337.167C1053.55,337.872 1053.62,338.903 1053.62,340.259C1053.62,342.158 1053.55,343.515 1053.42,344.328C1053.55,345.034 1053.62,345.834 1053.62,346.729L1053.42,348.723C1053.66,350.649 1053.78,351.978 1053.78,352.711L1053.62,352.711C1053.86,353.389 1053.99,353.863 1053.99,354.135C1053.99,354.27 1053.92,354.46 1053.78,354.704L1055.21,365.487L1055,365.894C1055.25,366.437 1055.5,367.902 1055.78,370.289L1055.61,370.696L1055.78,371.103L1055.61,372.283C1055.72,375.836 1055.91,378.63 1056.18,380.665C1055.91,381.343 1055.78,381.804 1055.78,382.048C1055.91,382.998 1055.98,383.798 1055.98,384.449C1055.98,384.747 1055.91,385.019 1055.78,385.263C1056.05,386.538 1056.18,388.328 1056.18,390.634L1056.18,392.261C1055.8,392.641 1055.55,393.36 1055.41,394.418C1055.55,394.662 1055.61,394.933 1055.61,395.232L1055.61,395.639C1054.15,396.507 1053.42,397.036 1053.42,397.226C1053.42,397.551 1052.75,397.89 1051.42,398.243C1050.66,398.948 1049.73,399.409 1048.61,399.626ZM1055.21,432.545C1054.91,432.545 1054.64,432.477 1054.39,432.341C1054.17,432.477 1053.92,432.545 1053.62,432.545L1051.59,431.771C1051.59,432.043 1051.46,432.178 1051.22,432.178L1051.02,432.178L1050.4,431.771L1049.02,432.178C1048.78,432.043 1048.51,431.975 1048.21,431.975C1048.21,432.219 1048.07,432.341 1047.8,432.341C1047.31,431.826 1046.46,431.5 1045.24,431.365C1045.18,431.093 1044.78,430.89 1044.02,430.754L1042.84,430.958C1042.84,430.686 1042.63,430.551 1042.23,430.551C1041.79,430.551 1041.45,430.619 1041.21,430.754C1037.36,429.099 1035.43,427.377 1035.43,425.587C1033.69,422.169 1032.83,417.435 1032.83,411.386C1032.66,411.386 1032.54,410.992 1032.46,410.206C1032.92,409.012 1034.58,408.415 1037.42,408.415C1037.42,408.28 1038.22,408.212 1039.83,408.212C1039.93,407.805 1040.2,407.534 1040.64,407.398C1041.7,407.805 1043,408.008 1044.55,408.008C1045.12,408.008 1045.81,407.805 1046.62,407.398C1046.62,407.642 1048.22,407.846 1051.42,408.008C1051.67,407.873 1051.86,407.805 1051.99,407.805L1052.81,408.212C1053.05,408.076 1053.25,408.008 1053.42,408.008C1054.39,408.687 1055.72,409.283 1057.4,409.799C1060.06,412.132 1061.39,413.664 1061.39,414.397C1061.53,415.916 1061.73,417.177 1062,418.181L1062,419.768L1061.39,422.372L1061.59,422.779C1061.59,424.759 1061.19,426.021 1060.37,426.563C1060.37,427.54 1059.57,428.801 1057.97,430.347L1057.97,431.161C1057.54,430.89 1057.21,430.754 1057,430.754C1056.59,431.948 1055.99,432.545 1055.21,432.545Z" style="fill:white;"/>
    </g>
</svg>
