<?xml version="1.0" encoding="UTF-8" standalone="no"?>
<!DOCTYPE svg PUBLIC "-//W3C//DTD SVG 1.1//EN" "http://www.w3.org/Graphics/SVG/1.1/DTD/svg11.dtd">
<svg width="100%" height="100%" viewBox="0 0 843 696" version="1.1" xmlns="http://www.w3.org/2000/svg" xmlns:xlink="http://www.w3.org/1999/xlink" xml:space="preserve" xmlns:serif="http://www.serif.com/" style="fill-rule:evenodd;clip-rule:evenodd;stroke-linejoin:round;stroke-miterlimit:2;">
    <g transform="matrix(1,0,0,1,-2294.62,-2413.2)">
        <path d="M2294.62,2613.89C2294.55,2550.74 2316.74,2496.6 2361.16,2460.53C2449.88,2388.48 2627.33,2388.48 2716.05,2532.58C2726.56,2515.5 2738.32,2500.45 2751.03,2487.3C2751.23,2487.71 2751.59,2488 2752.27,2488.06C2752.42,2485.22 2758.39,2486.48 2758.55,2483.64C2756.09,2484.26 2755.05,2484.18 2754.16,2484.12C2848.8,2389.66 2993.59,2397.72 3070.94,2460.53C3124.82,2504.28 3145.98,2574.6 3134.42,2655.36L3130.33,2655.36C3130.14,2657.14 3131.53,2657.82 3134.08,2657.67C3126.32,2709.25 3105.27,2765.01 3070.94,2820.78C3052.08,2853.59 3024.23,2886.41 2990.85,2918.21C2990.84,2918.15 2990.83,2918.09 2990.81,2918.02L2987.65,2918.02C2986.18,2919.36 2986,2920.35 2987.9,2921.01C2914.61,2990.06 2815.68,3054.2 2726.89,3103.06C2720.14,3106.76 2711.96,3106.76 2705.21,3103.06C2574.41,3031.09 2421.59,2925.93 2361.16,2820.78C2333.11,2775.22 2313.93,2729.67 2303.62,2686.39C2303.62,2686.39 2303.62,2686.39 2303.62,2686.39C2303.7,2685.72 2303.85,2685.07 2305.18,2685.28L2305.18,2683.07C2304.17,2682.62 2303.38,2682.66 2302.81,2682.95C2297.96,2661.7 2295.27,2641.01 2294.72,2621.16C2295.02,2621.14 2295.37,2621.1 2295.78,2621.02C2299.06,2619.22 2297.43,2615.37 2294.62,2613.89ZM2913.93,2923.56C2913.94,2922.94 2912.66,2922.29 2912.37,2923.56C2912.37,2924.17 2913.63,2924.82 2913.93,2923.56ZM2554.7,2922.44C2554.27,2922.14 2552.33,2922.98 2553.13,2923.56C2553.57,2923.87 2555.52,2923.02 2554.7,2922.44ZM2675.49,3040.99C2675.48,3039.88 2672.73,3039.59 2672.37,3040.99C2674.11,3040.88 2674.81,3042.62 2675.49,3040.99ZM2656.66,3039.89L2653.54,3039.89L2653.54,3042.11L2656.66,3042.11L2656.66,3039.89ZM2964.05,2448.17C2971.97,2443.71 2958.57,2442.99 2964.05,2448.17ZM3039.33,2445.96C3038.11,2446.21 3036.24,2445.98 3036.2,2447.07C3037.41,2446.82 3039.28,2447.04 3039.33,2445.96ZM2440.1,2476.99L2440.1,2474.77L2435.38,2474.77C2435.19,2476.76 2436.95,2477.36 2440.1,2476.99ZM2435.38,2561.19C2440.16,2557.46 2429.58,2557.82 2435.38,2561.19ZM2495.08,2933.52C2494.66,2933.23 2492.7,2934.07 2493.52,2934.63C2493.96,2934.95 2495.9,2934.1 2495.08,2933.52ZM2421.27,2475.87C2428.64,2476.23 2425.47,2470.75 2421.27,2470.33C2418.34,2472.45 2422.2,2472.35 2421.27,2475.87ZM3029.93,2471.45L3026.78,2471.45C3026.69,2472.86 3024.76,2472.98 3025.22,2474.77L3029.93,2474.77L3029.93,2471.45ZM2400.87,2473.65C2399.66,2473.91 2397.78,2473.7 2397.75,2474.77C2398.96,2474.51 2400.83,2474.73 2400.87,2473.65ZM2844.84,2499.13C2844.39,2498.83 2842.44,2499.67 2843.24,2500.25C2843.68,2500.56 2845.63,2499.73 2844.84,2499.13ZM2593.84,2567.84C2594.28,2565.31 2593.44,2563.67 2590.69,2563.4C2590.24,2565.92 2591.07,2567.57 2593.84,2567.84ZM2507.53,2565.61C2507.11,2565.32 2505.16,2566.15 2505.97,2566.72C2506.42,2567.04 2508.35,2566.19 2507.53,2565.61ZM2716.28,3084.22L2711.58,3084.22C2711.36,3086.2 2713.14,3086.8 2716.28,3086.43L2716.28,3084.22ZM2791.49,2461.47C2791.49,2460.85 2790.2,2460.22 2789.92,2461.47C2789.9,2462.09 2791.21,2462.73 2791.49,2461.47ZM2946.78,2459.25L2946.78,2461.47L2949.91,2461.47L2949.91,2459.25L2946.78,2459.25ZM2618.93,2461.47C2619.37,2461.77 2621.3,2460.94 2620.51,2460.37C2620.06,2460.05 2618.12,2460.91 2618.93,2461.47ZM3003.28,2464.79C3003.25,2465.41 3004.52,2466.05 3004.82,2464.79C3004.83,2464.19 3003.56,2463.53 3003.28,2464.79ZM2447.93,2670.88C2457.9,2670.07 2448.04,2664.22 2446.37,2667.54C2448.2,2667.74 2448.06,2669.31 2447.93,2670.88ZM2739.81,2975.63C2743.39,2975.94 2745.72,2975.37 2746.09,2973.41C2743.3,2973.67 2738.24,2972.29 2739.81,2975.63ZM2528.03,2974.53C2527.6,2974.21 2525.67,2975.05 2526.46,2975.63C2526.9,2975.94 2528.84,2975.1 2528.03,2974.53ZM2573.53,2970.09C2573.27,2968.78 2573.81,2966.95 2571.95,2966.77C2571.87,2967.44 2571.71,2968.08 2570.39,2967.87C2570.57,2969.22 2570.85,2970.5 2573.53,2970.09ZM2557.83,2968.99C2556.63,2969.23 2554.74,2969.02 2554.7,2970.09C2555.92,2969.84 2557.8,2970.07 2557.83,2968.99ZM2551.56,2964.55C2548,2964.24 2545.68,2964.81 2545.3,2966.77C2547.53,2967.03 2547.94,2968.6 2549.99,2968.99C2550.48,2967.49 2552.23,2966.87 2551.56,2964.55ZM2888.83,2965.65C2889.27,2965.96 2891.21,2965.12 2890.4,2964.55C2889.98,2964.24 2888.03,2965.09 2888.83,2965.65ZM2636.28,2992.26C2635.83,2991.95 2633.91,2992.78 2634.7,2993.36C2635.14,2993.66 2637.07,2992.83 2636.28,2992.26ZM2642.55,2987.83C2643.62,2984.84 2639.31,2985.68 2637.84,2984.5C2636.91,2987.38 2638.47,2988.48 2642.55,2987.83ZM2554.62,2460.37C2554.62,2460.97 2555.87,2461.62 2556.18,2460.37C2556.18,2459.76 2554.9,2459.1 2554.62,2460.37ZM2411.87,2460.37C2411.87,2459.76 2410.59,2459.1 2410.3,2460.37C2410.28,2460.97 2411.56,2461.62 2411.87,2460.37ZM2618.93,2458.15C2618.91,2457.04 2620.2,2456.83 2620.51,2455.93C2618.02,2456.04 2615.06,2455.79 2615.78,2458.15L2618.93,2458.15ZM3003.28,2457.04L3009.53,2457.04C3010.16,2454.38 3006.66,2454.64 3007.95,2451.5C3000.96,2451.98 3005.63,2453.84 3003.28,2457.04ZM2595.49,3001.11L2595.49,2997.78C2590.91,2996.17 2590.91,3002.75 2595.49,3001.11ZM2535.89,2980.07C2536.4,2974.59 2527.19,2977.17 2528.03,2981.17C2532.46,2982.09 2532.08,2979.6 2535.89,2980.07ZM2554.7,2920.23C2554.7,2919.62 2553.42,2918.98 2553.13,2920.23C2553.13,2920.85 2554.38,2921.49 2554.7,2920.23ZM2642.55,2914.69C2644.2,2908.27 2635.75,2914.23 2642.55,2914.69ZM3130.33,2556.76L3127.18,2556.76L3127.18,2558.97L3130.33,2558.97L3130.33,2556.76ZM2471.47,2435.99L2474.59,2435.99C2474.7,2434.57 2476.62,2434.46 2476.17,2432.67L2471.47,2432.67L2471.47,2435.99ZM2976.59,2431.55L2976.59,2429.34C2970.25,2424.87 2967.98,2435.74 2976.59,2431.55ZM2949.91,2452.61L2949.91,2450.39L2945.2,2450.39C2945.01,2452.38 2946.78,2452.99 2949.91,2452.61ZM2637.84,2963.45C2638.29,2960.92 2637.47,2959.27 2634.7,2959.02C2632.23,2960.66 2632.95,2963.97 2637.84,2963.45ZM2506.07,2957.91C2505.63,2957.6 2503.7,2958.44 2504.51,2959.01C2504.93,2959.32 2506.87,2958.48 2506.07,2957.91ZM2567.15,2552.32C2567.15,2551.71 2565.88,2551.07 2565.59,2552.32C2565.59,2552.94 2566.84,2553.59 2567.15,2552.32ZM2603.32,2946.83C2604.65,2945.54 2605.42,2943.84 2604.91,2941.29C2602.54,2941.47 2599.13,2940.89 2598.62,2942.39C2602.79,2942.04 2597.16,2948.6 2603.32,2946.83ZM2865.3,2945.71C2867.98,2943.84 2864.39,2940.74 2862.16,2939.06C2859.74,2940.76 2859.35,2946.67 2865.3,2945.71ZM2606.47,2943.5C2606.45,2944.12 2607.75,2944.76 2608.05,2943.5C2608.05,2942.89 2606.76,2942.24 2606.47,2943.5ZM2629.9,2544.57L2629.9,2549C2635.96,2549.87 2635.96,2543.7 2629.9,2544.57ZM2655,2546.78C2656.66,2540.37 2648.2,2546.32 2655,2546.78ZM2653.54,2940.18C2653.11,2939.87 2651.16,2940.71 2651.96,2941.29C2652.39,2941.6 2654.33,2940.75 2653.54,2940.18ZM2910.7,2414.93C2910.38,2413.6 2908.97,2414.25 2907.57,2414.93C2907.59,2416.05 2910.32,2416.33 2910.7,2414.93ZM2615.88,2985.61C2615.9,2984.99 2614.61,2984.35 2614.32,2985.61C2614.32,2986.22 2615.57,2986.85 2615.88,2985.61ZM2581.38,2994.47C2579.79,2994.48 2579.51,2993.57 2578.23,2993.36C2578.23,2994.48 2576.96,2994.67 2576.67,2995.58C2578.23,2995.57 2578.54,2996.47 2579.8,2996.68C2579.79,2995.57 2581.08,2995.37 2581.38,2994.47ZM3018.94,2450.39C3018.5,2450.1 3016.57,2450.93 3017.37,2451.5C3017.8,2451.81 3019.75,2450.97 3018.94,2450.39ZM2473.04,2450.39C2475.13,2451.84 2478.86,2451.85 2479.33,2449.29C2477.23,2447.84 2473.47,2447.82 2473.04,2450.39ZM3029.93,2448.17L3029.93,2450.39L3033.06,2450.39L3033.06,2448.17L3029.93,2448.17ZM2736.67,3003.33C2737.09,3003.64 2739.05,3002.79 2738.24,3002.22C2737.82,3001.91 2735.87,3002.76 2736.67,3003.33ZM2582.92,3002.22C2583.38,3002.54 2585.31,3001.69 2584.51,3001.11C2584.08,3000.83 2582.13,3001.65 2582.92,3002.22ZM2543.72,2823.85C2543.29,2823.55 2541.33,2824.38 2542.16,2824.95C2542.59,2825.26 2544.53,2824.42 2543.72,2823.85ZM2397.85,2824.94C2398.26,2825.26 2400.22,2824.42 2399.41,2823.84C2398.94,2823.55 2397.02,2824.38 2397.85,2824.94ZM3031.49,2470.33C3031.93,2470.64 3033.86,2469.8 3033.06,2469.23C3032.63,2468.91 3030.68,2469.76 3031.49,2470.33ZM2476.17,2468.11C2475.74,2467.81 2473.8,2468.65 2474.59,2469.23C2475.04,2469.53 2476.98,2468.7 2476.17,2468.11ZM2399.31,2467.02C2398.87,2466.7 2396.94,2467.55 2397.75,2468.11C2398.17,2468.44 2400.1,2467.58 2399.31,2467.02ZM2960.91,2464.79L2960.91,2467.02L2964.05,2467.02L2964.05,2464.79L2960.91,2464.79ZM2840.1,2514.65C2840.12,2514.04 2838.84,2513.39 2838.56,2514.65C2838.54,2515.26 2839.82,2515.92 2840.1,2514.65ZM2749.13,2512.44C2749.28,2512.31 2750.63,2510.15 2750.7,2510.2C2749,2508.62 2743.55,2514.25 2749.13,2513.54C2749.22,2513.53 2749.05,2512.52 2749.13,2512.44ZM3084.81,2509.11L3084.81,2511.33L3087.95,2511.33L3087.95,2509.11L3084.81,2509.11ZM2873.05,2509.11C2873.05,2508.49 2871.78,2507.85 2871.48,2509.11C2871.48,2509.72 2872.77,2510.38 2873.05,2509.11ZM2531.08,2509.11C2529.86,2509.37 2527.98,2509.14 2527.94,2510.2C2529.15,2509.97 2531.03,2510.19 2531.08,2509.11ZM2556.18,2506.9C2554.33,2507.07 2551.73,2506.72 2551.48,2508.01C2553.31,2507.83 2555.92,2508.19 2556.18,2506.9ZM2534.22,2506.9C2533.79,2506.59 2531.85,2507.43 2532.65,2508.01C2533.09,2508.31 2535.03,2507.47 2534.22,2506.9ZM2942.19,2888.11C2945.96,2884.38 2936.91,2890.79 2942.19,2888.11ZM2430.78,2896.96C2430.86,2895.55 2432.79,2895.43 2432.35,2893.65L2429.21,2893.65C2427.44,2895.24 2427.51,2896.36 2430.78,2896.96ZM2860.6,2877.02C2860.6,2876.41 2859.33,2875.76 2859.02,2877.02C2859.02,2877.63 2860.31,2878.29 2860.6,2877.02ZM2587.54,2531.28C2587.57,2530.65 2586.29,2530.01 2585.98,2531.28C2585.98,2531.88 2587.27,2532.52 2587.54,2531.28ZM2518.63,2877.02C2517.41,2877.28 2515.52,2877.05 2515.48,2878.12C2516.69,2877.88 2518.57,2878.1 2518.63,2877.02ZM2543.72,2874.81C2541.88,2874.98 2539.28,2874.63 2539.02,2875.92C2540.85,2875.74 2543.46,2876.1 2543.72,2874.81ZM2521.76,2874.81C2521.33,2874.5 2519.39,2875.34 2520.2,2875.92C2520.63,2876.22 2522.57,2875.38 2521.76,2874.81ZM2888.83,2859.3C2892.63,2855.58 2883.58,2861.97 2888.83,2859.3ZM2680.2,2859.3C2680.63,2859.6 2682.57,2858.76 2681.77,2858.18C2681.35,2857.88 2679.38,2858.71 2680.2,2859.3ZM2879.43,2855.97C2879,2855.67 2877.05,2856.51 2877.86,2857.09C2878.28,2857.39 2880.24,2856.55 2879.43,2855.97ZM3001.7,2553.43C3001.79,2552.02 3003.7,2551.9 3003.28,2550.11L3000.11,2550.11C2998.35,2551.71 2998.43,2552.81 3001.7,2553.43ZM2603.24,2552.32C2603.24,2551.71 2601.96,2551.07 2601.68,2552.32C2601.68,2552.94 2602.94,2553.59 2603.24,2552.32ZM2835.4,2540.14C2834.98,2539.84 2833.05,2540.68 2833.85,2541.24C2834.27,2541.56 2836.2,2540.71 2835.4,2540.14ZM2556.18,2455.94C2555.75,2455.64 2553.79,2456.46 2554.62,2457.04C2555.05,2457.35 2556.98,2456.5 2556.18,2455.94ZM2410.3,2457.04C2410.72,2457.35 2412.68,2456.51 2411.87,2455.93C2411.4,2455.63 2409.47,2456.46 2410.3,2457.04ZM2471.47,2420.47C2471.9,2420.78 2473.84,2419.95 2473.04,2419.37C2472.61,2419.07 2470.66,2419.91 2471.47,2420.47ZM2476.28,2854.87C2480.56,2853.07 2473.96,2851.15 2473.13,2853.76C2474.7,2853.75 2474.98,2854.65 2476.28,2854.87ZM3000.11,2474.77C2996.55,2474.45 2994.23,2475.03 2993.83,2476.99C2996.81,2476.74 2997.3,2478.24 3000.11,2478.09L3000.11,2474.77ZM2893.45,2476.99C2893.45,2476.37 2892.19,2475.73 2891.89,2476.99C2891.89,2477.6 2893.14,2478.24 2893.45,2476.99ZM2350.68,2476.99C2350.25,2476.67 2348.3,2477.53 2349.11,2478.1C2349.55,2478.39 2351.49,2477.56 2350.68,2476.99ZM2752.36,3007.76C2751.93,3007.46 2749.98,3008.3 2750.79,3008.87C2751.23,3009.17 2753.17,3008.34 2752.36,3007.76ZM2592.26,2552.32C2592.34,2553.85 2591.53,2554.76 2590.69,2555.65C2592.68,2555.7 2592.86,2557.07 2595.37,2556.76C2595.84,2554.23 2595.01,2552.59 2592.26,2552.32ZM2567.15,2554.54C2566.73,2554.23 2564.78,2555.06 2565.59,2555.65C2566.03,2555.96 2567.97,2555.12 2567.15,2554.54ZM2410.3,2553.43C2411.87,2553.42 2412.15,2554.33 2413.43,2554.54C2413.41,2553.42 2414.7,2553.22 2415.01,2552.32C2413.41,2552.33 2413.13,2551.41 2411.87,2551.21C2411.87,2552.33 2410.59,2552.53 2410.3,2553.43ZM2819.8,3008.87C2818.61,3009.11 2816.71,3008.9 2816.66,3009.97C2817.9,3009.73 2819.76,3009.95 2819.8,3008.87ZM2488.74,2486.96C2493.02,2485.17 2486.42,2483.24 2485.58,2485.85C2487.16,2485.84 2487.44,2486.74 2488.74,2486.96ZM2607.95,2556.76C2607.95,2556.14 2606.66,2555.49 2606.37,2556.76C2606.37,2557.37 2607.64,2558.01 2607.95,2556.76ZM2926.38,2555.65C2926.4,2555.03 2925.12,2554.38 2924.83,2555.65C2924.83,2556.26 2926.09,2556.91 2926.38,2555.65ZM2987.65,2842.68C2984.09,2842.36 2981.77,2842.94 2981.38,2844.9C2984.36,2844.65 2984.84,2846.14 2987.65,2846.01L2987.65,2842.68ZM2880.99,2844.9C2880.99,2844.28 2879.74,2843.64 2879.43,2844.9C2879.43,2845.51 2880.68,2846.16 2880.99,2844.9ZM2582.92,3015.52C2582.5,3015.21 2580.55,3016.05 2581.38,3016.63C2581.8,3016.93 2583.76,3016.1 2582.92,3015.52ZM2576.67,3000.01L2576.67,2996.68L2571.95,2996.68C2571.68,2999.11 2573.23,3000.2 2576.67,3000.01ZM2705.3,3035.45C2705.39,3034.77 2705.51,3034.16 2706.87,3034.35L2706.87,3032.14C2703.01,3030.41 2702.24,3035.9 2705.3,3035.45ZM2742.95,2840.46L2735.1,2840.46C2735.23,2842.39 2734.76,2843.91 2733.53,2844.9C2740.36,2846.01 2740.53,2842.45 2742.95,2840.46ZM2427.64,2844.9L2427.64,2842.68L2422.92,2842.68C2422.73,2844.67 2424.49,2845.27 2427.64,2844.9ZM2408.81,2843.79C2416.18,2844.14 2413.01,2838.66 2408.81,2838.24C2405.88,2840.36 2409.74,2840.26 2408.81,2843.79ZM2485.58,2442.63C2485.15,2442.33 2483.19,2443.18 2484.03,2443.74C2484.45,2444.05 2486.4,2443.21 2485.58,2442.63ZM2901.29,2491.39C2905.08,2487.67 2896.04,2494.06 2901.29,2491.39ZM2891.89,2488.06C2891.46,2487.76 2889.5,2488.6 2890.32,2489.18C2890.75,2489.47 2892.69,2488.64 2891.89,2488.06ZM3017.47,2839.36L3014.32,2839.36C3014.24,2840.77 3012.31,2840.9 3012.77,2842.68L3017.47,2842.68L3017.47,2839.36ZM2388.42,2841.56C2387.2,2841.81 2385.32,2841.61 2385.3,2842.68C2386.51,2842.42 2388.37,2842.64 2388.42,2841.56ZM2542.16,2838.25C2541.71,2837.95 2539.77,2838.78 2540.59,2839.36C2541.02,2839.66 2542.97,2838.82 2542.16,2838.25ZM2606.47,2826.06C2606.45,2824.94 2607.75,2824.74 2608.05,2823.85C2605.57,2823.95 2602.6,2823.7 2603.32,2826.06L2606.47,2826.06ZM2990.81,2824.94L2997.08,2824.94C2997.7,2822.29 2994.2,2822.54 2995.49,2819.41C2988.5,2819.89 2993.18,2821.74 2990.81,2824.94ZM2554.62,2470.33C2554.17,2470.04 2552.23,2470.87 2553.05,2471.45C2553.48,2471.75 2555.42,2470.91 2554.62,2470.33ZM2490.29,2424.91C2490.3,2424.29 2489.04,2423.65 2488.74,2424.91C2488.74,2425.53 2489.99,2426.17 2490.29,2424.91ZM2913.84,2444.86L2913.84,2447.07L2916.98,2447.07L2916.98,2444.86L2913.84,2444.86ZM3019.04,2838.25C3019.48,2838.55 3021.41,2837.71 3020.61,2837.14C3020.17,2836.82 3018.23,2837.68 3019.04,2838.25ZM2639.32,2557.86C2639.34,2558.98 2642.07,2559.25 2642.47,2557.86C2642.13,2556.52 2640.72,2557.19 2639.32,2557.86ZM2463.72,2836.02C2463.28,2835.72 2461.35,2836.56 2462.13,2837.14C2462.58,2837.44 2464.52,2836.61 2463.72,2836.02ZM2386.86,2834.93C2386.41,2834.61 2384.48,2835.45 2385.3,2836.03C2385.72,2836.35 2387.64,2835.49 2386.86,2834.93ZM2618.93,2529.05C2622.74,2526.23 2618.28,2523.01 2615.78,2521.31C2615.52,2522.59 2613.31,2522.51 2611.07,2522.41C2611.94,2525.86 2614.82,2527.9 2618.93,2529.05ZM2443.24,2529.05C2443.32,2527.64 2445.24,2527.51 2444.8,2525.74L2441.67,2525.74C2439.9,2527.32 2439.97,2528.44 2443.24,2529.05ZM2350.68,2524.62C2351.12,2524.93 2353.05,2524.08 2352.25,2523.51C2351.81,2523.21 2349.88,2524.05 2350.68,2524.62ZM2954.64,2520.19C2958.43,2516.48 2949.37,2522.88 2954.64,2520.19ZM2948.46,2832.7L2948.46,2834.93L2951.59,2834.93L2951.59,2832.7L2948.46,2832.7ZM2990.81,2832.7C2990.79,2833.32 2992.07,2833.97 2992.36,2832.7C2992.37,2832.1 2991.11,2831.45 2990.81,2832.7ZM2779.03,2829.39C2779.03,2828.76 2777.74,2828.12 2777.47,2829.39C2777.44,2830 2778.75,2830.65 2779.03,2829.39ZM2934.33,2827.16L2934.33,2829.39L2937.46,2829.39L2937.46,2827.16L2934.33,2827.16ZM2606.47,2829.39C2606.91,2829.68 2608.84,2828.85 2608.05,2828.28C2607.61,2827.96 2605.67,2828.82 2606.47,2829.39ZM2542.16,2828.28C2542.16,2828.89 2543.42,2829.53 2543.72,2828.28C2543.72,2827.66 2542.44,2827.02 2542.16,2828.28ZM2399.41,2828.28C2399.41,2827.66 2398.13,2827.02 2397.85,2828.28C2397.82,2828.89 2399.1,2829.53 2399.41,2828.28ZM2533.66,2790.24C2533.66,2786.84 2533.52,2783.43 2533.66,2780.02C2533.66,2778.1 2534.11,2776.17 2534.26,2774.1L2541.07,2774.1C2541.52,2774.1 2541.81,2774.54 2542.26,2774.54C2547.3,2774.84 2552.48,2775.28 2557.52,2775.58C2560.04,2775.58 2560.18,2775.13 2559.89,2772.32C2559.74,2771.43 2559.74,2770.54 2559.74,2769.5C2560.04,2765.65 2560.33,2761.65 2560.48,2757.8C2560.78,2753.65 2559.74,2752.46 2555.74,2752.02C2555.15,2751.87 2554.7,2752.02 2554.11,2752.02C2551.89,2751.72 2549.52,2751.43 2547.3,2751.43C2544.78,2751.28 2542.41,2751.43 2540.03,2751.57C2538.41,2751.72 2536.78,2751.87 2535.15,2751.87C2534.55,2751.87 2533.66,2750.98 2533.81,2750.39C2533.81,2745.35 2533.07,2740.17 2534.26,2734.98C2534.55,2733.8 2534.85,2733.2 2536.33,2733.35C2539,2733.8 2541.52,2733.94 2544.18,2733.94C2546.85,2733.94 2549.52,2733.8 2552.04,2733.35C2553.07,2733.05 2554.26,2732.91 2555.44,2732.91C2556.33,2732.91 2557.22,2733.05 2558.11,2733.35C2559.44,2733.8 2560.93,2733.94 2562.26,2733.94C2564.19,2733.94 2566.11,2733.65 2568.19,2733.35C2569.96,2733.05 2570.41,2732.31 2570.41,2730.83C2570.26,2725.35 2570.26,2720.01 2570.26,2714.68C2570.11,2711.57 2568.93,2710.53 2565.67,2710.39C2563.89,2710.39 2562.11,2710.24 2560.33,2710.53C2557.37,2710.98 2554.26,2711.27 2551.3,2711.27C2548.33,2711.27 2545.37,2710.98 2542.26,2710.53C2541.37,2710.39 2540.33,2710.68 2539.44,2710.83C2536.33,2711.13 2533.37,2711.72 2530.26,2712.01C2528.78,2712.16 2527.14,2711.42 2525.51,2711.42C2522.11,2711.57 2518.55,2711.87 2515.14,2712.01C2512.33,2712.16 2511.88,2712.46 2511.59,2715.27C2511.44,2718.24 2511.14,2721.2 2510.85,2724.16C2510.55,2728.16 2510.11,2732.02 2510.11,2735.87C2509.96,2752.76 2509.96,2769.8 2510.11,2786.69C2510.11,2789.8 2510.55,2792.91 2510.7,2796.02C2510.85,2796.62 2510.85,2797.36 2510.7,2797.95C2509.37,2801.36 2510.11,2804.62 2510.7,2808.02C2510.99,2809.36 2511.59,2809.65 2512.77,2809.8C2516.48,2810.1 2520.33,2810.39 2524.03,2811.14C2525.22,2811.28 2526.26,2811.43 2527.14,2811.43C2531.14,2811.43 2533.22,2809.21 2533.66,2804.02L2533.66,2790.24ZM2405.57,2709.66C2404.17,2711.61 2401.78,2712.88 2400.87,2715.18C2404.03,2715.11 2409.93,2711.37 2405.57,2709.66ZM2364.79,2715.18C2365.23,2715.5 2367.19,2714.66 2366.35,2714.09C2365.93,2713.78 2363.97,2714.61 2364.79,2715.18ZM2595.37,2716.31C2594.96,2715.99 2593,2716.83 2593.84,2717.42C2594.26,2717.71 2596.22,2716.87 2595.37,2716.31ZM2608.04,2790.39C2610.56,2790.69 2613.08,2790.99 2615.45,2790.99C2621.53,2790.99 2627.6,2790.69 2633.67,2790.54C2634.86,2790.54 2635.9,2790.69 2636.93,2790.99C2637.53,2791.28 2638.12,2792.17 2638.12,2792.62C2638.42,2798.1 2638.56,2803.43 2638.56,2808.91C2638.56,2810.69 2639.01,2811.43 2641.08,2811.43C2644.49,2811.28 2647.9,2811.43 2651.31,2811.58C2654.42,2811.73 2657.53,2812.03 2660.64,2812.17C2661.08,2812.17 2662.12,2811.43 2662.12,2810.99C2662.71,2805.21 2663.45,2799.43 2662.57,2793.5C2661.97,2789.5 2661.83,2785.5 2661.68,2781.5C2661.68,2774.69 2661.97,2768.02 2662.12,2761.2C2662.12,2758.83 2661.68,2756.32 2661.38,2753.95L2660.49,2741.5C2660.2,2739.43 2660.05,2737.35 2659.31,2735.42C2657.53,2730.39 2655.6,2725.5 2653.53,2720.61C2649.08,2710.24 2638.86,2705.35 2628.04,2705.35C2623.16,2705.35 2618.56,2707.27 2613.97,2709.05C2605.82,2712.16 2600.34,2718.24 2596.34,2725.94C2588.63,2740.76 2586.71,2746.09 2585.82,2762.69C2585.52,2769.5 2585.82,2776.17 2585.67,2782.99C2585.52,2786.99 2584.93,2791.13 2584.78,2795.13C2584.48,2799.73 2584.19,2804.32 2584.04,2808.91C2584.04,2809.95 2584.48,2810.54 2585.67,2810.54C2591.89,2810.39 2598.26,2810.99 2604.49,2809.95C2605.52,2809.8 2605.97,2809.95 2606.12,2808.62C2606.71,2802.69 2607.3,2796.62 2608.04,2790.39ZM2609.08,2759.87C2609.38,2757.06 2609.38,2754.24 2609.97,2751.57C2611.6,2743.72 2615.45,2737.05 2620.64,2731.13C2622.27,2729.5 2624.64,2728.16 2626.86,2727.72C2630.27,2726.83 2633.82,2729.5 2635.3,2733.65C2636.49,2736.76 2637.08,2740.31 2637.82,2743.57C2638.27,2746.39 2639.01,2749.35 2638.42,2752.02C2637.68,2756.46 2638.86,2760.76 2638.71,2765.2C2638.56,2767.13 2637.82,2767.43 2636.19,2767.43C2629.53,2767.87 2623.01,2768.47 2616.34,2768.76C2614.41,2768.91 2612.34,2768.47 2610.41,2768.17C2609.97,2768.17 2609.38,2767.28 2609.38,2766.84C2609.23,2764.46 2609.38,2762.24 2609.38,2759.87L2609.08,2759.87ZM2628.43,2767.34C2632.23,2763.61 2623.17,2770.01 2628.43,2767.34ZM2564.02,2695.26C2566.44,2698.3 2573.23,2695.2 2573.42,2693.02C2570.19,2693.7 2562.54,2691.25 2564.02,2695.26ZM2873.62,2572.27C2868.37,2565.99 2860.26,2563 2851.8,2563C2846.91,2563 2842.32,2564.93 2837.72,2566.7C2829.57,2569.82 2824.09,2575.89 2820.09,2583.59C2812.39,2598.41 2810.46,2603.74 2809.57,2620.34C2809.28,2627.15 2809.57,2633.82 2809.42,2640.64C2809.28,2644.64 2808.68,2648.79 2808.53,2652.79C2808.24,2657.38 2807.94,2661.97 2807.79,2666.57C2807.79,2667.6 2808.24,2668.2 2809.42,2668.2C2815.65,2668.05 2822.02,2668.64 2828.24,2667.6C2829.28,2667.45 2829.72,2667.6 2829.87,2666.27C2830.46,2660.34 2831.06,2654.27 2831.8,2648.05C2834.32,2648.34 2836.83,2648.64 2839.2,2648.64C2845.28,2648.64 2851.35,2648.34 2857.43,2648.19C2858.61,2648.19 2859.65,2648.34 2860.69,2648.64C2861.28,2648.93 2861.87,2649.82 2861.87,2650.27C2862.17,2655.75 2862.32,2661.08 2862.32,2666.57C2862.32,2668.34 2862.76,2669.08 2864.84,2669.08C2868.24,2668.94 2871.65,2669.08 2875.06,2669.23C2878.17,2669.38 2881.28,2669.68 2884.39,2669.83C2884.84,2669.83 2885.88,2669.08 2885.88,2668.64C2886.47,2662.86 2887.21,2657.08 2886.32,2651.16C2885.73,2647.16 2885.58,2643.16 2885.43,2639.16C2885.43,2632.34 2885.73,2625.67 2885.88,2618.86C2885.88,2616.49 2885.43,2613.97 2885.14,2611.6L2884.25,2599.15C2883.95,2597.08 2883.8,2595 2883.06,2593.08C2881.28,2588.04 2879.36,2583.15 2877.28,2578.26C2877.23,2578.13 2877.17,2578.01 2877.12,2577.88C2877.32,2577.86 2877.53,2577.84 2877.75,2577.8C2880.44,2575.93 2876.84,2572.82 2874.62,2571.16C2874.23,2571.43 2873.89,2571.82 2873.62,2572.27ZM2832.83,2617.52C2833.13,2614.71 2833.13,2611.89 2833.72,2609.23C2835.35,2601.37 2839.2,2594.71 2844.39,2588.78C2846.02,2587.15 2848.39,2585.82 2850.61,2585.37C2854.02,2584.48 2857.58,2587.15 2859.06,2591.3C2860.24,2594.41 2860.84,2597.97 2861.58,2601.23C2862.02,2604.04 2862.76,2607 2862.17,2609.67C2861.43,2614.12 2862.62,2618.41 2862.47,2622.86C2862.32,2624.78 2861.58,2625.08 2859.95,2625.08C2853.28,2625.52 2846.76,2626.12 2840.09,2626.41C2838.17,2626.56 2836.09,2626.12 2834.17,2625.82C2833.72,2625.82 2833.13,2624.93 2833.13,2624.49C2832.98,2622.12 2833.13,2619.89 2833.13,2617.52L2832.83,2617.52ZM2739.61,2852.2C2736.77,2850.77 2733.85,2849.55 2731.28,2848.5C2726.53,2846.57 2719.42,2845.39 2714.09,2845.39C2707.12,2845.39 2700.61,2847.31 2694.53,2851.46C2677.05,2864.5 2667.12,2878.13 2666.82,2900.95C2666.82,2904.51 2667.12,2908.06 2667.71,2911.47C2670.53,2929.25 2673.94,2937.99 2688.31,2949.99C2691.27,2952.51 2694.53,2955.18 2698.68,2955.92C2703.57,2956.95 2708.46,2958.14 2713.35,2958.44C2715.42,2958.59 2717.5,2959.18 2719.57,2959.18C2722.24,2959.18 2731.13,2955.62 2733.35,2954.44C2739.87,2951.18 2744.76,2945.84 2749.35,2940.36C2753.8,2935.03 2756.76,2928.8 2759.72,2922.58C2763.43,2914.73 2765.8,2906.58 2765.95,2897.69C2765.2,2892.65 2764.91,2887.76 2763.58,2883.02C2761.95,2876.95 2754.24,2865.54 2750.54,2860.5C2748.69,2857.9 2745.83,2855.71 2742.64,2853.84C2744.27,2853.41 2746.01,2853.07 2746.09,2851.55C2741.88,2852.61 2741.83,2851.62 2739.61,2852.2ZM2737.11,2879.73C2738.74,2881.71 2740.09,2883.99 2741.05,2886.58C2741.35,2887.76 2741.65,2888.95 2741.8,2890.13C2743.42,2898.13 2742.39,2905.54 2738.98,2913.1C2735.87,2920.36 2730.53,2925.69 2725.64,2931.32C2723.57,2933.69 2720.9,2934.73 2717.64,2934.73C2712.9,2934.73 2707.12,2932.51 2703.12,2929.99C2698.53,2927.17 2695.86,2923.03 2693.94,2918.14C2691.72,2912.8 2690.38,2907.47 2690.53,2901.69C2690.68,2897.84 2691.42,2889.24 2693.79,2886.13C2696.75,2882.13 2699.42,2877.84 2702.83,2874.28C2706.09,2871.17 2710.38,2869.09 2714.24,2869.69C2721.84,2869.69 2730.22,2872.47 2735.91,2878.39C2734.17,2879.52 2732.91,2881.93 2736.67,2881.45C2736.76,2881.44 2736.59,2880.43 2736.67,2880.35C2736.72,2880.3 2736.89,2880.05 2737.11,2879.73ZM2805.1,2812.17C2808.21,2812.03 2809.99,2810.84 2810.14,2807.73C2810.43,2803.73 2810.14,2799.58 2809.99,2795.58C2809.99,2792.32 2809.69,2789.06 2809.84,2785.95C2810.14,2780.17 2810.88,2774.54 2811.03,2768.91C2811.03,2760.32 2810.58,2751.87 2810.43,2743.28C2810.28,2738.68 2809.84,2733.94 2810.58,2729.5C2811.47,2724.91 2810.43,2720.61 2810.28,2716.16C2810.14,2711.13 2808.8,2710.24 2803.77,2710.39C2799.32,2710.68 2795.02,2711.27 2790.73,2711.72C2789.54,2711.87 2785.99,2714.98 2785.99,2715.72C2785.99,2718.68 2786.13,2721.64 2786.13,2724.76C2786.28,2728.31 2786.28,2731.87 2786.28,2735.57C2786.28,2737.05 2786.28,2738.54 2786.43,2740.02C2786.43,2744.61 2787.17,2749.2 2786.58,2753.8C2785.99,2758.69 2785.69,2763.43 2786.73,2768.17C2787.02,2769.8 2786.88,2771.43 2786.88,2772.91L2785.99,2786.24C2785.39,2793.21 2786.88,2800.02 2785.99,2806.99C2785.84,2808.02 2786.43,2809.36 2786.58,2810.54C2786.73,2811.88 2787.47,2812.32 2788.8,2812.17L2805.1,2812.17ZM2897.41,2762.84C2897.11,2762.84 2896.81,2762.98 2896.52,2762.98C2892.66,2756.91 2888.81,2750.83 2885.11,2744.61C2882.44,2740.17 2880.22,2735.28 2877.4,2730.98C2873.25,2724.61 2868.81,2718.68 2864.51,2712.46C2863.33,2710.98 2862.14,2710.24 2860.07,2710.24C2855.33,2710.39 2850.59,2710.09 2845.84,2710.09C2843.47,2709.94 2841.1,2710.24 2838.73,2709.94C2837.1,2709.79 2837.1,2710.39 2836.95,2711.42C2836.66,2716.16 2836.51,2720.76 2836.07,2725.5C2835.47,2734.68 2836.95,2743.87 2836.51,2753.06C2835.92,2764.91 2836.21,2776.61 2836.07,2788.47C2835.92,2789.5 2835.77,2790.54 2835.62,2791.73C2835.47,2795.88 2835.18,2800.02 2835.47,2804.17C2835.62,2808.17 2836.95,2809.06 2840.81,2808.91C2845.1,2808.76 2849.4,2808.17 2853.7,2808.02C2857.11,2807.73 2857.4,2807.88 2857.99,2804.62C2858.73,2801.21 2858.88,2797.65 2858.88,2794.24C2859.03,2785.36 2859.03,2776.61 2858.88,2767.72C2858.73,2761.5 2859.47,2755.28 2860.81,2749.2C2861.11,2749.2 2861.25,2749.2 2861.25,2749.35C2869.55,2763.13 2877.4,2776.91 2885.26,2790.84C2889.11,2797.8 2893.11,2804.76 2897.55,2811.28C2897.85,2811.73 2898.89,2811.73 2899.48,2811.73C2902.44,2811.43 2905.55,2810.69 2908.37,2810.84C2911.63,2810.99 2914.74,2810.39 2917.85,2810.54C2919.78,2810.69 2920.82,2809.95 2920.82,2807.73C2920.82,2805.21 2921.56,2802.69 2921.85,2800.17C2922,2799.28 2922.15,2798.54 2922.15,2797.8C2922,2794.99 2921.7,2792.32 2921.7,2789.65C2921.85,2781.95 2921.41,2774.24 2920.22,2766.54C2920.07,2765.5 2920.07,2764.17 2920.37,2762.98C2920.96,2759.58 2921.11,2756.32 2920.22,2752.91C2919.93,2751.28 2920.37,2749.35 2920.37,2747.72C2920.52,2746.24 2920.96,2744.76 2920.82,2743.28C2920.67,2732.91 2920.37,2722.68 2920.07,2712.31C2920.07,2711.87 2920.07,2711.27 2919.78,2710.83C2919.63,2710.39 2919.04,2709.94 2918.59,2709.94C2912.22,2710.39 2905.7,2710.83 2899.33,2711.27C2898.59,2711.42 2897.7,2712.31 2897.41,2713.05C2897.11,2714.09 2897.26,2715.27 2897.26,2716.31L2897.26,2744.02C2897.26,2746.24 2896.66,2748.46 2896.52,2750.83C2896.52,2753.2 2896.66,2755.58 2896.81,2758.09C2896.81,2759.58 2897.11,2761.2 2897.41,2762.84ZM2750.28,2768.17C2752.2,2764.76 2754.13,2761.8 2755.61,2758.69C2758.87,2752.46 2761.24,2746.09 2760.5,2738.98C2760.21,2736.46 2759.02,2733.94 2759.02,2731.42C2759.17,2726.09 2755.47,2722.98 2752.5,2719.42C2745.69,2711.13 2733.98,2709.79 2724.05,2709.79C2722.87,2709.79 2721.53,2710.24 2720.5,2709.79C2719.46,2709.5 2718.28,2709.35 2717.24,2709.35C2715.31,2709.35 2713.39,2709.79 2711.46,2709.94C2710.28,2710.09 2709.09,2710.68 2708.2,2710.24C2706.87,2709.64 2705.53,2709.35 2704.35,2709.35C2702.42,2709.35 2700.5,2709.79 2698.72,2710.09C2695.9,2710.39 2693.24,2710.83 2690.42,2711.13C2687.31,2711.42 2686.57,2711.57 2686.42,2714.83C2686.27,2720.76 2685.83,2726.53 2686.57,2732.31C2687.46,2739.43 2687.01,2746.68 2687.16,2753.8C2687.16,2758.54 2686.42,2763.43 2686.42,2768.32C2686.42,2775.58 2686.87,2782.84 2687.16,2790.24L2687.16,2798.25C2687.16,2801.95 2687.01,2805.65 2687.16,2809.36C2687.16,2811.73 2687.61,2812.03 2690.12,2812.17C2690.87,2812.17 2691.75,2812.03 2692.49,2812.17C2697.53,2812.47 2702.72,2811.43 2707.76,2812.91C2709.39,2813.21 2709.98,2812.47 2709.98,2810.84C2709.83,2807.88 2709.83,2804.91 2709.83,2801.95C2709.98,2796.76 2708.64,2791.43 2709.83,2786.1C2710.13,2784.32 2710.57,2783.58 2712.2,2783.13C2713.09,2782.99 2713.83,2782.84 2714.57,2782.84C2718.57,2782.84 2722.57,2782.69 2726.43,2782.84C2732.65,2782.99 2737.39,2785.8 2739.61,2791.73C2741.68,2796.91 2742.57,2802.39 2741.24,2807.88C2740.95,2808.91 2741.09,2809.95 2741.09,2810.84C2742.87,2810.84 2744.35,2810.99 2745.83,2810.84C2750.43,2810.84 2754.87,2810.54 2759.47,2810.54C2763.61,2810.54 2764.06,2810.25 2764.5,2806.1C2764.65,2804.76 2764.65,2803.14 2764.5,2801.65C2764.06,2798.99 2763.47,2796.17 2763.02,2793.36C2761.39,2783.58 2757.84,2774.69 2750.28,2768.17ZM2713.98,2760.17C2712.79,2760.02 2710.57,2760.32 2709.68,2759.43C2708.94,2758.83 2709.83,2756.61 2709.83,2754.98C2709.98,2753.06 2709.68,2750.98 2709.83,2748.91C2710.13,2744.02 2710.42,2738.98 2710.72,2733.94C2710.87,2732.76 2711.31,2732.31 2712.5,2732.31C2717.39,2732.16 2722.42,2731.72 2727.31,2731.57C2730.43,2731.42 2733.09,2732.61 2735.61,2734.09C2738.57,2735.87 2738.87,2738.83 2738.28,2741.94C2737.09,2749.05 2732.94,2754.09 2726.72,2757.65C2722.87,2759.72 2718.57,2759.87 2713.98,2760.17ZM2948.35,2709.66C2948.35,2709.04 2947.08,2708.4 2946.78,2709.66C2946.78,2710.28 2948.04,2710.91 2948.35,2709.66ZM3095.81,2708.55C3096.16,2707.87 3093.44,2706.16 3092.69,2706.33C3088.55,2707.23 3093.68,2712.56 3095.81,2708.55ZM2644.89,2571.05C2644.84,2571.32 2644.82,2571.6 2644.82,2571.89C2644.82,2579.45 2645.11,2586.85 2645.11,2594.26C2645.11,2597.52 2644.96,2600.78 2644.96,2603.89C2644.82,2608.34 2644.96,2612.93 2644.96,2617.38C2645.11,2619.89 2645.55,2622.41 2645.41,2624.93C2645.26,2628.93 2644.82,2632.78 2644.82,2636.78C2644.67,2644.05 2644.67,2651.45 2644.67,2658.71C2644.67,2661.97 2645.11,2664.2 2647.63,2666.71C2648.22,2667.31 2649.56,2667.01 2650.59,2667.16C2651.19,2667.16 2651.93,2667.45 2652.52,2667.6C2656.52,2668.2 2660.52,2669.08 2664.52,2669.08C2666.45,2669.08 2668.52,2668.94 2670.45,2668.34C2673.41,2667.6 2676.67,2667.45 2679.78,2667.45C2683.34,2667.45 2687.04,2668.05 2690.6,2668.05C2694.75,2668.05 2698.89,2668.79 2703.19,2667.6C2704.67,2667.16 2705.12,2666.57 2704.97,2665.23C2704.82,2659.75 2704.52,2654.27 2704.23,2648.79C2704.08,2645.23 2704.08,2645.23 2700.52,2644.49C2698.6,2644.19 2696.67,2644.19 2694.89,2644.34C2691.49,2644.49 2688.08,2645.23 2684.82,2645.08C2682.15,2644.93 2679.34,2644.64 2676.67,2644.64C2674.45,2644.64 2672.37,2644.79 2670.15,2645.23C2668.52,2645.53 2668.22,2644.79 2668.37,2643.45C2668.67,2641.38 2668.97,2639.16 2669.11,2637.08C2669.26,2635.01 2669.26,2632.93 2669.11,2630.86C2669.11,2629.23 2669.71,2628.34 2671.48,2628.34C2673.56,2628.34 2675.63,2628.19 2677.56,2628.49C2681.71,2629.08 2685.71,2629.53 2689.71,2629.53C2691.34,2629.53 2693.12,2629.38 2694.75,2629.23C2696.82,2629.08 2697.12,2628.04 2697.12,2626.71C2697.12,2620.78 2696.97,2614.86 2696.82,2608.93C2696.82,2607.45 2696.38,2606.71 2694.89,2606.26C2690.74,2605.08 2686.6,2605.67 2682.45,2605.67C2678.45,2605.67 2674.6,2605.67 2670.6,2605.37C2670.15,2605.37 2669.26,2604.49 2669.26,2604.04C2669.11,2599 2669.26,2593.97 2669.26,2588.93C2670.45,2589.08 2671.48,2589.22 2672.67,2589.22C2677.71,2589.67 2682.6,2589.97 2687.63,2589.97C2691.04,2589.97 2694.3,2589.82 2697.71,2589.67C2699.04,2589.52 2699.49,2589.37 2699.49,2590.71C2700.82,2590.71 2702.15,2590.71 2703.49,2590.56C2705.26,2590.26 2706.01,2589.37 2705.86,2587.45C2705.41,2583 2705.26,2578.41 2704.97,2573.82C2704.82,2572.63 2704.52,2571.45 2704.23,2570.26C2703.93,2568.93 2703.19,2568.04 2701.71,2568.04C2699.93,2568.04 2698.15,2568.04 2696.52,2567.89C2687.34,2567.89 2678.15,2567.15 2668.97,2566.41C2666.6,2566.26 2664.22,2565.52 2661.7,2565.52C2660.52,2565.52 2659.34,2564.93 2658.15,2564.93C2657.56,2564.93 2656.96,2565.07 2656.22,2565.52C2655.19,2566.26 2653.41,2565.96 2652.08,2565.81C2648.84,2565.81 2645.92,2567.69 2645.07,2570.31C2644.49,2570.43 2644.05,2570.65 2644.02,2571.16C2644.29,2571.1 2644.58,2571.07 2644.89,2571.05ZM2727.87,2586.73C2727.84,2592.99 2727.9,2599.26 2727.79,2605.52L2727.79,2632.78C2727.93,2636.34 2728.23,2639.75 2728.68,2643.3C2729.12,2648.34 2729.56,2653.38 2728.08,2658.42C2727.49,2660.49 2728.08,2663.31 2728.97,2665.38C2729.56,2666.86 2731.49,2668.49 2732.97,2668.64C2741.42,2668.94 2749.71,2668.94 2758.16,2669.08C2762.01,2669.23 2765.86,2669.53 2769.86,2669.83C2770.46,2669.83 2771.2,2669.83 2771.79,2669.68C2774.61,2669.53 2777.42,2669.23 2780.24,2669.08L2790.46,2668.2C2791.05,2668.05 2791.94,2667.45 2792.09,2667.01C2792.53,2664.2 2793.13,2661.38 2792.83,2658.57C2792.53,2656.19 2792.24,2653.97 2792.68,2651.45C2793.13,2648.19 2791.35,2646.56 2788.39,2646.27C2781.42,2645.68 2774.31,2645.23 2767.35,2644.64L2763.35,2644.64C2760.38,2644.93 2757.42,2645.38 2754.46,2645.38C2751.49,2645.53 2751.34,2645.38 2751.49,2642.56C2751.64,2637.97 2752.23,2633.38 2752.23,2628.78C2752.09,2623.6 2751.49,2618.26 2751.49,2613.08C2751.64,2600.49 2751.79,2587.89 2752.23,2575.3C2752.23,2572.78 2751.34,2570.85 2750.45,2568.78C2750.31,2568.33 2749.57,2567.74 2748.97,2567.74L2731.64,2567.3C2730.45,2567.3 2729.71,2567.89 2729.42,2569.22C2728.97,2573.07 2728.08,2576.78 2727.93,2580.63C2727.91,2582.08 2727.89,2583.53 2727.88,2584.98C2726.12,2584.41 2722.66,2585.03 2722.46,2583.33C2722.28,2582 2722,2580.72 2719.32,2581.13C2717.11,2585.92 2724.88,2589.15 2727.87,2586.73ZM2547.78,2612.11C2547.81,2613.32 2547.85,2614.53 2547.92,2615.75C2547.92,2617.82 2547.92,2620.04 2547.62,2622.26C2546.69,2627.35 2546.29,2632.47 2546.12,2637.62C2545.44,2637.79 2544.62,2638.34 2545.19,2638.74C2545.35,2638.86 2545.72,2638.82 2546.09,2638.68C2545.99,2642.2 2545.99,2645.71 2545.99,2649.23C2545.99,2650.27 2545.84,2651.45 2545.84,2652.49C2545.69,2657.68 2545.25,2663.01 2545.4,2668.2C2545.55,2670.57 2548.95,2672.94 2551.62,2672.94C2552.2,2672.94 2552.64,2672.94 2553.08,2672.66C2553.14,2674.22 2553.25,2675.76 2556.18,2675.31C2556.12,2673.78 2556.92,2672.88 2557.76,2671.98L2554.69,2671.98C2555.37,2671.8 2556.04,2671.75 2556.81,2671.75C2557.55,2671.75 2558.29,2671.75 2559.18,2671.9C2559.22,2671.9 2559.27,2671.91 2559.31,2671.91C2559.56,2673.61 2561.13,2674.37 2564.02,2674.2L2564.02,2672.11C2565.87,2672.15 2567.73,2672.19 2569.55,2672.34C2573.7,2672.49 2577.99,2671.9 2582.29,2672.2C2587.33,2672.64 2592.51,2672.34 2597.7,2672.34C2599.03,2672.2 2600.51,2672.2 2601.55,2671.6C2606.14,2669.08 2610.74,2666.42 2615.03,2663.6C2620.07,2660.05 2621.41,2654.27 2623.33,2649.08C2625.55,2643.3 2624.52,2637.67 2622.15,2632.34C2620.52,2628.78 2619.18,2625.08 2617.4,2621.67C2616.22,2619.3 2614.44,2617.08 2612.66,2615.15C2610.14,2612.78 2609.85,2612.93 2611.48,2609.97C2614.89,2604.04 2615.92,2597.82 2614.44,2591.3C2613.4,2586.71 2609.7,2577.67 2606.14,2574.85C2599.48,2569.67 2592.07,2566.41 2583.47,2566.41L2552.66,2566.41C2549.4,2566.55 2547.77,2567.74 2547.77,2570.56C2547.62,2576.19 2547.03,2581.82 2547.62,2587.45C2548.06,2591.45 2548.8,2595.6 2548.36,2599.6C2547.98,2603.03 2547.78,2606.45 2547.77,2609.92C2545.83,2607.67 2539.8,2609.99 2540.49,2613.26C2544.69,2614.14 2544.57,2611.95 2547.78,2612.11ZM2572.36,2599.89C2572.07,2596.93 2571.77,2593.97 2571.33,2591.15C2571.18,2589.97 2571.47,2589.08 2572.81,2589.22C2577.55,2589.67 2582.44,2588.48 2587.33,2589.97C2590.88,2591.15 2592.51,2593.08 2592.51,2596.63C2592.51,2600.34 2591.62,2603.6 2588.07,2605.52C2587.33,2605.82 2586.59,2606.26 2585.85,2606.26C2582.29,2606.86 2578.73,2607.3 2575.03,2607.89C2572.51,2608.34 2572.22,2608.04 2572.07,2605.23L2572.07,2599.89L2572.36,2599.89ZM2585.98,2602.18C2585.73,2600.87 2586.26,2599.03 2584.4,2598.86C2584.33,2599.53 2584.17,2600.16 2582.84,2599.96C2583.03,2601.32 2583.31,2602.59 2585.98,2602.18ZM2589.12,2629.97L2590.14,2629.97C2592.81,2630.27 2598.14,2631.6 2599.03,2634.41C2600.22,2637.97 2602.14,2641.38 2601.26,2645.23C2601.11,2646.41 2599.77,2647.75 2598.59,2648.49C2595.03,2650.56 2591.33,2652.19 2587.18,2651.9L2571.33,2651.9C2569.4,2652.05 2568.66,2651.16 2568.81,2649.23C2569.1,2643.6 2569.4,2637.97 2569.7,2632.19C2569.84,2631.75 2570.59,2630.86 2571.18,2630.86C2573.1,2630.41 2575.18,2630.12 2577.1,2629.97L2584.44,2629.97C2584.76,2631.56 2586.32,2632.26 2589.12,2632.1L2589.12,2629.97ZM2595.37,2634.31C2595.84,2634.63 2597.77,2633.78 2596.97,2633.2C2596.54,2632.91 2594.58,2633.73 2595.37,2634.31ZM2595.37,2647.61C2594.96,2647.3 2593,2648.14 2593.84,2648.72C2594.26,2649.03 2596.22,2648.19 2595.37,2647.61ZM2634.97,2910.43C2636.89,2907.02 2638.82,2904.06 2640.3,2900.95C2643.56,2894.73 2645.93,2888.36 2645.19,2881.24C2644.9,2878.72 2643.71,2876.21 2643.71,2873.69C2643.86,2868.35 2640.16,2865.24 2637.19,2861.69C2630.38,2853.39 2618.67,2852.06 2608.74,2852.06C2607.56,2852.06 2606.22,2852.5 2605.19,2852.06C2604.15,2851.76 2602.97,2851.61 2601.93,2851.61C2600,2851.61 2598.08,2852.06 2596.15,2852.2C2594.97,2852.35 2593.78,2852.95 2592.89,2852.5C2591.56,2851.91 2590.22,2851.61 2589.04,2851.61C2587.11,2851.61 2585.19,2852.06 2583.41,2852.35C2580.59,2852.65 2577.93,2853.09 2575.11,2853.39C2572,2853.68 2571.26,2853.83 2571.11,2857.09C2570.96,2863.02 2570.52,2868.8 2571.26,2874.58C2572.15,2881.69 2571.7,2888.95 2571.85,2896.06C2571.85,2900.8 2571.11,2905.69 2571.11,2910.58C2571.11,2917.84 2571.55,2925.1 2571.85,2932.51L2571.85,2940.51C2571.85,2944.21 2571.7,2947.92 2571.85,2951.62C2571.85,2953.99 2572.3,2954.29 2574.82,2954.44C2575.55,2954.44 2576.44,2954.29 2577.18,2954.44C2582.22,2954.73 2587.41,2953.7 2592.45,2955.18C2594.08,2955.47 2594.67,2954.73 2594.67,2953.1C2594.52,2950.14 2594.52,2947.18 2594.52,2944.21C2594.67,2939.03 2593.34,2933.69 2594.52,2928.36C2594.82,2926.58 2595.26,2925.84 2596.89,2925.4C2597.78,2925.25 2598.52,2925.1 2599.26,2925.1C2603.26,2925.1 2607.26,2924.95 2611.12,2925.1C2617.34,2925.25 2622.08,2928.06 2624.3,2933.99C2626.38,2939.18 2627.26,2944.66 2625.93,2950.14C2625.64,2951.18 2625.78,2952.21 2625.78,2953.1C2627.56,2953.1 2629.04,2953.25 2630.52,2953.1C2635.12,2953.1 2639.56,2952.81 2644.16,2952.81C2648.3,2952.81 2648.75,2952.51 2649.19,2948.36C2649.34,2947.03 2649.34,2945.4 2649.19,2943.92C2648.75,2941.25 2648.16,2938.43 2647.71,2935.62C2646.08,2925.84 2642.53,2916.95 2634.97,2910.43ZM2598.67,2902.43C2597.48,2902.28 2595.26,2902.58 2594.37,2901.69C2593.63,2901.1 2594.52,2898.88 2594.52,2897.24C2594.67,2895.32 2594.37,2893.24 2594.52,2891.17C2594.82,2886.28 2595.11,2881.24 2595.41,2876.21C2595.56,2875.02 2596,2874.58 2597.19,2874.58C2602.08,2874.43 2607.11,2873.98 2612,2873.84C2615.12,2873.69 2617.78,2874.87 2620.3,2876.35C2623.26,2878.13 2623.56,2881.1 2622.97,2884.21C2621.78,2891.32 2617.63,2896.36 2611.41,2899.91C2607.56,2901.99 2603.26,2902.14 2598.67,2902.43ZM2606.47,2896.96C2610.29,2894.13 2605.82,2890.92 2603.32,2889.21C2603.07,2890.5 2600.85,2890.42 2598.62,2890.32C2599.49,2893.78 2602.37,2895.82 2606.47,2896.96ZM2787.13,2921.4C2787.13,2926.73 2786.98,2932.06 2787.13,2937.25C2787.43,2941.25 2788.47,2945.25 2788.61,2949.25C2788.76,2952.07 2790.69,2952.51 2792.17,2952.66C2797.36,2953.25 2802.39,2953.55 2807.58,2953.55C2818.39,2953.55 2826.4,2952.66 2836.32,2947.77C2841.8,2944.95 2847.43,2942.58 2850.7,2936.95C2852.18,2934.43 2853.36,2931.92 2854.84,2929.55C2860.18,2921.4 2861.36,2912.36 2861.21,2902.88C2861.07,2899.76 2861.36,2896.65 2861.21,2893.54C2860.92,2889.84 2861.21,2885.99 2860.03,2882.72C2855.88,2870.72 2848.77,2861.24 2836.91,2855.91C2830.99,2853.39 2824.91,2851.32 2818.25,2851.76C2811.14,2852.35 2803.88,2852.2 2796.76,2852.8C2794.1,2852.95 2790.99,2853.24 2788.91,2855.46C2786.69,2858.13 2785.36,2861.39 2785.5,2865.09C2785.8,2869.39 2786.1,2873.69 2786.24,2877.98L2787.13,2915.77L2787.13,2921.4ZM2810.69,2913.84C2810.69,2910.58 2810.84,2907.32 2810.69,2904.06C2810.39,2897.99 2809.65,2891.91 2809.51,2885.84C2809.36,2881.99 2809.8,2877.98 2810.1,2874.13C2810.1,2873.84 2810.69,2873.24 2810.99,2873.1C2811.88,2872.95 2812.62,2872.95 2813.51,2873.1C2816.62,2873.69 2819.73,2874.58 2822.84,2875.32C2829.51,2876.8 2837.51,2884.06 2837.51,2891.47C2837.8,2898.28 2838.1,2905.1 2836.77,2911.76C2835.88,2916.8 2834.25,2921.84 2830.25,2925.25C2826.99,2928.06 2817.06,2931.77 2812.62,2931.77C2811.14,2931.77 2810.99,2931.03 2810.84,2928.8L2810.84,2913.84L2810.69,2913.84ZM2822.94,2908.05C2822.53,2907.75 2820.59,2908.58 2821.39,2909.16C2821.81,2909.47 2823.74,2908.62 2822.94,2908.05ZM2827.65,2882.57C2827.67,2881.94 2826.38,2881.31 2826.1,2882.57C2826.08,2883.17 2827.37,2883.82 2827.65,2882.57ZM3007.95,2603.28C3006.74,2603.54 3004.87,2603.32 3004.82,2604.39C3006.04,2604.14 3007.92,2604.37 3007.95,2603.28ZM3033.06,2601.08C3032.63,2600.77 3030.68,2601.6 3031.49,2602.18C3031.93,2602.48 3033.86,2601.65 3033.06,2601.08ZM3001.7,2674.2C3001.26,2673.89 2999.3,2674.73 3000.11,2675.31C3000.57,2675.61 3002.5,2674.77 3001.7,2674.2ZM2901.29,2597.74C2901.73,2598.05 2903.66,2597.2 2902.86,2596.64C2902.43,2596.34 2900.49,2597.17 2901.29,2597.74ZM2413.43,2633.2C2413,2632.91 2411.04,2633.73 2411.87,2634.32C2412.31,2634.63 2414.24,2633.79 2413.43,2633.2ZM3111.5,2633.2C3112.82,2631.92 3113.57,2630.24 3113.07,2627.67C3110.89,2627.71 3109.61,2627.14 3108.35,2626.56C3105.81,2628.35 3106.47,2633.52 3111.5,2633.2ZM2405.57,2630.99L2405.57,2628.77C2404.02,2628.77 2403.72,2627.87 2402.43,2627.67C2402.6,2629.41 2402.24,2631.52 2405.57,2630.99ZM2349.11,2630.99C2350.33,2630.73 2352.21,2630.96 2352.25,2629.88C2351.03,2630.13 2349.16,2629.91 2349.11,2630.99ZM2505.97,2629.88C2508.68,2629.95 2510.01,2629.03 2510.69,2627.67C2508,2627.6 2506.67,2628.52 2505.97,2629.88ZM2468.33,2658.69C2468.33,2658.08 2467.07,2657.43 2466.77,2658.69C2466.76,2659.3 2468.02,2659.95 2468.33,2658.69ZM2374.21,2659.8C2374.63,2660.11 2376.58,2659.26 2375.78,2658.68C2375.34,2658.39 2373.41,2659.22 2374.21,2659.8ZM2890.32,2657.58C2891.54,2657.32 2893.41,2657.54 2893.45,2656.47C2892.23,2656.72 2890.37,2656.51 2890.32,2657.58ZM2490.29,2657.58C2490.72,2657.89 2492.67,2657.04 2491.86,2656.47C2491.42,2656.16 2489.48,2657 2490.29,2657.58ZM2584.4,2690.82C2584.38,2689.69 2581.67,2689.42 2581.28,2690.82C2583.03,2690.7 2583.71,2692.43 2584.4,2690.82ZM2367.93,2680.85C2369.59,2678.04 2362.64,2675.93 2361.64,2678.62C2364.13,2679.11 2363,2682.11 2367.93,2680.85ZM3119.35,2577.8C3123.14,2574.09 3114.09,2580.49 3119.35,2577.8ZM2471.47,2595.54C2471.62,2593.79 2475.47,2594.67 2474.59,2592.2C2471.76,2591.27 2470.29,2589.36 2466.77,2588.88C2466.68,2592.26 2468.18,2594.53 2471.47,2595.54ZM2419.71,2671.98C2419.71,2671.36 2418.43,2670.73 2418.14,2671.98C2418.13,2672.6 2419.4,2673.24 2419.71,2671.98ZM2402.43,2669.76C2402.75,2666.59 2402.64,2663.72 2397.75,2664.22C2397.81,2665.76 2397,2666.66 2396.17,2667.54C2399.29,2667.57 2398.17,2670.57 2402.43,2669.76ZM2460.49,2652.05C2459.26,2652.28 2457.39,2652.07 2457.35,2653.14C2458.56,2652.91 2460.45,2653.12 2460.49,2652.05ZM2327.16,2652.05C2327.16,2651.43 2325.86,2650.78 2325.59,2652.05C2325.56,2652.65 2326.85,2653.3 2327.16,2652.05ZM2979.74,2650.93C2979.3,2650.63 2977.35,2651.46 2978.17,2652.05C2978.59,2652.34 2980.54,2651.51 2979.74,2650.93ZM2502.84,2649.83L2507.54,2649.83C2507.3,2648.52 2507.82,2646.67 2505.97,2646.5C2505.86,2648.24 2501.99,2647.37 2502.84,2649.83ZM2975.01,2647.61L2975.01,2643.19C2972.05,2642.93 2971.57,2644.42 2968.74,2644.29C2968.26,2647.2 2970.92,2647.92 2975.01,2647.61ZM2313.03,2647.61L2313.03,2644.29C2310.69,2644.48 2307.24,2643.88 2306.77,2645.39C2309.87,2645.41 2308.75,2648.42 2313.03,2647.61ZM2407.14,2642.06C2408.85,2644.55 2411.4,2646.45 2416.56,2646.5L2416.56,2640.96C2413.8,2641.6 2407.35,2639.63 2407.14,2642.06ZM2924.82,2643.19C2924.82,2642.56 2923.56,2641.92 2923.27,2643.19C2923.26,2643.79 2924.52,2644.44 2924.82,2643.19ZM2502.84,2642.06C2502.41,2641.76 2500.46,2642.6 2501.28,2643.18C2501.7,2643.49 2503.66,2642.65 2502.84,2642.06ZM3011.1,2640.96C3011.54,2641.26 3013.47,2640.44 3012.67,2639.85C3012.23,2639.55 3010.3,2640.39 3011.1,2640.96ZM2764.82,2639.85C2764.39,2639.55 2762.44,2640.39 2763.25,2640.96C2763.69,2641.26 2765.63,2640.44 2764.82,2639.85ZM3009.53,2630.99C3007.05,2632.64 3007.77,2635.94 3012.67,2635.42C3013.1,2632.89 3012.3,2631.25 3009.53,2630.99ZM2468.33,2617.7C2469.33,2615.01 2460.86,2613.54 2460.49,2615.47C2463.48,2615.95 2463.33,2618.64 2468.33,2617.7ZM3058.16,2612.16L3058.16,2614.36L3061.31,2614.36L3061.31,2612.16L3058.16,2612.16ZM2352.25,2619.91C2352.67,2620.22 2354.62,2619.37 2353.82,2618.8C2353.38,2618.5 2351.44,2619.34 2352.25,2619.91ZM2628.33,2617.7C2628.36,2617.08 2627.07,2616.44 2626.78,2617.7C2626.78,2618.31 2628.03,2618.94 2628.33,2617.7ZM2717.75,2667.54C2717.84,2666.87 2717.97,2666.24 2719.32,2666.44L2719.32,2664.23C2715.47,2662.51 2714.7,2667.99 2717.75,2667.54ZM2320.88,2663.12C2318.71,2663.16 2317.44,2662.6 2316.16,2662C2315.43,2665.45 2320.39,2666.18 2320.88,2663.12ZM3119.35,2592.2C3119.56,2591.05 3118.13,2589.35 3117.76,2591.1C3117.53,2592.26 3118.98,2593.97 3119.35,2592.2ZM2518.52,2590C2518.09,2589.69 2516.16,2590.53 2516.96,2591.11C2517.39,2591.41 2519.33,2590.57 2518.52,2590ZM2454.2,2588.88L2454.2,2591.11L2457.35,2591.11L2457.35,2588.88L2454.2,2588.88ZM3047.17,2612.16C3049.32,2610.74 3049.61,2606.72 3045.6,2606.62C3043.46,2608.02 3043.18,2612.05 3047.17,2612.16ZM2752.27,2607.72C2755.84,2608.03 2758.17,2607.46 2758.55,2605.51C2755.75,2605.75 2750.7,2604.39 2752.27,2607.72ZM2540.49,2606.62C2540.05,2606.29 2538.12,2607.14 2538.91,2607.72C2539.35,2608.03 2541.3,2607.19 2540.49,2606.62ZM2397.75,2606.62C2397.74,2607.23 2399.02,2607.86 2399.31,2606.62C2399.31,2606 2398.05,2605.36 2397.75,2606.62ZM2407.14,2584.46C2405.93,2584.7 2404.06,2584.49 2404.02,2585.56C2405.22,2585.32 2407.1,2585.53 2407.14,2584.46ZM2896.59,2684.17C2901.22,2679.81 2893.29,2676.66 2888.74,2675.31C2888.15,2680.53 2891.55,2682.92 2896.59,2684.17ZM2945.2,2663.12C2944.77,2662.81 2942.85,2663.66 2943.65,2664.23C2944.07,2664.53 2946.01,2663.68 2945.2,2663.12ZM2331.86,2662C2336.3,2663.16 2338.4,2663.16 2342.85,2662C2341.56,2658.86 2340.32,2655.66 2333.41,2656.47C2332.1,2657.76 2331.36,2659.44 2331.86,2662ZM2446.37,2659.8C2446.37,2659.18 2445.11,2658.54 2444.8,2659.8C2444.8,2660.41 2446.06,2661.04 2446.37,2659.8ZM3095.81,2658.69C3094.6,2658.94 3092.71,2658.72 3092.69,2659.8C3093.9,2659.55 3095.77,2659.77 3095.81,2658.69ZM2316.16,2694.14C2318.64,2692.49 2317.92,2689.2 2313.03,2689.71C2312.6,2692.24 2313.41,2693.88 2316.16,2694.14ZM3012.67,2581.13C3011.45,2581.38 3009.58,2581.17 3009.53,2582.24C3010.75,2582 3012.64,2582.22 3012.67,2581.13ZM2615.78,2578.92C2617.11,2577.63 2617.87,2575.93 2617.36,2573.38C2615,2573.56 2611.59,2572.98 2611.08,2574.48C2615.25,2574.13 2609.62,2580.69 2615.78,2578.92ZM2618.93,2575.59C2618.91,2576.2 2620.2,2576.84 2620.51,2575.59C2620.51,2574.98 2619.22,2574.34 2618.93,2575.59ZM2465.18,2574.48C2464.86,2573.13 2463.46,2573.8 2462.06,2574.48C2462.07,2575.6 2464.81,2575.87 2465.18,2574.48ZM2469.9,2568.94C2470.98,2565.97 2466.65,2566.8 2465.18,2565.61C2464.26,2568.51 2465.82,2569.61 2469.9,2568.94ZM2687.95,2673.09C2687.94,2671.97 2685.19,2671.68 2684.82,2673.09C2686.56,2672.97 2687.26,2674.71 2687.95,2673.09ZM2669.13,2671.98L2666,2671.98L2666,2674.2L2669.13,2674.2L2669.13,2671.98ZM2568.74,2679.74C2569.93,2679.49 2571.81,2679.71 2571.86,2678.62C2570.65,2678.89 2568.77,2678.67 2568.74,2679.74ZM2427.55,2678.62C2427.11,2678.33 2425.16,2679.16 2425.98,2679.74C2426.41,2680.05 2428.36,2679.2 2427.55,2678.62ZM2964.13,2799.46L2964.13,2797.25C2957.79,2792.78 2955.52,2803.65 2964.13,2799.46ZM2937.46,2820.52L2937.46,2818.3L2932.75,2818.3C2932.55,2820.29 2934.33,2820.89 2937.46,2820.52ZM2669.22,2819.41C2668.78,2819.1 2666.85,2819.95 2667.65,2820.52C2668.08,2820.82 2670.01,2820 2669.22,2819.41ZM3006.48,2818.3C3006.04,2818.01 3004.12,2818.84 3004.91,2819.41C3005.35,2819.72 3007.29,2818.87 3006.48,2818.3ZM2459.01,2767.34L2459.01,2765.12C2457.44,2765.13 2457.14,2764.22 2455.88,2764.02C2456.03,2765.75 2455.67,2767.85 2459.01,2767.34ZM2397.85,2766.24C2396.62,2766.48 2394.73,2766.26 2394.68,2767.34C2395.93,2767.1 2397.8,2767.3 2397.85,2766.24ZM2678.63,2761.8L2678.63,2764.02L2681.77,2764.02L2681.77,2761.8L2678.63,2761.8ZM2435.48,2762.9C2437.48,2762.96 2437.65,2764.33 2440.19,2764.02C2442.63,2761.29 2434.87,2760.75 2435.48,2762.9ZM2422.92,2783.96C2424.93,2784.02 2425.11,2785.37 2427.64,2785.06C2430.07,2782.35 2422.3,2781.8 2422.92,2783.96ZM3037.86,2783.96C3038.3,2784.26 3040.23,2783.42 3039.43,2782.84C3039,2782.54 3037.07,2783.38 3037.86,2783.96ZM2677.06,2761.8C2676.62,2761.49 2674.7,2762.34 2675.49,2762.9C2675.93,2763.21 2677.87,2762.36 2677.06,2761.8ZM2469.99,2761.8C2468.78,2762.04 2466.88,2761.83 2466.87,2762.9C2468.07,2762.66 2469.93,2762.87 2469.99,2761.8ZM2459.01,2788.39C2459.45,2788.69 2461.38,2787.86 2460.58,2787.28C2460.15,2786.98 2458.2,2787.81 2459.01,2788.39ZM2364.89,2772.88C2364.45,2772.57 2362.51,2773.41 2363.33,2773.99C2363.75,2774.29 2365.7,2773.45 2364.89,2772.88ZM2357.05,2768.44L2357.05,2772.88L2361.76,2772.88C2362.18,2769.99 2362.28,2767.34 2357.05,2768.44ZM2951.59,2816.08C2959.51,2811.63 2946.12,2810.91 2951.59,2816.08ZM3026.87,2813.87C3025.65,2814.12 3023.78,2813.89 3023.74,2814.98C3024.95,2814.73 3026.83,2814.95 3026.87,2813.87ZM2901.39,2812.76L2901.39,2814.98L2904.52,2814.98L2904.52,2812.76L2901.39,2812.76ZM2670.8,2813.87C2670.8,2813.26 2669.52,2812.62 2669.22,2813.87C2669.21,2814.48 2670.49,2815.12 2670.8,2813.87ZM2473.13,2810.55C2472.69,2810.24 2470.74,2811.08 2471.57,2811.65C2472,2811.96 2473.94,2811.12 2473.13,2810.55ZM2460.58,2818.3C2462.67,2819.74 2466.4,2819.77 2466.87,2817.2C2464.78,2815.75 2461.01,2815.73 2460.58,2818.3ZM3017.47,2816.08L3017.47,2818.3L3020.61,2818.3L3020.61,2816.08L3017.47,2816.08ZM2477.84,2792.82C2477.85,2792.2 2476.58,2791.56 2476.28,2792.82C2476.28,2793.44 2477.54,2794.08 2477.84,2792.82ZM2631.56,2805.01L2631.56,2809.44L2634.7,2809.44L2634.7,2805.01L2631.56,2805.01ZM2459.01,2803.89L2462.13,2803.89C2462.25,2802.48 2464.16,2802.37 2463.72,2800.58L2459.01,2800.58L2459.01,2803.89ZM2990.81,2780.64C2990.78,2779.51 2988.05,2779.24 2987.65,2780.64C2989.44,2780.53 2990.12,2782.24 2990.81,2780.64ZM3020.61,2777.3C3015.6,2777.97 3015.75,2775.22 3012.77,2777.3C3012.26,2782.5 3020.02,2780.27 3020.61,2777.3ZM3037.86,2779.52L3037.86,2777.3C3036.29,2777.31 3036.01,2776.41 3034.72,2776.21C3034.87,2777.95 3034.51,2780.05 3037.86,2779.52Z" style="fill:white;"/>
    </g>
</svg>
