<?xml version="1.0" encoding="UTF-8" standalone="no"?>
<!DOCTYPE svg PUBLIC "-//W3C//DTD SVG 1.1//EN" "http://www.w3.org/Graphics/SVG/1.1/DTD/svg11.dtd">
<svg width="100%" height="100%" viewBox="0 0 1030 522" version="1.1" xmlns="http://www.w3.org/2000/svg" xmlns:xlink="http://www.w3.org/1999/xlink" xml:space="preserve" xmlns:serif="http://www.serif.com/" style="fill-rule:evenodd;clip-rule:evenodd;stroke-linejoin:round;stroke-miterlimit:2;">
    <g transform="matrix(0.418003,0,0,0.418003,-186.498,-86.693)">
        <path d="M1009.42,676.043L958.567,1006.14C957.706,1010.45 957.275,1010.88 952.969,1010.88L757.912,1009.59C755.328,1009.16 754.898,1008.73 754.467,1006.14L750.161,964.376L717.867,665.116C717.436,663.824 718.297,662.532 720.02,662.101L1003.78,650.045C1006.14,650.045 1007.93,650.623 1009.19,651.884L1008.95,626.793L1316.82,651.767L1316.02,661.952L1596.27,650.045C1602.09,650.045 1604.41,653.536 1603.87,662.089L1887.35,650.045C1893.81,650.045 1895.96,654.351 1894.67,665.116L1842.14,1006.14C1841.28,1010.45 1840.85,1010.88 1836.54,1010.88L1641.48,1009.59C1638.9,1009.16 1638.47,1008.73 1638.04,1006.14L1633.73,964.376L1602.33,673.334L1551.06,1006.14C1550.2,1010.45 1549.77,1010.88 1545.46,1010.88L1350.4,1009.59C1347.82,1009.16 1347.39,1008.73 1346.96,1006.14L1342.65,964.376L1313.5,694.179L1287.54,1025.52L1054.16,1009.59L1012.39,988.058L1009.42,676.043ZM1694.45,984.614C1706.93,984.614 1775.83,985.475 1781.42,984.614C1785.3,984.614 1783.58,982.461 1782.29,980.308C1773.24,970.404 1770.66,957.486 1770.66,944.138C1770.66,879.55 1771.09,814.53 1772.81,749.511C1784.01,749.942 1794.77,755.54 1809.41,755.54C1835.68,755.54 1858.07,740.899 1858.07,712.48C1858.07,695.687 1852.47,674.589 1846.01,674.589C1844.72,674.589 1825.78,695.687 1806.83,695.687C1775.4,695.687 1738.8,674.589 1705.64,674.589C1675.07,674.589 1630.29,696.118 1630.29,735.732C1630.29,759.415 1641.48,777.93 1660.86,777.93C1669.9,777.93 1670.33,775.347 1670.33,770.61C1668.61,746.497 1696.17,737.024 1716.84,737.024C1724.16,737.024 1736.64,738.316 1743.96,740.899C1745.69,741.33 1745.26,743.914 1743.1,743.914C1734.92,742.622 1712.96,741.33 1702.2,741.761C1700.47,741.761 1700.47,741.761 1700.9,743.483C1710.81,786.542 1706.93,894.62 1706.93,939.832C1706.93,965.237 1696.17,973.418 1693.15,979.016C1692.29,980.308 1692.29,981.169 1692.29,982.03C1692.29,983.322 1693.15,984.614 1694.45,984.614ZM1403.37,984.614C1415.85,984.614 1484.75,985.475 1490.35,984.614C1494.22,984.614 1492.5,982.461 1491.21,980.308C1482.16,970.404 1479.58,957.486 1479.58,944.138C1479.58,879.55 1480.01,814.53 1481.73,749.511C1492.93,749.942 1503.69,755.54 1518.33,755.54C1544.6,755.54 1566.99,740.899 1566.99,712.48C1566.99,695.687 1561.39,674.589 1554.93,674.589C1553.64,674.589 1534.7,695.687 1515.75,695.687C1484.32,695.687 1447.72,674.589 1414.56,674.589C1383.99,674.589 1339.21,696.118 1339.21,735.732C1339.21,759.415 1350.4,777.93 1369.78,777.93C1378.82,777.93 1379.25,775.347 1379.25,770.61C1377.53,746.497 1405.09,737.024 1425.76,737.024C1433.08,737.024 1445.57,738.316 1452.88,740.899C1454.61,741.33 1454.18,743.914 1452.02,743.914C1443.84,742.622 1421.88,741.33 1411.12,741.761C1409.39,741.761 1409.39,741.761 1409.83,743.483C1419.73,786.542 1415.85,894.62 1415.85,939.832C1415.85,965.237 1405.09,973.418 1402.08,979.016C1401.21,980.308 1401.21,981.169 1401.21,982.03C1401.21,983.322 1402.08,984.614 1403.37,984.614ZM810.874,984.614C823.361,984.614 892.256,985.475 897.854,984.614C901.729,984.614 900.007,982.461 898.715,980.308C889.672,970.404 887.089,957.486 887.089,944.138C887.089,879.55 887.519,814.53 889.242,749.511C900.437,749.942 911.202,755.54 925.842,755.54C952.108,755.54 974.499,740.899 974.499,712.48C974.499,695.687 968.901,674.589 962.442,674.589C961.15,674.589 942.204,695.687 923.258,695.687C891.825,695.687 855.225,674.589 822.07,674.589C791.498,674.589 746.716,696.118 746.716,735.732C746.716,759.415 757.912,777.93 777.288,777.93C786.331,777.93 786.761,775.347 786.761,770.61C785.039,746.497 812.597,737.024 833.265,737.024C840.585,737.024 853.072,738.316 860.392,740.899C862.115,741.33 861.684,743.914 859.531,743.914C851.35,742.622 829.39,741.33 818.625,741.761C816.903,741.761 816.903,741.761 817.333,743.483C827.237,786.542 823.361,894.62 823.361,939.832C823.361,965.237 812.597,973.418 809.583,979.016C808.721,980.308 808.721,981.169 808.721,982.03C808.721,983.322 809.583,984.614 810.874,984.614ZM1190.65,849.839C1191.09,887.3 1195.82,934.235 1169.99,963.515C1169.13,964.807 1168.69,966.959 1170.42,966.959L1266.87,966.959C1269.88,966.959 1269.45,965.237 1267.73,963.515C1251.37,942.416 1248.35,926.053 1248.35,898.926C1248.35,825.726 1247.92,751.664 1248.35,678.464C1248.35,675.88 1249.65,674.589 1249.65,672.866C1249.65,671.574 1248.79,671.574 1247.49,671.574C1207.45,672.005 1194.1,664.254 1165.25,664.254C1115.73,664.254 1070.09,706.452 1070.09,756.401C1070.09,803.335 1091.19,848.978 1091.19,901.079C1091.19,923.9 1087.74,944.138 1067.94,957.917C1066.21,959.639 1065.78,960.501 1066.64,962.654C1072.67,977.724 1087.31,985.905 1103.25,985.905C1140.28,985.905 1150.18,950.166 1150.18,912.705C1150.18,889.453 1146.3,865.771 1142.86,849.839C1142,846.394 1143.72,843.811 1147.6,843.811L1184.63,843.811C1188.07,843.811 1190.65,846.394 1190.65,849.839ZM1190.22,734.441L1190.22,785.681C1190.22,788.695 1188.93,789.126 1185.92,789.126L1137.26,789.126C1134.25,789.126 1131.23,788.695 1129.94,786.542C1127.79,783.097 1125.64,772.763 1125.64,761.568C1125.64,737.024 1138.55,722.815 1160.94,722.815C1173.43,722.815 1181.18,724.106 1185.49,725.829C1188.93,727.551 1190.22,729.704 1190.22,734.441ZM2042.92,1124.77L2016.96,1456.11L1783.58,1440.18L1741.81,1418.65L1738.37,1057.38L2046.24,1082.36L2045.44,1092.54L2325.69,1080.63C2332.15,1080.63 2334.3,1084.94 2333.01,1095.71L2280.48,1436.73C2279.62,1441.04 2279.19,1441.47 2274.88,1441.47L2079.82,1440.18C2077.24,1439.75 2076.81,1439.32 2076.38,1436.73L2072.07,1394.97L2042.92,1124.77ZM1920.08,1280.43C1920.51,1317.89 1925.24,1364.83 1899.41,1394.11C1898.55,1395.4 1898.12,1397.55 1899.84,1397.55L1996.29,1397.55C1999.3,1397.55 1998.87,1395.83 1997.15,1394.11C1980.79,1373.01 1977.77,1356.64 1977.77,1329.52C1977.77,1256.32 1977.34,1182.26 1977.77,1109.05C1977.77,1106.47 1979.07,1105.18 1979.07,1103.46C1979.07,1102.16 1978.21,1102.16 1976.91,1102.16C1936.87,1102.6 1923.52,1094.85 1894.67,1094.85C1845.15,1094.85 1799.51,1137.04 1799.51,1186.99C1799.51,1233.93 1820.61,1279.57 1820.61,1331.67C1820.61,1354.49 1817.16,1374.73 1797.36,1388.51C1795.63,1390.23 1795.2,1391.09 1796.07,1393.24C1802.09,1408.32 1816.73,1416.5 1832.66,1416.5C1869.7,1416.5 1879.6,1380.76 1879.6,1343.3C1879.6,1320.04 1875.72,1296.36 1872.28,1280.43C1871.42,1276.99 1873.14,1274.4 1877.02,1274.4L1914.05,1274.4C1917.49,1274.4 1920.08,1276.99 1920.08,1280.43ZM1919.64,1165.03L1919.64,1216.27C1919.64,1219.29 1918.35,1219.72 1915.34,1219.72L1866.68,1219.72C1863.67,1219.72 1860.65,1219.29 1859.36,1217.13C1857.21,1213.69 1855.06,1203.35 1855.06,1192.16C1855.06,1167.62 1867.97,1153.4 1890.37,1153.4C1902.85,1153.4 1910.6,1154.7 1914.91,1156.42C1918.35,1158.14 1919.64,1160.3 1919.64,1165.03ZM2132.79,1415.2C2145.27,1415.2 2214.17,1416.07 2219.77,1415.2C2223.64,1415.2 2221.92,1413.05 2220.63,1410.9C2211.59,1401 2209,1388.08 2209,1374.73C2209,1310.14 2209.43,1245.12 2211.15,1180.1C2222.35,1180.53 2233.12,1186.13 2247.76,1186.13C2274.02,1186.13 2296.41,1171.49 2296.41,1143.07C2296.41,1126.28 2290.81,1105.18 2284.36,1105.18C2283.06,1105.18 2264.12,1126.28 2245.17,1126.28C2213.74,1126.28 2177.14,1105.18 2143.98,1105.18C2113.41,1105.18 2068.63,1126.71 2068.63,1166.32C2068.63,1190.01 2079.82,1208.52 2099.2,1208.52C2108.24,1208.52 2108.67,1205.94 2108.67,1201.2C2106.95,1177.09 2134.51,1167.62 2155.18,1167.62C2162.5,1167.62 2174.99,1168.91 2182.3,1171.49C2184.03,1171.92 2183.6,1174.5 2181.44,1174.5C2173.26,1173.21 2151.3,1171.92 2140.54,1172.35C2138.82,1172.35 2138.82,1172.35 2139.25,1174.07C2149.15,1217.13 2145.27,1325.21 2145.27,1370.42C2145.27,1395.83 2134.51,1404.01 2131.49,1409.61C2130.63,1410.9 2130.63,1411.76 2130.63,1412.62C2130.63,1413.91 2131.49,1415.2 2132.79,1415.2ZM479.32,207.398L740.688,236.678L751.453,577.706L493.529,585.887L446.595,515.27L479.32,207.398ZM484.487,526.465C494.821,534.647 558.548,553.593 599.024,553.593C651.125,553.593 707.533,534.216 707.533,477.378C707.533,444.223 684.711,420.54 658.445,405.47C682.558,389.538 699.351,360.258 699.351,328.394C699.351,284.904 661.89,245.72 600.316,245.72C546.492,245.72 498.266,289.21 498.266,337.436C498.266,358.535 510.322,377.481 527.115,381.787C529.268,322.366 564.577,271.125 603.33,271.125C632.179,271.125 654.57,300.405 654.57,339.159C654.57,364.563 644.236,384.371 627.443,391.26C619.262,388.246 605.052,384.801 594.287,383.94C596.44,352.507 596.44,311.601 611.942,284.043C612.803,283.182 612.372,281.89 610.219,281.89C583.523,284.474 565.438,319.782 559.84,343.464C548.214,394.705 531.852,493.741 484.487,526.465ZM650.695,459.293C650.695,502.783 606.344,516.562 568.452,516.562C560.701,516.562 553.381,515.701 546.492,514.839C572.758,490.726 583.092,461.016 588.259,430.444C604.191,430.874 620.123,429.583 632.179,421.832C642.083,425.277 650.695,445.514 650.695,459.293ZM767.385,226.774L1039.95,230.219L1019.71,584.165L766.523,547.995C766.523,440.778 767.385,333.991 767.385,226.774ZM887.089,409.775C898.715,402.455 981.388,380.926 981.388,303.85C981.388,268.542 956.844,239.262 927.564,239.262C873.31,239.262 860.392,346.479 842.738,386.524C829.39,386.524 810.013,372.314 810.013,358.966C810.013,356.813 811.305,350.785 808.291,350.785C793.651,350.785 778.58,369.731 778.58,383.94C778.58,414.512 814.75,415.373 835.418,418.387C827.237,448.959 805.277,482.115 784.608,497.616C783.317,498.908 783.747,499.769 785.039,499.769C848.766,504.075 886.228,547.564 934.023,547.564C959.428,547.564 977.943,528.188 977.943,503.214C977.943,494.171 977.513,488.573 976.221,485.129C975.36,482.115 974.068,481.253 971.485,481.253C970.193,481.253 968.901,482.115 967.609,482.976C955.983,489.865 940.482,493.31 927.134,493.31C907.757,493.31 889.242,482.976 869.435,482.976C860.392,482.976 851.78,484.268 843.599,486.851C842.307,487.282 841.446,486.421 842.307,485.559C865.99,460.154 878.908,434.75 887.089,409.775ZM931.44,266.819C939.19,287.918 921.967,371.453 896.562,373.606C904.743,335.283 909.049,299.114 931.44,266.819ZM1063.63,228.066C1163.53,228.066 1262.99,228.927 1362.46,228.927C1367.2,228.927 1370.64,227.205 1370.64,233.233C1370.64,243.568 1368.49,254.332 1367.63,264.666L1337.49,566.941C1337.49,570.386 1337.49,574.692 1332.75,575.553L1066.21,591.054C1055.45,591.054 1057.6,582.442 1057.6,572.108C1057.6,488.143 1057.17,396.858 1058.89,313.323C1059.33,289.21 1058.46,265.528 1059.76,241.845C1060.19,238.4 1059.76,228.066 1063.63,228.066ZM1075.69,368.869C1075.69,394.274 1090.76,413.651 1111,413.651C1116.16,413.651 1120.04,411.928 1120.9,409.345C1119.61,407.192 1114.44,390.399 1114.44,374.467C1114.44,340.45 1123.91,302.558 1145.01,278.876C1149.32,274.139 1153.19,271.125 1156.21,271.125C1162.24,270.695 1167.83,285.335 1167.83,301.267C1167.83,364.994 1102.38,432.166 1102.38,507.519C1102.38,536.369 1117.02,556.607 1137.69,556.607C1176.88,556.607 1200.56,523.882 1219.51,499.338C1220.37,498.046 1221.66,498.046 1222.09,499.338C1224.24,520.868 1228.98,551.87 1260.84,551.87C1285.82,551.87 1308.64,521.298 1316.82,500.63C1320.26,492.018 1329.31,477.378 1329.31,469.627C1329.31,467.905 1328.44,467.044 1326.72,467.044C1321.99,467.044 1311.22,489.865 1290.12,489.865C1271.61,489.865 1263.86,467.044 1263.86,451.543C1263.86,441.639 1265.58,424.846 1270.75,416.234C1289.69,385.232 1339.64,305.142 1339.64,271.125C1339.64,260.361 1335.33,248.735 1322.85,248.735C1274.62,248.735 1242.76,371.453 1234.58,405.039C1231.99,416.234 1230.7,430.874 1225.1,441.209C1216.49,457.14 1195.39,493.31 1173.86,493.31C1161.38,493.31 1160.94,476.517 1160.94,467.905C1160.94,427.43 1207.02,355.521 1207.02,308.156C1207.02,274.139 1190.65,252.61 1163.96,252.61C1114.87,252.61 1075.69,325.81 1075.69,368.869ZM1735.78,591.915L1389.59,592.346L1456.76,223.33L1730.62,251.318L1735.78,591.915ZM1674.64,327.533C1661.29,382.218 1645.36,435.611 1645.36,492.879C1645.36,529.049 1662.58,547.995 1698.75,547.995C1703.06,547.995 1702.2,544.12 1701.77,541.536C1696.6,516.131 1694.02,491.588 1694.02,465.322C1694.02,412.79 1707.79,357.243 1718.99,306.434C1720.28,302.128 1719.42,300.405 1717.27,296.1C1712.1,284.904 1697.03,267.681 1689.28,267.681C1676.79,267.681 1632.44,367.147 1624.69,377.481C1626.84,371.453 1632.44,350.354 1632.44,340.45C1632.44,328.394 1620.82,308.156 1607.04,308.156C1590.67,308.156 1563.12,364.133 1558.81,364.994C1562.68,344.326 1570.44,251.749 1536.42,251.749C1495.94,251.749 1453.32,368.008 1453.32,404.178C1453.32,423.554 1464.51,437.333 1483.89,442.5C1486.04,442.931 1487.76,443.361 1487.33,440.347C1481.73,400.733 1513.17,268.972 1531.68,268.972C1534.27,268.972 1535.13,273.278 1535.13,282.751C1535.13,374.036 1463.22,509.242 1463.22,521.298C1463.22,523.882 1499.82,543.689 1503.69,543.689C1506.28,543.689 1591.97,341.742 1603.59,328.394C1605.31,326.671 1605.31,327.963 1604.88,329.686C1595.84,369.731 1561.82,466.183 1561.82,488.143C1561.82,498.477 1571.3,505.797 1582.06,512.256C1597.56,470.058 1644.07,373.606 1672.92,326.671C1674.64,323.657 1675.5,324.088 1674.64,327.533ZM1777.55,581.15L1756.45,207.828L2010.93,229.789L1995.43,504.075L1936.01,569.955L1777.55,581.15ZM1802.52,472.211C1802.52,518.284 1836.97,541.106 1880.46,541.106C1929.98,541.106 1946.77,510.964 1946.77,485.559C1946.77,467.044 1937.3,450.682 1925.24,450.682C1918.78,469.627 1906.3,479.962 1890.8,479.962C1873.57,479.962 1864.96,461.016 1864.96,442.5C1864.96,430.874 1868.4,419.679 1874.86,413.22C1878.31,413.22 1896.82,422.263 1912.76,422.263C1920.94,422.263 1937.73,421.401 1937.73,409.775C1937.73,392.121 1894.24,387.815 1880.03,393.413C1862.81,382.218 1854.63,352.076 1854.63,329.686C1854.63,293.947 1871.42,262.513 1887.78,262.513C1898.98,262.513 1904.14,275.431 1904.14,290.932C1904.14,314.184 1894.67,340.45 1868.84,344.326C1868.84,356.382 1882.18,368.869 1899.84,368.869C1919.64,368.869 1944.19,353.799 1944.19,306.864C1944.19,274.139 1920.94,242.276 1886.49,242.276C1835.68,242.276 1809.41,275.431 1809.41,326.671C1809.41,366.716 1827.07,388.246 1854.19,401.594C1827.07,411.498 1802.52,437.333 1802.52,472.211ZM2278.76,583.303L2025.57,584.165L2022.99,229.789L2324.4,209.981L2278.76,583.303ZM2236.56,527.327C2218.47,466.183 2201.25,404.608 2183.17,343.464C2176.28,319.351 2169.39,292.655 2162.07,268.972C2161.64,267.25 2159.91,265.958 2158.19,265.958L2084.13,265.958C2081.98,265.958 2082.41,267.25 2083.27,268.972C2088.01,279.737 2091.02,298.683 2091.02,324.519L2091.02,377.051C2091.02,466.183 2077.24,524.312 2047.1,559.19C2046.24,560.051 2046.67,561.343 2047.96,561.343L2145.7,561.343C2147,561.343 2147.43,560.482 2146.57,559.19C2116.43,516.992 2101.78,449.82 2102.65,357.243L2102.65,321.074L2170.68,555.746C2171.97,559.19 2172.83,560.482 2175.41,560.482L2252.92,560.482C2254.21,560.482 2254.21,558.76 2253.35,557.899C2249.48,554.454 2248.18,549.287 2248.18,543.689L2248.18,452.834C2248.18,369.731 2264.98,311.601 2292.11,267.25L2192.21,267.25C2214.17,317.198 2236.56,367.147 2236.56,487.282L2236.56,527.327ZM697.629,644.017L702.796,1014.75L462.957,1011.74L446.164,651.767L697.629,644.017ZM659.306,769.318C659.737,763.721 660.598,757.262 660.598,751.664C660.598,747.789 659.306,744.344 659.306,740.899C659.306,727.551 659.737,714.633 659.737,701.285C659.737,699.563 659.737,689.229 657.584,689.229C652.848,689.229 647.681,691.812 642.513,691.812C618.831,691.812 599.454,678.033 575.772,678.033C520.226,678.033 484.487,709.036 484.487,757.262C484.487,816.253 533.574,836.06 574.05,853.284C598.163,863.618 637.346,886.439 637.346,916.15C637.346,935.096 620.123,949.305 597.301,949.305C563.715,949.305 532.713,932.082 511.614,907.107C506.016,900.218 491.376,883.425 488.793,874.813L487.931,875.244C487.931,900.649 488.362,948.875 488.362,974.279C488.362,976.863 488.793,977.724 492.668,977.294C504.724,975.141 513.336,974.279 521.518,974.279C534.866,974.279 551.659,982.891 596.871,982.891C630.026,982.891 673.085,967.39 673.085,900.218C673.085,779.653 529.699,799.029 529.699,730.996C529.699,710.758 552.951,706.452 568.882,706.452C602.469,706.452 636.916,735.302 654.139,761.568L659.306,769.318ZM763.079,1435.01L446.164,1445.35L453.054,1069.44C553.381,1069.44 658.876,1071.16 759.203,1075.47L763.079,1435.01ZM647.681,1220.58C642.513,1220.58 636.916,1219.72 631.318,1219.72C630.026,1219.72 629.596,1220.58 629.165,1221.87C627.443,1231.34 627.873,1253.73 627.873,1267.08C627.873,1268.37 628.304,1270.1 628.304,1271.82C628.735,1275.69 643.805,1276.12 647.681,1276.12C656.723,1276.12 656.723,1276.12 656.723,1285.17C656.723,1291.62 655.431,1298.51 655.431,1304.97C655.431,1313.59 658.876,1322.63 658.876,1330.81C658.876,1335.98 642.513,1337.27 642.513,1342C642.513,1343.3 642.083,1343.73 640.36,1343.73C639.499,1342.43 637.777,1341.57 636.485,1341.57C634.763,1341.57 626.582,1343.73 626.582,1345.02C626.582,1351.05 625.29,1356.64 625.29,1362.67C625.29,1365.69 627.012,1368.7 627.443,1377.74C627.443,1382.48 626.582,1386.79 626.582,1391.52C626.582,1394.97 625.29,1401.86 629.596,1401.86C639.499,1401.86 663.182,1399.27 672.655,1394.54C677.822,1391.95 683.85,1389.37 689.448,1388.08C695.045,1386.79 699.782,1384.2 704.518,1381.19C707.102,1379.46 711.408,1378.17 713.561,1376.45C716.144,1373.87 715.714,1372.58 719.589,1369.99C724.756,1369.99 729.923,1355.78 729.923,1351.05C729.923,1349.75 729.923,1348.46 729.062,1347.6L728.201,1338.56C727.34,1329.95 729.062,1320.04 729.062,1311.43C729.062,1307.13 728.201,1303.25 728.201,1298.94C728.201,1277.41 730.784,1258.04 726.479,1236.51C727.77,1232.63 726.048,1228.33 726.048,1224.45L726.048,1223.16C726.479,1217.99 712.269,1218.42 708.394,1218.42C705.81,1218.42 682.989,1219.72 681.267,1220.15C673.516,1217.56 656.723,1220.58 647.681,1220.58ZM605.052,1100.87C593.426,1100.87 581.37,1103.03 571.035,1107.76C567.591,1109.49 563.715,1108.62 560.271,1109.49C557.687,1110.35 554.673,1111.64 552.089,1112.07C548.214,1112.5 543.908,1117.67 540.894,1120.25C539.172,1121.54 536.588,1121.97 536.588,1124.56L535.296,1126.28C530.991,1128 528.407,1132.74 524.101,1134.46L521.948,1137.47C521.087,1140.49 512.906,1144.79 510.322,1149.96C509.03,1152.54 507.308,1154.7 505.155,1156.85C500.419,1161.59 498.266,1167.18 495.682,1173.21C493.96,1177.52 489.654,1180.53 488.362,1184.41C484.917,1193.02 480.611,1205.08 480.611,1214.98C480.611,1219.29 477.597,1221.44 477.597,1225.74C477.597,1230.48 476.736,1235.22 476.736,1239.95L476.736,1258.47C476.736,1263.21 478.458,1267.08 478.458,1271.39C478.458,1272.68 478.458,1273.97 478.028,1275.26C479.75,1279.14 479.32,1283.44 480.611,1287.32C484.056,1296.79 484.487,1307.56 488.793,1316.6C491.376,1322.63 499.127,1332.96 499.557,1338.56C502.572,1341.14 506.447,1349.75 509.892,1353.63C516.35,1360.95 520.656,1367.84 529.699,1372.58C532.713,1374.3 558.548,1390.66 559.409,1391.95C562.854,1393.67 568.021,1392.38 570.605,1394.11C573.619,1396.26 599.454,1402.29 603.76,1402.29C605.483,1402.29 608.927,1402.72 608.927,1400.13C608.927,1387.22 608.927,1374.3 607.636,1361.38L607.636,1346.31C607.636,1343.73 605.483,1342.87 603.33,1342.87C595.579,1342.43 580.939,1334.25 574.911,1328.65C570.605,1324.35 567.591,1319.18 562.854,1315.31C556.826,1310.57 555.534,1301.53 549.075,1296.79L548.214,1295.5C547.784,1289.04 543.908,1283.44 542.616,1277.41C541.325,1271.82 540.894,1264.07 540.894,1258.04C540.894,1245.55 546.061,1231.77 546.061,1219.72L546.061,1217.99C551.228,1203.35 557.687,1193.02 566.299,1180.1C569.744,1177.95 572.327,1174.5 576.203,1172.35C584.814,1167.62 597.301,1162.45 606.774,1160.73C609.358,1160.3 611.942,1159 612.372,1156.42C613.233,1150.39 613.233,1143.07 613.233,1137.04C613.233,1132.31 611.511,1128 611.511,1123.26C611.511,1117.67 612.803,1111.21 612.803,1105.18C612.803,1101.3 611.942,1100.87 608.497,1100.87L605.052,1100.87ZM628.735,1152.54L629.165,1152.54C628.735,1154.7 628.735,1157.28 628.304,1159.43L629.165,1160.73C647.25,1160.73 653.278,1170.63 663.182,1170.63C669.21,1173.21 682.128,1187.42 686.003,1187.42C687.295,1187.42 732.507,1155.13 732.507,1152.11C732.507,1148.24 706.671,1119.39 701.504,1119.39C701.074,1119.39 700.213,1119.39 699.782,1119.82L698.06,1119.39C688.156,1112.07 678.683,1107.76 666.626,1104.75C662.321,1105.61 644.236,1102.16 640.791,1099.58C638.208,1099.15 634.332,1098.29 631.749,1098.29C630.457,1098.29 628.735,1099.15 628.735,1100.87C628.735,1104.32 631.318,1109.05 631.318,1113.36C631.318,1115.08 631.318,1116.81 630.457,1118.1L630.457,1119.82C630.887,1120.68 631.318,1121.97 631.318,1123.26C631.318,1125.85 630.026,1128.86 629.596,1131.44C630.457,1134.46 629.596,1149.1 628.735,1152.54ZM780.733,1069.01L1090.76,1102.6L1012.82,1420.37L796.665,1452.66L780.733,1069.01ZM892.686,1168.48C897.854,1149.53 903.021,1135.32 910.341,1119.39C911.632,1116.81 912.063,1115.08 909.049,1115.08L813.027,1115.08C831.112,1151.25 842.307,1206.8 842.307,1260.19C842.307,1311.86 834.987,1357.51 809.583,1403.15C809.152,1404.01 808.721,1406.59 811.305,1406.59L914.216,1406.59C916.369,1406.59 915.508,1404.01 915.077,1403.15C897.854,1360.09 885.366,1307.56 885.366,1260.19C885.366,1218.86 903.451,1174.93 939.621,1151.25L940.482,1152.11C940.913,1152.54 936.176,1164.17 936.176,1178.38C936.176,1214.98 957.706,1242.11 986.986,1242.11C1020.57,1242.11 1039.95,1202.92 1039.95,1174.07C1039.95,1133.17 1016.27,1109.91 985.263,1109.91C941.774,1109.91 912.494,1142.64 893.978,1169.34C893.548,1169.77 893.117,1169.77 893.117,1169.34C892.686,1168.91 892.686,1168.48 892.686,1168.48ZM1376.24,1456.11L1142.86,1440.18L1101.09,1418.65L1097.65,1057.38L1405.52,1082.36L1376.24,1456.11ZM1279.36,1280.43C1279.79,1317.89 1284.52,1364.83 1258.69,1394.11C1257.83,1395.4 1257.4,1397.55 1259.12,1397.55L1355.57,1397.55C1358.59,1397.55 1358.15,1395.83 1356.43,1394.11C1340.07,1373.01 1337.06,1356.64 1337.06,1329.52C1337.06,1256.32 1336.62,1182.26 1337.06,1109.05C1337.06,1106.47 1338.35,1105.18 1338.35,1103.46C1338.35,1102.16 1337.49,1102.16 1336.19,1102.16C1296.15,1102.6 1282.8,1094.85 1253.95,1094.85C1204.43,1094.85 1158.79,1137.04 1158.79,1186.99C1158.79,1233.93 1179.89,1279.57 1179.89,1331.67C1179.89,1354.49 1176.45,1374.73 1156.64,1388.51C1154.92,1390.23 1154.49,1391.09 1155.35,1393.24C1161.38,1408.32 1176.02,1416.5 1191.95,1416.5C1228.98,1416.5 1238.88,1380.76 1238.88,1343.3C1238.88,1320.04 1235.01,1296.36 1231.56,1280.43C1230.7,1276.99 1232.42,1274.4 1236.3,1274.4L1273.33,1274.4C1276.77,1274.4 1279.36,1276.99 1279.36,1280.43ZM1278.93,1165.03L1278.93,1216.27C1278.93,1219.29 1277.63,1219.72 1274.62,1219.72L1225.96,1219.72C1222.95,1219.72 1219.93,1219.29 1218.64,1217.13C1216.49,1213.69 1214.34,1203.35 1214.34,1192.16C1214.34,1167.62 1227.26,1153.4 1249.65,1153.4C1262.13,1153.4 1269.88,1154.7 1274.19,1156.42C1277.63,1158.14 1278.93,1160.3 1278.93,1165.03ZM1677.22,1444.48L1424.04,1445.35L1421.45,1090.97L1722.87,1071.16L1677.22,1444.48ZM1635.02,1388.51C1616.94,1327.36 1599.72,1265.79 1581.63,1204.64C1574.74,1180.53 1567.85,1153.84 1560.53,1130.15C1560.1,1128.43 1558.38,1127.14 1556.66,1127.14L1482.6,1127.14C1480.44,1127.14 1480.87,1128.43 1481.73,1130.15C1486.47,1140.92 1489.49,1159.86 1489.49,1185.7L1489.49,1238.23C1489.49,1327.36 1475.71,1385.49 1445.57,1420.37C1444.7,1421.23 1445.13,1422.52 1446.43,1422.52L1544.17,1422.52C1545.46,1422.52 1545.89,1421.66 1545.03,1420.37C1514.89,1378.17 1500.25,1311 1501.11,1218.42L1501.11,1182.26L1569.14,1416.93C1570.44,1420.37 1571.3,1421.66 1573.88,1421.66L1651.39,1421.66C1652.68,1421.66 1652.68,1419.94 1651.82,1419.08C1647.94,1415.63 1646.65,1410.47 1646.65,1404.87L1646.65,1314.02C1646.65,1230.91 1663.44,1172.78 1690.57,1128.43L1590.67,1128.43C1612.63,1178.38 1635.02,1228.33 1635.02,1348.46L1635.02,1388.51ZM2361.86,1442.33L2340.76,1069.01L2595.24,1090.97L2579.74,1365.26L2520.32,1431.14L2361.86,1442.33ZM2386.84,1333.39C2386.84,1379.46 2421.28,1402.29 2464.77,1402.29C2514.29,1402.29 2531.08,1372.14 2531.08,1346.74C2531.08,1328.23 2521.61,1311.86 2509.55,1311.86C2503.1,1330.81 2490.61,1341.14 2475.11,1341.14C2457.88,1341.14 2449.27,1322.2 2449.27,1303.68C2449.27,1292.06 2452.72,1280.86 2459.18,1274.4C2462.62,1274.4 2481.14,1283.44 2497.07,1283.44C2505.25,1283.44 2522.04,1282.58 2522.04,1270.96C2522.04,1253.3 2478.55,1249 2464.34,1254.59C2447.12,1243.4 2438.94,1213.26 2438.94,1190.87C2438.94,1155.13 2455.73,1123.69 2472.09,1123.69C2483.29,1123.69 2488.45,1136.61 2488.45,1152.11C2488.45,1175.37 2478.98,1201.63 2453.15,1205.51C2453.15,1217.56 2466.49,1230.05 2484.15,1230.05C2503.96,1230.05 2528.5,1214.98 2528.5,1168.05C2528.5,1135.32 2505.25,1103.46 2470.8,1103.46C2419.99,1103.46 2393.72,1136.61 2393.72,1187.85C2393.72,1227.9 2411.38,1249.43 2438.51,1262.78C2411.38,1272.68 2386.84,1298.51 2386.84,1333.39ZM2863.07,1444.48L2609.88,1445.35L2607.3,1090.97L2908.71,1071.16L2863.07,1444.48ZM2820.87,1388.51C2802.79,1327.36 2785.56,1265.79 2767.48,1204.64C2760.59,1180.53 2753.7,1153.84 2746.38,1130.15C2745.95,1128.43 2744.22,1127.14 2742.5,1127.14L2668.44,1127.14C2666.29,1127.14 2666.72,1128.43 2667.58,1130.15C2672.32,1140.92 2675.33,1159.86 2675.33,1185.7L2675.33,1238.23C2675.33,1327.36 2661.55,1385.49 2631.41,1420.37C2630.55,1421.23 2630.98,1422.52 2632.27,1422.52L2730.02,1422.52C2731.31,1422.52 2731.74,1421.66 2730.88,1420.37C2700.74,1378.17 2686.1,1311 2686.96,1218.42L2686.96,1182.26L2754.99,1416.93C2756.28,1420.37 2757.14,1421.66 2759.73,1421.66L2837.23,1421.66C2838.53,1421.66 2838.53,1419.94 2837.66,1419.08C2833.79,1415.63 2832.5,1410.47 2832.5,1404.87L2832.5,1314.02C2832.5,1230.91 2849.29,1172.78 2876.42,1128.43L2776.52,1128.43C2798.48,1178.38 2820.87,1228.33 2820.87,1348.46L2820.87,1388.51Z" style="fill:white;"/>
    </g>
</svg>
