<?xml version="1.0" encoding="UTF-8" standalone="no"?>
<!DOCTYPE svg PUBLIC "-//W3C//DTD SVG 1.1//EN" "http://www.w3.org/Graphics/SVG/1.1/DTD/svg11.dtd">
<svg width="100%" height="100%" viewBox="0 0 1963 2090" version="1.1" xmlns="http://www.w3.org/2000/svg" xmlns:xlink="http://www.w3.org/1999/xlink" xml:space="preserve" xmlns:serif="http://www.serif.com/" style="fill-rule:evenodd;clip-rule:evenodd;stroke-linejoin:round;stroke-miterlimit:2;">
    <g transform="matrix(1.24448,-1.47143,1.47143,1.24448,1040.2,1103.48)">
        <path d="M8.804,-157.285C7.109,-164.329 3.105,-168.526 -2.127,-170.865C0.43,-175.052 1.853,-180.739 -0.209,-188.491C-5.506,-208.66 -33.442,-201.649 -38.878,-200.709C-44.334,-199.766 -43.955,-196.027 -43.724,-192.701C-42.645,-177.103 -37.002,-133.24 -37.002,-133.24C-36.34,-127.828 -28.491,-129.372 -23.77,-129.971C-3.648,-132.526 12.713,-141.046 8.804,-157.285L8.804,-157.285ZM-26.514,-186.542C-26.514,-186.542 -17.254,-188.753 -15.894,-184.488C-14.161,-179.053 -21.637,-177.304 -25.299,-177.111L-26.514,-186.542ZM-21.613,-147.622C-22.213,-153.743 -23.219,-158.791 -22.958,-158.867C-15.569,-161.026 -10.915,-158.448 -10.485,-155.929C-9.643,-151.002 -15.589,-148.391 -21.613,-147.622L-21.613,-147.622Z" style="fill:white;fill-rule:nonzero;"/>
        <path d="M50.251,-177.683C57.458,-179.159 60.105,-185.702 59.074,-190.063C56.913,-197.642 49.971,-198.905 46.725,-198.447C39.819,-196.991 38.402,-191.641 37.921,-187.47C37.421,-183.136 43.043,-176.209 50.251,-177.683L50.251,-177.683ZM53.126,-165.512C54.167,-169.587 50.11,-170.24 50.11,-170.24L39.346,-173.037C34.595,-174.432 34.237,-170.186 33.911,-168.774C31.063,-156.479 27.659,-143.554 26.065,-136.547C24.471,-129.538 28.331,-129.276 28.331,-129.276C28.331,-129.276 33.37,-127.808 38.576,-126.657C43.783,-125.507 44.26,-130.451 44.26,-130.451C44.26,-130.451 52.084,-161.437 53.126,-165.512L53.126,-165.512Z" style="fill:white;fill-rule:nonzero;"/>
        <path d="M102.866,-138.467C99.918,-147.206 96.478,-152.915 99.401,-157.019C102.372,-161.192 106.685,-156.462 108.016,-153.685C109.462,-150.668 111.371,-151.09 113.105,-151.89C115.046,-152.784 118.385,-154.771 120.559,-156.069C122.914,-157.477 124.14,-159.396 121.822,-163.579C119.504,-167.763 112.947,-175.075 104.427,-175.735C95.908,-176.395 87.054,-172.956 82.873,-164.136C78.371,-154.633 79.508,-148.453 81.815,-142.3C84.58,-134.926 87.847,-128.656 83.786,-127.158C80.999,-126.132 76.057,-133.449 76.057,-133.449C76.057,-133.449 74.409,-136.322 72.177,-135.512C68.442,-134.158 64.684,-132.085 63.162,-130.354C61.64,-128.625 56.314,-126.308 65.824,-115.969C72.875,-108.301 86.315,-105.371 94.592,-112.143C102.869,-118.915 106.065,-128.989 102.866,-138.467L102.866,-138.467Z" style="fill:white;fill-rule:nonzero;"/>
        <path d="M132.33,-49.173C132.33,-49.173 182.324,-80.591 185.889,-82.824C189.453,-85.057 187.137,-88.052 187.137,-88.052L181.302,-97.453C179.031,-101.407 176.76,-98.77 175.531,-97.999C171.344,-95.377 162.927,-90.138 154.263,-84.738C151.659,-88.596 147.68,-95.213 145.791,-98.293C156.297,-104.892 166.135,-111.074 167.614,-112.001C171.179,-114.233 168.863,-117.229 168.863,-117.229L162.914,-126.809C160.644,-130.764 158.398,-128.082 157.143,-127.356C144.091,-119.801 111.334,-98.869 105.339,-94.908C99.342,-90.946 101.798,-88.348 101.798,-88.348C101.798,-88.348 104.763,-83.284 107.517,-79.217C110.27,-75.15 114.057,-78.351 114.057,-78.351C114.057,-78.351 121.279,-82.889 130.105,-88.435C131.514,-86.498 137.028,-77.469 138.616,-74.968C131.608,-70.581 125.848,-66.953 123.727,-65.551C117.73,-61.589 120.186,-58.99 120.186,-58.99C120.186,-58.99 123.039,-54.106 125.792,-50.039C128.545,-45.972 132.33,-49.173 132.33,-49.173Z" style="fill:white;fill-rule:nonzero;"/>
        <path d="M147.117,8.191C153.509,7.603 152.232,1.513 152.232,1.513L151.218,-14.142L160.633,-15.008C160.633,-15.008 161.116,-8.657 161.67,-2.637C162.223,3.383 165.759,3.322 165.759,3.322C165.759,3.322 168.972,3.818 174.707,3.027C180.441,2.235 179.223,-2.405 179.223,-2.405L178.144,-16.993L187.306,-17.836C187.306,-17.836 187.814,-9.438 188.964,-2.68C190.113,4.077 193.754,3.478 193.754,3.478C193.754,3.478 198.435,3.124 203.187,2.72C207.671,2.339 207.282,-1.54 207.282,-1.54C207.282,-1.54 205.19,-27.155 203.923,-32.318C202.656,-37.481 197.256,-35.928 197.256,-35.928C197.256,-35.928 143.621,-30.73 137.576,-30.438C131.532,-30.146 132.513,-25.22 132.513,-25.22C132.513,-25.22 133.995,-6.242 134.693,1.349C135.392,8.939 137.418,8.377 139.848,8.597C142.015,8.792 142.398,8.625 147.117,8.191L147.117,8.191Z" style="fill:white;fill-rule:nonzero;"/>
        <path d="M131.087,73.722C131.988,73.173 138.099,70.522 143.09,68.66C146.061,67.551 151.002,65.945 154.525,64.825C154.644,65.401 154.781,65.978 154.949,66.552C156.721,72.783 162.447,82.478 175.71,82.891C198.799,83.609 201.297,55.374 202.54,49.998C203.788,44.603 200.194,43.502 197.04,42.424C182.244,37.368 139.39,25.483 139.39,25.483C134.145,23.993 131.961,32.96 130.905,37.601C129.881,42.207 134.605,42.718 135.995,43.134C139.758,44.247 147.238,46.603 151.763,48.035C141.866,50.018 130.938,55.007 126.644,56.977C121.617,59.283 122.501,62.905 122.501,62.905C122.501,62.905 124.652,68.161 125.933,71.349C127.212,74.534 129.655,74.592 131.087,73.722L131.087,73.722ZM171.225,53.424L183.876,57.063C183.876,57.063 182.928,68.351 175.602,66.952C169.137,65.718 169.982,56.875 171.225,53.424L171.225,53.424Z" style="fill:white;fill-rule:nonzero;"/>
        <path d="M60.553,149.582C60.553,149.582 99.612,193.865 102.389,197.024C105.166,200.182 107.75,197.414 107.75,197.414L116.088,190.141C119.626,187.262 116.657,185.446 115.698,184.357C112.436,180.647 105.91,173.184 99.186,165.502C102.574,162.311 108.463,157.318 111.199,154.958C119.404,164.264 127.09,172.978 128.242,174.289C131.02,177.447 133.604,174.679 133.604,174.679L142.101,167.266C145.638,164.388 142.629,162.603 141.71,161.482C132.153,149.817 106.219,120.858 101.344,115.579C96.468,110.298 94.3,113.14 94.3,113.14C94.3,113.14 89.779,116.883 86.209,120.255C82.638,123.627 86.407,126.849 86.407,126.849C86.407,126.849 92.049,133.246 98.944,141.064C97.258,142.766 89.235,149.663 87.023,151.633C81.565,145.422 77.057,140.322 75.331,138.454C70.455,133.174 68.286,136.016 68.286,136.016C68.286,136.016 63.925,139.618 60.355,142.991C56.784,146.363 60.553,149.582 60.553,149.582Z" style="fill:white;fill-rule:nonzero;"/>
        <path d="M-2.083,175.716C6.051,188.77 23.953,215.157 30.883,223.888C37.773,232.632 39.819,231.103 45.027,229.305C50.235,227.506 53.262,224.347 52.815,218.829C52.477,214.625 49.813,175.416 48.998,159.428C48.551,150.661 40.249,154.662 35.19,156.12C30.139,157.597 31.017,162.589 31.017,162.589L31.452,168.791L19.039,173.266C19.039,173.266 18.236,172.034 15.606,167.428C13.053,162.958 9.218,164.74 2.366,167.294C-4.009,169.672 -3.288,173.774 -2.083,175.716L-2.083,175.716ZM33.55,184.036L35.629,201.679L26.819,186.486L33.55,184.036Z" style="fill:white;fill-rule:nonzero;"/>
        <path d="M-52.015,239.216C-51.701,240.782 -50.663,241.865 -49.084,242.106C-46.707,242.468 -37.249,242.463 -27.959,242.248C-18.482,242.03 -9.218,241.548 -6.627,241.165C-5.262,240.962 -4.169,239.983 -4.193,238.603C-4.242,235.834 -3.746,231.349 -4.372,224.685C-4.501,223.287 -5.538,222.33 -6.93,222.165C-8.36,221.995 -12.498,221.983 -18.285,221.939C-18.752,205.08 -19.259,181.456 -19.507,176.123C-19.841,168.943 -23.33,169.723 -23.33,169.723C-23.33,169.723 -29.832,169.692 -34.735,169.976C-39.636,170.259 -38.827,175.15 -38.827,175.15C-38.827,175.15 -38.152,203.718 -37.713,222.376C-43.871,222.675 -47.986,222.85 -49.397,223.218C-50.943,223.622 -51.92,224.611 -52.241,226.177C-52.715,228.493 -53.127,233.629 -52.015,239.216L-52.015,239.216Z" style="fill:white;fill-rule:nonzero;"/>
        <path d="M-123.666,224.448C-123.785,226.042 -123.077,227.364 -121.621,228.021C-119.429,229.009 -110.318,231.549 -101.313,233.842C-92.127,236.182 -83.076,238.21 -80.477,238.538C-79.108,238.71 -77.791,238.062 -77.444,236.727C-76.746,234.046 -75.061,229.86 -73.87,223.273C-73.619,221.892 -74.36,220.691 -75.657,220.158C-76.988,219.609 -80.97,218.485 -86.532,216.885C-82.445,200.523 -76.576,177.633 -75.381,172.43C-73.77,165.425 -77.34,165.237 -77.34,165.237C-77.34,165.237 -83.594,163.458 -88.393,162.412C-93.189,161.366 -93.726,166.295 -93.726,166.295C-93.726,166.295 -100.763,193.991 -105.36,212.078C-111.372,210.709 -115.382,209.771 -116.841,209.745C-118.438,209.719 -119.645,210.408 -120.375,211.83C-121.456,213.933 -123.234,218.768 -123.666,224.448L-123.666,224.448Z" style="fill:white;fill-rule:nonzero;"/>
        <path d="M-156.933,143.336C-160.141,148.896 -154.431,151.368 -154.431,151.368L-141.06,159.573L-145.786,167.762C-145.786,167.762 -151.251,164.492 -156.487,161.47C-161.724,158.448 -163.714,161.372 -163.714,161.372C-163.714,161.372 -165.973,163.709 -168.636,168.85C-171.298,173.99 -166.806,175.672 -166.806,175.672L-154.269,183.209L-158.867,191.178C-158.867,191.178 -166.019,186.747 -172.202,183.787C-178.384,180.826 -179.996,184.145 -179.996,184.145C-179.996,184.145 -182.407,188.173 -184.82,192.287C-187.096,196.169 -183.703,198.09 -183.703,198.09C-183.703,198.09 -161.576,211.162 -156.628,213.106C-151.68,215.051 -149.833,209.744 -149.833,209.744C-149.833,209.744 -123.128,162.94 -119.879,157.835C-116.63,152.73 -121.219,150.689 -121.219,150.689C-121.219,150.689 -137.574,140.948 -144.176,137.138C-150.779,133.328 -151.489,135.307 -153.071,137.165C-154.481,138.823 -154.565,139.232 -156.933,143.336L-156.933,143.336Z" style="fill:white;fill-rule:nonzero;"/>
        <path d="M-234.338,123.664C-240.981,120.502 -247.034,124.131 -248.837,128.235C-251.676,135.586 -246.894,140.775 -244.027,142.364C-237.637,145.36 -233.284,141.943 -230.389,138.902C-227.379,135.743 -227.697,126.828 -234.338,123.664L-234.338,123.664ZM-229.304,112.216C-232.59,114.842 -229.744,117.806 -229.744,117.806L-222.835,126.522C-219.881,130.496 -217.039,127.322 -215.928,126.392C-206.251,118.291 -195.75,110.022 -190.258,105.388C-184.764,100.752 -187.688,98.219 -187.688,98.219C-187.688,98.219 -190.827,94.012 -194.29,89.958C-197.754,85.904 -201.113,89.563 -201.113,89.563C-201.113,89.563 -226.019,109.59 -229.304,112.216L-229.304,112.216Z" style="fill:white;fill-rule:nonzero;"/>
        <path d="M-239.643,44.308C-241.453,48.038 -242.167,49.594 -242.167,49.594C-242.167,49.594 -244.8,53.081 -239.845,55.669C-235.961,57.698 -233.988,59.445 -233.658,62.979C-233.361,66.164 -235.708,72.117 -244.789,75.876C-253.869,79.635 -264.239,83.066 -267.64,75.951C-269.303,72.474 -268.938,69.58 -268.601,68.252C-268.266,66.924 -268.87,65.661 -273.234,64.251L-280.567,62.32C-280.567,62.32 -283.065,61.959 -284.791,66.476C-286.518,70.991 -288.142,80.652 -281.936,88.757C-275.731,96.861 -267.578,99.228 -253.35,96.893C-239.122,94.559 -218.713,84.023 -214.477,66.071C-213.108,55.121 -219.067,46.316 -225.031,42.371C-230.996,38.426 -233.904,38.844 -233.904,38.844C-233.904,38.844 -236.656,38.151 -239.643,44.308L-239.643,44.308Z" style="fill:white;fill-rule:nonzero;"/>
        <path d="M-241.682,-29.485C-241.682,-29.485 -300.167,-21.352 -304.333,-20.779C-308.5,-20.206 -307.618,-16.523 -307.618,-16.523L-306.154,-5.556C-305.706,-1.018 -302.553,-2.491 -301.115,-2.689C-296.222,-3.362 -286.396,-4.686 -276.279,-6.054C-275.488,-1.467 -274.575,6.2 -274.116,9.783C-286.405,11.49 -297.914,13.09 -299.642,13.328C-303.809,13.901 -302.927,17.583 -302.927,17.583L-301.434,28.761C-300.986,33.299 -297.838,31.775 -296.395,31.627C-281.393,30.095 -242.931,24.45 -235.838,23.299C-228.744,22.147 -229.917,18.77 -229.917,18.77C-229.917,18.77 -230.543,12.935 -231.385,8.096C-232.226,3.258 -236.993,4.622 -236.993,4.622C-236.993,4.622 -245.442,5.797 -255.766,7.232C-256.256,4.887 -257.579,-5.61 -258.001,-8.542C-249.809,-9.666 -243.068,-10.611 -240.558,-11.019C-233.464,-12.171 -234.637,-15.548 -234.637,-15.548C-234.637,-15.548 -235.234,-21.173 -236.076,-26.012C-236.918,-30.851 -241.682,-29.485 -241.682,-29.485Z" style="fill:white;fill-rule:nonzero;"/>
        <path d="M-224.917,-127.737C-225.834,-127.216 -232.022,-124.751 -237.067,-123.041C-241.124,-121.666 -251.359,-119.619 -254.835,-118.778C-261.72,-125.387 -272.904,-138.446 -275.763,-141.318C-279.794,-145.367 -283.354,-144.618 -285.511,-138.684C-286.732,-135.323 -287.66,-132.729 -287.544,-130.09C-287.406,-126.935 -282.869,-123.093 -282.869,-123.093L-270.02,-109.461L-278.422,-111.934C-278.422,-111.934 -278.409,-111.975 -278.397,-112.015L-289.539,-115.556C-291.814,-116.279 -294.244,-115.022 -294.981,-112.752C-295.813,-110.192 -296.688,-107.332 -297.007,-106.327C-299.047,-99.889 -294.855,-99.755 -291.738,-98.59C-277.092,-93.087 -234.633,-79.915 -234.633,-79.915C-229.421,-78.263 -227.161,-86.575 -225.966,-91.182C-224.803,-95.754 -229.514,-96.41 -230.891,-96.868C-234.857,-98.172 -242.983,-101.008 -247.317,-102.527C-237.126,-104.062 -225.47,-108.966 -220.979,-110.865C-215.885,-113.018 -216.659,-116.665 -216.659,-116.665C-216.659,-116.665 -218.65,-121.984 -219.834,-125.209C-221.019,-128.432 -223.459,-128.563 -224.917,-127.737L-224.917,-127.737Z" style="fill:white;fill-rule:nonzero;"/>
        <path d="M-200.417,-176.454C-205.898,-179.796 -208.506,-174.147 -208.506,-174.147L-217.032,-160.978L-225.105,-165.9C-225.105,-165.9 -221.704,-171.285 -218.556,-176.447C-215.409,-181.609 -218.283,-183.669 -218.283,-183.669C-218.283,-183.669 -220.566,-185.984 -225.64,-188.77C-230.715,-191.556 -232.505,-187.105 -232.505,-187.105L-240.343,-174.754L-248.198,-179.543C-248.198,-179.543 -243.596,-186.586 -240.487,-192.695C-237.378,-198.804 -240.657,-200.496 -240.657,-200.496C-240.657,-200.496 -244.625,-203.004 -248.68,-205.515C-252.506,-207.885 -254.508,-204.539 -254.508,-204.539C-254.508,-204.539 -268.111,-182.733 -270.174,-177.835C-272.238,-172.935 -266.977,-170.96 -266.977,-170.96C-266.977,-170.96 -220.831,-143.133 -215.806,-139.762C-210.781,-136.39 -208.63,-140.928 -208.63,-140.928C-208.63,-140.928 -198.497,-157.043 -194.529,-163.552C-190.561,-170.06 -192.522,-170.818 -194.341,-172.444C-195.964,-173.894 -196.371,-173.988 -200.417,-176.454L-200.417,-176.454Z" style="fill:white;fill-rule:nonzero;"/>
        <path d="M-211.334,-226.019C-209.315,-233.094 -213.896,-238.463 -218.241,-239.562C-225.961,-241.145 -230.287,-235.57 -231.379,-232.48C-233.277,-225.682 -229.186,-221.954 -225.708,-219.603C-222.094,-217.157 -213.355,-218.946 -211.334,-226.019L-211.334,-226.019ZM-199.211,-222.949C-202.344,-225.755 -204.796,-222.458 -204.796,-222.458L-212.248,-214.202C-215.679,-210.631 -212.079,-208.354 -210.977,-207.412C-201.386,-199.209 -191.493,-190.221 -186.014,-185.572C-180.533,-180.921 -178.519,-184.224 -178.519,-184.224C-178.519,-184.224 -174.889,-188.016 -171.465,-192.103C-168.04,-196.189 -172.204,-198.896 -172.204,-198.896C-172.204,-198.896 -196.077,-220.144 -199.211,-222.949L-199.211,-222.949Z" style="fill:white;fill-rule:nonzero;"/>
        <path d="M-157.929,-296.539C-160.12,-295.28 -164.983,-291.761 -167.831,-289.421C-170.679,-287.081 -168.762,-284.873 -167.938,-283.706C-162.603,-276.144 -146.025,-253.066 -146.025,-253.066C-146.025,-253.066 -169.842,-266.932 -177.846,-271.749C-186.906,-277.201 -187.6,-275.471 -190.138,-273.672C-193.338,-271.404 -194.628,-271.015 -197.228,-268.641C-199.828,-266.267 -198.294,-263.912 -198.294,-263.912L-173.981,-229.201C-173.981,-229.201 -165.766,-218.139 -161.434,-212.183C-156.877,-205.919 -151.41,-212.301 -146.95,-215.405C-142.49,-218.511 -147.03,-223.432 -147.03,-223.432L-164.07,-246.545C-164.07,-246.545 -142.889,-233.566 -134.768,-230.35C-128.021,-227.678 -125.997,-230.43 -123.087,-232.493C-116.864,-236.904 -114.305,-240.869 -118.706,-247.077C-126.479,-258.042 -148.959,-289.863 -151.856,-294.043C-154.752,-298.222 -156.505,-297.356 -157.929,-296.539L-157.929,-296.539Z" style="fill:white;fill-rule:nonzero;"/>
        <path d="M-64.818,-270.23C-66.988,-276.271 -72.564,-273.511 -72.564,-273.511L-87.466,-268.609L-90.662,-277.507C-90.662,-277.507 -84.635,-279.564 -78.945,-281.608C-73.255,-283.652 -74.2,-287.06 -74.2,-287.06C-74.2,-287.06 -74.524,-290.295 -76.726,-295.648C-78.929,-301.002 -83.115,-298.66 -83.115,-298.66L-96.969,-293.964L-100.079,-302.622C-100.079,-302.622 -92.076,-305.217 -85.821,-308.022C-79.567,-310.827 -81.058,-314.202 -81.058,-314.202C-81.058,-314.202 -82.574,-318.645 -84.154,-323.145C-85.646,-327.39 -89.304,-326.043 -89.304,-326.043C-89.304,-326.043 -113.579,-317.603 -118.26,-315.084C-122.942,-312.565 -120.086,-307.725 -120.086,-307.725C-120.086,-307.725 -101.623,-257.1 -99.827,-251.321C-98.031,-245.543 -93.508,-247.726 -93.508,-247.726C-93.508,-247.726 -75.506,-253.912 -68.332,-256.489C-61.157,-259.066 -62.209,-260.887 -62.605,-263.294C-62.958,-265.442 -63.216,-265.77 -64.818,-270.23L-64.818,-270.23Z" style="fill:white;fill-rule:nonzero;"/>
        <path d="M34.566,-288.428C33.992,-295.65 30.694,-300.421 25.89,-303.549C29.071,-307.285 31.365,-312.68 30.54,-320.658C28.461,-341.408 -0.228,-338.849 -5.744,-338.77C-11.281,-338.692 -11.491,-334.939 -11.782,-331.618C-13.154,-316.043 -14.436,-271.837 -14.436,-271.837C-14.628,-266.388 -6.634,-266.686 -1.877,-266.54C18.396,-265.919 35.888,-271.777 34.566,-288.428L34.566,-288.428ZM4.254,-322.845C4.254,-322.845 13.746,-323.581 14.422,-319.157C15.285,-313.517 7.628,-312.959 3.98,-313.34L4.254,-322.845ZM3.012,-283.638C3.375,-289.777 3.171,-294.92 3.441,-294.955C11.077,-295.932 15.27,-292.658 15.302,-290.103C15.364,-285.105 9.082,-283.455 3.012,-283.638L3.012,-283.638Z" style="fill:white;fill-rule:nonzero;"/>
        <path d="M87.841,-264.702C89.411,-270.926 83.243,-271.747 83.243,-271.747L68.141,-275.995L70.454,-285.162C70.454,-285.162 76.604,-283.506 82.466,-282.027C88.328,-280.548 89.446,-283.903 89.446,-283.903C89.446,-283.903 90.982,-286.769 92.142,-292.44C93.302,-298.112 88.521,-298.505 88.521,-298.505L74.404,-302.338L76.654,-311.258C76.654,-311.258 84.744,-308.946 91.499,-307.783C98.254,-306.621 98.9,-310.254 98.9,-310.254C98.9,-310.254 100.122,-314.786 101.321,-319.402C102.453,-323.758 98.664,-324.681 98.664,-324.681C98.664,-324.681 73.81,-331.223 68.52,-331.745C63.23,-332.266 62.899,-326.657 62.899,-326.657C62.899,-326.657 49.971,-274.344 48.237,-268.546C46.503,-262.749 51.475,-262.036 51.475,-262.036C51.475,-262.036 69.866,-257.125 77.257,-255.26C84.649,-253.395 84.792,-255.493 85.807,-257.712C86.712,-259.691 86.681,-260.107 87.841,-264.702L87.841,-264.702Z" style="fill:white;fill-rule:nonzero;"/>
        <path d="M141.084,-271.986C137.039,-280.274 132.894,-285.494 135.266,-289.94C137.678,-294.46 142.562,-290.322 144.238,-287.739C146.06,-284.933 147.899,-285.596 149.516,-286.612C151.326,-287.748 154.382,-290.147 156.372,-291.713C158.526,-293.412 159.496,-295.472 156.66,-299.323C153.824,-303.175 146.382,-309.585 137.849,-309.146C129.315,-308.707 120.976,-304.16 117.962,-294.876C114.716,-284.874 116.637,-278.891 119.715,-273.085C123.404,-266.127 127.449,-260.328 123.614,-258.321C120.981,-256.945 115.141,-263.568 115.141,-263.568C115.141,-263.568 113.138,-266.205 111.029,-265.116C107.498,-263.293 104.037,-260.755 102.75,-258.844C101.462,-256.933 96.478,-253.951 107.236,-244.919C115.214,-238.22 128.918,-237.039 136.258,-244.817C143.597,-252.596 145.473,-262.996 141.084,-271.986L141.084,-271.986Z" style="fill:white;fill-rule:nonzero;"/>
        <path d="M189.586,-240.915C187.155,-249.812 184.055,-255.712 187.213,-259.638C190.424,-263.63 194.452,-258.655 195.618,-255.806C196.885,-252.71 198.816,-253.018 200.594,-253.716C202.584,-254.495 206.033,-256.283 208.28,-257.451C210.713,-258.719 212.049,-260.563 209.98,-264.875C207.911,-269.188 201.792,-276.871 193.326,-278.028C184.86,-279.186 175.82,-276.271 171.13,-267.71C166.079,-258.487 166.853,-252.251 168.796,-245.974C171.124,-238.451 174.019,-232 169.878,-230.742C167.035,-229.881 162.53,-237.475 162.53,-237.475C162.53,-237.475 161.053,-240.439 158.777,-239.761C154.97,-238.628 151.097,-236.778 149.476,-235.14C147.855,-233.502 142.403,-231.501 151.291,-220.624C157.882,-212.556 171.127,-208.844 179.787,-215.12C188.446,-221.396 192.225,-231.266 189.586,-240.915L189.586,-240.915Z" style="fill:white;fill-rule:nonzero;"/>
        <path d="M218.76,-173.975C223.465,-178.342 218.737,-182.387 218.737,-182.387L208.38,-194.17L215.31,-200.601C215.31,-200.601 219.568,-195.865 223.681,-191.434C227.793,-187.003 230.557,-189.209 230.557,-189.209C230.557,-189.209 233.405,-190.777 237.465,-194.903C241.525,-199.03 237.728,-201.962 237.728,-201.962L227.971,-212.861L234.714,-219.119C234.714,-219.119 240.242,-212.777 245.276,-208.125C250.311,-203.473 252.83,-206.17 252.83,-206.17C252.83,-206.17 256.321,-209.307 259.84,-212.527C263.16,-215.565 260.484,-218.401 260.484,-218.401C260.484,-218.401 243.194,-237.416 239.04,-240.733C234.886,-244.05 231.555,-239.524 231.555,-239.524C231.555,-239.524 192.238,-202.674 187.628,-198.754C183.018,-194.834 186.801,-191.531 186.801,-191.531C186.801,-191.531 199.557,-177.401 204.742,-171.814C209.928,-166.227 211.19,-167.908 213.249,-169.217C215.086,-170.385 215.286,-170.751 218.76,-173.975L218.76,-173.975Z" style="fill:white;fill-rule:nonzero;"/>
        <path d="M252.609,-117.798C252.838,-118.828 255.155,-125.074 257.266,-129.964C258.523,-132.875 260.785,-137.554 262.416,-140.871C262.914,-140.558 263.425,-140.258 263.955,-139.981C269.678,-136.946 280.639,-134.366 290.119,-143.651C306.621,-159.814 287.976,-181.164 284.957,-185.783C281.928,-190.419 278.646,-188.588 275.684,-187.058C261.792,-179.882 223.548,-157.186 223.548,-157.186C218.842,-154.432 223.801,-146.648 226.418,-142.674C229.033,-138.746 232.672,-141.801 233.935,-142.516C237.343,-144.461 244.222,-148.228 248.388,-150.502C242.967,-141.987 239.001,-130.647 237.45,-126.185C235.634,-120.961 238.86,-119.091 238.86,-119.091C238.86,-119.091 244.142,-117.005 247.329,-115.722C250.513,-114.44 252.246,-116.163 252.609,-117.798L252.609,-117.798ZM265.75,-160.814L277.134,-167.424C277.134,-167.424 284.624,-158.926 278.542,-154.607C273.176,-150.796 267.38,-157.529 265.75,-160.814L265.75,-160.814Z" style="fill:white;fill-rule:nonzero;"/>
        <path d="M272.407,-66.367C278.507,-68.363 275.907,-74.016 275.907,-74.016L271.433,-89.052L280.419,-91.993C280.419,-91.993 282.303,-85.909 284.184,-80.163C286.064,-74.417 289.497,-75.264 289.497,-75.264C289.497,-75.264 292.74,-75.496 298.155,-77.544C303.569,-79.593 301.348,-83.845 301.348,-83.845L297.049,-97.827L305.792,-100.688C305.792,-100.688 308.158,-92.614 310.783,-86.282C313.408,-79.95 316.824,-81.345 316.824,-81.345C316.824,-81.345 321.309,-82.733 325.852,-84.184C330.139,-85.553 328.896,-89.249 328.896,-89.249C328.896,-89.249 321.153,-113.755 318.769,-118.506C316.384,-123.258 311.465,-120.542 311.465,-120.542C311.465,-120.542 260.333,-103.533 254.506,-101.902C248.678,-100.272 250.731,-95.689 250.731,-95.689C250.731,-95.689 256.401,-77.517 258.772,-70.272C261.143,-63.027 262.993,-64.026 265.411,-64.353C267.567,-64.645 267.903,-64.893 272.407,-66.367L272.407,-66.367Z" style="fill:white;fill-rule:nonzero;"/>
        <path d="M320.723,-5.18C324.167,1.322 331.189,2.022 335.085,-0.195C341.749,-4.4 341.009,-11.417 339.656,-14.403C336.317,-20.62 330.785,-20.476 326.647,-19.764C322.347,-19.025 317.281,-11.682 320.723,-5.18L320.723,-5.18ZM309.852,1.002C314.055,0.856 313.54,-3.221 313.54,-3.221L313.197,-14.338C313.199,-19.289 309.025,-18.439 307.578,-18.355C294.978,-17.629 281.617,-17.261 274.445,-16.82C267.271,-16.378 268.105,-12.601 268.105,-12.601C268.105,-12.601 268.113,-7.351 268.473,-2.032C268.833,3.288 273.712,2.356 273.712,2.356C273.712,2.356 305.648,1.149 309.852,1.002L309.852,1.002Z" style="fill:white;fill-rule:nonzero;"/>
        <path d="M331.386,62.942C338.744,53.239 339.728,41.164 340.056,32.974C340.24,27.715 337.556,27.87 335.509,27.316C335.509,27.316 310.709,23.669 307.583,23.244C304.458,22.819 280.563,19.062 278.446,19.028C276.328,18.995 269.234,16.539 268.007,25.568C266.52,36.509 262.704,56.035 281.918,67.488C303.744,80.499 324.971,71.403 331.386,62.942L331.386,62.942ZM300.951,56.424C290.97,54.914 285.4,47.776 285.332,37.69L320.17,42.406C320.17,42.406 318.876,59.136 300.951,56.424L300.951,56.424Z" style="fill:white;fill-rule:nonzero;"/>
        <path d="M256.859,122.472C262.932,124.553 264.261,118.474 264.261,118.474L269.746,103.777L278.69,106.842C278.69,106.842 276.53,112.834 274.57,118.553C272.61,124.272 275.861,125.664 275.861,125.664C275.861,125.664 278.589,127.432 284.145,129.059C289.701,130.684 290.489,125.953 290.489,125.953L295.479,112.202L304.182,115.185C304.182,115.185 301.207,123.054 299.489,129.69C297.77,136.326 301.337,137.27 301.337,137.27C301.337,137.27 305.752,138.864 310.253,140.442C314.5,141.93 315.734,138.232 315.734,138.232C315.734,138.232 324.314,114.006 325.273,108.777C326.231,103.548 320.668,102.754 320.668,102.754C320.668,102.754 269.608,85.532 263.974,83.324C258.34,81.115 257.218,86.01 257.218,86.01C257.218,86.01 250.799,103.931 248.327,111.142C245.856,118.353 247.934,118.67 250.061,119.866C251.959,120.932 252.376,120.936 256.859,122.472L256.859,122.472Z" style="fill:white;fill-rule:nonzero;"/>
        <path d="M230.937,171.935C236.543,175.063 238.932,169.318 238.932,169.318L246.944,155.83L255.2,160.438C255.2,160.438 252.009,165.949 249.063,171.229C246.117,176.508 249.068,178.456 249.068,178.456C249.068,178.456 251.438,180.682 256.616,183.27C261.794,185.858 263.411,181.342 263.411,181.342L270.768,168.698L278.802,173.181C278.802,173.181 274.474,180.396 271.603,186.621C268.732,192.845 272.073,194.409 272.073,194.409C272.073,194.409 276.135,196.762 280.283,199.116C284.198,201.336 286.07,197.916 286.07,197.916C286.07,197.916 298.822,175.602 300.696,170.628C302.569,165.653 297.236,163.881 297.236,163.881C297.236,163.881 250.053,137.852 244.902,134.677C239.751,131.501 237.776,136.118 237.776,136.118C237.776,136.118 228.271,152.612 224.557,159.268C220.842,165.925 222.831,166.607 224.711,168.161C226.389,169.548 226.799,169.626 230.937,171.935L230.937,171.935Z" style="fill:white;fill-rule:nonzero;"/>
        <path d="M214.618,200.053C222.446,200.962 226.274,195.034 227.095,191.86C228.397,184.924 223.999,181.564 220.331,179.522C217.48,177.934 211.979,178.954 208.799,182.59C207.224,181.586 204.234,177.12 202.972,174.989C199.263,175.179 199.501,176.843 199.501,176.843C199.501,176.843 202.399,195.958 214.618,200.053L214.618,200.053Z" style="fill:white;fill-rule:nonzero;"/>
        <path d="M185.201,300.437C197.244,298.634 206.384,290.681 212.339,285.05C216.145,281.415 214.116,279.651 213.038,277.824C213.038,277.824 197.84,257.891 195.901,255.403C193.961,252.916 179.488,233.536 177.996,232.033C176.504,230.53 173.143,223.817 165.958,229.42C157.25,236.21 140.88,247.517 146.628,269.134C153.157,293.691 174.701,302.01 185.201,300.437L185.201,300.437ZM167.977,274.513C161.889,266.46 162.89,257.462 169.887,250.196L191.521,277.908C191.521,277.908 178.908,288.975 167.977,274.513L167.977,274.513Z" style="fill:white;fill-rule:nonzero;"/>
        <path d="M133.939,314.432C129.699,320.445 132.253,327.025 135.993,329.495C142.758,333.535 148.681,329.7 150.731,327.142C154.765,321.351 152.132,316.482 149.625,313.115C147.019,309.615 138.179,308.421 133.939,314.432L133.939,314.432ZM123.506,307.536C125.539,311.218 128.941,308.914 128.941,308.914L138.699,303.577C143.115,301.338 140.468,298 139.738,296.748C133.39,285.841 127.014,274.093 123.375,267.897C119.734,261.699 116.744,264.152 116.744,264.152C116.744,264.152 112.066,266.535 107.486,269.264C102.905,271.992 105.944,275.921 105.944,275.921C105.944,275.921 121.473,303.854 123.506,307.536L123.506,307.536Z" style="fill:white;fill-rule:nonzero;"/>
        <path d="M56.952,303.155C59.182,309.174 64.73,306.358 64.73,306.358L79.583,301.307L82.868,310.173C82.868,310.173 76.861,312.291 71.192,314.391C65.523,316.492 66.502,319.89 66.502,319.89C66.502,319.89 66.858,323.122 69.114,328.453C71.37,333.784 75.533,331.401 75.533,331.401L89.339,326.565L92.535,335.192C92.535,335.192 84.559,337.867 78.333,340.735C72.106,343.602 73.632,346.962 73.632,346.962C73.632,346.962 75.191,351.39 76.817,355.874C78.351,360.104 81.996,358.72 81.996,358.72C81.996,358.72 106.185,350.037 110.841,347.472C115.497,344.906 112.593,340.095 112.593,340.095C112.593,340.095 93.624,289.657 91.77,283.897C89.916,278.136 85.415,280.365 85.415,280.365C85.415,280.365 67.476,286.731 60.328,289.38C53.18,292.028 54.249,293.839 54.669,296.242C55.044,298.386 55.305,298.711 56.952,303.155L56.952,303.155Z" style="fill:white;fill-rule:nonzero;"/>
        <path d="M18.033,339.957C26.154,344.328 32.566,346.151 33.233,351.145C33.911,356.223 27.53,355.711 24.662,354.592C21.546,353.375 20.439,354.987 19.718,356.756C18.911,358.734 17.829,362.465 17.126,364.898C16.367,367.535 16.782,369.774 21.332,371.248C25.882,372.722 35.666,373.586 42.341,368.25C49.016,362.915 53.135,354.358 50.167,345.059C46.968,335.041 41.917,331.303 36.03,328.383C28.975,324.884 22.306,322.534 24.25,318.667C25.586,316.014 34.193,317.986 34.193,317.986C34.193,317.986 37.358,318.959 38.436,316.843C40.24,313.303 41.57,309.223 41.5,306.919C41.431,304.616 43.74,299.287 29.733,298.227C19.346,297.44 7.526,304.476 6.102,315.076C4.68,325.675 9.224,335.217 18.033,339.957L18.033,339.957Z" style="fill:white;fill-rule:nonzero;"/>
        <path d="M-58.912,355.625C-65.694,358.477 -67.016,365.41 -65.155,369.487C-61.559,376.499 -54.504,376.386 -51.409,375.304C-44.92,372.531 -44.571,367.007 -44.913,362.823C-45.267,358.474 -52.13,352.775 -58.912,355.625L-58.912,355.625ZM-64.103,344.247C-64.331,348.447 -60.225,348.297 -60.225,348.297L-49.122,348.944C-44.19,349.386 -44.666,345.152 -44.621,343.704C-44.223,331.089 -43.403,317.748 -43.204,310.565C-43.006,303.38 -46.843,303.875 -46.843,303.875C-46.843,303.875 -52.072,303.417 -57.402,303.302C-62.733,303.188 -62.238,308.13 -62.238,308.13C-62.238,308.13 -63.876,340.047 -64.103,344.247L-64.103,344.247Z" style="fill:white;fill-rule:nonzero;"/>
        <path d="M-112.281,335.532C-106.247,342.506 -100.903,346.49 -102.056,351.395C-103.229,356.382 -109.01,353.634 -111.293,351.567C-113.772,349.322 -115.38,350.434 -116.683,351.831C-118.141,353.393 -120.48,356.495 -122.002,358.519C-123.649,360.713 -124.058,362.953 -120.331,365.949C-116.602,368.945 -107.766,373.233 -99.63,370.622C-91.493,368.01 -84.599,361.478 -84.065,351.732C-83.491,341.231 -86.882,335.941 -91.345,331.118C-96.693,325.337 -102.09,320.769 -98.897,317.846C-96.705,315.842 -89.363,320.747 -89.363,320.747C-89.363,320.747 -86.75,322.782 -84.991,321.188C-82.045,318.522 -79.351,315.181 -78.596,313.004C-77.841,310.827 -73.787,306.668 -86.501,300.694C-95.929,296.264 -109.479,298.634 -114.58,308.034C-119.68,317.434 -118.828,327.968 -112.281,335.532L-112.281,335.532Z" style="fill:white;fill-rule:nonzero;"/>
        <path d="M-189.789,342.388C-190.046,343.965 -189.455,345.343 -188.062,346.124C-185.964,347.298 -177.107,350.619 -168.335,353.685C-159.386,356.813 -150.545,359.618 -147.985,360.171C-146.636,360.461 -145.268,359.928 -144.806,358.629C-143.878,356.019 -141.837,351.995 -140.079,345.536C-139.709,344.182 -140.343,342.921 -141.588,342.277C-142.867,341.615 -146.737,340.15 -152.139,338.074C-146.648,322.127 -138.816,299.833 -137.174,294.753C-134.962,287.914 -138.502,287.418 -138.502,287.418C-138.502,287.418 -144.579,285.103 -149.268,283.644C-153.956,282.187 -154.918,287.05 -154.918,287.05C-154.918,287.05 -164.331,314.031 -170.48,331.652C-176.35,329.766 -180.263,328.484 -181.714,328.332C-183.303,328.167 -184.565,328.749 -185.416,330.102C-186.675,332.104 -188.866,336.766 -189.789,342.388L-189.789,342.388Z" style="fill:white;fill-rule:nonzero;"/>
        <path d="M-265.642,222.212C-270.057,228.414 -292.706,260.791 -299.556,272.623C-300.281,273.876 -302.259,277.437 -299.715,279.33L-290.619,286.039C-290.619,286.039 -288.62,288.182 -283.867,284.727L-250.565,260.068L-264.678,302.208C-264.701,302.264 -264.71,302.314 -264.731,302.37L-264.783,302.528L-264.766,302.519C-265.545,304.977 -263.276,306.377 -263.276,306.377L-254.658,312.842C-251.627,315.096 -247.989,310.515 -246.998,309.457C-237.638,299.494 -214.71,270.321 -209.331,264.091C-204.635,258.651 -208.415,256.693 -208.415,256.693C-208.415,256.693 -212.188,253.669 -216.229,250.881C-220.27,248.094 -221.572,251.19 -222.637,252.45C-226.061,256.499 -232.781,264.7 -237.794,270.537L-229.123,246.378C-228.348,244.012 -229.173,241.414 -231.173,239.927L-236.805,235.738C-238.651,234.365 -241.18,234.375 -243.014,235.766L-263.557,251.889C-259.285,245.186 -253.334,236.16 -250.665,231.606C-249.831,230.182 -247.175,228.088 -251.006,225.018C-254.838,221.95 -258.82,219.206 -258.82,219.206C-258.82,219.206 -261.475,216.358 -265.642,222.212L-265.642,222.212Z" style="fill:white;fill-rule:nonzero;"/>
        <path d="M-306.901,183.559C-311.712,187.808 -307.085,191.969 -307.085,191.969L-297.021,204.003L-304.107,210.262C-304.107,210.262 -308.247,205.423 -312.25,200.891C-316.252,196.36 -319.069,198.498 -319.069,198.498C-319.069,198.498 -321.955,199.995 -326.115,204.021C-330.275,208.047 -326.551,211.071 -326.551,211.071L-317.065,222.206L-323.96,228.297C-323.96,228.297 -329.331,221.821 -334.249,217.046C-339.168,212.272 -341.752,214.906 -341.752,214.906C-341.752,214.906 -345.32,217.956 -348.917,221.089C-352.31,224.044 -349.705,226.945 -349.705,226.945C-349.705,226.945 -332.888,246.38 -328.817,249.798C-324.746,253.216 -321.305,248.774 -321.305,248.774C-321.305,248.774 -281.093,212.902 -276.388,209.096C-271.683,205.291 -275.383,201.896 -275.383,201.896C-275.383,201.896 -287.788,187.456 -292.834,181.743C-297.881,176.03 -299.184,177.68 -301.275,178.938C-303.139,180.06 -303.349,180.421 -306.901,183.559L-306.901,183.559Z" style="fill:white;fill-rule:nonzero;"/>
        <path d="M-357.098,182.569C-363.472,178.895 -369.792,182.037 -371.911,185.986C-375.319,193.092 -370.959,198.641 -368.226,200.449C-362.091,203.939 -357.483,200.873 -354.358,198.07C-351.109,195.156 -350.726,186.244 -357.098,182.569L-357.098,182.569ZM-351.18,171.551C-354.662,173.911 -352.058,177.089 -352.058,177.089L-345.854,186.321C-343.223,190.515 -340.14,187.574 -338.959,186.734C-328.675,179.418 -317.557,171.999 -311.718,167.811C-305.878,163.621 -308.593,160.866 -308.593,160.866C-308.593,160.866 -311.393,156.425 -314.527,152.112C-317.661,147.799 -321.297,151.183 -321.297,151.183C-321.297,151.183 -347.699,169.192 -351.18,171.551L-351.18,171.551Z" style="fill:white;fill-rule:nonzero;"/>
        <path d="M-413.746,119.393C-412.898,121.773 -410.301,127.185 -408.506,130.404C-406.711,133.623 -404.197,132.13 -402.901,131.528C-394.51,127.624 -368.849,115.422 -368.849,115.422C-368.849,115.422 -386.735,136.389 -392.901,143.407C-399.879,151.351 -398.301,152.342 -396.983,155.159C-395.32,158.712 -395.168,160.05 -393.295,163.032C-391.421,166.014 -388.831,164.923 -388.831,164.923L-350.345,147.182C-350.345,147.182 -337.997,141.069 -331.364,137.867C-324.389,134.498 -329.695,127.982 -331.955,123.04C-334.217,118.098 -339.868,121.689 -339.868,121.689L-365.646,134.34C-365.646,134.34 -349.102,115.81 -344.491,108.391C-340.66,102.228 -343.007,99.746 -344.519,96.516C-347.751,89.606 -351.197,86.382 -358.09,89.607C-370.264,95.302 -405.58,111.755 -410.209,113.861C-414.837,115.967 -414.297,117.846 -413.746,119.393L-413.746,119.393Z" style="fill:white;fill-rule:nonzero;"/>
        <path d="M-374.138,0.964C-374.138,0.964 -380.375,1.912 -383.493,2.386C-386.612,2.86 -386.335,4.679 -386.24,7.058C-386.144,9.436 -384.067,21.351 -384.067,21.351C-384.067,21.351 -427.101,28.158 -432.338,28.688C-437.575,29.217 -436.747,32.911 -436.747,32.911C-436.747,32.911 -435.646,41.908 -435.053,45.806C-434.461,49.704 -431.422,48.71 -431.422,48.71L-393.766,43.253C-393.766,43.253 -372.939,40.353 -367.22,39.484C-361.5,38.614 -362.954,34.316 -362.954,34.316C-362.954,34.316 -366.608,13.394 -367.552,5.812C-368.353,-0.623 -374.138,0.964 -374.138,0.964L-374.138,0.964Z" style="fill:white;fill-rule:nonzero;"/>
        <path d="M-380.818,-50.03C-387.237,-50.01 -386.504,-43.831 -386.504,-43.831L-386.879,-28.147L-396.333,-28.118C-396.333,-28.118 -396.252,-34.486 -396.272,-40.532C-396.291,-46.577 -399.818,-46.829 -399.818,-46.829C-399.818,-46.829 -402.975,-47.607 -408.757,-47.326C-414.539,-47.045 -413.735,-42.316 -413.735,-42.316L-413.952,-27.689L-423.152,-27.66C-423.152,-27.66 -422.915,-36.07 -423.463,-42.903C-424.01,-49.735 -427.689,-49.461 -427.689,-49.461C-427.689,-49.461 -432.383,-49.522 -437.153,-49.54C-441.653,-49.558 -441.609,-45.659 -441.609,-45.659C-441.609,-45.659 -441.79,-19.959 -440.985,-14.705C-440.18,-9.45 -434.663,-10.519 -434.663,-10.519C-434.663,-10.519 -380.778,-10.952 -374.732,-10.709C-368.685,-10.465 -369.227,-15.458 -369.227,-15.458C-369.227,-15.458 -369.024,-34.493 -369.049,-42.115C-369.073,-49.738 -371.141,-49.358 -373.542,-49.792C-375.683,-50.178 -376.079,-50.045 -380.818,-50.03L-380.818,-50.03Z" style="fill:white;fill-rule:nonzero;"/>
        <path d="M-383.837,-115.919C-391.076,-116.205 -396.205,-113.495 -399.879,-109.097C-403.213,-112.697 -408.297,-115.615 -416.317,-115.74C-437.167,-116.134 -438.026,-87.345 -438.6,-81.858C-439.179,-76.351 -435.477,-75.698 -432.214,-75.015C-416.911,-71.808 -373.169,-65.297 -373.169,-65.297C-367.781,-64.461 -367.13,-72.433 -366.421,-77.14C-363.402,-97.197 -367.147,-115.259 -383.837,-115.919L-383.837,-115.919ZM-421.603,-89.899C-421.603,-89.899 -421.209,-99.411 -416.736,-99.559C-411.034,-99.747 -411.386,-92.077 -412.197,-88.5L-421.603,-89.899ZM-382.819,-84.02C-388.872,-85.109 -394.003,-85.515 -394.005,-85.787C-394.071,-93.485 -390.323,-97.261 -387.783,-96.989C-382.813,-96.459 -381.918,-90.026 -382.819,-84.02L-382.819,-84.02Z" style="fill:white;fill-rule:nonzero;"/>
        <path d="M-356.812,-166.092C-362.927,-168.044 -364.127,-161.938 -364.127,-161.938L-369.299,-147.128L-378.306,-150.002C-378.306,-150.002 -376.274,-156.038 -374.436,-161.798C-372.598,-167.557 -375.877,-168.879 -375.877,-168.879C-375.877,-168.879 -378.643,-170.59 -384.232,-172.097C-389.821,-173.605 -390.508,-168.857 -390.508,-168.857L-395.205,-155.003L-403.969,-157.8C-403.969,-157.8 -401.162,-165.732 -399.585,-172.402C-398.008,-179.073 -401.594,-179.942 -401.594,-179.942C-401.594,-179.942 -406.043,-181.441 -410.576,-182.923C-414.854,-184.321 -416.009,-180.597 -416.009,-180.597C-416.009,-180.597 -424.072,-156.194 -424.919,-150.946C-425.766,-145.698 -420.188,-145.022 -420.188,-145.022C-420.188,-145.022 -368.772,-128.89 -363.093,-126.802C-357.413,-124.713 -356.396,-129.631 -356.396,-129.631C-356.396,-129.631 -350.359,-147.684 -348.041,-154.946C-345.724,-162.208 -347.809,-162.481 -349.96,-163.631C-351.88,-164.656 -352.297,-164.651 -356.812,-166.092L-356.812,-166.092Z" style="fill:white;fill-rule:nonzero;"/>
        <path d="M-381.316,-255.937C-382.686,-253.814 -385.394,-248.458 -386.853,-245.072C-388.311,-241.688 -385.596,-240.604 -384.328,-239.944C-376.12,-235.669 -350.807,-222.759 -350.807,-222.759C-350.807,-222.759 -378.331,-224.164 -387.653,-224.775C-398.204,-225.468 -398.028,-223.612 -399.458,-220.85C-401.262,-217.367 -402.23,-216.43 -403.453,-213.128C-404.676,-209.826 -402.233,-208.437 -402.233,-208.437L-364.713,-188.734C-364.713,-188.734 -352.341,-182.669 -345.761,-179.361C-338.839,-175.883 -336.906,-184.061 -334.365,-188.865C-331.825,-193.669 -338.115,-195.962 -338.115,-195.962L-363.855,-208.692C-363.855,-208.692 -339.081,-206.866 -330.389,-207.731C-323.168,-208.449 -322.631,-211.823 -320.991,-214.99C-317.482,-221.763 -317.026,-226.46 -323.783,-229.96C-335.717,-236.142 -370.283,-254.117 -374.774,-256.504C-379.264,-258.89 -380.425,-257.317 -381.316,-255.937L-381.316,-255.937Z" style="fill:white;fill-rule:nonzero;"/>
        <path d="M-308.81,-260.572C-316.661,-261.249 -320.312,-255.21 -321.039,-252.013C-322.135,-245.042 -317.64,-241.813 -313.913,-239.881C-311.016,-238.378 -305.548,-239.56 -302.477,-243.289C-300.872,-242.332 -297.752,-237.956 -296.428,-235.864C-292.726,-236.163 -293.013,-237.82 -293.013,-237.82C-293.013,-237.82 -296.475,-256.84 -308.81,-260.572L-308.81,-260.572Z" style="fill:white;fill-rule:nonzero;"/>
        <path d="M-246.703,-322.148C-251.105,-326.82 -255.115,-322.063 -255.115,-322.063L-266.82,-311.618L-273.303,-318.5C-273.303,-318.5 -268.599,-322.793 -264.198,-326.939C-259.798,-331.084 -262.025,-333.831 -262.025,-333.831C-262.025,-333.831 -263.614,-336.668 -267.77,-340.697C-271.927,-344.725 -274.831,-340.907 -274.831,-340.907L-285.657,-331.069L-291.965,-337.765C-291.965,-337.765 -285.664,-343.34 -281.05,-348.409C-276.436,-353.479 -279.151,-355.977 -279.151,-355.977C-279.151,-355.977 -282.314,-359.445 -285.56,-362.94C-288.623,-366.237 -291.439,-363.54 -291.439,-363.54C-291.439,-363.54 -310.325,-346.109 -313.61,-341.931C-316.896,-337.751 -312.346,-334.455 -312.346,-334.455C-312.346,-334.455 -275.204,-295.413 -271.249,-290.833C-267.295,-286.252 -264.02,-290.059 -264.02,-290.059C-264.02,-290.059 -249.986,-302.92 -244.437,-308.147C-238.889,-313.374 -240.58,-314.624 -241.904,-316.673C-243.086,-318.501 -243.453,-318.699 -246.703,-322.148L-246.703,-322.148Z" style="fill:white;fill-rule:nonzero;"/>
        <path d="M-227.012,-371.467C-236.218,-372.021 -242.802,-370.981 -245.505,-375.233C-248.254,-379.556 -242.249,-381.773 -239.176,-381.962C-235.837,-382.167 -235.509,-384.095 -235.599,-386.003C-235.697,-388.137 -236.283,-391.978 -236.668,-394.481C-237.087,-397.192 -238.404,-399.05 -243.152,-398.476C-247.9,-397.901 -257.142,-394.575 -260.957,-386.929C-264.773,-379.283 -264.915,-369.786 -258.315,-362.595C-251.203,-354.849 -245.049,-353.579 -238.48,-353.403C-230.608,-353.191 -223.569,-353.861 -223.708,-349.535C-223.805,-346.566 -232.444,-344.739 -232.444,-344.739C-232.444,-344.739 -235.725,-344.292 -235.814,-341.919C-235.964,-337.949 -235.456,-333.688 -234.426,-331.627C-233.395,-329.566 -233.251,-323.759 -220.095,-328.683C-210.339,-332.334 -202.569,-343.685 -205.731,-353.901C-208.893,-364.117 -217.026,-370.867 -227.012,-371.467L-227.012,-371.467Z" style="fill:white;fill-rule:nonzero;"/>
        <path d="M-126.118,-422.477C-126.859,-424.125 -128.779,-424.878 -130.47,-424.249L-148.068,-417.715C-148.068,-417.715 -150.906,-416.313 -149.993,-413.282C-149.993,-413.282 -147.465,-406.51 -146.941,-405.066C-146.565,-404.033 -145.431,-401.236 -142.889,-401.956C-142.131,-402.171 -138.744,-403.489 -136.211,-404.505C-135.821,-402.537 -135.248,-399.482 -135.595,-397.788C-136.561,-393.074 -140.479,-390.588 -144.026,-390.508C-147.223,-390.436 -153.233,-395.414 -156.903,-404.532C-161.273,-415.391 -161.846,-424.621 -154.089,-427.493C-150.475,-428.831 -147.253,-427.352 -145.953,-426.922C-144.653,-426.492 -143.348,-427.007 -141.636,-431.263L-139.193,-438.442C-139.193,-438.442 -138.852,-441.402 -143.237,-443.441C-147.619,-445.481 -156.391,-448.613 -164.912,-442.993C-173.433,-437.372 -177.895,-428.264 -176.567,-413.907C-175.239,-399.551 -166.553,-379.439 -148.944,-373.95C-138.118,-371.815 -127.659,-377.108 -123.784,-383.118C-116.127,-394.99 -119.241,-407.185 -126.118,-422.477L-126.118,-422.477Z" style="fill:white;fill-rule:nonzero;"/>
        <path d="M-98.014,-441.419C-92.368,-446.135 -93.139,-453.151 -96.115,-456.502C-101.61,-462.15 -108.322,-459.971 -110.962,-458.029C-116.352,-453.474 -115.064,-448.091 -113.51,-444.191C-111.895,-440.137 -103.661,-436.704 -98.014,-441.419L-98.014,-441.419ZM-89.713,-432.065C-90.727,-436.147 -94.609,-434.798 -94.609,-434.798L-105.413,-432.158C-110.257,-431.134 -108.56,-427.226 -108.178,-425.828C-104.856,-413.653 -101.726,-400.658 -99.808,-393.733C-97.888,-386.806 -94.366,-388.405 -94.366,-388.405C-94.366,-388.405 -89.232,-389.502 -84.103,-390.957C-78.974,-392.412 -80.897,-396.991 -80.897,-396.991C-80.897,-396.991 -88.698,-427.984 -89.713,-432.065L-89.713,-432.065Z" style="fill:white;fill-rule:nonzero;"/>
        <path d="M-19.313,-423.92C-20.923,-430.984 -24.875,-435.23 -30.079,-437.632C-27.47,-441.788 -25.978,-447.457 -27.945,-455.233C-32.995,-475.466 -61.015,-468.797 -66.461,-467.923C-71.929,-467.047 -71.596,-463.303 -71.405,-459.975C-70.516,-444.365 -65.41,-400.436 -65.41,-400.436C-64.814,-395.016 -56.948,-396.464 -52.219,-397.006C-32.068,-399.314 -15.604,-407.634 -19.313,-423.92L-19.313,-423.92ZM-54.272,-453.606C-54.272,-453.606 -44.985,-455.704 -43.678,-451.423C-42.011,-445.967 -49.508,-444.309 -53.172,-444.161L-54.272,-453.606ZM-49.847,-414.629C-50.372,-420.757 -51.316,-425.817 -51.054,-425.89C-43.639,-427.958 -39.018,-425.323 -38.618,-422.8C-37.836,-417.863 -43.813,-415.324 -49.847,-414.629L-49.847,-414.629Z" style="fill:white;fill-rule:nonzero;"/>
        <path d="M40.635,-468.246C40.411,-469.828 39.437,-470.969 37.874,-471.299C35.522,-471.797 26.079,-472.334 16.792,-472.653C7.318,-472.979 -1.958,-473.029 -4.567,-472.795C-5.941,-472.671 -7.088,-471.756 -7.143,-470.377C-7.253,-467.61 -8.006,-463.161 -7.764,-456.472C-7.714,-455.069 -6.734,-454.054 -5.354,-453.809C-3.936,-453.557 0.194,-453.309 5.97,-452.932C5.468,-436.075 4.62,-412.46 4.562,-407.122C4.483,-399.934 8.011,-400.513 8.011,-400.513C8.011,-400.513 14.501,-400.109 19.412,-400.111C24.321,-400.113 23.794,-405.043 23.794,-405.043C23.794,-405.043 24.758,-433.602 25.39,-452.254C31.556,-452.199 35.674,-452.138 37.104,-452.424C38.67,-452.74 39.702,-453.671 40.112,-455.216C40.719,-457.501 41.425,-462.604 40.635,-468.246L40.635,-468.246Z" style="fill:white;fill-rule:nonzero;"/>
        <path d="M130.452,-388.672C129.892,-389.566 127.162,-395.643 125.237,-400.609C123.689,-404.603 121.203,-414.74 120.213,-418.177C126.519,-425.34 139.085,-437.076 141.831,-440.057C145.702,-444.258 144.801,-447.782 138.779,-449.681C135.369,-450.757 132.738,-451.573 130.106,-451.343C126.96,-451.069 123.316,-446.371 123.316,-446.371L110.251,-432.947L112.36,-441.448C112.36,-441.448 112.401,-441.437 112.441,-441.426L115.499,-452.71C116.124,-455.014 114.763,-457.388 112.464,-458.027C109.87,-458.747 106.975,-459.498 105.957,-459.774C99.438,-461.535 99.484,-457.34 98.455,-454.177C93.587,-439.307 82.256,-396.32 82.256,-396.32C80.83,-391.042 89.231,-389.142 93.885,-388.146C98.504,-387.181 98.956,-391.917 99.354,-393.312C100.486,-397.33 102.969,-405.57 104.301,-409.966C106.273,-399.851 111.674,-388.417 113.765,-384.012C116.135,-379.015 119.746,-379.945 119.746,-379.945C119.746,-379.945 124.974,-382.164 128.145,-383.486C131.314,-384.808 131.34,-387.252 130.452,-388.672L130.452,-388.672Z" style="fill:white;fill-rule:nonzero;"/>
        <path d="M181.121,-371.145C183.648,-377.045 177.686,-378.824 177.686,-378.824L163.438,-385.389L167.161,-394.08C167.161,-394.08 172.975,-391.479 178.532,-389.099C184.089,-386.718 185.72,-389.856 185.72,-389.856C185.72,-389.856 187.686,-392.445 189.722,-397.864C191.757,-403.283 187.098,-404.422 187.098,-404.422L173.757,-410.423L177.379,-418.879C177.379,-418.879 185.006,-415.326 191.495,-413.118C197.984,-410.91 199.192,-414.396 199.192,-414.396C199.192,-414.396 201.11,-418.681 203.019,-423.052C204.82,-427.176 201.223,-428.682 201.223,-428.682C201.223,-428.682 177.704,-439.043 172.562,-440.389C167.418,-441.734 166.211,-436.246 166.211,-436.246C166.211,-436.246 145.234,-386.61 142.612,-381.157C139.989,-375.703 144.787,-374.219 144.787,-374.219C144.787,-374.219 162.18,-366.483 169.187,-363.481C176.194,-360.479 176.665,-362.528 178.016,-364.56C179.22,-366.373 179.255,-366.789 181.121,-371.145L181.121,-371.145Z" style="fill:white;fill-rule:nonzero;"/>
        <path d="M226.16,-392.775C233.504,-392.336 237.754,-397.97 237.886,-402.45C237.76,-410.33 231.381,-413.346 228.127,-413.743C221.08,-414.125 218.326,-409.323 216.783,-405.419C215.179,-401.361 218.817,-393.216 226.16,-392.775L226.16,-392.775ZM225.788,-380.275C227.848,-383.941 224.098,-385.621 224.098,-385.621L214.424,-391.109C210.196,-393.685 208.752,-389.677 208.071,-388.398C202.139,-377.259 195.506,-365.654 192.154,-359.298C188.8,-352.941 192.46,-351.689 192.46,-351.689C192.46,-351.689 196.949,-348.967 201.679,-346.508C206.411,-344.049 208.151,-348.701 208.151,-348.701C208.151,-348.701 223.727,-376.608 225.788,-380.275L225.788,-380.275Z" style="fill:white;fill-rule:nonzero;"/>
        <path d="M304.407,-363.761C302.539,-365.463 297.703,-369.018 294.605,-371.015C291.507,-373.011 289.99,-370.512 289.13,-369.37C283.56,-361.98 266.651,-339.143 266.651,-339.143C266.651,-339.143 272.577,-366.058 274.718,-375.152C277.141,-385.444 275.281,-385.576 272.794,-387.443C269.656,-389.797 268.891,-390.906 265.836,-392.657C262.781,-394.407 261.008,-392.227 261.008,-392.227L235.385,-358.471C235.385,-358.471 227.363,-347.269 223.015,-341.324C218.443,-335.071 226.19,-331.816 230.509,-328.517C234.829,-325.219 238.127,-331.045 238.127,-331.045L254.929,-354.333C254.929,-354.333 249.042,-330.199 248.461,-321.484C247.978,-314.243 251.217,-313.156 254.07,-311.016C260.172,-306.439 264.729,-305.214 269.296,-311.301C277.362,-322.052 300.792,-353.18 303.887,-357.215C306.981,-361.251 305.621,-362.655 304.407,-363.761L304.407,-363.761Z" style="fill:white;fill-rule:nonzero;"/>
        <path d="M311.039,-272.298C315.645,-276.769 310.828,-280.707 310.828,-280.707L300.21,-292.256L306.995,-298.841C306.995,-298.841 311.357,-294.201 315.568,-289.862C319.779,-285.524 322.493,-287.792 322.493,-287.792C322.493,-287.792 325.305,-289.423 329.272,-293.639C333.238,-297.856 329.377,-300.702 329.377,-300.702L319.378,-311.38L325.98,-317.788C325.98,-317.788 331.648,-311.57 336.786,-307.032C341.923,-302.494 344.381,-305.246 344.381,-305.246C344.381,-305.246 347.801,-308.461 351.247,-311.759C354.498,-314.87 351.76,-317.646 351.76,-317.646C351.76,-317.646 334.049,-336.27 329.822,-339.493C325.595,-342.716 322.366,-338.117 322.366,-338.117C322.366,-338.117 283.882,-300.397 279.361,-296.375C274.84,-292.353 278.696,-289.135 278.696,-289.135C278.696,-289.135 291.764,-275.294 297.073,-269.824C302.383,-264.354 303.607,-266.064 305.636,-267.418C307.446,-268.627 307.639,-268.997 311.039,-272.298L311.039,-272.298Z" style="fill:white;fill-rule:nonzero;"/>
        <path d="M401.83,-253.027C400.57,-255.217 397.047,-260.077 394.705,-262.924C392.363,-265.77 390.157,-263.852 388.99,-263.027C381.432,-257.685 358.366,-241.09 358.366,-241.09C358.366,-241.09 372.215,-264.918 377.025,-272.926C382.471,-281.99 380.74,-282.683 378.94,-285.219C376.669,-288.417 376.279,-289.707 373.903,-292.305C371.527,-294.904 369.174,-293.368 369.174,-293.368L334.48,-269.029C334.48,-269.029 323.425,-260.806 317.472,-256.469C311.212,-251.908 317.598,-246.445 320.705,-241.987C323.814,-237.53 328.732,-242.073 328.732,-242.073L351.832,-259.131C351.832,-259.131 338.869,-237.94 335.659,-229.817C332.992,-223.068 335.746,-221.045 337.81,-218.137C342.226,-211.918 346.193,-209.362 352.398,-213.767C363.357,-221.548 395.161,-244.052 399.339,-246.952C403.516,-249.852 402.649,-251.604 401.83,-253.027L401.83,-253.027Z" style="fill:white;fill-rule:nonzero;"/>
        <path d="M435.324,-142.83C452.823,-153.295 439.165,-180.149 436.915,-185.185C434.657,-190.241 431.024,-189.216 427.858,-188.173C413.006,-183.285 371.654,-166.921 371.654,-166.921C366.572,-164.946 370.391,-156.081 372.348,-151.742C374.309,-147.451 378.384,-149.892 379.744,-150.397C385.216,-152.456 395.334,-155.891 395.334,-155.891C395.334,-155.891 398.445,-148.076 404.505,-142.911C413.291,-136.268 423.936,-136.02 435.324,-142.83L435.324,-142.83ZM411.655,-162.504L426.224,-168.458C426.224,-168.458 431.618,-158.637 425.703,-155.283C417.462,-150.61 412.746,-159.002 411.655,-162.504Z" style="fill:white;fill-rule:nonzero;"/>
        <path d="M402.057,-73.944C402.057,-73.944 408.194,-75.406 411.262,-76.137C414.331,-76.868 413.904,-78.658 413.611,-81.02C413.319,-83.383 410.261,-95.084 410.261,-95.084C410.261,-95.084 452.581,-105.437 457.756,-106.4C462.931,-107.362 461.8,-110.975 461.8,-110.975C461.8,-110.975 459.956,-119.849 459.043,-123.684C458.129,-127.52 455.182,-126.277 455.182,-126.277L418.109,-117.715C418.109,-117.715 397.595,-113.097 391.967,-111.757C386.34,-110.416 388.144,-106.252 388.144,-106.252C388.144,-106.252 393.522,-85.707 395.091,-78.229C396.424,-71.882 402.057,-73.944 402.057,-73.944L402.057,-73.944Z" style="fill:white;fill-rule:nonzero;"/>
        <path d="M409.741,-13.743C424.302,-18.696 454.068,-30.132 464.145,-34.897C474.227,-39.619 473.202,-41.959 472.635,-47.439C472.067,-52.919 469.679,-56.585 464.203,-57.405C460.033,-58.03 421.244,-64.349 405.489,-67.189C396.851,-68.746 398.86,-59.752 399.13,-54.494C399.42,-49.239 404.481,-48.96 404.481,-48.96L410.62,-47.974L412.156,-34.868C412.156,-34.868 410.774,-34.367 405.69,-32.852C400.757,-31.382 401.621,-27.243 402.551,-19.989C403.417,-13.241 407.576,-13.011 409.741,-13.743L409.741,-13.743ZM425.942,-46.551L443.596,-44.567L426.798,-39.44L425.942,-46.551Z" style="fill:white;fill-rule:nonzero;"/>
        <path d="M473.654,50.022C474.009,47.52 474.226,41.521 474.133,37.837C474.04,34.152 471.12,34.305 469.693,34.236C460.449,33.791 432.056,32.666 432.056,32.666C432.056,32.666 457.639,22.417 466.361,19.07C476.232,15.281 475.295,13.669 475.438,10.562C475.618,6.644 476.105,5.388 475.833,1.877C475.56,-1.634 472.76,-1.872 472.76,-1.872L430.437,-4.056C430.437,-4.056 416.663,-4.384 409.302,-4.632C401.561,-4.892 403.229,3.344 402.933,8.77C402.638,14.197 409.31,13.645 409.31,13.645L438.015,14.428C438.015,14.428 414.753,23.143 407.222,27.567C400.965,31.243 401.89,34.532 401.726,38.095C401.376,45.714 402.928,50.171 410.53,50.521C423.956,51.137 462.872,52.988 467.95,53.275C473.027,53.562 473.422,51.647 473.654,50.022L473.654,50.022Z" style="fill:white;fill-rule:nonzero;"/>
        <path d="M401.838,150.71C408.988,151.874 414.408,149.808 418.591,145.889C421.461,149.869 426.153,153.383 434.098,154.484C454.745,157.411 459.1,128.94 460.338,123.564C461.582,118.168 457.988,117.07 454.832,115.995C440.033,110.95 397.407,99.166 397.407,99.166C392.161,97.68 390.545,105.514 389.269,110.099C383.832,129.64 385.351,148.024 401.838,150.71L401.838,150.71ZM442.489,129.477C442.489,129.477 440.941,138.871 436.483,138.473C430.8,137.966 432.083,130.396 433.323,126.945L442.489,129.477ZM404.708,118.923C410.584,120.74 415.627,121.768 415.596,122.038C414.725,129.687 410.546,132.979 408.057,132.4C403.189,131.269 403.083,124.775 404.708,118.923L404.708,118.923Z" style="fill:white;fill-rule:nonzero;"/>
    </g>
</svg>
