<?xml version="1.0" encoding="UTF-8" standalone="no"?>
<!DOCTYPE svg PUBLIC "-//W3C//DTD SVG 1.1//EN" "http://www.w3.org/Graphics/SVG/1.1/DTD/svg11.dtd">
<svg width="100%" height="100%" viewBox="0 0 708 330" version="1.1" xmlns="http://www.w3.org/2000/svg" xmlns:xlink="http://www.w3.org/1999/xlink" xml:space="preserve" xmlns:serif="http://www.serif.com/" style="fill-rule:evenodd;clip-rule:evenodd;stroke-linejoin:round;stroke-miterlimit:2;">
    <g transform="matrix(0.432455,0,0,0.432455,-205.054,-119.484)">
        <path d="M530.129,582.012L482.764,582.012C478.889,582.442 476.736,581.15 476.306,577.275C475.875,573.83 474.153,569.955 474.583,566.941C477.167,546.703 472.861,526.896 474.583,506.658L477.167,467.905C477.167,463.599 477.597,458.863 476.736,454.126C473.722,440.347 474.583,426.568 476.306,412.359C478.028,399.011 475.875,385.662 475.875,372.314C475.444,368.008 475.444,363.702 475.444,359.396C475.444,348.632 475.444,338.297 475.014,327.963C475.014,318.921 474.583,310.309 474.583,301.697C474.583,299.544 484.917,290.502 488.362,290.071C500.849,288.779 513.336,287.057 526.254,286.196C540.894,285.765 544.769,288.349 545.2,302.989C545.631,315.907 548.645,328.394 546.061,341.742C543.908,354.66 545.2,368.439 545.631,381.787C546.061,406.761 547.353,431.305 547.353,456.279C546.922,472.642 544.769,489.004 543.908,505.797C543.478,514.839 544.339,524.312 544.339,533.785C544.769,545.411 545.631,557.468 544.769,569.094C544.339,578.136 539.172,581.581 530.129,582.012ZM680.405,456.279C679.544,471.78 681.267,485.559 688.156,499.338C694.615,512.687 714.422,522.59 732.076,522.59C751.883,522.59 767.385,505.366 779.011,490.726C780.733,489.004 781.594,486.851 783.317,485.129C787.192,481.253 789.775,479.1 791.928,479.1C794.512,479.1 797.095,481.684 800.971,486.421C806.999,493.741 814.75,499.769 821.639,506.228C825.945,510.534 830.681,515.27 834.126,520.007C834.987,521.298 834.126,525.174 832.834,527.327C826.806,539.814 818.194,550.578 806.999,558.76C797.095,565.649 787.192,572.539 777.288,579.859C765.232,588.47 737.674,594.068 722.173,594.068C700.643,594.068 680.405,586.748 662.321,573.4C619.692,541.106 609.789,507.089 607.205,456.279C606.774,446.806 609.358,437.333 611.511,427.86C621.845,380.926 627.873,354.229 659.306,315.046C667.918,303.85 681.697,298.683 695.045,293.516C702.796,290.502 710.116,286.627 717.867,285.335C724.756,284.474 731.215,284.043 738.105,284.043C760.065,284.043 805.707,299.975 821.639,312.462C831.973,320.643 834.987,333.13 839.724,344.756C840.154,346.048 838.863,349.062 837.14,350.354C825.514,362.841 812.597,373.606 797.957,383.079C795.804,384.371 794.512,385.232 792.359,383.079C788.914,380.065 785.039,377.481 782.025,373.606C776.427,366.286 769.538,361.119 760.495,358.535C753.606,356.813 747.147,354.229 740.257,352.937C727.34,350.785 717.006,355.09 709.255,365.425C698.49,378.342 689.878,392.552 686.434,409.345C682.989,425.277 678.683,440.778 680.405,456.279ZM1068.37,454.126C1051.57,454.126 1036.07,454.557 1020.14,454.126C1015.84,454.126 1011.1,453.265 1006.36,452.834C1004.21,452.404 1001.63,451.973 999.473,452.404C993.445,452.834 987.847,453.696 981.819,454.557C978.374,454.987 974.929,455.849 971.485,456.279C967.179,456.71 966.317,458.863 966.748,462.738C968.04,491.588 969.762,520.868 970.623,549.717C970.623,558.329 968.04,567.372 966.317,576.414C965.887,577.706 962.012,579.428 959.859,579.428C947.802,580.289 935.746,580.289 923.689,580.289C916.8,580.72 910.341,580.72 903.882,580.72C903.021,574.261 902.159,567.802 901.729,560.913C900.437,547.564 896.992,534.216 898.284,521.298C900.868,499.338 895.701,477.378 898.715,455.418C900.437,445.084 896.992,434.319 896.562,423.985C896.131,406.331 896.131,389.107 896.562,371.883C896.992,357.674 900.868,343.895 898.284,328.824C896.562,318.06 897.854,306.003 897.854,294.808C897.854,291.363 899.145,288.779 903.451,288.779C907.327,288.349 911.632,287.057 915.938,286.627C926.703,285.335 937.468,284.474 948.663,283.612C960.72,282.751 963.303,282.751 964.164,295.669C965.026,314.615 964.164,333.561 964.595,352.507C964.595,362.841 965.887,373.606 966.748,383.94C967.179,385.662 970.193,387.815 971.485,387.815C998.181,383.079 1025.74,386.524 1052.44,385.662C1067.94,385.232 1068.37,384.801 1068.8,369.731C1068.8,361.549 1070.52,353.368 1070.52,345.187C1070.52,337.436 1069.23,329.686 1068.8,321.935C1068.8,315.907 1068.8,309.448 1068.37,302.989C1068.37,299.544 1067.94,296.1 1067.51,292.655C1066.64,284.474 1066.64,284.474 1075.26,284.043C1084.73,283.612 1093.34,281.89 1102.82,283.182C1111,284.474 1119.61,282.321 1128.22,281.459C1136.4,281.029 1136.83,281.459 1137.26,289.641C1137.69,303.85 1140.28,318.49 1138.98,333.13C1135.97,373.606 1139.41,414.081 1136.83,454.557C1134.25,489.004 1135.54,523.021 1134.68,557.468C1134.25,571.247 1133.82,571.677 1120.47,572.969C1114.01,573.4 1107.98,574.692 1101.95,575.122C1092.91,575.983 1083.87,576.414 1075.26,577.275C1069.66,577.706 1069.23,575.122 1068.37,570.386C1064.06,552.301 1067.08,534.216 1066.21,516.562C1065.78,502.352 1065.78,488.143 1066.21,473.933C1066.21,467.475 1067.51,461.016 1068.37,454.126ZM1435.23,346.909C1435.23,361.549 1434.8,376.189 1435.23,390.829C1435.23,392.121 1437.81,394.705 1439.11,394.705C1450.73,395.566 1461.93,395.566 1473.55,395.566C1485.61,395.566 1497.67,393.844 1509.72,397.288C1514.03,398.58 1515.32,400.733 1515.32,405.039C1515.75,422.263 1516.18,439.486 1516.18,456.71C1516.18,460.585 1515.32,463.599 1509.29,464.03C1504.56,464.46 1499.39,464.891 1494.65,464.891C1483.03,464.891 1471.4,463.599 1459.34,461.877C1453.75,461.016 1447.72,461.446 1441.69,461.446C1436.52,461.446 1434.8,464.03 1434.8,468.766C1435.23,474.795 1435.23,480.823 1434.8,486.851C1434.37,492.879 1433.51,499.338 1432.65,505.366C1432.22,509.242 1433.08,511.395 1437.81,510.534C1444.27,509.242 1450.3,508.811 1456.76,508.811C1464.51,508.811 1472.69,509.672 1480.44,510.103C1489.91,510.534 1499.82,508.381 1509.72,507.95C1514.89,507.519 1520.49,507.519 1526.09,508.381C1536.42,510.534 1536.42,510.534 1536.85,520.868C1537.71,536.8 1538.57,552.731 1539,568.663C1539.43,572.539 1538.14,574.261 1533.84,575.553C1521.35,578.997 1509.29,576.845 1497.24,576.845C1486.9,576.845 1476.14,575.122 1465.8,575.122C1456.76,575.122 1447.29,575.553 1438.67,577.706C1433.08,579.428 1427.05,579.859 1421.45,579.859C1409.83,579.859 1398.2,577.275 1386.57,575.553C1384.85,575.122 1382.7,574.261 1380.98,574.261C1377.96,573.83 1374.09,574.692 1372.36,572.969C1365.04,565.649 1363.75,559.19 1363.75,549.717C1363.75,528.618 1363.75,507.089 1364.18,485.99C1364.18,474.364 1365.48,463.169 1365.9,451.543C1366.34,444.223 1365.04,436.903 1364.61,429.583C1364.61,416.665 1364.18,403.317 1364.61,390.399C1364.61,381.356 1365.04,371.883 1365.04,362.41C1365.04,340.881 1364.18,319.351 1364.18,297.391C1364.18,287.488 1374.09,279.737 1385.28,279.737C1389.16,280.168 1394.32,281.029 1397.34,278.876C1399.49,277.584 1401.21,277.154 1402.94,277.154C1406.38,277.154 1409.83,278.876 1413.27,278.876C1420.59,278.876 1427.48,281.029 1434.37,281.459C1461.07,283.612 1487.76,285.765 1514.46,285.765C1519.2,286.196 1524.36,286.196 1529.53,286.196C1533.84,286.196 1535.99,288.779 1536.85,292.655C1537.71,296.1 1538.57,299.544 1539,302.989C1539.86,316.337 1540.3,329.686 1541.59,342.603C1542.02,348.201 1539.86,350.785 1534.7,351.646C1530.82,352.076 1526.95,352.076 1523.07,352.076C1523.07,348.201 1521.78,348.632 1517.9,349.062C1508,349.493 1498.53,349.923 1488.62,349.923C1473.98,349.923 1459.77,349.062 1445.13,347.77C1441.69,347.77 1438.67,347.34 1435.23,346.909ZM1589.38,544.55C1604.88,530.771 1619.09,517.423 1634.16,504.505C1637.61,501.491 1641.48,500.199 1644.93,505.366C1652.68,517.423 1678.94,529.91 1693.59,529.91C1696.6,529.91 1699.61,529.48 1702.63,528.618C1711.24,526.035 1720.71,526.035 1729.32,525.174C1734.49,524.312 1740.52,524.743 1744.39,522.16C1750.42,518.284 1760.33,517.423 1760.33,507.089C1760.76,494.171 1762.91,479.962 1747.41,472.642C1736.21,467.475 1725.45,461.877 1713.39,461.016C1710.38,461.016 1707.79,459.724 1705.21,458.863C1688.85,454.987 1672.92,451.112 1656.55,446.806C1638.04,442.07 1620.82,423.124 1612.2,406.761C1604.02,390.399 1598.42,373.606 1604.02,355.09C1608.76,340.881 1611.34,325.81 1621.68,313.323C1626.84,307.295 1632.01,301.697 1639.33,298.683C1656.12,291.363 1691.43,276.292 1709.95,276.292C1732.34,276.292 1772.81,289.21 1792.19,298.252C1801.23,302.558 1808.55,309.448 1813.29,319.351C1815.87,324.949 1815.01,327.533 1811.14,331.408C1798.22,345.617 1786.16,360.258 1773.67,374.898C1772.81,374.467 1772.38,374.036 1771.95,374.036C1759.47,360.258 1731.48,347.34 1712.53,347.34C1703.49,347.34 1694.45,350.354 1685.83,353.368C1681.53,354.66 1675.07,366.286 1675.5,370.592C1675.93,377.051 1681.53,383.079 1689.28,384.801C1698.75,386.954 1708.65,388.246 1718.13,389.968C1767.65,399.011 1813.29,419.248 1825.35,472.642C1827.93,485.99 1827.93,499.338 1826.21,512.256C1823.62,535.508 1813.72,555.746 1791.76,567.802C1778.84,575.122 1765.49,581.581 1752.14,588.47C1749.99,589.332 1746.98,590.193 1744.39,590.193C1726.74,591.485 1709.09,593.638 1691.43,593.638C1668.18,594.068 1647.51,585.456 1626.84,575.553C1612.2,568.233 1601.44,557.037 1589.38,544.55ZM1873.14,544.55C1888.64,530.771 1902.85,517.423 1917.92,504.505C1921.37,501.491 1925.24,500.199 1928.69,505.366C1936.44,517.423 1962.7,529.91 1977.34,529.91C1980.36,529.91 1983.37,529.48 1986.39,528.618C1995,526.035 2004.47,526.035 2013.08,525.174C2018.25,524.312 2024.28,524.743 2028.15,522.16C2034.18,518.284 2044.09,517.423 2044.09,507.089C2044.52,494.171 2046.67,479.962 2031.17,472.642C2019.97,467.475 2009.21,461.877 1997.15,461.016C1994.14,461.016 1991.55,459.724 1988.97,458.863C1972.61,454.987 1956.67,451.112 1940.31,446.806C1921.8,442.07 1904.57,423.124 1895.96,406.761C1887.78,390.399 1882.18,373.606 1887.78,355.09C1892.52,340.881 1895.1,325.81 1905.43,313.323C1910.6,307.295 1915.77,301.697 1923.09,298.683C1939.88,291.363 1975.19,276.292 1993.71,276.292C2016.1,276.292 2056.57,289.21 2075.95,298.252C2084.99,302.558 2092.31,309.448 2097.05,319.351C2099.63,324.949 2098.77,327.533 2094.89,331.408C2081.98,345.617 2069.92,360.258 2057.43,374.898C2056.57,374.467 2056.14,374.036 2055.71,374.036C2043.22,360.258 2015.24,347.34 1996.29,347.34C1987.25,347.34 1978.21,350.354 1969.59,353.368C1965.29,354.66 1958.83,366.286 1959.26,370.592C1959.69,377.051 1965.29,383.079 1973.04,384.801C1982.51,386.954 1992.41,388.246 2001.89,389.968C2051.41,399.011 2097.05,419.248 2109.1,472.642C2111.69,485.99 2111.69,499.338 2109.97,512.256C2107.38,535.508 2097.48,555.746 2075.52,567.802C2062.6,575.122 2049.25,581.581 2035.9,588.47C2033.75,589.332 2030.74,590.193 2028.15,590.193C2010.5,591.485 1992.85,593.638 1975.19,593.638C1951.94,594.068 1931.27,585.456 1910.6,575.553C1895.96,568.233 1885.2,557.037 1873.14,544.55ZM494.641,735.749L581.211,735.749C605.351,735.749 626.161,744.906 644.89,759.473C654.879,767.381 665.284,792.769 668.197,805.671C672.359,823.984 669.446,841.464 659.873,858.112C655.295,866.436 656.127,866.02 663.203,872.679C668.197,878.09 673.191,884.333 676.521,890.992C681.515,900.565 685.261,910.97 689.839,920.959C696.499,935.942 699.412,951.758 693.169,967.99C687.758,982.557 684.013,998.788 669.862,1008.78C657.792,1016.69 644.89,1024.18 631.987,1031.25C629.074,1032.92 624.912,1032.92 621.166,1033.33C606.599,1033.33 592.032,1034.16 577.881,1032.92C565.812,1032.08 553.742,1033.75 542.088,1033.33C532.515,1032.5 522.527,1032.92 512.954,1032.08C510.457,1031.67 508.376,1031.67 506.295,1031.67C502.549,1031.67 499.636,1032.08 495.89,1034.16C494.641,1035 493.393,1035 491.728,1035C484.236,1035 474.663,1028.34 474.247,1021.68C473.831,1007.11 475.08,992.129 475.496,977.562C475.496,974.649 475.912,971.319 475.912,968.406C475.912,943.017 475.912,917.629 480.49,892.657C481.323,886.414 481.323,880.171 481.323,874.344C480.49,858.945 480.907,843.962 482.571,828.978C483.82,817.741 481.739,806.087 480.49,794.85C478.825,779.034 480.49,763.219 480.907,747.403C480.907,739.495 485.485,736.166 494.641,735.749ZM549.996,829.811L549.163,829.811L549.163,844.794C549.58,852.702 550.412,853.534 557.487,852.286C567.893,850.621 577.881,849.372 587.87,847.707C589.951,847.707 592.032,846.459 594.113,845.626C604.102,840.216 606.599,831.059 606.599,820.654C606.599,810.666 602.021,805.255 592.032,801.925C578.298,797.763 564.563,801.093 551.244,799.844C547.499,799.428 546.666,801.925 547.082,805.255C548.331,813.163 549.163,821.487 549.996,829.811ZM547.082,975.897L591.616,975.897C603.27,976.73 613.675,972.152 623.663,966.325C626.993,964.244 630.739,960.498 631.155,957.168C633.652,946.347 628.242,936.774 624.912,926.786C622.415,918.878 607.432,915.132 599.94,914.3L563.314,914.3C557.904,914.716 552.077,915.548 546.666,916.797C545.001,916.797 542.92,919.294 542.504,920.543C541.672,936.774 540.839,952.59 540.007,968.406C539.591,973.816 541.672,976.314 547.082,975.897ZM753.518,845.626C753.934,822.319 753.518,799.012 753.934,775.705C754.351,764.883 756.848,754.478 758.096,743.657C758.929,739.911 761.01,738.247 764.339,738.247L813.035,739.495C814.7,739.495 816.781,741.16 817.197,742.409C819.694,748.235 822.191,753.646 822.191,760.721C820.943,796.098 820.527,831.476 820.11,866.853C820.11,881.42 821.775,896.403 822.191,910.97C822.191,923.872 820.527,936.774 820.11,949.677C819.694,957.584 820.11,958.001 828.434,957.584C836.758,957.584 845.082,956.336 853.406,955.503L864.644,955.503C884.205,957.168 904.183,958.417 923.744,960.082C932.068,960.914 937.063,965.492 935.814,974.649C934.566,981.724 935.398,987.967 936.23,994.626C937.063,1002.53 935.398,1010.44 934.149,1018.35C933.733,1019.6 931.236,1021.26 929.571,1021.68L900.853,1024.18C892.946,1024.59 885.038,1025.42 877.13,1025.84C875.465,1026.26 873.384,1026.26 871.719,1026.26C860.482,1025.42 849.661,1024.59 838.839,1024.18C815.116,1023.76 791.809,1023.76 768.085,1022.93C763.923,1022.51 758.513,1017.93 756.848,1013.77C754.351,1007.95 752.686,1000.04 754.351,994.21C758.513,980.059 757.264,965.909 756.015,951.758C754.767,941.769 753.934,932.196 753.518,922.207L753.518,845.626ZM982.845,903.478C982.429,893.073 982.429,882.252 982.429,871.847C982.845,864.355 984.094,857.28 984.51,850.205C984.926,845.626 985.758,841.048 984.51,836.47C982.845,830.643 983.677,824.816 985.342,818.99C986.175,815.66 985.342,812.33 985.342,808.585C985.758,804.839 985.758,801.093 986.175,797.347C986.175,794.017 987.007,790.688 987.007,787.358C987.007,781.115 986.591,774.456 987.007,768.213C988.672,751.981 989.088,751.981 1005.32,751.565C1016.97,751.149 1028.63,750.316 1040.28,749.068C1045.69,748.652 1049.02,750.733 1049.44,756.559C1049.85,760.305 1050.69,763.635 1051.1,767.381C1051.93,774.872 1052.77,781.948 1052.77,789.023C1052.77,795.682 1051.52,802.758 1051.1,809.417L1051.1,844.794C1051.52,856.448 1049.85,867.685 1047.36,878.506C1046.11,884.333 1046.11,890.992 1046.94,896.819C1047.77,909.721 1049.85,922.207 1051.1,935.11C1053.6,960.082 1064.42,965.492 1087.31,968.822C1094.39,969.654 1101.05,969.238 1108.12,968.822C1116.03,968.822 1121.44,965.076 1124.35,957.584C1128.52,947.179 1131.43,936.774 1131.43,925.537C1131.85,907.64 1133.51,890.16 1134.76,872.263C1136.84,849.788 1139.75,826.897 1138.09,804.422C1137.67,798.596 1136.01,793.185 1135.59,787.358C1134.76,775.705 1134.34,764.051 1133.51,752.397C1133.51,749.484 1133.93,747.403 1137.67,746.987C1142.67,746.571 1148.08,744.906 1153.07,744.906C1166.39,745.322 1179.71,746.571 1192.61,746.987C1198.02,746.987 1200.1,748.235 1200.1,754.062C1200.52,769.462 1201.35,784.861 1202.18,800.26C1203.02,811.498 1204.68,822.319 1204.26,833.14C1203.85,843.129 1201.35,853.118 1200.52,863.523C1199.69,873.096 1200.1,883.084 1200.1,893.073C1199.27,931.364 1190.95,1011.69 1145.58,1024.59C1136.01,1027.09 1126.85,1031.67 1116.86,1033.75C1105.21,1036.25 1093.55,1037.91 1081.9,1037.91C1067.33,1037.91 1041.95,1033.33 1031.12,1022.51C1000.74,994.626 998.661,989.216 983.261,953.839C982.429,952.174 982.845,950.093 982.845,948.428C982.429,933.445 982.845,918.462 982.845,903.478ZM1494.36,840.632C1484.78,861.442 1469.38,877.258 1460.64,897.652C1457.31,905.559 1452.74,912.219 1441.91,909.305C1441.08,909.305 1440.25,909.305 1439.83,909.721C1428.6,917.213 1416.11,912.635 1404.46,914.716C1395.72,915.964 1389.89,913.467 1385.31,906.392C1383.23,903.478 1380.32,900.981 1378.65,897.652C1369.08,881.003 1357.84,866.02 1343.69,853.118C1340.78,850.205 1338.7,846.459 1334.95,841.464L1334.95,885.166C1334.95,905.143 1334.54,925.537 1334.95,945.931C1335.37,966.325 1332.45,986.302 1327.88,1006.28C1325.38,1017.52 1319.13,1020.85 1306.65,1019.6C1298.33,1018.77 1290,1019.6 1281.26,1019.6C1271.27,1019.18 1269.19,1018.35 1267.94,1008.36C1266.28,996.707 1266.69,985.054 1266.69,972.984C1266.69,964.244 1268.36,955.087 1268.36,945.931C1268.78,929.699 1268.36,913.883 1268.78,897.652C1269.19,885.166 1271.27,873.096 1272.11,860.61C1272.94,852.286 1272.94,844.378 1272.94,836.47C1273.77,819.822 1274.6,803.174 1275.02,786.526C1275.43,783.612 1274.6,780.283 1274.6,777.369C1274.19,769.045 1273.77,760.721 1273.77,752.397C1273.77,751.149 1274.6,749.484 1274.6,748.235C1274.6,745.322 1272.94,740.328 1273.77,739.911C1276.68,738.247 1280.43,738.247 1283.76,738.247C1300.82,738.663 1318.3,738.247 1335.37,737.83C1341.61,737.83 1344.94,740.328 1348.27,744.906C1359.09,760.305 1370.33,774.872 1381.15,789.855C1385.73,796.098 1389.89,802.341 1394.88,808.168C1402.79,817.325 1411.12,826.065 1420.27,836.054C1427.76,822.735 1435.26,810.666 1442.33,798.596C1451.07,783.612 1459.39,768.213 1468.13,753.23C1471.46,748.235 1475.21,743.241 1479.37,739.079C1481.45,736.998 1485.62,735.749 1488.53,736.166C1503.51,736.582 1518.5,734.917 1533.48,735.333C1538.06,735.749 1542.63,734.085 1547.63,735.333C1554.7,737.414 1558.87,741.576 1559.28,749.068C1560.12,767.381 1560.53,786.11 1561.78,804.839C1562.2,812.33 1563.44,819.822 1563.86,827.314C1564.28,849.372 1564.69,871.431 1564.69,893.49C1564.69,907.224 1563.86,921.375 1563.86,935.526C1563.86,945.098 1565.94,954.255 1565.94,963.828C1565.94,980.476 1564.69,997.124 1563.86,1013.77C1563.44,1019.6 1558.87,1022.93 1552.21,1023.34C1541.39,1023.76 1530.57,1025.42 1519.74,1025.84C1516.83,1025.84 1513.92,1026.67 1511,1026.67C1507.67,1026.67 1504.35,1025.84 1501.85,1021.26C1500.6,1018.35 1499.77,1015.44 1499.77,1012.52C1498.93,974.233 1498.1,935.942 1497.69,897.652C1497.27,885.998 1498.93,874.76 1498.93,863.523C1499.35,856.031 1498.1,848.54 1494.36,840.632ZM1704.12,799.012C1704.12,813.163 1703.7,827.314 1704.12,841.464C1704.12,842.713 1706.62,845.21 1707.87,845.21C1719.11,846.043 1729.93,846.043 1741.16,846.043C1752.82,846.043 1764.47,844.378 1776.12,847.707C1780.29,848.956 1781.54,851.037 1781.54,855.199C1781.95,871.847 1782.37,888.495 1782.37,905.143C1782.37,908.889 1781.54,911.802 1775.71,912.219C1771.13,912.635 1766.13,913.051 1761.56,913.051C1750.32,913.051 1739.08,911.802 1727.43,910.138C1722.02,909.305 1716.19,909.721 1710.36,909.721C1705.37,909.721 1703.7,912.219 1703.7,916.797C1704.12,922.624 1704.12,928.45 1703.7,934.277C1703.29,940.104 1702.46,946.347 1701.62,952.174C1701.21,955.92 1702.04,958.001 1706.62,957.168C1712.86,955.92 1718.69,955.503 1724.93,955.503C1732.42,955.503 1740.33,956.336 1747.82,956.752C1756.98,957.168 1766.55,955.087 1776.12,954.671C1781.12,954.255 1786.53,954.255 1791.94,955.087C1801.93,957.168 1801.93,957.168 1802.35,967.157C1803.18,982.557 1804.01,997.956 1804.43,1013.36C1804.84,1017.1 1803.59,1018.77 1799.43,1020.01C1787.36,1023.34 1775.71,1021.26 1764.05,1021.26C1754.07,1021.26 1743.66,1019.6 1733.67,1019.6C1724.93,1019.6 1715.78,1020.01 1707.45,1022.1C1702.04,1023.76 1696.21,1024.18 1690.8,1024.18C1679.57,1024.18 1668.33,1021.68 1657.09,1020.01C1655.43,1019.6 1653.35,1018.77 1651.68,1018.77C1648.77,1018.35 1645.02,1019.18 1643.36,1017.52C1636.28,1010.44 1635.03,1004.2 1635.03,995.043C1635.03,974.649 1635.03,953.839 1635.45,933.445C1635.45,922.207 1636.7,911.386 1637.11,900.149C1637.53,893.073 1636.28,885.998 1635.86,878.922C1635.86,866.436 1635.45,853.534 1635.86,841.048C1635.86,832.308 1636.28,823.152 1636.28,813.995C1636.28,793.185 1635.45,772.375 1635.45,751.149C1635.45,741.576 1645.02,734.085 1655.84,734.085C1659.59,734.501 1664.58,735.333 1667.5,733.252C1669.58,732.004 1671.24,731.587 1672.91,731.587C1676.24,731.587 1679.57,733.252 1682.89,733.252C1689.97,733.252 1696.63,735.333 1703.29,735.749C1729.09,737.83 1754.9,739.911 1780.7,739.911C1785.28,740.328 1790.28,740.328 1795.27,740.328C1799.43,740.328 1801.51,742.825 1802.35,746.571C1803.18,749.9 1804.01,753.23 1804.43,756.559C1805.26,769.462 1805.67,782.364 1806.92,794.85C1807.34,800.26 1805.26,802.758 1800.26,803.59C1796.52,804.006 1792.77,804.006 1789.03,804.006C1789.03,800.26 1787.78,800.677 1784.03,801.093C1774.46,801.509 1765.3,801.925 1755.73,801.925C1741.58,801.925 1727.85,801.093 1713.69,799.844C1710.36,799.844 1707.45,799.428 1704.12,799.012ZM2041.66,887.663C2040.83,883.084 2040,878.506 2040,874.344C2039.58,867.269 2039.16,860.61 2039.16,853.95C2039.58,847.291 2041.24,841.048 2041.24,834.805L2041.24,756.976C2041.24,754.062 2040.83,750.733 2041.66,747.819C2042.49,745.738 2044.99,743.241 2047.07,742.825C2064.97,741.576 2083.28,740.328 2101.18,739.079C2102.43,739.079 2104.09,740.328 2104.51,741.576C2105.34,742.825 2105.34,744.49 2105.34,745.738C2106.17,774.872 2107,803.59 2107.42,832.724C2107.84,836.886 2106.59,841.048 2106.17,845.21C2106.17,849.788 2104.92,855.199 2105.76,859.777C2108.25,869.35 2107.84,878.506 2106.17,888.079C2105.34,891.409 2105.34,895.154 2105.76,898.068C2109.09,919.71 2110.33,941.353 2109.92,962.995C2109.92,970.487 2110.75,977.978 2111.17,985.886C2111.17,987.967 2110.75,990.048 2110.33,992.545C2109.5,999.621 2107.42,1006.7 2107.42,1013.77C2107.42,1020.01 2104.51,1022.1 2099.1,1021.68C2090.36,1021.26 2081.62,1022.93 2072.46,1022.51C2064.55,1022.1 2055.81,1024.18 2047.49,1025.01C2045.82,1025.01 2042.91,1025.01 2042.08,1023.76C2029.59,1005.45 2018.35,985.886 2007.53,966.325C1985.47,927.202 1963.41,888.495 1940.11,849.788C1940.11,849.372 1939.69,849.372 1938.86,849.372C1935.11,866.436 1933.03,883.917 1933.45,901.397C1933.86,926.369 1933.86,950.925 1933.45,975.897C1933.45,985.47 1933.03,995.459 1930.95,1005.03C1929.29,1014.19 1928.45,1013.77 1918.88,1014.6C1906.81,1015.02 1894.74,1016.69 1882.67,1017.1C1871.85,1017.52 1868.11,1015.02 1867.69,1003.78C1866.86,992.129 1867.69,980.476 1868.11,968.822C1868.52,965.492 1868.94,962.579 1869.35,959.665C1869.77,926.369 1868.94,893.49 1870.6,860.193C1871.85,834.389 1867.69,808.585 1869.35,782.78C1870.6,769.462 1871.02,756.559 1871.85,743.241C1872.27,740.328 1872.27,738.663 1876.85,739.079C1883.5,739.911 1890.16,739.079 1896.82,739.495C1910.14,739.495 1923.46,740.328 1936.78,739.911C1942.61,739.911 1945.93,741.992 1949.26,746.154C1961.33,763.635 1973.82,780.283 1985.47,798.179C1993.38,810.249 1999.62,823.984 2007.12,836.47C2017.52,853.95 2028.34,871.015 2039.16,888.079C2040,888.079 2040.83,887.663 2041.66,887.663Z" style="fill:white;"/>
    </g>
</svg>
