<?xml version="1.0" encoding="UTF-8" standalone="no"?>
<!DOCTYPE svg PUBLIC "-//W3C//DTD SVG 1.1//EN" "http://www.w3.org/Graphics/SVG/1.1/DTD/svg11.dtd">
<svg width="100%" height="100%" viewBox="0 0 1008 965" version="1.1" xmlns="http://www.w3.org/2000/svg" xmlns:xlink="http://www.w3.org/1999/xlink" xml:space="preserve" xmlns:serif="http://www.serif.com/" style="fill-rule:evenodd;clip-rule:evenodd;stroke-linejoin:round;stroke-miterlimit:2;">
    <g transform="matrix(4.16667,0,0,4.16667,774.132,167.633)">
        <path d="M0,44.537L55.932,84.769L15.7,28.836L55.932,22.268L15.701,15.699L55.932,-40.231L0,-0L-6.568,-40.232L-13.137,-0L-69.068,-40.231L-28.837,15.699L-69.068,22.268L-28.836,28.836L-69.068,84.769L-13.136,44.537L-6.568,84.768L0,44.537Z" style="fill:rgb(251,212,2);fill-rule:nonzero;"/>
    </g>
    <g transform="matrix(0.25,0,0,0.25,69.0699,420.45)">
        <path d="M2595.55,1946.36L2616.36,2040.78L2710.78,2061.6L2616.36,2082.41L2595.55,2176.83L2574.74,2082.41L2480.32,2061.6L2574.74,2040.78L2595.55,1946.36Z" style="fill:rgb(250,212,7);"/>
    </g>
    <g transform="matrix(0.25,0,0,0.25,-620.079,-401.366)">
        <path d="M2595.55,1946.36L2629.46,2027.68L2710.78,2061.6L2629.46,2095.51L2595.55,2176.83L2561.64,2095.51L2480.32,2061.6L2561.64,2027.68L2595.55,1946.36Z" style="fill:rgb(250,212,7);"/>
    </g>
    <g transform="matrix(0.418003,0,0,0.418003,-136.621,68.6838)">
        <path d="M586.537,277.154C629.309,277.154 664.617,286.914 692.462,306.434L692.462,376.62L684.281,376.62C661.316,347.34 628.735,332.7 586.537,332.7C568.452,332.7 554.386,335.427 544.339,340.881C534.292,346.335 529.268,353.942 529.268,363.702C529.268,371.74 532.641,378.342 539.387,383.509C546.133,388.676 554.888,392.48 565.653,394.92C576.418,397.36 588.403,399.585 601.607,401.594C614.812,403.604 627.945,406.402 641.006,409.991C654.068,413.579 666.052,418.315 676.961,424.2C687.869,430.085 696.696,438.912 703.442,450.682C710.188,462.451 713.561,476.66 713.561,493.31C713.561,524.312 701.504,548.354 677.391,565.434C653.278,582.514 619.118,591.054 574.911,591.054C529.268,591.054 492.524,581.437 464.68,562.204L464.68,491.588L472.43,491.588C495.682,520.868 529.842,535.508 574.911,535.508C590.986,535.508 604.693,534.073 616.032,531.202C627.371,528.331 635.839,524.312 641.437,519.145C647.035,513.978 649.833,507.663 649.833,500.199C649.833,492.162 646.461,485.559 639.715,480.392C632.969,475.225 624.213,471.422 613.449,468.982C602.684,466.542 590.699,464.317 577.494,462.307C564.289,460.298 551.156,457.499 538.095,453.911C525.034,450.323 513.049,445.586 502.141,439.701C491.233,433.817 482.406,424.99 475.66,413.22C468.914,401.451 465.541,387.241 465.541,370.592C465.541,340.737 476.09,317.701 497.189,301.482C518.288,285.263 548.071,277.154 586.537,277.154Z" style="fill:white;fill-rule:nonzero;"/>
        <path d="M1008.51,339.589L909.48,339.589L909.48,584.165L841.877,584.165L841.877,339.589L742.841,339.589L742.841,284.043L1008.51,284.043L1008.51,339.589Z" style="fill:white;fill-rule:nonzero;"/>
        <path d="M1052.44,284.043L1276.34,284.043L1276.34,339.589L1120.47,339.589C1120.47,380.065 1166.4,400.302 1258.26,400.302L1258.26,455.849C1197.4,455.849 1151.47,445.227 1120.47,423.985L1120.47,528.618L1276.34,528.618L1276.34,584.165L1052.44,584.165L1052.44,284.043Z" style="fill:white;fill-rule:nonzero;"/>
        <path d="M1588.52,382.218C1588.52,406.331 1580.84,427.143 1565.48,444.653C1550.13,462.164 1529.82,473.216 1504.56,477.809L1513.6,489.004C1533.12,514.265 1551.63,526.896 1569.14,526.896C1572.02,526.896 1575.03,525.461 1578.19,522.59L1585.94,522.59L1585.94,584.165C1572.73,584.165 1561.97,583.877 1553.64,583.303C1545.32,582.729 1536.49,581.294 1527.16,578.997C1517.83,576.701 1509.58,573.4 1502.4,569.094C1495.23,564.788 1487.69,559.047 1479.8,551.87C1471.9,544.694 1463.79,535.651 1455.47,524.743L1402.51,456.279L1402.51,584.165L1334.47,584.165L1334.47,284.043L1472.26,284.043C1505.85,284.043 1533.62,293.301 1555.58,311.816C1577.54,330.331 1588.52,353.799 1588.52,382.218ZM1402.51,344.326C1402.51,356.956 1405.52,369.372 1411.55,381.572C1417.58,393.772 1426.4,403.962 1438.03,412.144C1449.65,420.325 1462.5,424.415 1476.57,424.415C1489.49,424.415 1500.03,420.468 1508.22,412.574C1516.4,404.68 1520.49,394.561 1520.49,382.218C1520.49,369.874 1515.97,359.683 1506.92,351.646C1497.88,343.608 1486.33,339.589 1472.26,339.589L1402.51,339.589L1402.51,344.326Z" style="fill:white;fill-rule:nonzero;"/>
        <path d="M1714.25,284.043C1716.84,287.201 1721.21,291.937 1727.39,298.252C1733.56,304.568 1739.51,310.668 1745.26,316.553C1751,322.437 1757.81,329.757 1765.71,338.513C1773.6,347.268 1781.07,355.88 1788.1,364.348C1795.13,372.816 1802.6,382.361 1810.49,392.982C1818.38,403.604 1825.63,414.081 1832.24,424.415L1832.24,284.043L1900.27,284.043L1900.27,584.165L1832.24,584.165C1832.24,565.506 1829.01,546.201 1822.55,526.25C1816.09,506.299 1806.83,486.708 1794.77,467.475C1782.72,448.241 1770.37,430.516 1757.74,414.297C1745.11,398.078 1730.62,381.213 1714.25,363.702L1714.25,584.165L1646.22,584.165L1646.22,284.043L1714.25,284.043Z" style="fill:white;fill-rule:nonzero;"/>
        <path d="M1967.44,284.043L2191.35,284.043L2191.35,339.589L2035.47,339.589C2035.47,380.065 2081.4,400.302 2173.26,400.302L2173.26,455.849C2112.41,455.849 2066.48,445.227 2035.47,423.985L2035.47,528.618L2191.35,528.618L2191.35,584.165L1967.44,584.165L1967.44,284.043Z" style="fill:white;fill-rule:nonzero;"/>
        <path d="M472,714.633L695.907,714.633L695.907,770.18L540.033,770.18C540.033,810.655 585.963,830.893 677.822,830.893L677.822,886.439C616.965,886.439 571.035,875.818 540.033,854.575L540.033,1014.75L472,1014.75L472,714.633Z" style="fill:white;fill-rule:nonzero;"/>
        <path d="M967.609,985.475C944.357,1009.59 912.422,1021.64 871.803,1021.64C831.184,1021.64 799.248,1009.52 775.996,985.26C752.745,961.003 741.119,928.206 741.119,886.87L741.119,714.633L809.152,714.633L809.152,886.87C809.152,911.27 814.606,930.575 825.514,944.784C836.423,958.994 851.78,966.098 871.588,966.098C891.395,966.098 906.824,958.994 917.876,944.784C928.928,930.575 934.454,911.27 934.454,886.87L934.454,714.633L1002.49,714.633L1002.49,886.87C1002.49,928.206 990.861,961.075 967.609,985.475Z" style="fill:white;fill-rule:nonzero;"/>
        <path d="M1132.53,714.633C1135.11,717.791 1139.49,722.528 1145.66,728.843C1151.83,735.158 1157.79,741.258 1163.53,747.143C1169.27,753.028 1176.09,760.348 1183.98,769.103C1191.88,777.858 1199.34,786.47 1206.37,794.939C1213.4,803.407 1220.87,812.952 1228.76,823.573C1236.66,834.194 1243.9,844.672 1250.51,855.006L1250.51,714.633L1318.54,714.633L1318.54,1014.75L1250.51,1014.75C1250.51,996.096 1247.28,976.791 1240.82,956.841C1234.36,936.89 1225.1,917.298 1213.05,898.065C1200.99,878.832 1188.65,861.106 1176.02,844.887C1163.38,828.668 1148.89,811.803 1132.53,794.293L1132.53,1014.75L1064.49,1014.75L1064.49,714.633L1132.53,714.633Z" style="fill:white;fill-rule:nonzero;"/>
        <path d="M1385.71,714.633L1453.75,714.633L1453.75,792.14C1473.55,767.74 1497.24,748.722 1524.79,735.086C1552.35,721.451 1581.63,714.633 1612.63,714.633L1612.63,770.18C1581.34,770.18 1552.06,779.94 1524.79,799.46L1581.2,901.94C1601.87,938.971 1617.94,957.486 1629.43,957.486C1632.3,957.486 1635.17,956.051 1638.04,953.181L1646.22,953.181L1646.22,1014.75C1633.3,1014.75 1622.25,1014.18 1613.06,1013.03C1603.88,1011.88 1595.12,1009.44 1586.8,1005.71C1578.47,1001.98 1571.37,997.818 1565.48,993.225C1559.6,988.633 1553.14,981.743 1546.11,972.557C1539.08,963.371 1532.69,953.97 1526.95,944.353C1521.2,934.737 1514.03,922.035 1505.42,906.246L1475.28,851.131C1462.64,870.364 1455.47,888.592 1453.75,905.816L1453.75,1014.75L1385.71,1014.75L1385.71,714.633Z" style="fill:white;fill-rule:nonzero;"/>
        <path d="M1693.59,714.633L1917.49,714.633L1917.49,770.18L1761.62,770.18C1761.62,810.655 1807.55,830.893 1899.41,830.893L1899.41,886.439C1838.55,886.439 1792.62,875.818 1761.62,854.575L1761.62,959.209L1917.49,959.209L1917.49,1014.75L1693.59,1014.75L1693.59,714.633Z" style="fill:white;fill-rule:nonzero;"/>
        <path d="M1975.62,1014.75L1975.62,714.633L2043.65,714.633L2043.65,959.209L2169.82,959.209L2169.82,1014.75L1975.62,1014.75Z" style="fill:white;fill-rule:nonzero;"/>
        <path d="M2281.77,714.633C2284.36,717.791 2288.73,722.528 2294.9,728.843C2301.08,735.158 2307.03,741.258 2312.77,747.143C2318.51,753.028 2325.33,760.348 2333.23,769.103C2341.12,777.858 2348.59,786.47 2355.62,794.939C2362.65,803.407 2370.11,812.952 2378.01,823.573C2385.9,834.194 2393.15,844.672 2399.75,855.006L2399.75,714.633L2467.79,714.633L2467.79,1014.75L2399.75,1014.75C2399.75,996.096 2396.52,976.791 2390.07,956.841C2383.61,936.89 2374.35,917.298 2362.29,898.065C2350.24,878.832 2337.89,861.106 2325.26,844.887C2312.63,828.668 2298.13,811.803 2281.77,794.293L2281.77,1014.75L2213.74,1014.75L2213.74,714.633L2281.77,714.633Z" style="fill:white;fill-rule:nonzero;"/>
        <path d="M540.033,1145.22C542.616,1148.38 546.994,1153.12 553.166,1159.43C559.338,1165.75 565.294,1171.85 571.035,1177.73C576.777,1183.62 583.594,1190.94 591.488,1199.69C599.383,1208.45 606.846,1217.06 613.879,1225.53C620.912,1234 628.376,1243.54 636.27,1254.16C644.164,1264.79 651.412,1275.26 658.015,1285.6L658.015,1145.22L726.048,1145.22L726.048,1445.35L658.015,1445.35C658.015,1426.69 654.785,1407.38 648.326,1387.43C641.868,1367.48 632.61,1347.89 620.553,1328.65C608.497,1309.42 596.153,1291.7 583.523,1275.48C570.892,1259.26 556.395,1242.39 540.033,1224.88L540.033,1445.35L472,1445.35L472,1145.22L540.033,1145.22Z" style="fill:white;fill-rule:nonzero;"/>
        <path d="M1014.97,1416.07C991.722,1440.18 959.787,1452.24 919.168,1452.24C878.549,1452.24 846.613,1440.11 823.361,1415.85C800.11,1391.59 788.484,1358.8 788.484,1317.46L788.484,1145.22L856.517,1145.22L856.517,1317.46C856.517,1341.86 861.971,1361.16 872.879,1375.37C883.788,1389.58 899.145,1396.69 918.952,1396.69C938.76,1396.69 954.189,1389.58 965.241,1375.37C976.293,1361.16 981.819,1341.86 981.819,1317.46L981.819,1145.22L1049.85,1145.22L1049.85,1317.46C1049.85,1358.8 1038.23,1391.66 1014.97,1416.07Z" style="fill:white;fill-rule:nonzero;"/>
        <path d="M1365.9,1243.4C1365.9,1267.51 1358.23,1288.32 1342.87,1305.83C1327.51,1323.35 1307.2,1334.4 1281.94,1338.99L1290.98,1350.18C1310.5,1375.45 1329.02,1388.08 1346.53,1388.08C1349.4,1388.08 1352.41,1386.64 1355.57,1383.77L1363.32,1383.77L1363.32,1445.35C1350.12,1445.35 1339.35,1445.06 1331.03,1444.48C1322.7,1443.91 1313.88,1442.48 1304.55,1440.18C1295.22,1437.88 1286.96,1434.58 1279.79,1430.28C1272.61,1425.97 1265.08,1420.23 1257.18,1413.05C1249.29,1405.88 1241.18,1396.83 1232.85,1385.92L1179.89,1317.46L1179.89,1445.35L1111.86,1445.35L1111.86,1145.22L1249.65,1145.22C1283.23,1145.22 1311.01,1154.48 1332.96,1173C1354.92,1191.51 1365.9,1214.98 1365.9,1243.4ZM1179.89,1205.51C1179.89,1218.14 1182.9,1230.55 1188.93,1242.75C1194.96,1254.95 1203.79,1265.14 1215.41,1273.33C1227.04,1281.51 1239.89,1285.6 1253.95,1285.6C1266.87,1285.6 1277.42,1281.65 1285.6,1273.76C1293.78,1265.86 1297.87,1255.74 1297.87,1243.4C1297.87,1231.06 1293.35,1220.86 1284.31,1212.83C1275.27,1204.79 1263.71,1200.77 1249.65,1200.77L1179.89,1200.77L1179.89,1205.51Z" style="fill:white;fill-rule:nonzero;"/>
        <rect x="1553.64" y="1145.22" width="68.033" height="300.122" style="fill:white;fill-rule:nonzero;"/>
        <path d="M1981.22,1445.35L1913.62,1445.35L1913.62,1271.39C1912.18,1273.11 1908.52,1277.56 1902.64,1284.74C1896.75,1291.91 1893.02,1296.65 1891.44,1298.94C1889.86,1301.24 1886.85,1305.4 1882.4,1311.43C1877.95,1317.46 1874.93,1322.12 1873.36,1325.43C1871.78,1328.73 1869.77,1332.96 1867.33,1338.13C1864.89,1343.3 1863.31,1348.25 1862.59,1352.98C1861.87,1357.72 1861.52,1362.53 1861.52,1367.41L1808.55,1367.41C1808.55,1362.53 1808.12,1357.72 1807.26,1352.98C1806.4,1348.25 1804.75,1343.3 1802.31,1338.13C1799.87,1332.96 1797.86,1328.73 1796.28,1325.43C1794.7,1322.12 1791.76,1317.46 1787.45,1311.43C1783.15,1305.4 1780.13,1301.24 1778.41,1298.94C1776.69,1296.65 1772.96,1291.91 1767.22,1284.74C1761.47,1277.56 1757.89,1273.11 1756.45,1271.39L1756.45,1445.35L1688.42,1445.35L1688.42,1145.22L1756.45,1145.22C1756.45,1156.13 1759.18,1167.69 1764.63,1179.89C1770.09,1192.09 1776.33,1202.92 1783.36,1212.4C1790.4,1221.87 1799.22,1233.64 1809.84,1247.7C1820.47,1261.77 1828.79,1273.83 1834.82,1283.87C1840.85,1273.83 1849.17,1261.77 1859.79,1247.7C1870.41,1233.64 1879.24,1221.87 1886.27,1212.4C1893.31,1202.92 1899.62,1192.09 1905.22,1179.89C1910.82,1167.69 1913.62,1156.13 1913.62,1145.22L1981.22,1145.22L1981.22,1445.35Z" style="fill:white;fill-rule:nonzero;"/>
        <path d="M579.647,1575.81C626.438,1575.81 665.048,1589.95 695.476,1618.23C725.904,1646.5 741.119,1682.38 741.119,1725.88C741.119,1769.37 725.904,1805.25 695.476,1833.52C665.048,1861.8 626.438,1875.94 579.647,1875.94L472,1875.94L472,1575.81L579.647,1575.81ZM540.033,1820.39L579.647,1820.39C606.631,1820.39 628.806,1811.49 646.173,1793.69C663.541,1775.89 672.224,1753.29 672.224,1725.88C672.224,1698.46 663.541,1675.86 646.173,1658.06C628.806,1640.26 606.631,1631.36 579.647,1631.36L540.033,1631.36L540.033,1820.39Z" style="fill:white;fill-rule:nonzero;"/>
        <path d="M1015.84,1846.66C992.583,1870.77 960.648,1882.83 920.029,1882.83C879.41,1882.83 847.474,1870.7 824.223,1846.44C800.971,1822.18 789.345,1789.39 789.345,1748.05L789.345,1575.81L857.378,1575.81L857.378,1748.05C857.378,1772.45 862.832,1791.76 873.741,1805.97C884.649,1820.17 900.007,1827.28 919.814,1827.28C939.621,1827.28 955.05,1820.17 966.102,1805.97C977.154,1791.76 982.68,1772.45 982.68,1748.05L982.68,1575.81L1050.71,1575.81L1050.71,1748.05C1050.71,1789.39 1039.09,1822.26 1015.84,1846.66Z" style="fill:white;fill-rule:nonzero;"/>
        <path d="M1180.75,1575.81C1183.34,1578.97 1187.71,1583.71 1193.88,1590.02C1200.06,1596.34 1206.01,1602.44 1211.75,1608.32C1217.5,1614.21 1224.31,1621.53 1232.21,1630.28C1240.1,1639.04 1247.57,1647.65 1254.6,1656.12C1261.63,1664.59 1269.09,1674.13 1276.99,1684.75C1284.88,1695.38 1292.13,1705.85 1298.73,1716.19L1298.73,1575.81L1366.77,1575.81L1366.77,1875.94L1298.73,1875.94C1298.73,1857.28 1295.5,1837.97 1289.05,1818.02C1282.59,1798.07 1273.33,1778.48 1261.27,1759.25C1249.21,1740.01 1236.87,1722.29 1224.24,1706.07C1211.61,1689.85 1197.11,1672.98 1180.75,1655.47L1180.75,1875.94L1112.72,1875.94L1112.72,1575.81L1180.75,1575.81Z" style="fill:white;fill-rule:nonzero;"/>
        <path d="M1433.94,1575.81L1501.97,1575.81L1501.97,1653.32C1521.78,1628.92 1545.46,1609.9 1573.02,1596.27C1600.58,1582.63 1629.86,1575.81 1660.86,1575.81L1660.86,1631.36C1629.57,1631.36 1600.29,1641.12 1573.02,1660.64L1629.43,1763.12C1650.1,1800.15 1666.17,1818.67 1677.65,1818.67C1680.52,1818.67 1683.39,1817.23 1686.27,1814.36L1694.45,1814.36L1694.45,1875.94C1681.53,1875.94 1670.48,1875.36 1661.29,1874.21C1652.11,1873.07 1643.35,1870.62 1635.02,1866.89C1626.7,1863.16 1619.6,1859 1613.71,1854.41C1607.83,1849.81 1601.37,1842.92 1594.33,1833.74C1587.3,1824.55 1580.91,1815.15 1575.17,1805.53C1569.43,1795.92 1562.26,1783.22 1553.64,1767.43L1523.5,1712.31C1510.87,1731.55 1503.69,1749.77 1501.97,1767L1501.97,1875.94L1433.94,1875.94L1433.94,1575.81Z" style="fill:white;fill-rule:nonzero;"/>
        <path d="M1741.81,1875.94L1741.81,1575.81L1809.84,1575.81L1809.84,1820.39L1936.01,1820.39L1936.01,1875.94L1741.81,1875.94Z" style="fill:white;fill-rule:nonzero;"/>
        <path d="M1979.93,1575.81L2203.83,1575.81L2203.83,1631.36L2047.96,1631.36C2047.96,1671.84 2093.89,1692.07 2185.75,1692.07L2185.75,1747.62C2124.89,1747.62 2078.96,1737 2047.96,1715.76L2047.96,1820.39L2203.83,1820.39L2203.83,1875.94L1979.93,1875.94L1979.93,1575.81Z" style="fill:white;fill-rule:nonzero;"/>
        <path d="M2330,1575.81C2332.58,1578.97 2336.96,1583.71 2343.13,1590.02C2349.3,1596.34 2355.26,1602.44 2361,1608.32C2366.74,1614.21 2373.56,1621.53 2381.45,1630.28C2389.35,1639.04 2396.81,1647.65 2403.84,1656.12C2410.88,1664.59 2418.34,1674.13 2426.23,1684.75C2434.13,1695.38 2441.38,1705.85 2447.98,1716.19L2447.98,1575.81L2516.01,1575.81L2516.01,1875.94L2447.98,1875.94C2447.98,1857.28 2444.75,1837.97 2438.29,1818.02C2431.83,1798.07 2422.57,1778.48 2410.52,1759.25C2398.46,1740.01 2386.12,1722.29 2373.49,1706.07C2360.86,1689.85 2346.36,1672.98 2330,1655.47L2330,1875.94L2261.96,1875.94L2261.96,1575.81L2330,1575.81Z" style="fill:white;fill-rule:nonzero;"/>
    </g>
</svg>
