<?xml version="1.0" encoding="UTF-8" standalone="no"?>
<!DOCTYPE svg PUBLIC "-//W3C//DTD SVG 1.1//EN" "http://www.w3.org/Graphics/SVG/1.1/DTD/svg11.dtd">
<svg width="100%" height="100%" viewBox="0 0 852 765" version="1.1" xmlns="http://www.w3.org/2000/svg" xmlns:xlink="http://www.w3.org/1999/xlink" xml:space="preserve" xmlns:serif="http://www.serif.com/" style="fill-rule:evenodd;clip-rule:evenodd;stroke-linecap:round;stroke-linejoin:round;stroke-miterlimit:1.5;">
    <g transform="matrix(0.808815,0,0,0.808815,-1960.2,-239.796)">
        <g transform="matrix(1.76813,0,0,1.76813,-1117.54,-1287.8)">
            <path d="M2300.55,1023.06C2351.2,933.66 2452.5,933.66 2503.16,978.361C2553.81,1023.06 2553.81,1112.46 2503.16,1201.87C2469.26,1265.96 2384.45,1330.06 2310.67,1374.63C2304.44,1378.38 2296.65,1378.38 2290.42,1374.63C2216.64,1330.06 2131.83,1265.96 2097.94,1201.87C2047.28,1112.46 2047.28,1023.06 2097.94,978.361C2148.59,933.66 2249.89,933.66 2300.55,1023.06ZM2287.4,1185.54L2287.4,1146.28C2287.4,1145.86 2287.33,1145.49 2287.19,1145.16C2287.05,1144.84 2286.82,1144.55 2286.49,1144.29C2286.24,1144.04 2285.93,1143.88 2285.59,1143.81C2285.24,1143.74 2284.93,1143.7 2284.68,1143.7L2279.49,1143.7C2279.03,1143.7 2278.66,1143.73 2278.41,1143.79C2278.15,1143.85 2277.94,1143.96 2277.76,1144.14C2277.59,1144.31 2277.43,1144.58 2277.28,1144.94C2277.13,1145.3 2276.93,1145.77 2276.7,1146.35L2275.69,1149.52C2275.07,1148.61 2274.33,1147.77 2273.5,1146.99C2272.66,1146.21 2271.73,1145.55 2270.69,1144.99C2269.66,1144.43 2268.52,1143.99 2267.28,1143.67C2266.04,1143.34 2264.7,1143.18 2263.26,1143.18C2260.1,1143.18 2257.14,1143.76 2254.38,1144.94C2251.61,1146.11 2249.21,1147.72 2247.16,1149.78C2245.12,1151.83 2243.51,1154.25 2242.32,1157.02C2241.14,1159.8 2240.55,1162.8 2240.55,1166.03C2240.55,1168.16 2240.81,1170.21 2241.35,1172.18C2241.88,1174.14 2242.64,1175.97 2243.63,1177.66C2244.62,1179.36 2245.79,1180.9 2247.16,1182.28C2248.53,1183.66 2250.06,1184.84 2251.74,1185.83C2253.43,1186.82 2255.24,1187.58 2257.18,1188.11C2259.12,1188.65 2261.14,1188.91 2263.26,1188.91C2264.44,1188.91 2265.59,1188.77 2266.69,1188.48C2267.79,1188.19 2268.83,1187.81 2269.79,1187.33C2270.75,1186.85 2271.63,1186.31 2272.44,1185.71C2273.24,1185.11 2273.95,1184.49 2274.58,1183.86L2275.03,1185.43C2275.17,1185.83 2275.3,1186.19 2275.43,1186.53C2275.56,1186.87 2275.72,1187.15 2275.9,1187.38C2276.09,1187.61 2276.33,1187.79 2276.63,1187.92C2276.93,1188.05 2277.33,1188.11 2277.82,1188.11L2284.68,1188.11C2284.93,1188.11 2285.24,1188.08 2285.59,1188.01C2285.93,1187.94 2286.24,1187.78 2286.49,1187.52C2286.82,1187.31 2287.05,1187.03 2287.19,1186.67C2287.33,1186.31 2287.4,1185.93 2287.4,1185.54ZM2253.09,1166.03C2253.09,1164.54 2253.32,1163.13 2253.8,1161.78C2254.28,1160.43 2254.95,1159.25 2255.84,1158.23C2256.72,1157.2 2257.78,1156.4 2259.03,1155.81C2260.27,1155.21 2261.64,1154.92 2263.15,1154.92C2264.71,1154.92 2266.15,1155.21 2267.49,1155.81C2268.83,1156.4 2269.99,1157.2 2270.97,1158.23C2271.96,1159.25 2272.73,1160.43 2273.29,1161.78C2273.85,1163.13 2274.12,1164.54 2274.12,1166.03C2274.12,1167.56 2273.85,1169 2273.29,1170.33C2272.73,1171.67 2271.96,1172.82 2270.97,1173.8C2269.99,1174.77 2268.83,1175.54 2267.49,1176.11C2266.15,1176.68 2264.71,1176.97 2263.15,1176.97C2261.64,1176.97 2260.27,1176.68 2259.03,1176.11C2257.78,1175.54 2256.72,1174.77 2255.84,1173.8C2254.95,1172.82 2254.28,1171.67 2253.8,1170.33C2253.32,1169 2253.09,1167.56 2253.09,1166.03ZM2295.76,1146.45L2295.76,1185.43C2295.76,1187.22 2296.66,1188.11 2298.47,1188.11L2306.31,1188.11C2307.31,1188.11 2308.02,1187.89 2308.45,1187.43C2308.88,1186.98 2309.1,1186.31 2309.1,1185.43L2309.1,1160.21C2309.59,1159.42 2310.07,1158.7 2310.56,1158.05C2311.05,1157.4 2311.57,1156.84 2312.13,1156.38C2312.68,1155.91 2313.31,1155.56 2313.99,1155.3C2314.68,1155.04 2315.47,1154.92 2316.38,1154.92C2317.7,1154.92 2318.88,1155.15 2319.91,1155.63C2320.95,1156.11 2321.96,1156.83 2322.96,1157.81C2323.54,1158.06 2324.06,1158.19 2324.53,1158.19C2325.46,1158.19 2326.24,1157.74 2326.86,1156.83L2330.03,1151.43C2330.43,1150.76 2330.62,1150.17 2330.62,1149.66C2330.62,1148.87 2330.12,1148.18 2329.13,1147.6C2328.11,1146.86 2327.16,1146.21 2326.29,1145.65C2325.42,1145.09 2324.54,1144.63 2323.66,1144.28C2322.78,1143.91 2321.84,1143.64 2320.85,1143.46C2319.87,1143.27 2318.75,1143.18 2317.49,1143.18C2316.28,1143.18 2315.21,1143.36 2314.27,1143.72C2313.33,1144.08 2312.47,1144.55 2311.68,1145.13C2310.89,1145.71 2310.15,1146.37 2309.46,1147.11C2308.78,1147.86 2308.09,1148.61 2307.39,1149.38C2307.14,1148.77 2306.91,1148.15 2306.73,1147.5C2306.54,1146.85 2306.33,1146.26 2306.08,1145.72C2305.84,1145.19 2305.54,1144.75 2305.2,1144.4C2304.85,1144.05 2304.38,1143.88 2303.8,1143.88L2298.54,1143.88C2298.22,1143.88 2297.89,1143.93 2297.55,1144.03C2297.21,1144.14 2296.91,1144.29 2296.64,1144.5C2296.38,1144.71 2296.16,1144.98 2296,1145.3C2295.84,1145.63 2295.76,1146.01 2295.76,1146.45ZM2382.04,1114.27L2382.04,1075.01C2382.04,1074.59 2381.97,1074.22 2381.83,1073.89C2381.69,1073.57 2381.46,1073.28 2381.13,1073.02C2380.88,1072.77 2380.58,1072.61 2380.23,1072.54C2379.88,1072.47 2379.58,1072.43 2379.32,1072.43L2374.13,1072.43C2373.67,1072.43 2373.31,1072.46 2373.05,1072.52C2372.8,1072.58 2372.58,1072.69 2372.41,1072.87C2372.23,1073.04 2372.07,1073.31 2371.92,1073.67C2371.77,1074.03 2371.58,1074.5 2371.34,1075.08L2370.33,1078.25C2369.71,1077.34 2368.98,1076.5 2368.14,1075.72C2367.3,1074.95 2366.37,1074.28 2365.34,1073.72C2364.3,1073.16 2363.16,1072.72 2361.92,1072.4C2360.68,1072.07 2359.34,1071.91 2357.9,1071.91C2354.74,1071.91 2351.78,1072.5 2349.02,1073.67C2346.25,1074.84 2343.85,1076.45 2341.81,1078.51C2339.76,1080.57 2338.15,1082.98 2336.96,1085.76C2335.78,1088.53 2335.19,1091.53 2335.19,1094.76C2335.19,1096.9 2335.45,1098.95 2335.99,1100.91C2336.52,1102.87 2337.28,1104.7 2338.27,1106.39C2339.26,1108.09 2340.44,1109.63 2341.81,1111.01C2343.18,1112.39 2344.7,1113.58 2346.39,1114.56C2348.07,1115.55 2349.88,1116.31 2351.82,1116.84C2353.76,1117.38 2355.78,1117.64 2357.9,1117.64C2359.08,1117.64 2360.23,1117.5 2361.33,1117.21C2362.43,1116.92 2363.47,1116.54 2364.43,1116.06C2365.39,1115.58 2366.28,1115.04 2367.08,1114.44C2367.88,1113.84 2368.59,1113.22 2369.22,1112.59L2369.67,1114.16C2369.81,1114.56 2369.95,1114.92 2370.07,1115.26C2370.2,1115.6 2370.36,1115.88 2370.54,1116.11C2370.73,1116.35 2370.97,1116.53 2371.28,1116.65C2371.58,1116.78 2371.97,1116.84 2372.46,1116.84L2379.32,1116.84C2379.58,1116.84 2379.88,1116.81 2380.23,1116.74C2380.58,1116.67 2380.88,1116.51 2381.13,1116.25C2381.46,1116.04 2381.69,1115.76 2381.83,1115.4C2381.97,1115.04 2382.04,1114.66 2382.04,1114.27ZM2347.73,1094.76C2347.73,1093.27 2347.97,1091.86 2348.44,1090.51C2348.92,1089.16 2349.6,1087.98 2350.48,1086.96C2351.36,1085.93 2352.42,1085.13 2353.67,1084.54C2354.91,1083.94 2356.28,1083.65 2357.79,1083.65C2359.35,1083.65 2360.8,1083.94 2362.13,1084.54C2363.47,1085.13 2364.63,1085.93 2365.61,1086.96C2366.6,1087.98 2367.37,1089.16 2367.93,1090.51C2368.49,1091.86 2368.77,1093.27 2368.77,1094.76C2368.77,1096.29 2368.49,1097.73 2367.93,1099.06C2367.37,1100.4 2366.6,1101.55 2365.61,1102.53C2364.63,1103.5 2363.47,1104.28 2362.13,1104.84C2360.8,1105.41 2359.35,1105.7 2357.79,1105.7C2356.28,1105.7 2354.91,1105.41 2353.67,1104.84C2352.42,1104.28 2351.36,1103.5 2350.48,1102.53C2349.6,1101.55 2348.92,1100.4 2348.44,1099.06C2347.97,1097.73 2347.73,1096.29 2347.73,1094.76ZM2314.91,1062.12L2314.91,1114.16C2314.91,1115.04 2315.1,1115.71 2315.47,1116.16C2315.84,1116.62 2316.48,1116.84 2317.39,1116.84L2325.47,1116.84C2326.26,1116.84 2326.9,1116.62 2327.4,1116.16C2327.9,1115.71 2328.15,1115.04 2328.15,1114.16L2328.15,1062.12C2328.15,1061.73 2328.08,1061.37 2327.93,1061.04C2327.77,1060.72 2327.59,1060.44 2327.37,1060.2C2327.15,1059.97 2326.91,1059.79 2326.65,1059.66C2326.4,1059.54 2326.15,1059.47 2325.92,1059.47L2317.39,1059.47C2316.48,1059.47 2315.84,1059.73 2315.47,1060.24C2315.1,1060.75 2314.91,1061.38 2314.91,1062.12ZM2200.7,1137.99L2200.7,1186.65C2200.7,1187.51 2201.12,1188 2201.95,1188.11L2212.58,1188.11C2213.64,1188.11 2214.18,1187.61 2214.18,1186.62L2214.18,1170.66L2229.89,1170.66C2230.35,1170.66 2230.72,1170.48 2230.98,1170.12C2231.25,1169.76 2231.39,1169.38 2231.39,1168.99L2231.39,1160.66C2231.39,1160.13 2231.23,1159.74 2230.93,1159.5C2230.63,1159.25 2230.26,1159.13 2229.82,1159.13L2214.18,1159.13L2214.18,1148.37L2235.36,1148.37C2235.89,1148.37 2236.3,1148.19 2236.58,1147.83C2236.85,1147.47 2236.99,1147.09 2236.99,1146.7L2236.99,1138.06C2236.99,1137.55 2236.86,1137.14 2236.59,1136.84C2236.33,1136.54 2235.93,1136.38 2235.39,1136.38L2202.05,1136.38C2201.68,1136.41 2201.36,1136.56 2201.1,1136.84C2200.83,1137.12 2200.7,1137.5 2200.7,1137.99ZM2272.84,1237.3C2272.84,1239.43 2273.11,1241.48 2273.66,1243.44C2274.2,1245.41 2274.97,1247.24 2275.95,1248.93C2276.94,1250.63 2278.12,1252.16 2279.51,1253.55C2280.89,1254.93 2282.43,1256.11 2284.12,1257.1C2285.82,1258.09 2287.65,1258.85 2289.61,1259.38C2291.57,1259.91 2293.62,1260.18 2295.76,1260.18C2297.87,1260.18 2299.9,1259.91 2301.84,1259.38C2303.77,1258.85 2305.59,1258.09 2307.29,1257.1C2308.98,1256.11 2310.52,1254.93 2311.9,1253.55C2313.28,1252.16 2314.47,1250.63 2315.45,1248.93C2316.44,1247.24 2317.21,1245.41 2317.75,1243.44C2318.3,1241.48 2318.57,1239.43 2318.57,1237.3C2318.57,1234.07 2317.97,1231.07 2316.78,1228.29C2315.58,1225.52 2313.96,1223.1 2311.9,1221.05C2309.85,1218.99 2307.43,1217.38 2304.66,1216.21C2301.88,1215.03 2298.91,1214.45 2295.76,1214.45C2293.62,1214.45 2291.57,1214.71 2289.61,1215.25C2287.65,1215.78 2285.82,1216.54 2284.12,1217.51C2282.43,1218.49 2280.89,1219.67 2279.51,1221.05C2278.12,1222.43 2276.94,1223.96 2275.95,1225.64C2274.97,1227.33 2274.2,1229.16 2273.66,1231.13C2273.11,1233.11 2272.84,1235.16 2272.84,1237.3ZM2285.55,1237.3C2285.55,1235.81 2285.79,1234.39 2286.26,1233.05C2286.74,1231.7 2287.41,1230.52 2288.28,1229.49C2289.16,1228.47 2290.21,1227.67 2291.45,1227.07C2292.7,1226.48 2294.1,1226.18 2295.65,1226.18C2297.16,1226.18 2298.53,1226.48 2299.74,1227.07C2300.96,1227.67 2302,1228.47 2302.85,1229.49C2303.69,1230.52 2304.34,1231.7 2304.8,1233.05C2305.25,1234.39 2305.47,1235.81 2305.47,1237.3C2305.47,1238.83 2305.25,1240.26 2304.8,1241.6C2304.34,1242.93 2303.69,1244.09 2302.85,1245.07C2302,1246.04 2300.96,1246.81 2299.74,1247.38C2298.53,1247.95 2297.16,1248.24 2295.65,1248.24C2294.1,1248.24 2292.7,1247.95 2291.45,1247.38C2290.21,1246.81 2289.16,1246.04 2288.28,1245.07C2287.41,1244.09 2286.74,1242.93 2286.26,1241.6C2285.79,1240.26 2285.55,1238.83 2285.55,1237.3ZM2357.03,1255.03L2357.69,1256.7C2357.9,1257.14 2358.07,1257.53 2358.21,1257.87C2358.35,1258.2 2358.51,1258.48 2358.68,1258.7C2358.86,1258.92 2359.07,1259.09 2359.33,1259.21C2359.58,1259.32 2359.94,1259.38 2360.41,1259.38L2367.23,1259.38C2369.12,1259.38 2370.05,1258.49 2370.05,1256.7L2370.05,1204.62C2370.05,1204.23 2369.97,1203.87 2369.79,1203.54C2369.62,1203.22 2369.39,1202.94 2369.12,1202.71C2368.84,1202.48 2368.53,1202.3 2368.19,1202.17C2367.86,1202.04 2367.54,1201.98 2367.23,1201.98L2359.4,1201.98C2358.49,1201.98 2357.81,1202.23 2357.36,1202.74C2356.91,1203.25 2356.68,1203.88 2356.68,1204.62L2356.68,1219.15C2356.03,1218.45 2355.34,1217.81 2354.61,1217.23C2353.88,1216.65 2353.07,1216.15 2352.2,1215.74C2351.33,1215.32 2350.37,1215 2349.31,1214.78C2348.26,1214.56 2347.09,1214.45 2345.81,1214.45C2342.65,1214.45 2339.74,1215.03 2337.09,1216.21C2334.43,1217.38 2332.14,1218.99 2330.22,1221.05C2328.31,1223.1 2326.81,1225.52 2325.73,1228.29C2324.65,1231.07 2324.11,1234.07 2324.11,1237.3C2324.11,1240.5 2324.65,1243.5 2325.73,1246.28C2326.81,1249.07 2328.31,1251.49 2330.22,1253.55C2332.14,1255.6 2334.43,1257.22 2337.09,1258.41C2339.74,1259.59 2342.65,1260.18 2345.81,1260.18C2347.02,1260.18 2348.16,1260.03 2349.24,1259.73C2350.32,1259.43 2351.33,1259.03 2352.27,1258.55C2353.21,1258.06 2354.08,1257.51 2354.89,1256.89C2355.69,1256.28 2356.4,1255.65 2357.03,1255.03ZM2336.65,1237.3C2336.65,1235.81 2336.89,1234.39 2337.37,1233.05C2337.84,1231.7 2338.52,1230.52 2339.4,1229.49C2340.28,1228.47 2341.35,1227.67 2342.59,1227.07C2343.83,1226.48 2345.21,1226.18 2346.72,1226.18C2348.27,1226.18 2349.72,1226.48 2351.05,1227.07C2352.39,1227.67 2353.55,1228.47 2354.54,1229.49C2355.52,1230.52 2356.3,1231.7 2356.85,1233.05C2357.41,1234.39 2357.69,1235.81 2357.69,1237.3L2357.69,1237.79C2357.62,1239.25 2357.29,1240.62 2356.7,1241.89C2356.11,1243.17 2355.32,1244.28 2354.35,1245.22C2353.37,1246.16 2352.23,1246.9 2350.91,1247.43C2349.6,1247.97 2348.2,1248.24 2346.72,1248.24C2345.21,1248.24 2343.83,1247.95 2342.59,1247.38C2341.35,1246.81 2340.28,1246.04 2339.4,1245.07C2338.52,1244.09 2337.84,1242.93 2337.37,1241.6C2336.89,1240.26 2336.65,1238.83 2336.65,1237.3ZM2217.87,1066.72L2217.87,1115.35C2217.87,1115.86 2218.01,1116.24 2218.29,1116.48C2218.57,1116.72 2218.94,1116.84 2219.4,1116.84L2244.59,1116.84C2246.63,1116.84 2248.58,1116.43 2250.42,1115.59C2252.27,1114.75 2253.88,1113.62 2255.26,1112.19C2256.64,1110.77 2257.74,1109.11 2258.55,1107.21C2259.37,1105.32 2259.77,1103.32 2259.77,1101.2C2259.77,1098.84 2259.29,1096.59 2258.31,1094.48C2257.34,1092.37 2256.01,1090.55 2254.34,1089.01C2255.34,1087.83 2256.11,1086.49 2256.66,1084.99C2257.2,1083.49 2257.47,1081.87 2257.47,1080.13C2257.47,1078.04 2257.08,1076.08 2256.29,1074.26C2255.5,1072.44 2254.43,1070.85 2253.07,1069.49C2251.71,1068.13 2250.12,1067.06 2248.31,1066.28C2246.5,1065.51 2244.58,1065.12 2242.53,1065.12L2219.4,1065.12C2218.91,1065.12 2218.54,1065.26 2218.27,1065.55C2218,1065.84 2217.87,1066.23 2217.87,1066.72ZM2244.1,1080.44C2244.1,1081.19 2243.97,1081.87 2243.7,1082.48C2243.43,1083.1 2243.07,1083.63 2242.6,1084.08C2242.14,1084.54 2241.57,1084.88 2240.91,1085.13C2240.25,1085.37 2239.52,1085.49 2238.74,1085.49L2231.39,1085.49L2231.39,1075.39L2238.84,1075.39C2239.61,1075.39 2240.31,1075.53 2240.96,1075.79C2241.61,1076.06 2242.17,1076.43 2242.64,1076.89C2243.1,1077.36 2243.46,1077.89 2243.72,1078.49C2243.97,1079.1 2244.1,1079.75 2244.1,1080.44ZM2245.95,1100.68C2245.95,1101.42 2245.81,1102.14 2245.54,1102.84C2245.28,1103.54 2244.9,1104.16 2244.41,1104.7C2243.93,1105.25 2243.36,1105.69 2242.71,1106.01C2242.05,1106.34 2241.35,1106.5 2240.58,1106.5L2231.39,1106.5L2231.39,1094.86L2240.58,1094.86C2241.35,1094.86 2242.06,1095.04 2242.72,1095.39C2243.39,1095.74 2243.95,1096.18 2244.43,1096.73C2244.91,1097.27 2245.28,1097.89 2245.54,1098.59C2245.81,1099.29 2245.95,1099.99 2245.95,1100.68ZM2335.81,1146.59L2335.81,1185.43C2335.81,1187.22 2336.67,1188.11 2338.39,1188.11L2346.37,1188.11C2347.28,1188.11 2347.97,1187.89 2348.46,1187.43C2348.95,1186.98 2349.19,1186.31 2349.19,1185.43L2349.19,1146.59C2349.19,1146.17 2349.09,1145.8 2348.89,1145.48C2348.7,1145.15 2348.46,1144.87 2348.18,1144.62C2347.9,1144.38 2347.6,1144.19 2347.28,1144.07C2346.95,1143.94 2346.65,1143.88 2346.37,1143.88L2338.39,1143.88C2337.51,1143.88 2336.86,1144.14 2336.44,1144.68C2336.02,1145.21 2335.81,1145.85 2335.81,1146.59ZM2358.46,1144.47L2358.66,1144.36C2358.32,1144.57 2358.04,1144.86 2357.85,1145.23C2357.65,1145.61 2357.55,1146.01 2357.55,1146.45L2357.55,1185.43C2357.55,1186.24 2357.77,1186.89 2358.21,1187.38C2358.65,1187.87 2359.37,1188.11 2360.37,1188.11L2368.24,1188.11C2368.59,1188.11 2368.9,1188.08 2369.17,1188.01C2369.43,1187.94 2369.72,1187.81 2370.02,1187.62C2370.32,1187.42 2370.55,1187.11 2370.7,1186.72C2370.85,1186.33 2370.93,1185.93 2370.93,1185.54L2370.93,1162.89C2371,1161.85 2371.28,1160.88 2371.78,1159.99C2372.28,1159.09 2372.89,1158.31 2373.63,1157.65C2374.36,1156.99 2375.16,1156.47 2376.03,1156.1C2376.9,1155.73 2377.75,1155.54 2378.59,1155.54C2379.57,1155.54 2380.52,1155.74 2381.46,1156.14C2382.4,1156.53 2383.25,1157.07 2383.99,1157.76C2384.73,1158.44 2385.33,1159.23 2385.78,1160.12C2386.24,1161.02 2386.46,1161.96 2386.46,1162.96L2386.46,1185.64C2386.46,1186.62 2386.65,1187.27 2387.02,1187.61C2387.39,1187.94 2388.08,1188.11 2389.07,1188.11L2397.12,1188.11C2397.96,1188.11 2398.57,1187.89 2398.95,1187.43C2399.33,1186.98 2399.52,1186.31 2399.52,1185.43L2399.52,1162.62C2399.52,1159.94 2399.15,1157.43 2398.39,1155.07C2397.64,1152.72 2396.53,1150.65 2395.08,1148.89C2393.63,1147.13 2391.87,1145.73 2389.79,1144.71C2387.71,1143.69 2385.35,1143.18 2382.7,1143.18C2380.84,1143.18 2379.16,1143.38 2377.65,1143.79C2376.14,1144.19 2374.81,1144.71 2373.66,1145.34C2372.51,1145.96 2371.55,1146.66 2370.77,1147.43C2369.99,1148.19 2369.43,1148.94 2369.08,1149.66L2368.35,1146.59C2368.23,1146.24 2368.11,1145.91 2367.98,1145.58C2367.86,1145.26 2367.69,1144.97 2367.48,1144.71C2367.27,1144.45 2367.01,1144.25 2366.71,1144.1C2366.41,1143.95 2366.05,1143.88 2365.63,1143.88L2360.37,1143.88C2360.07,1143.88 2359.75,1143.91 2359.41,1143.98C2359.08,1144.05 2358.76,1144.21 2358.46,1144.47ZM2229.05,1209.26L2229.05,1257.88C2229.05,1258.39 2229.19,1258.77 2229.47,1259.02C2229.75,1259.26 2230.12,1259.38 2230.58,1259.38L2240.93,1259.38C2242,1259.38 2242.53,1258.88 2242.53,1257.88L2242.53,1242.17L2248.17,1242.17L2256.64,1258.09C2256.73,1258.49 2256.93,1258.8 2257.25,1259.03C2257.56,1259.27 2257.92,1259.38 2258.31,1259.38L2270.26,1259.38C2270.68,1259.38 2271.01,1259.28 2271.25,1259.09C2271.49,1258.89 2271.62,1258.6 2271.62,1258.23C2271.62,1257.91 2271.49,1257.52 2271.23,1257.08C2270.98,1256.64 2270.77,1256.26 2270.61,1255.93L2261.66,1239.07C2262.91,1238.35 2264.06,1237.49 2265.12,1236.48C2266.18,1235.47 2267.09,1234.34 2267.86,1233.1C2268.62,1231.86 2269.22,1230.52 2269.65,1229.09C2270.08,1227.67 2270.29,1226.16 2270.29,1224.58C2270.29,1222.26 2269.85,1220.07 2268.95,1218.02C2268.06,1215.96 2266.83,1214.17 2265.28,1212.63C2263.72,1211.1 2261.9,1209.89 2259.81,1209C2257.72,1208.1 2255.48,1207.65 2253.09,1207.65L2230.58,1207.65C2230.07,1207.65 2229.69,1207.8 2229.43,1208.09C2229.18,1208.38 2229.05,1208.77 2229.05,1209.26ZM2256.33,1224.72C2256.33,1225.46 2256.21,1226.19 2255.98,1226.9C2255.74,1227.61 2255.41,1228.25 2254.97,1228.82C2254.53,1229.38 2253.98,1229.86 2253.33,1230.24C2252.68,1230.63 2251.95,1230.87 2251.14,1230.96C2250.74,1231 2250.38,1231.04 2250.05,1231.06C2249.73,1231.09 2249.36,1231.1 2248.94,1231.1L2242.53,1231.1L2242.53,1218.31L2247.34,1218.31C2248.01,1218.31 2248.63,1218.33 2249.2,1218.37C2249.77,1218.4 2250.38,1218.44 2251.03,1218.49C2251.82,1218.6 2252.54,1218.86 2253.19,1219.25C2253.84,1219.65 2254.4,1220.14 2254.86,1220.72C2255.33,1221.3 2255.69,1221.94 2255.94,1222.63C2256.2,1223.33 2256.33,1224.03 2256.33,1224.72ZM2335.81,1128.97L2335.81,1135.76C2335.81,1137.69 2336.67,1138.65 2338.39,1138.65L2346.47,1138.65C2346.89,1138.65 2347.27,1138.55 2347.61,1138.35C2347.94,1138.16 2348.23,1137.91 2348.46,1137.61C2348.69,1137.3 2348.87,1136.99 2349,1136.66C2349.13,1136.34 2349.19,1136.04 2349.19,1135.76L2349.19,1128.97C2349.19,1127.99 2348.94,1127.3 2348.44,1126.89C2347.94,1126.49 2347.29,1126.28 2346.47,1126.28L2338.39,1126.28C2337.51,1126.28 2336.86,1126.49 2336.44,1126.89C2336.02,1127.3 2335.81,1127.99 2335.81,1128.97ZM2302.65,1111.55C2303,1111.29 2303.3,1111 2303.56,1110.66C2303.81,1110.32 2303.94,1109.92 2303.94,1109.46C2303.94,1109.2 2303.91,1108.95 2303.84,1108.71C2303.77,1108.47 2303.61,1108.19 2303.35,1107.89L2299.66,1103.71C2299.26,1103.32 2298.91,1103.02 2298.6,1102.81C2298.28,1102.6 2297.97,1102.49 2297.67,1102.49C2297.37,1102.49 2297.09,1102.57 2296.82,1102.72C2296.55,1102.87 2296.23,1103.1 2295.86,1103.4C2295.44,1103.82 2294.89,1104.22 2294.21,1104.6C2293.52,1104.98 2292.77,1105.32 2291.94,1105.61C2291.12,1105.9 2290.26,1106.13 2289.38,1106.31C2288.5,1106.48 2287.64,1106.57 2286.8,1106.57C2285.88,1106.57 2284.89,1106.44 2283.84,1106.18C2282.8,1105.93 2281.81,1105.51 2280.88,1104.91C2279.95,1104.32 2279.14,1103.53 2278.43,1102.53C2277.72,1101.53 2277.25,1100.29 2277.02,1098.8L2302.1,1098.8C2303.56,1098.8 2304.67,1098.71 2305.42,1098.54C2306.18,1098.37 2306.72,1098.05 2307.04,1097.6C2307.37,1097.15 2307.55,1096.54 2307.58,1095.77C2307.62,1095 2307.63,1094.02 2307.63,1092.81C2307.63,1090.95 2307.37,1089.15 2306.85,1087.39C2306.33,1085.64 2305.59,1083.99 2304.64,1082.45C2303.69,1080.9 2302.55,1079.48 2301.22,1078.18C2299.9,1076.88 2298.44,1075.76 2296.85,1074.84C2295.26,1073.91 2293.56,1073.19 2291.75,1072.68C2289.94,1072.16 2288.07,1071.91 2286.14,1071.91C2284.03,1071.91 2282.02,1072.19 2280.12,1072.75C2278.21,1073.3 2276.45,1074.08 2274.82,1075.08C2273.2,1076.08 2271.73,1077.28 2270.41,1078.68C2269.1,1080.09 2267.99,1081.63 2267.07,1083.3C2266.15,1084.97 2265.45,1086.77 2264.95,1088.68C2264.45,1090.6 2264.2,1092.58 2264.2,1094.62C2264.2,1097.89 2264.83,1100.92 2266.08,1103.71C2267.33,1106.5 2269.03,1108.92 2271.16,1110.98C2273.3,1113.03 2275.78,1114.64 2278.62,1115.8C2281.45,1116.96 2284.46,1117.54 2287.64,1117.54C2290.5,1117.54 2293.2,1117.01 2295.76,1115.96C2298.31,1114.9 2300.61,1113.43 2302.65,1111.55ZM2285.9,1082.53C2287.15,1082.53 2288.25,1082.7 2289.19,1083.02C2290.13,1083.35 2290.97,1083.8 2291.7,1084.38C2292.43,1084.96 2293.08,1085.63 2293.65,1086.4C2294.22,1087.17 2294.75,1088 2295.23,1088.91L2277.43,1088.91C2277.81,1088.12 2278.29,1087.34 2278.88,1086.57C2279.47,1085.81 2280.14,1085.12 2280.88,1084.52C2281.63,1083.91 2282.42,1083.43 2283.27,1083.07C2284.12,1082.71 2284.99,1082.53 2285.9,1082.53Z" style="fill:white;stroke:rgb(235,235,235);stroke-width:0.7px;"/>
        </g>
    </g>
</svg>
