<?xml version="1.0" encoding="UTF-8" standalone="no"?>
<!DOCTYPE svg PUBLIC "-//W3C//DTD SVG 1.1//EN" "http://www.w3.org/Graphics/SVG/1.1/DTD/svg11.dtd">
<svg width="100%" height="100%" viewBox="0 0 1027 201" version="1.1" xmlns="http://www.w3.org/2000/svg" xmlns:xlink="http://www.w3.org/1999/xlink" xml:space="preserve" xmlns:serif="http://www.serif.com/" style="fill-rule:evenodd;clip-rule:evenodd;stroke-linejoin:round;stroke-miterlimit:2;">
    <g transform="matrix(1.17736,0,0,1.17736,-560.652,-371.329)">
        <path d="M555.084,476.124C549.821,475.744 544.816,474.822 540.069,473.357C540.069,473.113 539.066,472.774 537.058,472.34C535.078,471.526 532.013,469.925 527.862,467.538L527.659,467.538L527.048,467.945C526.614,467.891 524.281,465.748 520.05,461.516C518.422,459.129 517.5,456.796 517.283,454.517C516.74,454.029 516.198,452.035 515.655,448.536L515.859,448.129C515.859,447.613 515.601,446.013 515.086,443.327C515.086,443.192 515.14,443.124 515.248,443.124C515.004,441.198 514.814,439.204 514.679,437.143L514.882,436.736C514.692,434.783 514.557,433.711 514.475,433.521C514.611,431.297 514.679,426.956 514.679,420.5C514.679,415.021 514.746,412.159 514.882,411.915C514.801,411.779 514.76,411.508 514.76,411.101L514.841,409.677C514.841,409.324 514.787,409.148 514.679,409.148C514.679,408.822 514.746,408.551 514.882,408.334C514.746,405.54 514.679,402.57 514.679,399.423C514.679,397.47 514.746,396.235 514.882,395.72C514.746,395.205 514.679,394.201 514.679,392.709C514.679,391.244 514.746,390.254 514.882,389.739C514.692,387.433 514.557,386.09 514.475,385.71L514.679,384.937L514.475,381.723L514.679,378.508C514.679,378.264 514.611,378.142 514.475,378.142L514.679,376.107C514.679,371.062 514.543,366.396 514.272,362.11L514.475,360.727C514.34,358.855 514.272,357.051 514.272,355.315L514.272,353.931L514.068,352.711C514.204,352.521 514.272,352.127 514.272,351.531L514.068,351.124C514.204,350.961 514.34,350.025 514.475,348.316L514.272,346.729C514.272,346.594 514.34,346.39 514.475,346.119C514.34,345.196 514.272,344.464 514.272,343.922C514.272,342.592 514.34,339.853 514.475,335.702L514.272,335.336C514.272,334.766 514.936,334.359 516.266,334.115L518.259,334.115C518.639,334.115 519.046,333.98 519.48,333.708L520.253,333.912L522.857,333.505C522.912,333.776 523.115,333.912 523.468,333.912C523.875,333.912 524.078,333.776 524.078,333.505L526.275,333.708C526.411,333.708 526.479,333.641 526.479,333.505C527.265,333.641 527.659,333.776 527.659,333.912L528.066,333.708L528.676,333.708C529.219,333.708 529.951,333.641 530.873,333.505L531.687,333.912L532.46,333.708C532.894,333.98 533.301,334.115 533.681,334.115C533.708,333.844 533.844,333.708 534.088,333.708C535.363,334.115 536.163,334.319 536.489,334.319C536.733,334.183 536.923,334.115 537.058,334.115C537.601,334.386 538.008,334.522 538.279,334.522C538.659,334.386 538.849,334.251 538.849,334.115C545.44,335.526 550.289,336.828 553.395,338.021C556.501,339.215 559.194,340.653 561.472,342.335C562.774,342.931 564.714,344.532 567.291,347.136C567.291,347.434 567.82,348.099 568.878,349.13C570.099,350.486 571.36,353.09 572.662,356.942C572.662,357.783 573.069,358.909 573.883,360.32C573.883,360.998 574.344,362.598 575.266,365.121L575.266,365.731C575.266,365.867 575.198,366.071 575.063,366.342C575.334,367.156 575.537,369.421 575.673,373.137L575.47,373.91C575.741,374.615 575.877,375.158 575.877,375.538C575.877,376.541 575.741,377.871 575.47,379.525C575.605,380.448 575.741,381.044 575.877,381.316C575.687,385.086 575.415,387.555 575.063,388.721L575.266,389.128C575.266,389.698 575.008,390.43 574.493,391.326C573.869,394.391 573.259,395.923 572.662,395.923C572.065,395.923 571.129,396.927 569.854,398.935C568.851,398.935 567.25,400.399 565.053,403.329L564.89,403.329L564.89,403.736C564.89,403.926 565.08,404.129 565.46,404.346L566.681,404.143C566.681,404.279 568.145,405.079 571.075,406.544C571.916,407.113 573.055,408.036 574.493,409.311C575.524,409.311 578.115,411.779 582.265,416.716C582.265,416.96 582.74,417.299 583.689,417.733C584.015,418.466 584.476,419.13 585.073,419.727C585.073,420.215 585.479,420.744 586.293,421.314C588.002,424.813 589.196,427.418 589.874,429.127L589.67,429.534C589.942,430.076 590.077,430.537 590.077,430.917L589.874,431.324C590.688,434.688 591.095,436.492 591.095,436.736L591.095,438.933L590.688,447.519L590.688,449.716C590.688,450.828 590.023,452.971 588.694,456.145C588.423,458.044 587.88,459.305 587.066,459.929C586.876,461.258 584.34,464.459 579.457,469.532C574.439,472.326 570.98,473.723 569.081,473.723C566.83,474.672 563.29,475.351 558.461,475.757C557.349,475.757 556.223,475.88 555.084,476.124ZM546.661,385.344C547.475,382.007 547.882,379.363 547.882,377.409C547.882,371.821 547.082,364.863 545.481,356.535C544.749,354.392 544.274,353.321 544.057,353.321L543.853,354.135L544.26,354.908C544.125,356.047 544.057,356.983 544.057,357.715L544.26,357.715C544.125,358.394 543.989,358.733 543.853,358.733L544.26,361.133C543.989,362.056 543.853,362.856 543.853,363.534C543.853,363.86 543.989,364.456 544.26,365.325L543.853,366.342C544.125,366.83 544.26,367.454 544.26,368.214C544.26,369.76 544.125,371.197 543.853,372.527C544.179,377.545 544.789,380.61 545.684,381.723C546.2,383.269 546.458,384.476 546.458,385.344L546.661,385.344ZM551.666,465.544C553.212,464.432 555.016,462.764 557.078,460.539C557.322,460.539 557.851,459.943 558.665,458.749C559.831,457.013 560.97,454.273 562.083,450.53C562.083,450.394 562.015,450.191 561.879,449.919C562.286,446.501 562.49,443.639 562.49,441.334C562.49,433.548 560.686,427.282 557.078,422.535C557.078,421.965 554.948,419.429 550.689,414.926C549.442,414.302 547.841,413.04 545.888,411.142C545.617,411.169 545.481,411.304 545.481,411.548L545.481,417.53C545.481,418.751 545.413,420.487 545.278,422.738L545.481,423.145C545.291,425.424 545.088,426.821 544.871,427.336C545.006,428.042 545.074,428.706 545.074,429.33C545.074,429.737 544.871,429.94 544.464,429.94L544.464,431.527C544.464,435.217 544.396,438.35 544.26,440.927C544.396,442.446 544.464,444.182 544.464,446.135L544.26,448.943L544.464,449.35L544.26,450.53C544.26,451.099 544.328,451.832 544.464,452.727C544.328,453.622 544.26,454.49 544.26,455.331C546.159,459.943 547.366,462.615 547.882,463.347C549.835,464.812 551.096,465.544 551.666,465.544ZM616.933,461.475C616.879,461.204 616.553,460.933 615.956,460.661C615.821,460.933 615.753,461.136 615.753,461.272L614.329,461.068C614.329,461.34 614.207,461.475 613.962,461.475C612.959,460.987 612.416,460.58 612.335,460.255L611.969,460.458L611.562,460.458C611.562,460.078 611.426,459.888 611.155,459.888C610.829,460.132 610.626,460.255 610.545,460.255C610.382,460.255 609.853,459.59 608.958,458.261C608.361,458.261 607.099,457.664 605.173,456.47C604.794,456.47 604.265,456.077 603.587,455.29C602.664,455.019 602,454.477 601.593,453.663C600.698,453.663 599.829,452.876 598.989,451.303C598.31,451.303 597.971,445.118 597.971,432.748C597.971,430.361 597.849,428.828 597.605,428.15C597.714,427.418 597.768,426.455 597.768,425.261C597.768,423.878 597.714,422.847 597.605,422.169C597.714,421.626 597.768,421.151 597.768,420.744L597.605,419.158C597.714,418.642 597.768,418.181 597.768,417.774L597.605,417.367L597.768,416.96L597.605,415.78L598.582,398.406C598.473,397.863 598.337,397.592 598.175,397.592C598.446,397.104 598.582,396.575 598.582,396.005C598.039,396.005 597.768,395.612 597.768,394.825L597.971,393.401C597.971,393.292 597.903,393.238 597.768,393.238L597.971,392.221C597.971,391.353 597.849,390.349 597.605,389.21C597.714,388.694 597.768,388.233 597.768,387.826L597.605,387.419C597.714,387.175 597.768,386.985 597.768,386.85C597.686,385.765 597.564,385.222 597.402,385.222L597.605,383.839C597.605,381.533 597.795,377.545 598.175,371.876L597.971,371.469C597.971,371.333 598.039,371.13 598.175,370.858C598.039,369.963 597.971,369.163 597.971,368.458C597.971,368.024 598.039,367.698 598.175,367.481C598.039,367.237 597.971,366.966 597.971,366.667C597.971,366.369 598.039,366.111 598.175,365.894C597.795,364.212 597.605,362.015 597.605,359.302C597.849,358.434 597.971,357.539 597.971,356.617C597.971,355.884 598.039,355.518 598.175,355.518C598.039,355.247 597.971,355.044 597.971,354.908L598.175,353.728L597.971,352.507C597.971,352.209 598.107,351.015 598.378,348.926C598.378,348.791 598.31,348.587 598.175,348.316C598.31,347.421 598.378,346.58 598.378,345.793C598.378,345.142 598.31,344.451 598.175,343.718L598.378,343.352C598.378,343.026 598.31,342.755 598.175,342.538C598.31,339.825 598.446,338.021 598.582,337.126C598.446,336.909 598.378,336.584 598.378,336.15L598.582,334.766C598.175,334.631 597.971,334.156 597.971,333.342C597.971,332.908 598.039,332.583 598.175,332.366C598.012,331.796 597.686,331.091 597.198,330.25C597.225,329.924 597.361,329.761 597.605,329.761L598.785,329.761C599.138,329.761 599.531,329.897 599.965,330.168C599.965,329.843 600.508,329.504 601.593,329.151C601.593,328.961 601.783,328.771 602.162,328.581C603.871,328.581 605.336,329.246 606.557,330.575L607.574,330.575C608.117,330.575 608.646,330.643 609.161,330.779C609.676,330.779 612.077,330.304 616.363,329.354L624.542,328.581C627.417,328.581 632.395,330.304 639.475,333.749C641.808,335.539 643.273,336.869 643.87,337.737C646.013,339.229 647.613,341.562 648.671,344.735L648.468,345.712L648.671,347.136C648.264,347.733 647.993,348.533 647.857,349.537C647.016,350.595 646.284,351.124 645.66,351.124C643.083,351.639 640.425,352.1 637.685,352.507C636.681,352.507 634.294,352.914 630.523,353.728L629.099,353.524C628.964,353.904 628.57,354.094 627.919,354.094L623.728,354.094L622.711,354.298L622.711,355.111C623.118,358.421 623.321,361.283 623.321,363.697C623.05,366.898 622.914,369.149 622.914,370.451L622.914,371.469C622.969,371.74 623.104,371.876 623.321,371.876L624.135,371.876C628.123,370.926 630.442,370.451 631.093,370.451C631.825,370.451 632.761,370.858 633.901,371.672C635.23,372.459 636.166,372.852 636.708,372.852C637.902,372.852 638.499,373.327 638.499,374.276C638.96,374.276 639.896,374.805 641.306,375.863L642.283,376.067L642.079,377.45C642.975,377.45 643.504,378.183 643.666,379.647C644.806,380.244 645.809,382.306 646.677,385.832C646.433,387.568 646.04,388.437 645.497,388.437L645.497,389.82C644.304,391.149 643.029,391.814 641.672,391.814C641.428,391.678 641.238,391.61 641.103,391.61C640.669,391.882 640.262,392.017 639.882,392.017L638.295,392.017L637.115,391.814C634.402,392.492 631.541,393.021 628.53,393.401L625.722,393.401L623.525,393.034L623.321,393.401L623.321,395.801C623.321,398.623 623.457,400.82 623.728,402.393C623.62,402.936 623.484,403.207 623.321,403.207C623.565,403.207 623.769,404.74 623.932,407.805L623.728,409.962C623.728,410.124 623.796,410.328 623.932,410.572L623.525,414.966C623.66,415.455 623.728,416.052 623.728,416.757C623.728,417.462 623.66,418.791 623.525,420.744L623.728,420.744L623.321,423.145C623.321,423.281 623.389,423.349 623.525,423.349L623.321,425.342L623.321,426.929C623.321,427.228 623.389,427.499 623.525,427.743C623.389,427.987 623.321,428.313 623.321,428.72C623.321,428.991 623.389,429.127 623.525,429.127C623.525,429.262 623.457,429.33 623.321,429.33C623.592,430.795 623.796,432.721 623.932,435.108L623.525,436.736L623.932,447.315C623.796,448.699 623.728,449.824 623.728,450.692L623.932,452.076C623.796,453.324 623.525,454.327 623.118,455.087L623.321,456.063C623.05,456.063 622.792,456.796 622.548,458.261C621.734,458.532 620.798,459.197 619.74,460.255C618.384,461.068 617.448,461.475 616.933,461.475ZM676.056,467.05C676.056,466.914 675.988,466.711 675.852,466.439L674.876,466.643C674.279,465.775 673.275,465.246 671.865,465.056C671.865,464.785 671.729,464.649 671.458,464.649L670.074,464.853C669.559,463.523 668.691,462.859 667.47,462.859C666.927,462.859 666.466,462.465 666.087,461.679L662.669,460.255C662.235,460.255 661.109,459.59 659.291,458.261C658.64,458.261 658.315,458.193 658.315,458.057C658.559,457.623 658.681,457.23 658.681,456.877C658.301,455.874 657.447,451.886 656.117,444.914L656.28,444.101L655.507,434.335C655.643,433.63 655.711,432.965 655.711,432.341C655.277,425.804 654.937,422.535 654.693,422.535L654.897,421.151L654.897,419.971C654.897,418.832 654.761,417.435 654.49,415.78C654.49,415.482 654.558,415.211 654.693,414.966C654.558,413.827 654.49,412.457 654.49,410.857C654.49,408.687 654.368,407.602 654.124,407.602L654.286,406.584L654.286,405.771C654.286,405.228 654.029,404.441 653.513,403.41L653.513,403.207L653.717,403.207L653.717,403.614L654.124,403.614C654.124,403.451 654.178,403.248 654.286,403.004C653.988,399.287 653.73,397.429 653.513,397.429C653.649,396.697 653.717,396.154 653.717,395.801C653.717,393.821 653.581,391.963 653.31,390.227C653.31,390.091 653.378,390.023 653.513,390.023C653.025,385.086 652.496,375.443 651.926,361.093C652.035,360.415 652.089,359.614 652.089,358.692L651.926,355.518C651.655,355.545 651.519,355.667 651.519,355.884L651.519,357.512L651.316,358.489L651.113,358.489L650.909,356.698L651.113,355.884L650.706,354.704C650.706,354.569 650.773,354.501 650.909,354.501L650.502,347.706C650.719,347.407 650.923,346.621 651.113,345.346C651.384,345.346 651.519,344.939 651.519,344.125L651.723,344.125L651.723,349.333L652.089,349.333C652.089,348.872 652.157,348.533 652.293,348.316L652.089,347.34L652.293,345.142L652.089,344.328C652.496,343.108 652.699,341.67 652.699,340.015C652.889,339.663 653.161,338.767 653.513,337.33L654.897,335.132L654.897,334.766C654.354,335.146 653.486,336.611 652.293,339.161L652.089,339.161L652.089,338.55C652.55,336.516 653.947,334.454 656.28,332.366L656.891,332.772C656.891,331.308 661.421,329.639 670.481,327.768C670.617,327.768 670.807,327.835 671.051,327.971C674.469,327.564 677.995,327.361 681.63,327.361C684.587,327.361 689.375,328.432 695.994,330.575C700.849,332.962 703.779,334.156 704.783,334.156C707.794,335.594 710.656,337.723 713.368,340.544C716.434,344.451 717.966,347.841 717.966,350.717C718.102,350.717 718.17,350.852 718.17,351.124L717.966,351.531L718.373,353.524C717.125,359.438 715.918,362.965 714.752,364.104C713.694,367.088 712.5,369.014 711.171,369.882C709.95,371.645 708.96,372.974 708.201,373.869L708.201,374.276C709.638,375.66 710.357,377.518 710.357,379.851C710.493,379.851 710.561,379.919 710.561,380.054L710.357,380.461C711.036,382.089 711.714,384.951 712.392,389.047C713.45,392.166 714.508,396.154 715.566,401.01C717.953,409.338 720.218,418.249 722.361,427.743L722.157,428.15L722.157,429.94L720.367,432.138C720.367,432.409 718.902,432.545 715.973,432.545C715.973,432.273 715.837,432.138 715.566,432.138L715.159,432.138L713.572,432.545C712.867,431.649 711.931,431.107 710.764,430.917L709.584,431.12C709.584,430.876 708.784,430.686 707.184,430.551C707.184,430.144 706.722,429.94 705.8,429.94L704.579,430.144C704.362,429.628 703.169,428.964 700.999,428.15C700.999,426.305 700.063,424.841 698.191,423.756C697.404,422.67 695.682,415.821 693.023,403.207C691.287,397.104 689.687,390.376 688.222,383.025C688.222,381.56 687.49,380.827 686.025,380.827C684.451,380.583 682.729,379.864 680.857,378.671C680.749,378.21 680.314,377.803 679.555,377.45C679.229,377.45 679.067,377.654 679.067,378.061L679.229,380.054L679.067,381.234C679.311,381.723 679.433,382.319 679.433,383.025L679.229,383.839C679.501,384.327 679.636,384.856 679.636,385.425L679.636,388.437C679.908,390.146 680.111,392.6 680.247,395.801L680.043,397.022C680.314,397.565 680.45,397.958 680.45,398.202L680.247,399.219C680.518,402.258 680.721,405.838 680.857,409.962C680.857,410.097 680.789,410.165 680.654,410.165L680.857,411.589L680.857,414.153C680.884,419.741 681.006,422.535 681.223,422.535L681.06,424.529L681.06,431.731C681.277,438.648 681.535,442.107 681.834,442.107L681.63,443.287L683.258,452.686L683.054,453.5C684.112,457.352 684.641,460.336 684.641,462.452C683.583,464.188 682.919,465.056 682.647,465.056C682.647,465.409 682.051,465.68 680.857,465.87C680.857,466.005 680.382,466.331 679.433,466.846L678.456,466.846L676.056,467.05ZM678.456,364.267C681.712,362.775 684.099,361.323 685.618,359.913C685.645,359.641 686.974,358.244 689.605,355.722C691.613,352.304 692.616,348.438 692.616,344.125C692.616,342.28 691.952,341.019 690.623,340.341C689.972,339.419 688.507,338.957 686.228,338.957C682.485,338.957 680.287,339.486 679.636,340.544C679.636,340.951 679.107,341.616 678.049,342.538C677.642,343.732 677.439,345.861 677.439,348.926C677.439,351.314 677.371,353.375 677.236,355.111C677.236,355.247 677.303,355.315 677.439,355.315L677.236,356.291C677.236,357.376 677.371,359.302 677.642,362.069L677.439,362.069C677.873,363.534 678.212,364.267 678.456,364.267ZM817.372,478.646C808.312,478.158 803.782,477.494 803.782,476.653C803.673,476.653 800.676,475.323 794.789,472.665C794.789,472.312 792.931,471.39 789.215,469.898C787.262,469.111 785.2,467.782 783.03,465.91C781.429,464.771 780.1,463.374 779.042,461.719C779.042,461.123 778.717,460.648 778.066,460.295C776.275,457.23 774.743,453.174 773.468,448.129L773.061,444.548L773.061,444.141C774.119,440.696 774.648,437.509 774.648,434.579L775.868,430.591L775.868,430.185C775.76,430.185 775.217,429.981 774.241,429.574L774.241,429.167C775.027,428.516 776.357,428.055 778.228,427.784C779.015,427.919 780.819,428.123 783.64,428.394C783.776,427.987 784.169,427.784 784.82,427.784L786.244,427.784L787.424,427.987L787.831,427.784L789.011,427.987C789.445,427.716 789.784,427.58 790.029,427.58C791.493,428.367 793.623,428.964 796.417,429.371C798.831,431.622 800.16,432.748 800.405,432.748C801.056,432.748 801.381,434.145 801.381,436.939C801.164,437.21 800.974,438.35 800.811,440.357L801.015,441.334C800.608,445.565 800.405,447.898 800.405,448.332C800.676,448.902 801.205,451.167 801.991,455.128L803.578,459.522C804.392,460.634 804.799,461.692 804.799,462.696C805.369,462.696 805.83,463.428 806.183,464.893C807.24,465.951 808.109,466.48 808.787,466.48C809.655,465.666 810.645,463.74 811.757,460.702C811.757,460.024 812.164,458.301 812.978,455.534L813.751,450.326C813.615,450.082 813.547,449.879 813.547,449.716L813.751,448.536C813.751,447.858 813.629,447.519 813.385,447.519L813.547,446.542C812.191,439.815 810.93,435.949 809.763,434.945C807.864,432.558 806.142,430.632 804.596,429.167C804.27,426.916 803.741,425.79 803.009,425.79C803.009,425.546 801.802,424.284 799.387,422.006C799.035,420.839 798.045,419.51 796.417,418.018C795.712,417.177 794.504,415.509 792.795,413.013C791.331,411.657 790.598,410.721 790.598,410.206L790.598,409.433C790.029,409.433 789.5,408.7 789.011,407.235C787.519,405.309 785.797,402.447 783.844,398.65C782.65,395.123 781.511,392.058 780.426,389.454L779.653,385.466L778.839,384.856L779.042,383.472L779.042,382.292C777.849,379.037 777.184,376.908 777.048,375.904C777.238,375.443 777.51,375.036 777.862,374.683L775.868,363.534C775.977,363.127 776.099,362.924 776.235,362.924L776.031,361.907L776.031,360.116C776.031,359.818 776.099,359.56 776.235,359.343C776.099,358.014 775.977,357.349 775.868,357.349L776.031,356.942L776.031,354.338C776.791,347.936 778.133,342.552 780.059,338.184C781.389,336.448 782.514,334.644 783.437,332.772C786.529,328.92 792.321,326.994 800.811,326.994C800.811,326.859 802.67,326.723 806.386,326.588C811.567,327.13 814.158,327.605 814.158,328.012L814.565,327.808C823.571,330.575 830.217,334.427 834.503,339.364C837.324,342.809 838.992,345.536 839.508,347.543C839.86,347.543 840.457,349.347 841.298,352.955L842.519,360.523C842.383,360.794 842.315,360.998 842.315,361.133C842.559,361.649 842.682,362.11 842.682,362.517L842.519,362.924C842.627,363.575 842.817,365.243 843.088,367.929C843.088,368.064 843.021,368.254 842.885,368.498C843.021,369.231 843.088,369.828 843.088,370.289C843.088,370.967 842.953,371.767 842.682,372.689C842.817,373.585 842.885,374.453 842.885,375.294C842.37,375.294 842.112,375.823 842.112,376.881C841.841,376.881 841.569,377.423 841.298,378.508L839.915,379.688C839.453,381.017 839.114,381.682 838.897,381.682L838.328,381.275L837.514,381.885L837.31,381.885L836.7,381.479L836.497,381.479L836.334,382.292L834.91,382.089C834.91,382.387 834.584,382.591 833.933,382.699L833.119,382.292L831.939,382.862C830.502,381.668 829.634,381.072 829.335,381.072C828.332,381.072 826.934,380.475 825.144,379.281C823.788,379.118 822.594,378.522 821.563,377.491C819.285,376.596 817.888,375.402 817.372,373.91C816.803,372.825 816.206,368.431 815.582,360.727C815.582,356.739 815.107,354.745 814.158,354.745C813.887,354.121 813.561,351.395 813.181,346.566C812.449,342.714 811.784,340.449 811.187,339.771L810.781,339.771C808.122,342.43 806.793,344.356 806.793,345.549C805.464,348.072 804.46,352.195 803.782,357.919L803.985,358.326L803.782,360.32L803.985,361.907C803.985,362.069 803.917,362.273 803.782,362.517C803.782,363.222 804.65,367.82 806.386,376.311C806.386,379.186 808.448,386.226 812.571,397.429C814.985,402.312 817.983,407.113 821.563,411.833C825.551,416.011 827.545,418.669 827.545,419.809C829.362,421.572 830.42,423.294 830.719,424.976L834.137,430.591C835.981,432.49 836.904,434.281 836.904,435.963C839.182,442.853 840.322,447.505 840.322,449.919L840.322,450.733L838.897,462.289C837.785,465.219 837.053,466.887 836.7,467.294C835.344,470.848 833.418,473.235 830.922,474.455C828.318,476.327 824.534,477.656 819.57,478.443L819.163,478.28C818.295,478.524 817.698,478.646 817.372,478.646ZM890.574,468.23L884.389,468.23C883.467,468.23 881.541,467.769 878.611,466.846C878.34,466.982 878.136,467.05 878.001,467.05C871.707,463.795 867.448,461.34 865.224,459.685C864.247,459.685 862.423,458.403 859.751,455.84C857.079,453.276 855.309,450.625 854.441,447.885C851.837,444.44 850.25,440.913 849.68,437.305C848.731,435.813 847.741,431.88 846.71,425.505C846.276,422.901 846.059,420.392 846.059,417.978L845.855,417.571C845.991,417.326 846.059,416.92 846.059,416.35C846.059,415.97 845.991,415.78 845.855,415.78L846.059,415.373C846.194,410.165 846.262,406.205 846.262,403.492C846.262,403.139 846.33,402.841 846.466,402.597C846.33,402.353 846.262,402.149 846.262,401.986L846.466,400.196L846.262,400.196L846.466,399.789C846.981,384.951 847.646,377.043 848.46,376.067C848.541,372.215 850.006,365.297 852.854,355.315L855.458,350.513C858.035,345.631 862.294,341.168 868.235,337.126C869.944,336.747 870.798,336.421 870.798,336.15L870.432,335.946L870.229,335.946C870.093,335.946 870.025,336.014 870.025,336.15C869.754,336.014 869.551,335.946 869.415,335.946L869.415,335.336L869.618,335.336C873.064,335.716 875.993,336.38 878.407,337.33C879.493,337.872 881.215,338.279 883.575,338.55C883.901,338.957 884.375,339.161 884.999,339.161C885.515,339.161 885.772,339.025 885.772,338.754C887.346,339.676 888.743,340.137 889.963,340.137C890.126,340.49 891.13,340.883 892.975,341.317L894.358,341.317C894.602,341.317 895.999,342.321 898.549,344.328C899.661,344.328 900.855,345.196 902.13,346.933C904.653,348.533 907.257,351.124 909.942,354.704C911.516,356.224 912.845,358.95 913.93,362.883C914.445,365.379 914.703,367.047 914.703,367.888C914.839,367.888 914.906,367.956 914.906,368.091C914.906,368.308 914.771,368.702 914.5,369.271C914.635,370.194 914.703,370.926 914.703,371.469C914.459,372.31 914.337,372.839 914.337,373.056C914.445,373.327 914.5,373.53 914.5,373.666C914.255,374.209 913.998,374.941 913.726,375.863L913.93,376.636C913.713,377.043 913.509,378.386 913.32,380.665C912.533,381.641 911.936,383.432 911.529,386.036C911.095,386.036 910.634,387.229 910.146,389.617C909.386,390.756 908.776,391.42 908.315,391.61C907.528,392.37 906.863,393.102 906.321,393.808C905.887,393.808 905.358,394.54 904.734,396.005C902.374,397.849 901.18,399.111 901.153,399.789C900.963,399.789 899.838,400.589 897.776,402.19C897.288,402.19 896.148,402.719 894.358,403.777C893.924,403.777 892.527,404.116 890.167,404.794C889.462,404.794 888.865,404.726 888.377,404.59C887.129,404.726 885.772,404.794 884.308,404.794C879.804,404.794 876.834,404.333 875.396,403.41L874.623,403.207L872.629,403.614L872.629,410.165C872.629,410.301 872.562,410.368 872.426,410.368C872.426,410.504 872.494,410.572 872.629,410.572L872.426,411.996L872.426,413.583C872.426,413.881 872.494,414.139 872.629,414.356C872.494,414.627 872.426,414.831 872.426,414.966C872.426,416.513 872.494,417.774 872.629,418.751C872.494,421.68 872.426,424.407 872.426,426.929C872.426,434.525 872.955,438.323 874.013,438.323C875.478,444.128 876.21,447.654 876.21,448.902C876.59,448.902 877.39,450.299 878.611,453.093C879.045,453.364 879.438,453.5 879.791,453.5C881.283,453.5 882.68,452.957 883.982,451.872L884.389,452.076C886.125,451.181 886.993,449.458 886.993,446.908C887.4,446.908 887.793,445.701 888.173,443.287C889.394,442.392 890.465,441.795 891.388,441.496C891.686,441.252 892.744,440.995 894.561,440.723C901.153,440.723 905.412,444.046 907.338,450.692C907.772,450.692 908.301,452.32 908.925,455.575C908.545,457.637 908.288,458.668 908.152,458.668C908.152,460.16 906.945,461.896 904.531,463.876C902.713,464.717 901.587,465.449 901.153,466.073C897.871,467.511 894.344,468.23 890.574,468.23ZM873.606,386.239C874.61,386.239 876.739,384.381 879.994,380.665C879.994,380.393 880.795,379.254 882.395,377.247C882.395,376.514 882.992,375.389 884.185,373.869C884.457,372.486 884.85,371.225 885.365,370.085C886.098,369.271 886.763,366.206 887.359,360.889C887.359,360.482 887.427,360.021 887.563,359.506C887.427,358.99 887.359,358.461 887.359,357.919L887.563,357.512L886.993,357.105L886.586,357.105C885.067,357.105 882.938,359.438 880.198,364.104C877.621,367.115 876.02,370.302 875.396,373.666C874.61,376.297 874.216,379.295 874.216,382.659C873.945,382.659 873.742,383.852 873.606,386.239ZM943.512,368.905L942.087,368.702C941.355,368.837 940.826,368.905 940.501,368.905C939.307,368.743 938.71,368.539 938.71,368.295C938.276,368.566 937.869,368.702 937.49,368.702C937.381,368.702 937.327,368.634 937.327,368.498C937.055,368.634 936.852,368.702 936.716,368.702C936.472,368.675 935.943,368.349 935.129,367.725L934.112,367.929C934.112,367.495 933.448,367.088 932.118,366.708C932.118,366.274 931.183,365.881 929.311,365.528C928.497,364.334 927.642,363.738 926.747,363.738C926.747,363.493 926.151,363.154 924.957,362.72C923.085,361.093 922.149,359.831 922.149,358.936C921.742,357.96 921.336,355.491 920.929,351.531L921.336,345.346L921.132,344.573L921.336,342.986C921.2,341.222 921.132,339.758 921.132,338.591C920.942,338.591 920.684,338.32 920.359,337.777C920.359,337.587 920.617,337.384 921.132,337.167C921.539,337.303 921.742,337.438 921.742,337.574L922.149,337.37L922.76,337.37C923.004,337.425 923.126,337.56 923.126,337.777L924.143,337.574L924.347,337.574C926.164,338.062 927.29,338.537 927.724,338.998C927.941,338.32 928.348,337.981 928.945,337.981C928.945,338.062 929.338,338.456 930.125,339.161C930.26,339.161 930.328,339.107 930.328,338.998L933.502,339.771C933.746,339.636 934.017,339.568 934.316,339.568C934.587,340.056 936.255,340.992 939.321,342.375C941.301,344.057 942.888,345.115 944.081,345.549C944.081,346.58 944.42,347.516 945.099,348.357L946.279,352.955C946.821,354.854 947.418,356.535 948.069,358C947.96,360.74 947.771,362.585 947.499,363.534C947.499,363.67 947.567,363.738 947.703,363.738C947.513,365.989 947.106,367.115 946.482,367.115C946.482,367.929 945.492,368.525 943.512,368.905ZM937.693,470.671L937.123,470.671L937.123,470.264L936.513,470.264L936.106,470.468C936.106,470.224 935.97,470.102 935.699,470.102C935.319,470.102 934.79,470.224 934.112,470.468L933.705,470.264L932.525,470.468C932.2,470.251 931.006,469.925 928.945,469.491C928.945,468.949 927.548,468.352 924.754,467.701C924.618,467.701 923.546,466.833 921.539,465.097L921.336,465.097L921.336,464.893C920.413,460.336 919.952,456.674 919.952,453.907C919.952,453.066 920.02,452.076 920.156,450.937C919.884,447.871 919.749,443.341 919.749,437.346C919.749,435.827 919.681,434.633 919.545,433.765C919.681,432.707 919.884,428.72 920.156,421.802L920.359,421.396L920.156,420.989L920.359,419.809C920.359,419.51 920.291,419.239 920.156,418.995L920.359,418.588C920.25,417.259 920.115,416.594 919.952,416.594L920.156,415.414C920.156,412.457 920.088,405.54 919.952,394.662C919.952,393.631 920.088,390.43 920.359,385.059L920.156,384.693L920.562,379.688C920.562,378.115 920.088,376.989 919.138,376.311L919.138,376.107L919.952,375.497L920.359,375.497L920.929,375.904L922.149,375.701C922.556,375.836 922.76,375.972 922.76,376.107L923.533,375.701C925.73,376.487 926.991,376.881 927.317,376.881C927.642,376.609 928.307,376.419 929.311,376.311C929.826,376.419 930.369,376.474 930.938,376.474L931.142,376.474C931.196,377.016 931.386,377.287 931.712,377.287C931.712,377.098 931.915,376.894 932.322,376.677C933.217,376.677 934.017,377.152 934.723,378.101L935.129,378.101C935.157,377.83 935.279,377.694 935.496,377.694C936.527,377.911 937.924,378.712 939.687,380.095C940.69,380.095 942.155,381.017 944.081,382.862C944.081,383.106 944.488,383.906 945.302,385.263C945.302,385.48 945.492,386.483 945.872,388.274L945.709,391.244L945.872,394.866C945.79,395.652 945.668,396.046 945.505,396.046C945.641,396.344 945.763,397.348 945.872,399.057C945.763,399.762 945.709,400.359 945.709,400.847C946.224,401.607 946.55,403.261 946.685,405.811L946.482,406.625C946.753,411.806 947.025,414.397 947.296,414.397L947.092,415.211C947.228,417.706 947.364,419.239 947.499,419.809C947.364,420.053 947.296,420.243 947.296,420.378L947.499,422.209C947.228,422.616 947.092,422.942 947.092,423.186C947.092,423.484 947.16,423.756 947.296,424C947.16,424.705 947.092,425.302 947.092,425.79L947.906,429.778L947.703,431.365L947.906,432.585C947.526,435.108 947.255,436.369 947.092,436.369L947.296,437.143L947.092,440.357L947.296,440.764C947.16,441.551 947.025,441.944 946.889,441.944L947.092,443.327L947.092,449.512C947.092,450.001 947.16,450.611 947.296,451.343C947.296,451.452 947.228,451.506 947.092,451.506L947.296,452.523C947.296,453.12 947.228,453.514 947.092,453.703C947.228,454.843 947.296,455.779 947.296,456.511L947.296,458.708C947.296,462.018 946.774,464.344 945.729,465.687C944.685,467.029 943.946,467.701 943.512,467.701C941.993,469.41 940.596,470.264 939.321,470.264C939.321,470.02 939.185,469.898 938.914,469.898C938.1,469.898 937.693,470.156 937.693,470.671ZM1047.6,468.677C1046.13,468.677 1043.07,468.284 1038.4,467.497C1034.79,466.439 1030.81,464.636 1026.44,462.086C1022.59,459.047 1018.33,455.86 1013.66,452.523C1010.11,448.861 1008.25,446.596 1008.09,445.728C1005.84,443.178 1004.37,436.79 1003.69,426.563C1003.69,424.04 1003.83,418.724 1004.1,410.613L1004.26,410.613L1004.1,410.206L1004.1,406.625C1004.1,406.327 1004.03,406.055 1003.9,405.811C1004.11,404.97 1004.3,403.519 1004.47,401.457C1004.47,401.322 1004.4,401.254 1004.26,401.254L1005.28,392.668C1005.28,392.533 1005.21,392.329 1005.08,392.058C1005.62,389.372 1006.15,383.391 1006.66,374.114L1006.46,374.114C1006.84,373.001 1007.11,371.401 1007.27,369.312C1007.27,369.177 1007.21,369.109 1007.07,369.109C1008.4,360.944 1009.47,352.629 1010.28,344.166C1010.01,344.166 1009.61,342.904 1009.06,340.382C1009.2,339.568 1009.4,339.161 1009.67,339.161L1010.45,339.161L1011.46,339.771L1012.28,339.568C1013.39,339.568 1015.11,340.097 1017.45,341.155C1017.45,340.992 1017.98,340.463 1019.03,339.568L1019.85,339.568C1019.85,339.866 1020.44,340.137 1021.64,340.382C1021.75,340.707 1022.61,341.033 1024.24,341.358L1025.42,341.155C1027.56,342.24 1028.63,342.918 1028.63,343.189L1028.84,343.189L1030.22,342.986C1030.95,343.121 1031.48,343.189 1031.81,343.189C1031.94,342.945 1032.01,342.674 1032.01,342.375L1032.22,342.375L1033.23,342.579C1033.26,342.308 1033.38,342.172 1033.6,342.172C1033.92,342.172 1034.93,342.633 1036.61,343.555C1038.4,343.555 1040.19,344.22 1041.98,345.549L1042.39,345.346C1045.13,347.028 1048.13,349.089 1051.38,351.531C1053.2,352.426 1056.32,355.098 1060.74,359.547C1060.74,359.899 1061.61,360.686 1063.34,361.907C1063.34,362.205 1064.28,363.412 1066.15,365.528L1068.71,369.516C1069.66,369.516 1071.01,371.835 1072.74,376.474C1073.53,377.83 1073.92,378.901 1073.92,379.688L1073.92,380.502C1074.55,380.502 1074.94,381.696 1075.1,384.083C1075.1,384.245 1075.65,385.846 1076.73,388.884C1076.73,390.023 1077.06,391.081 1077.71,392.058L1079.5,401.62C1079.5,401.756 1079.43,401.824 1079.3,401.824C1079.97,406.923 1080.52,410.192 1080.92,411.63L1080.72,411.996C1081.23,416.608 1081.49,420.066 1081.49,422.372L1081.49,426.97C1081.25,431.148 1080.92,433.833 1080.52,435.027C1080.52,435.705 1080.65,436.288 1080.92,436.776C1079.32,442.364 1078.18,445.687 1077.5,446.745C1076.53,447.993 1074.74,450.72 1072.13,454.924C1070.69,456.687 1068.57,458.546 1065.75,460.499C1063.71,462.208 1061.85,463.401 1060.17,464.079C1058.95,465.354 1055.95,466.684 1051.18,468.067C1050.39,468.067 1049.2,468.271 1047.6,468.677ZM1037.22,454.517C1038.09,454.246 1038.69,454.11 1039.01,454.11L1039.01,454.314C1043.84,451.791 1047.96,447.207 1051.38,440.561C1052.44,436.763 1052.97,433.304 1052.97,430.185C1053.38,427.201 1053.58,424.827 1053.58,423.064C1053.58,422.576 1053.51,422.223 1053.38,422.006C1053.38,421.87 1053.44,421.802 1053.58,421.802C1053.5,420.066 1053.18,416.635 1052.64,411.508C1052.1,406.381 1051.75,403.817 1051.59,403.817L1051.79,403.451L1051.79,403.248C1051.79,401.674 1051.45,399.138 1050.77,395.639C1050.91,395.422 1050.97,395.164 1050.97,394.866L1049.79,389.454C1049.31,388.342 1048.7,386.348 1047.96,383.472L1047.6,383.269L1047.6,383.676L1047.19,383.676C1046.62,383.215 1045.89,381.221 1044.99,377.694L1045.4,377.694L1046.17,378.305L1046.17,378.101C1043.73,371.455 1040.94,366.396 1037.79,362.924C1037.41,362.924 1036.88,362.53 1036.2,361.744L1035.8,361.744L1035.59,363.331L1035.8,363.331C1035.63,364.497 1035.44,365.365 1035.23,365.935C1036.15,367.291 1036.61,368.81 1036.61,370.492L1036.61,371.916C1036.26,373.408 1035.92,375.795 1035.59,379.078L1035.8,379.078C1035.53,380.353 1035.27,381.017 1035.02,381.072L1035.43,384.49C1034.35,389.969 1033.14,401.01 1031.81,417.611C1031.81,418.317 1031.88,418.913 1032.01,419.402C1031.88,420.351 1031.74,422.481 1031.61,425.79C1031.61,425.926 1031.67,425.993 1031.81,425.993L1031.61,426.97L1031.61,435.149C1031.61,445.647 1033.48,452.103 1037.22,454.517ZM1116.2,473.845C1115.98,473.709 1115.66,473.642 1115.22,473.642L1115.22,473.845L1114.82,473.642L1114,473.642C1108.41,472.611 1105.62,471.743 1105.62,471.037C1105.13,471.037 1103.48,469.708 1100.66,467.05C1100.41,467.05 1098.61,465.259 1095.25,461.679C1095.25,460.811 1093.78,459.346 1090.85,457.284C1090.85,456.85 1089.86,455.846 1087.88,454.273C1087.88,454.192 1087.15,453.269 1085.68,451.506C1084.08,448.576 1083.28,446.447 1083.28,445.118L1083.49,444.101C1083.35,443.395 1083.28,442.798 1083.28,442.31C1083.55,442.31 1083.81,439.652 1084.06,434.335C1085.52,425.654 1087.32,418.737 1089.47,413.583C1089.9,411.494 1091.96,407.968 1095.65,403.004C1099.72,398.202 1107.17,395.801 1117.99,395.801L1123,395.801C1123.27,395.801 1124.8,396.073 1127.59,396.615L1129.79,396.615L1129.95,395.598L1129.95,393.808C1129.95,393.672 1129.9,393.604 1129.79,393.604L1129.95,393.238C1129.71,392.75 1129.59,392.207 1129.59,391.61L1129.59,388.843C1130.1,387.596 1130.36,385.859 1130.36,383.635L1130.16,383.635L1130.36,383.228L1130.36,383.025C1129.98,382.536 1129.79,382.075 1129.79,381.641C1129.79,381.044 1130.05,380.109 1130.56,378.834L1130.36,378.467C1130.5,377.735 1130.56,377.192 1130.56,376.84C1130.16,376.189 1129.95,375.66 1129.95,375.253L1129.95,374.073L1130.16,373.666C1129.64,373.476 1129.38,373.273 1129.38,373.056L1129.38,368.295C1129.38,367.698 1129.52,367.156 1129.79,366.667L1129.38,364.267C1129.52,362.503 1129.59,361.052 1129.59,359.913L1129.38,357.105C1129.52,356.563 1129.59,356.101 1129.59,355.722C1129.26,353.986 1128.92,353.118 1128.57,353.118L1128.16,353.118C1124.91,354.04 1122.18,355.695 1119.99,358.082C1119.33,358.434 1118.28,359.438 1116.81,361.093C1115.51,362.205 1113.84,364.47 1111.81,367.888C1109.66,370.546 1108.06,371.876 1107,371.876C1107,372.228 1106.22,372.622 1104.64,373.056L1103.02,373.056C1102.83,373.056 1101.97,372.798 1100.45,372.283C1100.18,372.418 1099.98,372.486 1099.84,372.486C1099.19,371.672 1097.93,370.669 1096.06,369.475C1096.06,368.715 1095.26,367.915 1093.66,367.074C1093.25,366.26 1093.05,365.731 1093.05,365.487L1093.45,364.673C1092.26,364.158 1091.66,363.561 1091.66,362.883C1090.8,362.883 1090.27,362.286 1090.08,361.093C1089.75,361.093 1089.14,360.428 1088.25,359.099C1087.6,359.099 1087.27,358.76 1087.27,358.082C1087.27,357.024 1086.74,356.495 1085.68,356.495C1085.68,356.088 1086.14,355.22 1087.07,353.891C1087.07,352.833 1087.8,351.978 1089.26,351.327C1089.37,350.92 1090.38,349.713 1092.28,347.706C1094.36,345.563 1095.76,344.044 1096.47,343.148C1096.79,343.148 1097.85,342.348 1099.64,340.748C1099.96,340.748 1101.16,340.083 1103.22,338.754C1103.79,338.754 1104.73,338.415 1106.03,337.737L1106.03,337.94C1108.58,337.289 1110.55,336.964 1111.93,336.964C1113.99,336.964 1115.88,337.153 1117.58,337.533L1119.01,337.533C1122.86,337.533 1125.78,338.13 1127.76,339.324C1134.27,340.816 1140.59,344.885 1146.72,351.531C1152.31,358.367 1155.1,363.48 1155.1,366.871C1155.72,366.871 1156.2,369.461 1156.52,374.643L1156.32,376.067L1156.52,377.043L1156.32,378.061C1156.32,378.196 1156.39,378.4 1156.52,378.671C1156.25,380.705 1156.05,383.893 1155.91,388.233L1156.12,388.64C1155.87,388.64 1155.67,392.424 1155.51,399.993L1155.3,400.399C1155.44,400.671 1155.51,400.874 1155.51,401.01L1155.1,409.188L1155.3,410.165C1154.65,419.632 1154.06,425.153 1153.51,426.726C1153.16,426.726 1152.84,428.394 1152.54,431.731C1151.21,438.241 1149.34,444.833 1146.92,451.506C1144.05,456.715 1141.98,460.105 1140.74,461.679C1140.11,463.659 1137.52,466.114 1132.96,469.044C1132.37,470.02 1129.64,471.282 1124.79,472.828C1119.63,473.506 1116.77,473.845 1116.2,473.845ZM1108.63,454.07C1112.94,452.849 1117.39,447.858 1121.98,439.096C1124.75,433.779 1126.94,424.542 1128.57,411.386L1127.96,410.979C1123.84,411.603 1121.78,412.2 1121.78,412.769C1121.42,412.769 1120.36,413.637 1118.6,415.373C1118.25,415.509 1117.79,416.309 1117.22,417.774C1115.35,419.619 1113.75,423.077 1112.42,428.15L1109.4,439.706C1108.51,439.706 1107.91,443.3 1107.62,450.489C1107.62,452.876 1107.95,454.07 1108.63,454.07ZM1181.67,470.468C1181.13,470.224 1180.67,470.102 1180.29,470.102C1179.56,470.21 1179.03,470.264 1178.7,470.264C1178.67,469.993 1177.94,469.6 1176.5,469.084C1176.5,468.786 1175.89,468.447 1174.67,468.067L1174.67,467.701L1174.31,467.701C1174.31,468.081 1174.17,468.271 1173.9,468.271C1172.68,467.484 1171.78,467.09 1171.21,467.09C1171,467.09 1170.89,467.158 1170.89,467.294C1170.78,467.294 1169.65,466.562 1167.51,465.097L1166.49,462.696L1167.1,458.505L1166.9,458.098L1167.71,453.703L1167.71,452.32C1167.71,452.184 1167.78,452.117 1167.92,452.117C1167.92,451.981 1167.85,451.913 1167.71,451.913L1167.92,450.937L1167.92,448.129L1167.71,447.152L1167.31,447.315L1166.9,447.315C1166.25,442.242 1165.92,438.255 1165.92,435.352C1166.09,435.352 1166.34,435.027 1166.7,434.376L1166.29,433.765L1166.29,433.562C1166.29,433.426 1166.36,433.358 1166.49,433.358C1166.25,432.762 1166.13,431.894 1166.13,430.754L1166.29,430.754C1166.18,430.51 1165.99,429.52 1165.72,427.784C1165.86,426.97 1165.99,426.563 1166.13,426.563L1165.92,424.569L1165.92,415.007C1165.92,414.519 1165.99,413.922 1166.13,413.217C1165.86,412.783 1165.72,412.349 1165.72,411.915C1165.72,411.535 1165.79,411.237 1165.92,411.02C1165.65,410.531 1165.38,409.663 1165.11,408.415L1165.31,408.008C1165.04,407.005 1164.84,405.35 1164.7,403.044C1164.7,402.909 1164.77,402.841 1164.91,402.841L1164.7,400.847L1164.7,399.83L1164.3,388.884C1164.3,388.396 1164.36,387.785 1164.5,387.053L1164.3,385.873C1164.57,381.723 1164.7,378.996 1164.7,377.694L1164.91,377.694L1164.7,377.287C1164.7,376.799 1164.77,376.202 1164.91,375.497C1164.26,368.553 1163.93,364.294 1163.93,362.72C1164.44,362.449 1164.7,362.124 1164.7,361.744C1164.57,361.554 1164.5,361.215 1164.5,360.727C1164.91,360.727 1165.11,360.523 1165.11,360.116C1164.46,357.105 1164.13,353.579 1164.13,349.537L1164.13,344.979C1164.13,344.193 1164.07,343.121 1163.93,341.765L1164.13,341.358C1164,340.246 1163.93,339.188 1163.93,338.184C1163.93,334.712 1164.6,332.976 1165.92,332.976L1166.7,332.61L1167.1,332.772L1168.32,332.61C1168.62,332.61 1168.88,332.664 1169.1,332.772C1171.08,332.176 1172.88,331.457 1174.51,330.616C1174.51,330.372 1175.11,330.168 1176.3,330.006C1176.3,329.87 1176.37,329.802 1176.5,329.802L1177.28,330.006L1178.5,329.395L1178.7,329.395C1178.94,329.449 1179.07,329.585 1179.07,329.802C1180.23,329.694 1180.97,329.49 1181.26,329.192L1181.67,329.192C1182.38,329.68 1183.24,330.155 1184.28,330.616C1184.28,330.833 1184.74,331.158 1185.66,331.592C1186.04,332.352 1186.84,333.084 1188.06,333.79C1190.23,336.15 1192.15,339.215 1193.84,342.986C1197.83,352.941 1200.43,359.981 1201.65,364.104L1203.64,370.289L1208.61,387.46C1208.61,388.382 1209.02,389.576 1209.83,391.041C1209.83,392.126 1210.02,392.668 1210.4,392.668L1211.01,389.657L1210.81,389.657L1211.01,389.25L1211.01,388.681C1211.01,388.22 1210.81,387.745 1210.4,387.257L1210.4,386.28L1211.01,385.466L1211.01,385.263C1211.01,384.991 1210.87,384.856 1210.6,384.856C1210.6,384.476 1210.67,384.015 1210.81,383.472C1210.67,381.492 1210.6,379.837 1210.6,378.508C1210.6,377.803 1210.67,376.664 1210.81,375.09C1210.72,374.331 1210.52,373.734 1210.19,373.3L1210.19,371.103L1210.6,371.103L1210.4,369.719L1210.4,369.312C1210.02,369.312 1209.83,369.177 1209.83,368.905C1209.83,368.634 1210.02,368.498 1210.4,368.498C1210.26,365.84 1210.19,363.344 1210.19,361.011C1210.19,359.899 1210.26,359.343 1210.4,359.343L1210.19,358.936L1210.19,357.756L1209.83,350.757L1209.83,348.764C1209.83,348.194 1209.88,347.462 1209.99,346.566C1209.88,346.322 1209.83,346.051 1209.83,345.753C1210.13,345.753 1210.38,346.553 1210.6,348.153L1210.81,348.153C1210.67,346.824 1210.6,345.169 1210.6,343.189L1210.4,343.189C1210.4,344.518 1210.21,345.183 1209.83,345.183L1209.62,343.189L1209.83,342.782L1210.19,342.986L1210.4,342.986L1210.4,342.375C1209.75,342.375 1209.42,342.036 1209.42,341.358L1209.42,339.568L1209.83,338.998L1209.42,338.388L1209.42,334.4C1209.42,333.586 1210.22,331.782 1211.82,328.988C1211.82,328.256 1212.88,326.669 1215,324.228C1215.35,323.359 1215.69,322.885 1216.01,322.803L1216.22,322.803L1217.19,323.617C1217.49,323.617 1217.76,323.549 1218.01,323.414C1218.98,324.092 1219.65,324.431 1220,324.431L1220,325.814L1220.2,325.814C1220.77,325.408 1221.24,325.204 1221.59,325.204C1221.7,325.747 1221.83,326.018 1222,326.018L1222.97,325.814C1222.97,326.465 1224.18,326.791 1226.59,326.791C1226.59,326.655 1226.65,326.588 1226.76,326.588L1228.18,327.605L1229.16,326.994L1229.36,326.994C1230.66,328.188 1232.26,329.327 1234.16,330.412C1234.16,330.846 1234.62,331.172 1235.55,331.389L1235.75,334.4L1235.55,334.4L1235.75,334.807L1235.75,339.568C1235.75,339.866 1235.68,340.137 1235.55,340.382C1235.68,340.599 1235.75,341.29 1235.75,342.457C1235.75,343.786 1235.68,344.559 1235.55,344.776L1235.75,345.956L1235.75,348.56C1235.75,348.994 1235.82,349.32 1235.95,349.537L1235.75,350.757C1235.75,352.494 1235.88,353.958 1236.15,355.152C1236.15,355.288 1236.09,355.355 1235.95,355.355L1236.15,357.349L1236.15,363.738L1235.95,364.918C1236.09,365.162 1236.15,365.433 1236.15,365.731L1235.95,366.098L1236.36,369.109C1236.22,369.787 1236.15,370.655 1236.15,371.713C1236.15,371.984 1236.22,372.12 1236.36,372.12C1235.82,375.918 1235.55,378.237 1235.55,379.078L1235.75,379.485C1235.61,379.756 1235.55,379.959 1235.55,380.095L1235.75,380.868L1235.55,381.275L1236.15,385.466C1235.56,385.466 1235.22,388.993 1235.14,396.046L1235.14,401.05C1234.89,402.407 1234.43,407.859 1233.75,417.408C1233.13,418.005 1232.67,421.26 1232.37,427.173C1231.77,427.173 1231.04,432.762 1230.17,443.938C1229.66,445.376 1229.06,448.631 1228.38,453.703C1228.52,454.409 1228.59,455.073 1228.59,455.697C1228.37,455.697 1228.1,455.969 1227.77,456.511L1227.77,457.895C1227.31,457.895 1226.97,458.369 1226.76,459.319C1226.19,459.319 1225.73,459.644 1225.37,460.295L1224.19,460.295C1224.19,460.838 1224.06,461.109 1223.79,461.109L1222.2,461.109L1221.59,460.702L1220.41,461.312L1219.39,461.109C1219.12,461.245 1218.92,461.312 1218.78,461.312L1218.01,460.295L1216.99,460.499C1215.8,459.821 1214.86,459.02 1214.18,458.098C1213.8,458.098 1212.88,457.705 1211.41,456.918C1210.36,456.62 1209.35,456.158 1208.4,455.534C1207.45,455.534 1206.65,454.463 1206,452.32C1204.76,450.367 1203.7,447.708 1202.83,444.345C1202.21,443.558 1201.34,441.225 1200.23,437.346C1199.17,435.447 1196.44,427.268 1192.05,412.81C1191.86,411.616 1191.6,411.02 1191.27,411.02C1191,412.457 1190.8,414.722 1190.66,417.815L1190.87,417.815C1190.62,418.14 1190.42,419.727 1190.26,422.576C1190.12,422.576 1190.05,422.779 1190.05,423.186C1190.05,423.457 1190.19,423.918 1190.46,424.569C1190.19,428.964 1189.99,433.223 1189.85,437.346C1189.99,437.563 1190.05,437.97 1190.05,438.567L1189.65,439.34C1189.78,441.076 1189.85,442.473 1189.85,443.531L1189.85,444.752C1189.44,446.244 1188.98,451.764 1188.47,461.312L1188.47,463.876C1187.92,466.263 1186.53,468.271 1184.28,469.898C1183.76,469.898 1182.89,470.088 1181.67,470.468ZM1263.74,478.443L1263.34,478.443C1262.47,477.9 1261.8,477.629 1261.34,477.629L1261.34,478.036L1261.14,478.036L1260.33,477.426L1259.14,477.629C1259.14,476.68 1258.07,476.015 1255.93,475.635C1255.44,474.713 1253.86,473.913 1251.17,473.235C1248.89,471.526 1247.75,470.468 1247.75,470.061C1247.07,470.061 1246.48,462.411 1245.96,447.112C1245.83,447.112 1245.76,446.84 1245.76,446.298C1245.89,446.054 1245.96,445.782 1245.96,445.484C1245.96,445.376 1245.89,445.321 1245.76,445.321C1245.76,445.05 1245.83,444.914 1245.96,444.914C1245.83,439.896 1245.76,436.098 1245.76,433.521L1245.76,426.156L1245.96,424.162L1245.76,424.162C1245.76,424.027 1245.83,423.959 1245.96,423.959C1246.1,410.992 1246.3,399.816 1246.57,390.43C1246.44,387.989 1246.37,386.456 1246.37,385.832L1246.57,385.425C1246.57,385.29 1246.5,385.222 1246.37,385.222L1246.98,367.888C1246.98,367.752 1246.91,367.685 1246.78,367.685C1246.78,367.549 1246.84,367.345 1246.98,367.074C1247.11,360.347 1247.18,354.094 1247.18,348.316C1247.18,345.603 1247.24,343.677 1247.35,342.538C1247.35,342.402 1247.29,342.335 1247.18,342.335L1248.16,330.779L1248.16,328.785C1247.62,327.971 1247.35,327.171 1247.35,326.384L1247.35,325.57L1248.36,325.367C1249.26,325.502 1249.72,325.706 1249.75,325.977C1250.91,325.842 1251.64,325.638 1251.94,325.367L1253.57,326.181C1253.79,326.045 1254.05,325.977 1254.34,325.977C1254.56,326.493 1255.02,326.75 1255.73,326.75L1255.93,326.75L1255.36,325.977L1255.73,325.774C1256.51,326.181 1257.19,326.384 1257.76,326.384L1258.13,326.181C1258.37,326.316 1258.64,326.384 1258.94,326.384C1259.24,326.384 1259.51,326.316 1259.76,326.181C1260.19,326.181 1260.52,326.642 1260.73,327.564L1260.93,327.564L1261.55,327.157L1262.52,327.157C1263.15,327.944 1264.34,328.486 1266.1,328.785C1266.1,329.354 1267.11,330.019 1269.11,330.779C1271.37,332.433 1272.69,333.681 1273.1,334.522C1273.51,335.363 1273.71,336.706 1273.71,338.55C1273.71,339.147 1273.44,341.738 1272.9,346.322L1273.1,347.136C1273.1,347.57 1273.03,347.896 1272.9,348.113C1273.03,350.473 1273.1,352.399 1273.1,353.891L1273.1,358.285L1273.31,358.285C1273.52,358.122 1274.78,355.993 1277.09,351.897C1277.63,351.544 1278.57,350.283 1279.9,348.113L1283.27,342.742C1284.14,341.467 1285.21,340.137 1286.49,338.754C1286.49,338.076 1287.41,337.479 1289.26,336.964C1289.39,336.964 1290.19,337.153 1291.66,337.533L1293.08,337.533C1293.08,337.669 1293.13,337.872 1293.24,338.144C1294.82,338.008 1295.96,337.94 1296.66,337.94C1297.23,337.94 1297.83,338.076 1298.45,338.347L1299.63,338.144L1299.84,338.144C1300.38,338.144 1301.71,338.673 1303.82,339.73C1304.09,339.73 1304.5,340.137 1305.04,340.951C1305.26,340.816 1305.52,340.748 1305.82,340.748C1306.2,341.48 1307.06,342.213 1308.42,342.945L1308.01,345.346C1308.2,345.346 1308.54,345.671 1309.03,346.322L1309.03,347.136C1309.03,348.058 1307.84,350.188 1305.45,353.524C1305.45,353.85 1304.98,354.379 1304.03,355.111C1302.53,357.498 1301.14,358.896 1299.84,359.302C1299.29,359.302 1297.83,361.5 1295.44,365.894C1295.44,366.382 1295.05,366.979 1294.26,367.685C1293.61,367.685 1292.88,368.485 1292.06,370.085L1292.06,370.451C1294.12,370.587 1295.32,371.387 1295.64,372.852C1297.24,372.852 1298.05,373.327 1298.05,374.276C1298.05,374.819 1298.38,375.348 1299.06,375.863C1300.15,378.169 1301,382.428 1301.62,388.64C1303.9,397.321 1305.04,402.909 1305.04,405.404C1305.4,405.703 1305.92,407.954 1306.63,412.159C1306.85,412.159 1307.31,414.031 1308.01,417.774C1308.04,418.425 1308.52,421.68 1309.44,427.54C1309.17,427.974 1309.03,428.367 1309.03,428.72L1309.03,430.347C1309.95,437.482 1310.41,441.334 1310.41,441.903C1310.41,442.12 1310.16,443.016 1309.64,444.589C1309.64,445.213 1309.69,445.986 1309.8,446.908C1308.75,449.946 1308.08,451.533 1307.81,451.669L1306.22,452.89C1305.79,452.89 1304.99,453.283 1303.82,454.07L1302.64,453.866C1302.21,454.137 1301.82,454.273 1301.46,454.273L1300.85,454.273C1300.85,453.866 1300.72,453.663 1300.44,453.663L1299.63,453.663C1299.28,453.663 1298.88,453.798 1298.45,454.07C1297.72,453.798 1297.05,453.405 1296.46,452.89L1296.25,452.89L1295.24,453.093C1293.91,452.089 1293.24,451.493 1293.24,451.303C1291.53,449.838 1290.27,449.105 1289.46,449.105L1288.89,449.105L1288.89,448.699C1289.13,448.373 1289.26,448.102 1289.26,447.885C1288.47,447.098 1287.89,445.301 1287.51,442.493C1287.13,439.686 1286.79,434.701 1286.49,427.54C1285.67,421.572 1284.81,417.313 1283.88,414.763C1284.02,414.519 1284.09,414.315 1284.09,414.153C1283.41,413.04 1282.34,409.053 1280.87,402.19C1280.74,402.19 1280.55,401.661 1280.3,400.603C1280.44,400.332 1280.51,400.128 1280.51,399.993C1280.1,399.206 1279.56,396.886 1278.88,393.034C1278.01,389.834 1277.48,388.233 1277.29,388.233L1276.68,387.826C1275.27,389.562 1274.21,390.566 1273.51,390.837C1272.72,390.837 1272.33,391.434 1272.33,392.628L1272.33,399.219C1272.33,399.681 1272.26,400.277 1272.12,401.01C1272.26,401.254 1272.33,401.457 1272.33,401.62L1272.12,402.8C1272.26,403.939 1272.33,404.808 1272.33,405.404L1271.52,410.165C1271.52,410.328 1271.58,410.531 1271.72,410.775L1271.31,415.78C1271.45,416.024 1271.52,416.214 1271.52,416.35C1271.52,416.513 1271.45,416.716 1271.31,416.96C1271.45,417.693 1271.52,418.317 1271.52,418.832C1271.52,419.456 1271.45,420.026 1271.31,420.541L1271.52,421.762C1271.52,422.196 1271.45,422.521 1271.31,422.738C1271.45,423.661 1271.52,424.596 1271.52,425.546C1271.52,426.875 1271.38,427.54 1271.11,427.54L1271.31,428.557C1271.17,432.3 1270.97,435.42 1270.7,437.916C1270.84,438.133 1270.9,438.472 1270.9,438.933C1270.9,439.041 1270.84,439.096 1270.7,439.096L1270.9,440.113L1270.9,441.496C1270.9,441.958 1270.84,442.297 1270.7,442.514C1271.16,451.845 1271.57,457.691 1271.92,460.051C1271.92,460.214 1271.85,460.417 1271.72,460.661C1271.99,463.537 1272.19,467.199 1272.33,471.648C1271.87,473.411 1271.53,474.401 1271.31,474.618C1271.12,474.645 1270.39,475.446 1269.11,477.019C1267.76,477.426 1266.89,477.765 1266.51,478.036L1266.1,478.036L1265.53,477.629L1265.33,477.629L1263.74,478.443Z" style="fill:white;"/>
    </g>
</svg>
