<?xml version="1.0" encoding="UTF-8" standalone="no"?>
<!DOCTYPE svg PUBLIC "-//W3C//DTD SVG 1.1//EN" "http://www.w3.org/Graphics/SVG/1.1/DTD/svg11.dtd">
<svg width="100%" height="100%" viewBox="0 0 645 641" version="1.1" xmlns="http://www.w3.org/2000/svg" xmlns:xlink="http://www.w3.org/1999/xlink" xml:space="preserve" xmlns:serif="http://www.serif.com/" style="fill-rule:evenodd;clip-rule:evenodd;stroke-linejoin:round;stroke-miterlimit:2;">
    <g transform="matrix(0.7071,0.7071,-0.7071,0.7071,320.843,-134.115)">
        <path d="M529.6,534.6L115,534.6L115,105.9L529.6,105.9L529.6,534.6ZM509.6,125.9L135,125.9L135,514.6L509.6,514.6L509.6,125.9ZM384.509,237.489C384.509,237.489 486.404,336.98 497.293,339.102L437.896,398.499C430.825,399.065 414.915,381.882 414.915,381.882C414.915,381.882 416.329,425.723 385.569,456.482C354.81,487.242 327.232,490.777 293.998,457.543C260.764,424.309 279.149,382.589 327.94,333.798C341.163,320.575 335.718,309.756 331.829,305.867C327.94,301.978 317.474,289.816 302.342,304.948C284.523,322.767 297.675,340.304 297.675,340.304L244.712,393.267C244.712,393.267 187.931,353.173 268.118,272.986C348.304,192.8 384.509,237.489 384.509,237.489ZM379.205,389.165C399.004,369.366 384.296,358.901 357.568,332.172C357.568,332.172 351.911,355.507 348.022,369.295C344.132,383.084 349.082,389.165 349.082,389.165C349.082,389.165 359.76,408.611 379.205,389.165ZM185.739,256.652L218.761,289.674L184.183,324.252L151.161,291.23L185.739,256.652ZM239.48,202.912L272.502,235.934L237.924,270.512L204.902,237.489L239.48,202.912ZM293.22,149.171L326.242,182.193L291.665,216.771L258.642,183.749L293.22,149.171Z" style="fill:white;"/>
    </g>
</svg>
