<?xml version="1.0" encoding="UTF-8" standalone="no"?>
<!DOCTYPE svg PUBLIC "-//W3C//DTD SVG 1.1//EN" "http://www.w3.org/Graphics/SVG/1.1/DTD/svg11.dtd">
<svg width="100%" height="100%" viewBox="0 0 512 512" version="1.1" xmlns="http://www.w3.org/2000/svg" xmlns:xlink="http://www.w3.org/1999/xlink" xml:space="preserve" xmlns:serif="http://www.serif.com/" style="fill-rule:evenodd;clip-rule:evenodd;stroke-linejoin:round;stroke-miterlimit:2;">
    <g transform="matrix(1.08028,1.08028,-1.08028,1.08028,258.892,-437.779)">
        <path d="M384.509,237.489C384.509,237.489 463.297,314.419 489.715,334.427C491.474,335.749 492.574,337.77 492.728,339.966C492.883,342.161 492.078,344.316 490.522,345.872C477.723,358.672 450.425,385.97 441.098,395.297C438.658,397.737 434.881,398.227 431.9,396.491C424.336,392.057 414.915,381.882 414.915,381.882C414.915,381.882 416.329,425.723 385.569,456.482C354.81,487.242 327.232,490.777 293.998,457.543C260.764,424.309 279.149,382.589 327.94,333.798C341.163,320.575 335.718,309.756 331.829,305.867C327.94,301.978 317.474,289.816 302.342,304.948C289.956,317.334 292.534,329.583 295.257,335.902C296.501,338.759 295.87,342.087 293.667,344.29C284.209,353.77 260.417,377.562 249.877,388.102C248.403,389.576 246.389,390.38 244.305,390.325C242.222,390.271 240.252,389.363 238.857,387.815C226.741,374.375 205.005,336.099 268.118,272.986C348.304,192.8 384.509,237.489 384.509,237.489ZM379.205,389.165C397.472,370.898 386.365,360.576 363.545,338.095C362.329,336.887 360.558,336.425 358.907,336.886C357.256,337.346 355.979,338.658 355.564,340.321C353.564,348.37 350.449,360.691 348.022,369.295C344.132,383.084 349.082,389.165 349.082,389.165C349.082,389.165 359.76,408.611 379.205,389.165ZM180.366,262.025C183.333,259.058 188.145,259.058 191.112,262.025C197.253,268.166 207.247,278.16 213.388,284.301C216.355,287.268 216.355,292.08 213.388,295.047C206.898,301.537 196.046,312.389 189.556,318.879C186.589,321.846 181.777,321.846 178.81,318.879C172.669,312.738 162.675,302.744 156.534,296.603C153.567,293.636 153.567,288.824 156.534,285.857C163.024,279.367 173.876,268.515 180.366,262.025ZM234.107,208.285C237.074,205.318 241.886,205.318 244.853,208.285C250.994,214.426 260.988,224.42 267.129,230.561C270.096,233.528 270.096,238.34 267.129,241.307C260.639,247.797 249.787,258.649 243.297,265.139C241.872,266.564 239.939,267.364 237.924,267.364C235.909,267.364 233.976,266.564 232.551,265.139C226.41,258.997 216.416,249.004 210.275,242.862C207.308,239.895 207.308,235.083 210.275,232.116C216.765,225.626 227.617,214.775 234.107,208.285ZM287.847,154.544C290.814,151.577 295.626,151.577 298.593,154.544C304.734,160.685 314.728,170.679 320.869,176.82C323.836,179.787 323.836,184.599 320.869,187.566C314.379,194.056 303.528,204.908 297.038,211.398C294.071,214.365 289.259,214.365 286.292,211.398C280.15,205.257 270.157,195.263 264.015,189.122C262.59,187.697 261.79,185.764 261.79,183.749C261.79,181.734 262.59,179.801 264.015,178.376C270.505,171.886 281.357,161.034 287.847,154.544Z" style="fill:rgb(188,116,255);"/>
    </g>
</svg>
