<?xml version="1.0" encoding="UTF-8" standalone="no"?>
<!DOCTYPE svg PUBLIC "-//W3C//DTD SVG 1.1//EN" "http://www.w3.org/Graphics/SVG/1.1/DTD/svg11.dtd">
<svg width="100%" height="100%" viewBox="0 0 854 156" version="1.1" xmlns="http://www.w3.org/2000/svg" xmlns:xlink="http://www.w3.org/1999/xlink" xml:space="preserve" xmlns:serif="http://www.serif.com/" style="fill-rule:evenodd;clip-rule:evenodd;stroke-linejoin:round;stroke-miterlimit:2;">
    <g transform="matrix(0.3851,0.3851,-0.3851,0.3851,143.792,-170.365)">
        <path d="M384.509,237.489C384.509,237.489 463.297,314.419 489.715,334.427C491.474,335.749 492.574,337.77 492.728,339.966C492.883,342.161 492.078,344.316 490.522,345.872C477.723,358.672 450.425,385.97 441.098,395.297C438.658,397.737 434.881,398.227 431.9,396.491C424.336,392.057 414.915,381.882 414.915,381.882C414.915,381.882 416.329,425.723 385.569,456.482C354.81,487.242 327.232,490.777 293.998,457.543C260.764,424.309 279.149,382.589 327.94,333.798C341.163,320.575 335.718,309.756 331.829,305.867C327.94,301.978 317.474,289.816 302.342,304.948C289.956,317.334 292.534,329.583 295.257,335.902C296.501,338.759 295.87,342.087 293.667,344.29C284.209,353.77 260.417,377.562 249.877,388.102C248.403,389.576 246.389,390.38 244.305,390.325C242.222,390.271 240.252,389.363 238.857,387.815C226.741,374.375 205.005,336.099 268.118,272.986C348.304,192.8 384.509,237.489 384.509,237.489ZM379.205,389.165C397.472,370.898 386.365,360.576 363.545,338.095C362.329,336.887 360.558,336.425 358.907,336.886C357.256,337.346 355.979,338.658 355.564,340.321C353.564,348.37 350.449,360.691 348.022,369.295C344.132,383.084 349.082,389.165 349.082,389.165C349.082,389.165 359.76,408.611 379.205,389.165ZM180.366,262.025C183.333,259.058 188.145,259.058 191.112,262.025C197.253,268.166 207.247,278.16 213.388,284.301C216.355,287.268 216.355,292.08 213.388,295.047C206.898,301.537 196.046,312.389 189.556,318.879C186.589,321.846 181.777,321.846 178.81,318.879C172.669,312.738 162.675,302.744 156.534,296.603C153.567,293.636 153.567,288.824 156.534,285.857C163.024,279.367 173.876,268.515 180.366,262.025ZM234.107,208.285C237.074,205.318 241.886,205.318 244.853,208.285C250.994,214.426 260.988,224.42 267.129,230.561C270.096,233.528 270.096,238.34 267.129,241.307C260.639,247.797 249.787,258.649 243.297,265.139C241.872,266.564 239.939,267.364 237.924,267.364C235.909,267.364 233.976,266.564 232.551,265.139C226.41,258.997 216.416,249.004 210.275,242.862C207.308,239.895 207.308,235.083 210.275,232.116C216.765,225.626 227.617,214.775 234.107,208.285ZM287.847,154.544C290.814,151.577 295.626,151.577 298.593,154.544C304.734,160.685 314.728,170.679 320.869,176.82C323.836,179.787 323.836,184.599 320.869,187.566C314.379,194.056 303.528,204.908 297.038,211.398C294.071,214.365 289.259,214.365 286.292,211.398C280.15,205.257 270.157,195.263 264.015,189.122C262.59,187.697 261.79,185.764 261.79,183.749C261.79,181.734 262.59,179.801 264.015,178.376C270.505,171.886 281.357,161.034 287.847,154.544Z" style="fill:rgb(188,116,255);"/>
    </g>
    <g transform="matrix(14.8196,0,0,14.8196,-1512.35,-2881.13)">
        <path d="M103.137,197.237C103.137,196.865 103.217,196.515 103.377,196.187C103.537,195.859 103.751,195.572 104.019,195.326C104.287,195.08 104.595,194.886 104.943,194.744C105.291,194.602 105.655,194.531 106.035,194.531L106.155,194.531C106.291,194.531 106.396,194.572 106.47,194.654C106.544,194.736 106.581,194.849 106.581,194.993L106.581,196.139C106.581,196.287 106.542,196.41 106.464,196.508C106.386,196.606 106.283,196.655 106.155,196.655L106.035,196.655C105.951,196.655 105.871,196.67 105.795,196.7C105.719,196.73 105.651,196.771 105.591,196.823C105.531,196.875 105.483,196.936 105.447,197.006C105.411,197.076 105.393,197.153 105.393,197.237L105.393,197.927L106.335,197.927C106.471,197.927 106.576,197.964 106.65,198.038C106.724,198.112 106.761,198.229 106.761,198.389L106.761,199.487C106.761,199.659 106.724,199.785 106.65,199.865C106.576,199.945 106.471,199.985 106.335,199.985L105.393,199.985L105.393,204.287C105.393,204.439 105.342,204.554 105.24,204.632C105.138,204.71 105.027,204.749 104.907,204.749L103.611,204.749C103.467,204.749 103.352,204.704 103.266,204.614C103.18,204.524 103.137,204.415 103.137,204.287L103.137,199.985L102.519,199.985C102.379,199.985 102.266,199.945 102.18,199.865C102.094,199.785 102.051,199.659 102.051,199.487L102.051,198.389C102.051,198.229 102.094,198.112 102.18,198.038C102.266,197.964 102.379,197.927 102.519,197.927L103.137,197.927L103.137,197.237Z" style="fill:white;fill-rule:nonzero;"/>
        <path d="M117.051,197.231C117.103,197.187 117.158,197.159 117.216,197.147C117.274,197.135 117.329,197.129 117.381,197.129L118.287,197.129C118.359,197.129 118.421,197.142 118.473,197.168C118.525,197.194 118.569,197.229 118.605,197.273C118.641,197.317 118.67,197.367 118.692,197.423C118.714,197.479 118.735,197.537 118.755,197.597L118.881,198.125C118.941,198.001 119.038,197.873 119.172,197.741C119.306,197.609 119.472,197.489 119.67,197.381C119.868,197.273 120.097,197.184 120.357,197.114C120.617,197.044 120.907,197.009 121.227,197.009C121.683,197.009 122.09,197.097 122.448,197.273C122.806,197.449 123.11,197.689 123.36,197.993C123.61,198.297 123.8,198.652 123.93,199.058C124.06,199.464 124.125,199.897 124.125,200.357L124.125,204.287C124.125,204.439 124.092,204.554 124.026,204.632C123.96,204.71 123.855,204.749 123.711,204.749L122.325,204.749C122.153,204.749 122.035,204.72 121.971,204.662C121.907,204.604 121.875,204.491 121.875,204.323L121.875,200.417C121.875,200.245 121.836,200.082 121.758,199.928C121.68,199.774 121.577,199.638 121.449,199.52C121.321,199.402 121.176,199.309 121.014,199.241C120.852,199.173 120.687,199.139 120.519,199.139C120.375,199.139 120.228,199.171 120.078,199.235C119.928,199.299 119.79,199.388 119.664,199.502C119.538,199.616 119.432,199.75 119.346,199.904C119.26,200.058 119.211,200.225 119.199,200.405L119.199,204.305C119.199,204.373 119.186,204.441 119.16,204.509C119.134,204.577 119.095,204.629 119.043,204.665C118.991,204.697 118.942,204.719 118.896,204.731C118.85,204.743 118.797,204.749 118.737,204.749L117.381,204.749C117.209,204.749 117.085,204.707 117.009,204.623C116.933,204.539 116.895,204.427 116.895,204.287L116.895,197.573C116.895,197.497 116.912,197.427 116.946,197.363C116.98,197.299 117.027,197.249 117.087,197.213L117.051,197.231Z" style="fill:white;fill-rule:nonzero;"/>
        <path d="M130.467,202.379C130.575,202.487 130.692,202.578 130.818,202.652C130.944,202.726 131.065,202.786 131.181,202.832C131.297,202.878 131.399,202.911 131.487,202.931C131.575,202.951 131.635,202.961 131.667,202.961C131.743,202.961 131.84,202.958 131.958,202.952C132.076,202.946 132.189,202.928 132.297,202.898C132.405,202.868 132.498,202.819 132.576,202.751C132.654,202.683 132.693,202.587 132.693,202.463C132.693,202.351 132.671,202.262 132.627,202.196C132.583,202.13 132.519,202.074 132.435,202.028C132.351,201.982 132.248,201.941 132.126,201.905C132.004,201.869 131.867,201.827 131.715,201.779C131.235,201.651 130.839,201.497 130.527,201.317C130.215,201.137 129.968,200.936 129.786,200.714C129.604,200.492 129.477,200.253 129.405,199.997C129.333,199.741 129.297,199.471 129.297,199.187C129.297,198.855 129.363,198.553 129.495,198.281C129.627,198.009 129.815,197.776 130.059,197.582C130.303,197.388 130.595,197.238 130.935,197.132C131.275,197.026 131.653,196.973 132.069,196.973C132.321,196.973 132.557,196.994 132.777,197.036C132.997,197.078 133.207,197.144 133.407,197.234C133.607,197.324 133.802,197.44 133.992,197.582C134.182,197.724 134.371,197.893 134.559,198.089C134.627,198.169 134.662,198.244 134.664,198.314C134.666,198.384 134.621,198.459 134.529,198.539C134.373,198.667 134.224,198.793 134.082,198.917C133.94,199.041 133.793,199.179 133.641,199.331C133.593,199.371 133.545,199.396 133.497,199.406C133.449,199.416 133.403,199.415 133.359,199.403C133.315,199.391 133.273,199.371 133.233,199.343C133.193,199.315 133.157,199.281 133.125,199.241C132.985,199.085 132.825,198.98 132.645,198.926C132.465,198.872 132.297,198.845 132.141,198.845C131.945,198.845 131.789,198.879 131.673,198.947C131.557,199.015 131.503,199.119 131.511,199.259C131.519,199.363 131.558,199.444 131.628,199.502C131.698,199.56 131.784,199.607 131.886,199.643C131.988,199.679 132.096,199.708 132.21,199.73C132.324,199.752 132.429,199.777 132.525,199.805C132.885,199.921 133.215,200.047 133.515,200.183C133.815,200.319 134.075,200.486 134.295,200.684C134.515,200.882 134.686,201.119 134.808,201.395C134.93,201.671 134.991,202.007 134.991,202.403C134.991,202.799 134.912,203.153 134.754,203.465C134.596,203.777 134.379,204.039 134.103,204.251C133.827,204.463 133.5,204.625 133.122,204.737C132.744,204.849 132.337,204.905 131.901,204.905C131.653,204.905 131.401,204.883 131.145,204.839C130.889,204.795 130.641,204.724 130.401,204.626C130.161,204.528 129.933,204.402 129.717,204.248C129.501,204.094 129.309,203.907 129.141,203.687C129.097,203.631 129.064,203.572 129.042,203.51C129.02,203.448 129.01,203.387 129.012,203.327C129.014,203.267 129.026,203.212 129.048,203.162C129.07,203.112 129.105,203.069 129.153,203.033L129.927,202.259C130.023,202.179 130.108,202.151 130.182,202.175C130.256,202.199 130.351,202.267 130.467,202.379Z" style="fill:white;fill-rule:nonzero;"/>
        <path d="M136.737,195.941C136.737,195.817 136.778,195.724 136.86,195.662C136.942,195.6 137.059,195.541 137.211,195.485L138.573,195.011C138.593,195.007 138.612,195.005 138.63,195.005L138.681,195.005C138.829,195.005 138.928,195.048 138.978,195.134C139.028,195.22 139.053,195.333 139.053,195.473L139.047,197.123L139.869,197.123C139.997,197.123 140.101,197.161 140.181,197.237C140.261,197.313 140.301,197.427 140.301,197.579L140.301,198.737C140.301,198.905 140.261,199.028 140.181,199.106C140.101,199.184 139.997,199.223 139.869,199.223L139.047,199.223L139.053,204.287C139.053,204.439 139.009,204.554 138.921,204.632C138.833,204.71 138.711,204.749 138.555,204.749L137.199,204.749C136.891,204.749 136.737,204.595 136.737,204.287L136.731,199.223L136.113,199.223C135.805,199.223 135.651,199.061 135.651,198.737L135.651,197.579C135.651,197.275 135.805,197.123 136.113,197.123L136.731,197.123L136.737,195.941Z" style="fill:white;fill-rule:nonzero;"/>
        <path d="M148.503,204.647C148.451,204.691 148.396,204.719 148.338,204.731C148.28,204.743 148.225,204.749 148.173,204.749L147.267,204.749C147.195,204.749 147.133,204.736 147.081,204.71C147.029,204.684 146.985,204.649 146.949,204.605C146.913,204.561 146.883,204.511 146.859,204.455C146.835,204.399 146.815,204.341 146.799,204.281L146.673,203.693C146.613,203.817 146.513,203.948 146.373,204.086C146.233,204.224 146.06,204.351 145.854,204.467C145.648,204.583 145.411,204.679 145.143,204.755C144.875,204.831 144.583,204.869 144.267,204.869C143.811,204.869 143.407,204.781 143.055,204.605C142.703,204.429 142.406,204.189 142.164,203.885C141.922,203.581 141.739,203.226 141.615,202.82C141.491,202.414 141.429,201.981 141.429,201.521L141.429,197.591C141.429,197.439 141.462,197.324 141.528,197.246C141.594,197.168 141.699,197.129 141.843,197.129L143.229,197.129C143.401,197.129 143.519,197.158 143.583,197.216C143.647,197.274 143.679,197.387 143.679,197.555L143.679,201.461C143.679,201.633 143.712,201.796 143.778,201.95C143.844,202.104 143.933,202.24 144.045,202.358C144.157,202.476 144.288,202.569 144.438,202.637C144.588,202.705 144.747,202.739 144.915,202.739C145.059,202.739 145.215,202.715 145.383,202.667C145.551,202.619 145.707,202.544 145.851,202.442C145.995,202.34 146.115,202.209 146.211,202.049C146.307,201.889 146.355,201.697 146.355,201.473L146.355,197.573C146.355,197.505 146.368,197.437 146.394,197.369C146.42,197.301 146.459,197.249 146.511,197.213C146.563,197.181 146.612,197.159 146.658,197.147C146.704,197.135 146.757,197.129 146.817,197.129L148.173,197.129C148.345,197.129 148.469,197.171 148.545,197.255C148.621,197.339 148.659,197.451 148.659,197.591L148.659,204.305C148.659,204.381 148.642,204.451 148.608,204.515C148.574,204.579 148.527,204.629 148.467,204.665L148.503,204.647Z" style="fill:white;fill-rule:nonzero;"/>
        <path d="M150.825,197.237C150.825,196.865 150.905,196.515 151.065,196.187C151.225,195.859 151.439,195.572 151.707,195.326C151.975,195.08 152.283,194.886 152.631,194.744C152.979,194.602 153.343,194.531 153.723,194.531L153.843,194.531C153.979,194.531 154.084,194.572 154.158,194.654C154.232,194.736 154.269,194.849 154.269,194.993L154.269,196.139C154.269,196.287 154.23,196.41 154.152,196.508C154.074,196.606 153.971,196.655 153.843,196.655L153.723,196.655C153.639,196.655 153.559,196.67 153.483,196.7C153.407,196.73 153.339,196.771 153.279,196.823C153.219,196.875 153.171,196.936 153.135,197.006C153.099,197.076 153.081,197.153 153.081,197.237L153.081,197.927L154.023,197.927C154.159,197.927 154.264,197.964 154.338,198.038C154.412,198.112 154.449,198.229 154.449,198.389L154.449,199.487C154.449,199.659 154.412,199.785 154.338,199.865C154.264,199.945 154.159,199.985 154.023,199.985L153.081,199.985L153.081,204.287C153.081,204.439 153.03,204.554 152.928,204.632C152.826,204.71 152.715,204.749 152.595,204.749L151.299,204.749C151.155,204.749 151.04,204.704 150.954,204.614C150.868,204.524 150.825,204.415 150.825,204.287L150.825,199.985L150.207,199.985C150.067,199.985 149.954,199.945 149.868,199.865C149.782,199.785 149.739,199.659 149.739,199.487L149.739,198.389C149.739,198.229 149.782,198.112 149.868,198.038C149.954,197.964 150.067,197.927 150.207,197.927L150.825,197.927L150.825,197.237Z" style="fill:white;fill-rule:nonzero;"/>
        <path d="M156.027,197.237C156.027,196.865 156.107,196.515 156.267,196.187C156.427,195.859 156.641,195.572 156.909,195.326C157.177,195.08 157.485,194.886 157.833,194.744C158.181,194.602 158.545,194.531 158.925,194.531L159.045,194.531C159.181,194.531 159.286,194.572 159.36,194.654C159.434,194.736 159.471,194.849 159.471,194.993L159.471,196.139C159.471,196.287 159.432,196.41 159.354,196.508C159.276,196.606 159.173,196.655 159.045,196.655L158.925,196.655C158.841,196.655 158.761,196.67 158.685,196.7C158.609,196.73 158.541,196.771 158.481,196.823C158.421,196.875 158.373,196.936 158.337,197.006C158.301,197.076 158.283,197.153 158.283,197.237L158.283,197.927L159.225,197.927C159.361,197.927 159.466,197.964 159.54,198.038C159.614,198.112 159.651,198.229 159.651,198.389L159.651,199.487C159.651,199.659 159.614,199.785 159.54,199.865C159.466,199.945 159.361,199.985 159.225,199.985L158.283,199.985L158.283,204.287C158.283,204.439 158.232,204.554 158.13,204.632C158.028,204.71 157.917,204.749 157.797,204.749L156.501,204.749C156.357,204.749 156.242,204.704 156.156,204.614C156.07,204.524 156.027,204.415 156.027,204.287L156.027,199.985L155.409,199.985C155.269,199.985 155.156,199.945 155.07,199.865C154.984,199.785 154.941,199.659 154.941,199.487L154.941,198.389C154.941,198.229 154.984,198.112 155.07,198.038C155.156,197.964 155.269,197.927 155.409,197.927L156.027,197.927L156.027,197.237Z" style="fill:white;fill-rule:nonzero;"/>
    </g>
</svg>
