<?xml version="1.0" encoding="UTF-8" standalone="no"?>
<!DOCTYPE svg PUBLIC "-//W3C//DTD SVG 1.1//EN" "http://www.w3.org/Graphics/SVG/1.1/DTD/svg11.dtd">
<svg width="100%" height="100%" viewBox="0 0 1359 1359" version="1.1" xmlns="http://www.w3.org/2000/svg" xmlns:xlink="http://www.w3.org/1999/xlink" xml:space="preserve" xmlns:serif="http://www.serif.com/" style="fill-rule:evenodd;clip-rule:evenodd;stroke-linejoin:round;stroke-miterlimit:2;">
    <g transform="matrix(1,0,0,1,-2136.21,-320.795)">
        <path d="M2945.98,447.018C2951.16,442.808 2958.09,441.419 2964.49,443.305C3000.34,453.818 3117.96,488.426 3152.42,498.564C3158.69,500.41 3164.4,503.813 3169,508.457C3204.97,544.728 3368.91,710.032 3419.87,761.42C3423.89,765.467 3426.12,770.948 3426.08,776.649C3426.04,782.35 3423.74,787.8 3419.67,791.794C3384.63,826.195 3299.16,910.106 3264.33,944.296C3255.95,952.53 3242.49,952.47 3234.18,944.163C3209.24,919.242 3161.98,872.018 3161.98,872.018L3161.98,1538.47C3161.98,1544.15 3159.73,1549.6 3155.71,1553.62C3151.69,1557.64 3146.24,1559.9 3140.56,1559.9L2490.12,1559.9C2484.44,1559.9 2478.99,1557.64 2474.97,1553.62C2470.96,1549.6 2468.7,1544.15 2468.7,1538.47L2468.7,872.018C2468.7,872.018 2421.44,919.242 2396.5,944.163C2388.19,952.47 2374.74,952.53 2366.35,944.296C2331.52,910.106 2246.05,826.195 2211.01,791.794C2206.95,787.8 2204.64,782.35 2204.6,776.649C2204.56,770.948 2206.8,765.467 2210.81,761.42C2261.78,710.023 2425.77,544.665 2461.7,508.436C2466.29,503.806 2471.98,500.408 2478.23,498.559C2512.6,488.393 2630.02,453.665 2665.88,443.06C2672.31,441.157 2679.27,442.554 2684.47,446.792C2720.28,475.657 2765.81,492.926 2815.34,492.926C2864.76,492.926 2910.19,475.737 2945.98,447.018Z" style="fill:none;stroke:white;stroke-width:12px;"/>
    </g>
</svg>
