<?xml version="1.0" encoding="UTF-8" standalone="no"?>
<!DOCTYPE svg PUBLIC "-//W3C//DTD SVG 1.1//EN" "http://www.w3.org/Graphics/SVG/1.1/DTD/svg11.dtd">
<svg width="100%" height="100%" viewBox="0 0 1359 1359" version="1.1" xmlns="http://www.w3.org/2000/svg" xmlns:xlink="http://www.w3.org/1999/xlink" xml:space="preserve" xmlns:serif="http://www.serif.com/" style="fill-rule:evenodd;clip-rule:evenodd;stroke-linejoin:round;stroke-miterlimit:2;">
    <g transform="matrix(0.981336,0,0,0.981336,129.325,-10.2625)">
        <path d="M775.611,552.264L876.296,552.264C898.013,552.264 915.644,569.895 915.644,591.612L915.644,1343.7C915.644,1365.42 898.013,1383.05 876.296,1383.05L244.236,1383.05C222.519,1383.05 204.888,1365.42 204.888,1343.7L204.888,591.612C204.888,569.895 222.519,552.264 244.236,552.264L361.919,552.264C366.375,533.63 370.415,514.905 374.269,496.212C380.097,467.936 385.363,439.552 390.631,411.173L430.535,196.113C435.147,171.273 440.531,146.526 448.061,122.391C453.712,104.283 458.614,85.436 468.266,68.924C480.833,47.424 498.539,37.609 521.902,30.478L521.905,30.477C561.338,18.448 603.878,20.378 643.965,28.784C645.23,29.015 649.959,29.907 654.474,31.143L655.612,31.416C656.535,31.638 657.422,31.933 658.269,32.294C660.647,33.1 662.779,34 664.375,34.874L664.39,34.882C690.482,49.199 706.979,82.719 714.07,110.089C733.339,184.497 732.369,261.469 744.277,336.966C755.574,408.55 766.65,480.326 775.611,552.264ZM432.99,552.264L673.448,552.264C667.806,501.83 662.906,451.22 659.992,400.75C656.368,337.992 658.543,275.104 657.189,212.291C656.538,182.265 655.622,152.189 652.21,122.327L652.209,122.325C650.867,110.567 649.762,97.306 646.445,84.965C644.221,76.692 641.063,68.777 635.403,62.64C613.516,60.417 591.476,58.961 569.873,62.688C550.481,66.036 530.944,74.157 517.46,88.841L517.458,88.843C500.411,107.401 500.14,133.96 497.322,157.735C485.457,257.798 461.165,355.687 445.005,455.044C443.432,464.715 441.965,474.402 440.634,484.11C437.533,506.761 435.17,529.504 432.99,552.264ZM649.545,64.15L649.719,64.168L649.604,64.154L649.545,64.15Z" style="fill:rgb(27,22,50);"/>
    </g>
</svg>
